<svg version="1.2" xmlns="http://www.w3.org/2000/svg" viewBox="0 0 406 266" width="406" height="266"><defs><linearGradient id="P" gradientUnits="userSpaceOnUse"/><linearGradient id="g1" x1="-3.4" y1="266.1" x2="-3.4" y2="232.6" href="#P"><stop stop-color="#16003b"/><stop offset="1" stop-color="#22279f"/></linearGradient><linearGradient id="g2" x1="21.4" y1="255.6" x2="21.4" y2="-0.1" href="#P"><stop stop-color="#16003b"/><stop offset="1" stop-color="#2242b8"/></linearGradient><linearGradient id="g3" x1="130.5" y1="258.9" x2="130.5" y2="203.4" href="#P"><stop stop-color="#16003b"/><stop offset="1" stop-color="#22279f"/></linearGradient><radialGradient id="g4" cx="98.7" cy="140.4" r="34.2" href="#P"><stop stop-color="#ff006a"/><stop offset="1"/></radialGradient><radialGradient id="g5" cx="161.7" cy="213.4" r="37.7" href="#P"><stop stop-color="#ff006a"/><stop offset="1"/></radialGradient></defs><style>.a{fill:url(#g1)}.b{opacity:.5;mix-blend-mode:multiply;fill:#190024}.c{fill:url(#g2)}.d{opacity:.2;mix-blend-mode:soft-light;fill:#7ef1f6}.e{opacity:.5;mix-blend-mode:soft-light;fill:#7ef1f6}.f{fill:#ff72a7}.g{fill:#ffdede}.h{fill:url(#g3)}.i{fill:#1d52b1}.j{fill:#1d3490}.k{mix-blend-mode:screen;fill:url(#g4)}.l{mix-blend-mode:screen;fill:url(#g5)}</style><path class="a" d="m202.6 246.5h7.2l14.3 5.2 22.5 3.8 27.3-4.5 133.9 5.2-268.6 9.9-117.6-6.6 3.8-4-24.8-4.1 32.6-18.8 14.8 5z"/><path class="b" d="m151.5 259.5l-22.8 1.1 10.5 5.5-117.6-6.6 3.8-4-24.8-4.1 41.3-7.3 28.8 11.6 63.8-1.5z"/><path class="c" d="m172 252.4q-90.5 4.5-98.7 3.7-8.3-0.7-31.4-12l-16.5-157.8 8.2-6.4v-52.8l0.2-0.3c1.4-1.9 9.2-12.9 20.8-26.9l11.2 21.3 1.8 0.5c5.9 1.5 25.9 7.2 43.2 15.8q0.7 0.4 1.4 0.7l12.4 73.6 1.8 2.3 6 43.9 5.2 0.9z"/><path class="b" d="m47 34.6l4.7 14.6 8.7 47.6-3.5-0.4-23.3-16.5v-52.8z"/><path class="b" d="m25.4 86.3l8.2 11.1 4.9 2-2 3.9 8.2 2.5 7 101.3 2.2 1.4v9.9l6.5 4.9 10.3 32.4-28.8-11.6z"/><path class="b" d="m87.9 148.2v9.4l6.1 8.3 9.4 89.6-4.7-3.8-15.9-67.9-3.9-2.8-3.7-62 5.4 16z"/><path class="d" d="m110.8 37.5h-22.1l-17.4-6.4-7.4 3.5h-16.9l-13.4-7.5 0.2-0.3 20.8-26.9 11.2 21.3 1.8 0.5c5.9 1.5 25.9 7.2 43.2 15.8z"/><path class="e" d="m56.9 96.4l26.2 6.9-38.4 2.5-8.2-2.5 2-3.9-4.9-2-8.2-11.1 8.2-6.4z"/><path class="e" d="m80.6 135l-2.3-6.9-3.1-9.1q15.5 3.9 23.5 9.1c8.1 5.1 25.6 17.3 23.1 20.1-2.5 2.7-19.6 5.6-23.1 5.6q-3.4 0-10.8-5.6z"/><path class="b" d="m88.7 37.5l-5.6 8.7-2.7-1.7-1.5 39.3-5.1-27.5h-1.6l-0.9-25.2z"/><path class="e" d="m137.6 158.9l-5.4 11.1-8.4 2.4 6-7.7 2.6-6.7z"/><path class="f" d="m117.6 146.7c-1.6 3.4-12.9 5.3-17.5 4.9-4.7-0.5-10.3-2-12.8-8.3q-2.5-6.3-7.3-19.2c14-0.7 39.2 19.2 37.6 22.6z"/><path class="g" d="m83.8 134.2q10.1 2.7 14.9 6.2 4.9 3.6 9.5 10.5-10.4 2.2-16.3-1.9-5.8-4.1-8.1-14.8z"/><path class="d" d="m121.8 148.2l4.6 55.5-2.3 9.6-0.3 25.2-20.4 12.9-9.4-85.5-6.1-8.3v-9.4q8.2 5.3 10.8 5.6c2.6 0.3 17.5-0.9 23.1-5.6z"/><path class="d" d="m60.4 223.3l28.3-14.4 10 42.8h-28z"/><path class="d" d="m137.6 158.9l26.3 71.4-6.5-5.3-4.3-9.2-2.2 2.6-18.7-48.4z"/><path class="h" d="m134.5 254.2v-54.4q38.1-5.5 56.4 18.6l4.5 14.8 4.1 1.5 5.5 20.8q-44.8 4.6-51.9 3.9-7.1-0.8-18.6-5.2z"/><path class="f" d="m187.6 220.9c-0.3 0.6-1.4 1.4-3 2.2-4.1 2.1-11.8 4.1-20.7 1.7-6.3-1.7-14.1-7.2-19.7-12.3v-0.1c-5.6-5-9-9.6-6.6-9.9 35.2-3.5 50.9 16.3 50 18.4z"/><path class="g" d="m184.6 223.1c-4.1 2.1-11.8 4.1-20.7 1.7-6.3-1.7-14.1-7.2-19.7-12.3v-0.1q17.2-0.7 27.8 3.6c5.9 2.4 10.1 5.2 12.6 7.1z"/><path class="b" d="m140.6 212.4l5.3 10.9 2.2 6.1 1.1 18.2 2.3 0.9v11l-17-5.3v-54.4q2.3 11.3 6.1 12.6z"/><path class="e" d="m199.5 234.7l-14.9 7.2h-16.4l15.5-3.6 11.7-5.1z"/><path class="i" d="m47 105.7l-2 4.8-4.1-5.8z"/><path class="i" d="m88.7 149.2l-0.8 2.4-0.8-4.9z"/><path class="i" d="m132.2 170l1.3 3.3-4.8-2.3z"/><path class="b" d="m184.6 248.5h-11.3l14.3-4.1z"/><path class="b" d="m105.6 203.8l4 6.4-4-4z"/><path class="b" d="m66.8 177.7l-3.3 5.3 3.3-10.6z"/><path class="j" d="m173.3 248.5l10.6-1 3.7-3.1-3 4.1z"/><path class="j" d="m105.6 203.8l1.1 2.9 2.9 3.5-4-3.6z"/><path class="j" d="m67.9 178.5l-4.4 4.5 3.3-5.3v-5.3z"/><path class="d" d="m112.2 38.2l12.2 72.3-10.5-5.1h-3.9l-31.1-21.6 4.2-37.6 5.6-8.7z"/><path class="b" d="m124.6 111.8l-10.7-5.1-4.2-0.9-27.2-19.5 27.2 18.4 4.2 0.7 8.2 3.9 1.7-3.5z"/><path class="j" d="m113.9 106.7l10.7 5.1 1.8 2.3-4.3-1.6-8.1-5-4.3-1.7z"/><path class="b" d="m65.5 104.4l-1.2 1.4 0.5 11.2-3.7 1.4-9.1 37.1 8.4-37.8 3.1-1.2 0.2-11.9-25.2-5.2z"/><path class="d" d="m63.7 104.6l-0.2 11.9-3.1 1.2-8.4 39.5-3.5 3.4-3.5-50.1 2-4.8z"/><path class="j" d="m64.8 117l-0.9 1.4-2 0.6-1.7 2.8 0.9-3.4z"/><circle class="k" cx="98.7" cy="140.4" r="34.2"/><circle class="l" cx="161.7" cy="213.4" r="37.7"/></svg>