<svg version="1.2" xmlns="http://www.w3.org/2000/svg" viewBox="0 0 984 504" width="984" height="504"><defs><linearGradient id="P" gradientUnits="userSpaceOnUse"/><linearGradient id="g1" x1="-4" y1="503.9" x2="-4" y2="19.8" href="#P"><stop stop-color="#16003b"/><stop offset="1" stop-color="#221b8c"/></linearGradient><linearGradient id="g2" x1="423.4" y1="393.5" x2="423.4" y2="346.7" href="#P"><stop stop-color="#16003b"/><stop offset="1" stop-color="#221b8c"/></linearGradient><linearGradient id="g3" x1="516" y1="480.6" x2="516" y2="379.5" href="#P"><stop stop-color="#16003b"/><stop offset="1" stop-color="#221b8c"/></linearGradient><linearGradient id="g4" x1="358.9" y1="360.6" x2="358.9" y2="253" href="#P"><stop stop-color="#16003b"/><stop offset="1" stop-color="#221b8c"/></linearGradient><radialGradient id="g5" cx="164.2" cy="52.2" r="72.7" href="#P"><stop stop-color="#ff006a"/><stop offset="1"/></radialGradient><radialGradient id="g6" cx="468.4" cy="362.2" r="52.7" href="#P"><stop stop-color="#ff006a"/><stop offset="1"/></radialGradient><radialGradient id="g7" cx="577.2" cy="392.7" r="52.7" href="#P"><stop stop-color="#ff006a"/><stop offset="1"/></radialGradient><radialGradient id="g8" cx="113.3" cy="375.7" r="52.1" href="#P"><stop stop-color="#ff006a"/><stop offset="1"/></radialGradient></defs><style>.a{fill:url(#g1)}.b{opacity:.2;mix-blend-mode:overlay;fill:#fff}.c{fill:url(#g2)}.d{fill:url(#g3)}.e{opacity:.5;mix-blend-mode:soft-light;fill:#5fcccc}.f{fill:#ff72a7}.g{fill:url(#g4)}.h{fill:#1d46c5}.i{fill:#ffdede}.j{opacity:.5;mix-blend-mode:multiply;fill:#190024}.k{fill:#1d1d7a}.l{fill:#1d3490}.m{opacity:.1;mix-blend-mode:multiply;fill:#190024}.n{opacity:.2;mix-blend-mode:soft-light;fill:#5fcccc}.o{fill:#5fcccc}.p{mix-blend-mode:screen;fill:url(#g5)}.q{mix-blend-mode:screen;fill:url(#g6)}.r{mix-blend-mode:screen;fill:url(#g7)}.s{mix-blend-mode:screen;fill:url(#g8)}</style><path fill-rule="evenodd" class="a" d="m985.1 470.7q-395.4 1.2-587 4.3c-43.5 0.8-76.5 1.6-92 2.5q-36.8 2.1-204.8 26l-101.3 0.4v-183.2l20-10.1 9.7-10 30.5-71.7 5.8-3 16.1-91.9 10.5-11.3 18.9-75.6q6.8-11.6 25.3-27.3h0.1c3 1 51 16.9 85 35.5l36.8 32.7 12.3 41.8 14 7 56.2 141h14l10.2 31.5 6.7-1.5 26 39.9q240.5 78.9 271.2 99.7zm-674.4-242.7l-31.3-38.6-7.4-3.1-5.3 49.8-44 37.9 9.4 14.4 71.3-10.4v-0.1l7.3-25.9z"/><path class="b" d="m413.8 340.7l-3.9 2.3-7.5-2.3z"/><path class="b" d="m369.1 360.7l3 7.8-18.3-15.8z"/><path class="c" d="m427.4 362l14-15.3 55.1 16.6 14.1 22.4 5 7.8q-63.5-2.2-70.5-6.8-7-4.7-17.7-24.7z"/><path class="d" d="m520 476.2l19.4-93q27.1-5.9 43.2-4.5c16.2 1.3 30.2 20.2 32.4 23.8q2.3 3.5 0 50.5h5.2l4.6 19.6q-36.3 7.9-45.2 8.4-8.8 0.5-59.6-4.8z"/><path class="e" d="m190.3 76.5l14.5 7.5-68-10.8v-53.4h0.1c3 1 51 16.9 85 35.5l36.8 32.7z"/><path class="e" d="m285 136.8l-18.2 17.8-110.5 24.9 53-16.8h-19l62-13.7 18.7-19.2z"/><path class="e" d="m303.4 278h7.4l19.1 5.1-103.1 13.6h-53.5l34.5-8.4h24.3z"/><path class="e" d="m355.2 277.8l-18.4 5.3 4.4-5.3z"/><path class="e" d="m372.1 307.8l-42.2 24.2-58.8 6 36.3-5.7 25.4-10.3h-15l28.2-6 19.4-6.7z"/><path class="e" d="m430.7 358.5l-3.3 6.5-17.3-4.4-12-12.9z"/><path class="e" d="m496.5 363.3l-1.2 10.7q-35.5 0.7-50.2-13.4l-3.7-13.9z"/><path class="e" d="m588.5 379.9q15.8 4.7 26.5 22.6-7.2 5.2-15.3 5.8c-8.2 0.6-42.9-7.8-49.3-13q-6.3-5.1-11-12.1 33.2-8 49.1-3.3z"/><path class="e" d="m329.9 399.2l23.9-5.7 48.6 3.1-13.6 2.6 47 4.8 54.7 13.8-107.7 3.5 6.3-3-30-10-60.7-9.1h-46.8l47.8-2.6z"/><path class="e" d="m822.8 460.3l-177.9-5.5 24.4-7.4z"/><path class="e" d="m150.8 200h22.5l60.1 8.8-41.3 13.2-18.8-13.5z"/><path class="f" d="m546.9 385.5q25.5-7 39.4-3c13.8 3.9 24.5 18.5 24.5 19.8 0 1.4-18.9 4.2-29.9 1.4-11-2.9-28.1-9.5-29.3-10.2q-1.2-0.7-4.7-8z"/><path class="f" d="m489.7 364.8c0 2.4 0.9 3.8 0 4.5-0.9 0.6-13 1.5-20.9 0-7.8-1.6-16.4-7.4-17.8-8.6-1.5-1.1-3-7.7-3.1-9.6q41.9 11.3 41.8 13.7z"/><path class="g" d="m404.3 343l5.8 17.6q-17.3-1.4-47.2-18.8l2.5-32.5 0.1-48.5q5.6-8.8 13.4-8.3 7.7 0.5 8.9 5.2l4.2 69z"/><path class="e" d="m377 253.3q8.3-1.3 10.8 4.4-3.8 5.3-11 6-7.3 0.8-11.3-2.9 3.1-6.1 11.5-7.5z"/><path class="h" d="m368.1 260.8q2.7-4.1 7.3-5.3 4.5-1.3 10.5 1.8-3.1 5.1-9.2 5.2-6.2 0.1-8.6-1.7z"/><path class="i" d="m554.8 394.8q15.1 0 22.4 0.5 7.3 0.6 27.1 8.8-11.4 2.3-21.5 0-10-2.4-28-9.3z"/><path class="i" d="m451 360.7q12.3 0 19.3 1.3 7 1.3 15.5 7.9-10.3 1-15.8-0.4c-5.5-1.5-14.5-5.1-19-8.8z"/><path class="j" d="m92.6 122.7l44.2-49.5 60.9 73.1 7.1-62.3-14.5-7.5 24 4 12.3 74.1-34.5 7.7 17.2 0.4-53 16.8-19.5 10-40.3-6.8v-45z"/><path class="j" d="m398.1 475c-43.5 0.8-76.5 1.6-92 2.5q-36.8 2.1-168.8 20.6l19-124.1c-12.5-6.5-27.7-9.8-43-9.5l-24.5-139.5 62-25 22.5 8.5 18.8 13.5-16.4 82-2.4-56.8-7.9 36.3-9.1 13.2 2.3 18.1-7.8 36.3 100.8 48.1h46.8l26.9 55.1 4.6-49.2 29.2 3.2 30 10-6.3 3 1.3 23.7 7.9 8.9z"/><path class="j" d="m336.8 283.1l-26-5.1-7.3-0.1 7.3-25.9v-24l-31.4-38.7-7.4-3.1-5.2 49.8-23-73.3 34.6 20.6 27 31 13.9 8.6-3.9 33.2z"/><path class="j" d="m329.9 332v67.2l-30.5-2.6-24-59z"/><path class="j" d="m365.5 260.8l5.5 2.6 2.8 42.1-10.9 36.3-9.1-23.5 11.7-6.7z"/><path class="j" d="m445.1 360.6l-9.1 20.6-8.6-16.2 3.3-6.5 10.7-11.8z"/><path class="j" d="m550.4 395.3l4.4 26v18.8l4.1 4.4-4.1 35-34.8-3.3 19.4-93z"/><path class="j" d="m604.3 476.9l20.5-12.9 4.5 6.4 86-6.4 44 6.4-134.5 2.2z"/><path class="j" d="m460.8 418.8l3.6 5.9-8.4-5.8-14.6-3.9z"/><path class="j" d="m577.2 443l10.6 10.9h-5.3z"/><path class="j" d="m231.1 294.7l-4.5 11.8-3.8-9.8z"/><path class="k" d="m581.4 451l6.4 2.9h-8.9l-1.7-10.9z"/><path class="k" d="m456 418.9l8.4 5.8-13.4-5.6-9.6-4.1z"/><path class="k" d="m231.1 294.7l-4.2 2.8-0.3 9-3.8-9.8z"/><path class="l" d="m332 330.8l-2.1 7.2-8.3-5.2z"/><path class="l" d="m385.3 421.3l2.5 6.2-3.7 17.5-1.3-23.7z"/><path class="l" d="m599.7 408.3q1.5 0.2 6.6-1.5-5.5 3.7-6.6 4.5-1.2 0.8-9.3-3.9 7.8 0.7 9.3 0.9z"/><path class="l" d="m495.3 374l1.2 4.4-4.2-4.4z"/><path class="e" d="m404.3 343l-8.5-5-6.4-3.6 2.6-7.7z"/><path class="j" d="m385.9 296.7l-0.6-4.2 2.5-9.4z"/><path class="k" d="m387.8 283.1l0.9 6.1-2.8 7.5z"/><path class="l" d="m195.9 220.8l-4.4 4.2-1.8-4.8z"/><path class="j" d="m136.8 352.7l14-1.6q79.5 16.9 93 19.1 13.5 2.3 45.8 2.3 40.3 4.4 40.3 3.7c0-0.7 33.6-17.6 35.6-17.4q2 0.2 44.6 1.8l-44.4-0.3q-34.5 17.6-35.8 17.6c-1.2 0-38.6-3.9-39.8-4.2-1.2-0.4-39.9-1.5-46.4-2.5-6.5-1-91.4-18.6-93.4-18.6q-2 0-29.5 4.8z"/><path class="j" d="m136.8 228.7q47.9 30.3 48 30.2c0-0.2 42.8-31.2 46.3-31.7 3.9-0.7 27.8 1.5 31.1 1.4q3.6-0.2 6-6-1.3 6.6-3.2 7.9c-1.8 1.2-31.9-3.4-33.9-3-1.9 0.4-45 33.1-46.7 33.3q-1.8 0.2-47.6-28.6z"/><path class="f" d="m136.8 24.3q36.5 12.1 48.5 16.1c12 4 47.9 29.6 49 31.8 1.1 2.3-39.5 1.4-55.3-0.8q-15.7-2.3-66.8-8c1.7-15.6 10.6-24.9 24.6-39.1z"/><path class="i" d="m136.8 41.7c12.9 0.3 42 13.5 48.7 17.5q6.8 4 17.4 14-11.6 0.1-28.1-2.5-16.6-2.5-62.6-7.3 11.8-21.9 24.6-21.7z"/><g style="opacity:.5"><path class="m" d="m539.9 471.6c-0.2-0.9-0.4-1.7-0.5-2.6-0.2-1-0.2-2-0.3-3q-0.3-11.3-0.7-22.6c-0.1 3.9-0.1 8 1.3 11.7 0.4 1 0.9 2.1 0.9 3.2 0 0.7-0.1 1.3-0.1 2-0.1 1.4 0.5 2.9 1.5 3.9 1-1 1.1-2.6 1.1-4 0.3-10.5 1.2-21.1 2.2-31.6q0.4-5.3 0.9-10.6-0.1 5.4-0.2 10.7c0 0.5 0 1-0.1 1.4-0.1 0.3-0.3 0.6-0.4 0.9-0.1 0.3-0.1 0.7 0 1.1q0.5 3.7 1 7.4c0.2 1.5 0.3 3.2-0.8 4.3-0.2 0.2-0.4 0.3-0.5 0.6-0.2 0.4 0.1 0.8 0.2 1.2 0.9 2 0.2 4.1-0.2 6.2-0.3 2.1-0.2 4.2-0.2 6.3q0.1 3 0.2 6c0.1 0.7 0.1 1.5 0.5 2.1 0.6 0.8 1.9 1.1 2.2 2.1 0.1 0.4-0.1 0.9-0.2 1.3-0.5 2.2 0.2 4.4 1 6.5q0.5 1.6 1 3.2c-0.1-0.4-3.8-0.6-4.2-0.6-1.3-0.1-2.9 0.2-4.2-0.1-1.5-0.3-1-1-1-2.5 0-1.5-0.1-3-0.4-4.5z"/><path class="m" d="m526.8 473c0.7-0.1 0.9-1.1 0.9-1.8q0.2-7.2 0.3-14.4c0-0.8 0-1.7 0.5-2.3 0.4-0.7 1.4-1 2-0.4q0.1 5.2 0.2 10.4c-0.5-0.2-1 0.2-1.3 0.6-0.2 0.5-0.2 1-0.2 1.5 0.1 3.5 0.6 7 0.6 10.6-0.7-0.7-1.8-0.5-2.4-1-0.7-0.6-0.5-2.4-0.6-3.2z"/><path class="m" d="m532.5 437.6c0.1-0.7 0.2-1.4 0.4-2 0.3-0.6 0.6-1.1 0.9-1.6 3.8-6 2.6-13.9 5.2-20.4-0.2 7.7-0.9 15.4-2.3 23q-1.6 0.6-3.1 1.2-0.1 5.3-0.2 10.6c-1.3 0.5-1.9 1.6-2.5 2.7-0.2-2.1 0.5-4.7 0.8-6.8q0.4-3.4 0.8-6.7z"/><path class="m" d="m539.4 412.1c-0.1-1 0-2 0.3-3q0.3 0 0.7 0-0.2 1.6-0.2 3.2-0.3-0.2-0.7-0.3z"/><path class="m" d="m557.9 431c1 0.2 1.2 2.9 1.3 3.6 0.1 0.8 0.2 1.7-0.1 2.5-0.2 0.7-0.8 1.3-0.7 2.1q-0.4-2.2-0.8-4.4-0.4-0.1-0.7-0.2c0.1-0.8 0.1-3.7 1-3.6z"/><path class="m" d="m563.2 449.2c0.3 1.5 0.5 3 0.8 4.5 0.3 2.5 0.1 5-0.8 7.3 1.6 1.5 2.5 3.7 2.5 5.9 0.6-0.1 1.3-0.4 1.6-1 0.8 1.2 1.3 2.5 1.5 3.9 0.1 1.1 0.1 2.2 0.3 3.3 0.4 1.6 1.2 3 2.4 4 2.5-1.1 5.6-0.5 7.6 1.4-0.1-2 0-3.9 0.4-5.7 0.7 0.1 1.4-0.1 1.9-0.4 0.5 2.6 0.7 5.3 0.5 8-4.3 1.5-9 0.8-13.4 0-0.2-0.1-0.4-0.1-0.5-0.2-0.1-0.1-0.2-0.3-0.2-0.5q-0.9-3.9-1.7-7.8-0.5 0.2-1 0.5-0.5-3.9-1-7.8-0.7-0.2-1.4-0.2c0.2 0-0.6-13.9 0.5-15.2z"/></g><path class="e" d="m598.4 478v-33l3.1-5.8-1.8-27.9 6.6-4.5 8.7-4.3v50.5l-4.2 4.5z"/><path class="l" d="m597 446.2c0.2-1.4 1-3 2-3.9 1.3 1.9-0.7 5.6-1.3 7.7 0.2-0.7-0.9-2.7-0.7-3.8z"/><path class="l" d="m405.7 448c0-0.3 0.3-0.5 0.6-0.4 0.3 0.1 0.5 0.3 0.6 0.6q1.3 1.8 2.6 3.6c-1.5-0.6-2.7-1.7-3.4-3.1z"/><path class="j" d="m147.2 432.6l3.7-29.5-4.1 19 16.1-22.8 15.8-25.3-13 26.6-3.1 2.1-19.6 52.8 10.1-12.1-7.7 15.5 0.5 15.6 28.7-42.7 2.1-12.2 25.3-30.5-23.6 42.7-41.1 66.3z"/><path class="j" d="m136.8 189.5l-31.5-5.3 30.2-45.9-2-36 3 3.8 4.8 21 0.4-14.5 3.2 25.5 2.1-2.7-0.6-3.7 0.8-3.1 1.8 16.4 5.1 14.6-0.2-8.9-2-2.3 1.2-5.2 8.7 32.8z"/><path class="j" d="m456 418.9l10.8-0.9-2.4 1.8 7.1 19.4 3.8 9.2 9 5.5-10.1-4.2-2.7-3.9-5-14.5-2.1-6.6z"/><path class="n" d="m490.5 417.8l4.9 37.2h-5.3l-5.8-1.1-9-5.5-10.9-28.6 2.4-1.8z"/><path class="j" d="m306.7 222.9l8.6 2.1 4-2.1-1.7 3.6-4.6 2.3-2.2-0.8z"/><path class="j" d="m217.3 214l-1.4-4.9 0.9-0.7 2.3-1.7 14.3 2.1-13.5-1.3-1.9 2.8 2.7 2.6 2.1 12.1z"/><path class="n" d="m233.4 208.8l-2 13.2-4.8 1.9-3.8 1.1-2.1-12.1-2.7-2.6 1.9-2.8z"/><g style="opacity:.5;mix-blend-mode:soft-light"><path class="o" d="m354.4 393.8c-0.2 0.1-0.6 0-0.6-0.3 0.6-0.6 1.6-0.5 2.3 0 0.6 0.6 0.9 1.4 1 2.2 0.1 1.5-0.4 3.1-1.6 4.1-1.2 1-2.9 1.2-4.2 0.4-0.6-0.3-1-0.8-1.1-1.5 0-0.3 0.2-0.6 0.3-0.9 0.8-1.8 2-3.4 3.5-4.7z"/><path class="o" d="m362.9 393.9c0-1.1 1.8-1.6 2.6-0.8 0.8 0.8 0.5 2.3-0.3 3-0.9 0.7-2.2 0.8-3.3 0.5-0.2-1.1 0.1-2.3 0.9-3.1z"/><path class="o" d="m359.8 403.8q0 0.1 0 0.1c0.5-0.2 1.3 0.2 1.4 0.8 0 0.1 0 0.3-0.2 0.3 0 0-0.1-0.1-0.1-0.1-0.4-0.2-0.8 0.3-1.2 0.2q-0.1 0-0.1 0 0-0.1 0-0.2 0-0.6 0.2-1.1z"/><path class="o" d="m334.8 390q-0.1 0.2-0.1 0.3c1-0.5 2.5 0.3 2.7 1.5 0 0.2-0.1 0.5-0.3 0.5-0.1 0-0.2-0.1-0.4-0.2-0.6-0.4-1.3 0.5-2.1 0.4q-0.1 0-0.2-0.1-0.1-0.1-0.1-0.2 0-1.1 0.4-2.2z"/><path class="o" d="m316 382.8q-0.1 0.1-0.2 0.3c1.1-0.5 2.6 0.2 2.7 1.4 0.1 0.2 0 0.5-0.2 0.5-0.2 0-0.3-0.1-0.4-0.1-0.6-0.4-1.4 0.5-2.1 0.4q-0.2 0-0.3-0.1 0-0.1 0-0.3 0-1.1 0.4-2.1z"/><path class="o" d="m354.4 407.9q-0.1 0-0.2 0.1c0.3 0.1 0.6 0.3 0.6 0.6 0.1 0.2-0.1 0.5-0.3 0.6-0.2 0.1-0.5 0.1-0.7 0.1-0.1-0.5 0.1-1.1 0.5-1.4z"/><path class="o" d="m357.7 409.5c0.2 0.2 0.2 0.6 0 0.7-0.1 0.1-0.4 0.1-0.4 0.3q0 0.1 0 0.2 0 0.9 0.1 1.9-0.4-0.4-0.9-0.7c-0.1-0.1-0.2-0.2-0.3-0.4 0-0.1 0-0.2 0.1-0.4 0.2-0.8 0.6-3.3 1.4-1.6z"/><path class="o" d="m369.1 425.8c0.1 0.3 0.1 0.6-0.1 0.8-0.1 0.1-0.4 0.1-0.4 0.3q0 0 0 0.1 0.1 1 0.1 2-0.4-0.5-0.9-0.8c-0.1-0.1-0.2-0.2-0.3-0.3 0-0.1 0-0.3 0.1-0.4 0.2-0.8 0.6-3.3 1.5-1.7z"/><path class="o" d="m344.9 416.9c0.1 0.2 0.4-0.1 0.6-0.2 0.3-0.1 0.8 0.3 0.7 0.7-0.1 0.3-0.5 0.6-0.9 0.6q0-0.3 0-0.6z"/><path class="o" d="m342.4 407.9c0.3-0.4 1.1-0.4 1.3 0.1 0.3 0.5-0.2 1.2-0.7 1.1-0.6 0-0.9-0.7-0.6-1.2z"/><path class="o" d="m340 399.4c-0.1-0.5-0.2-1 0.2-1.2 0.4-0.2 0.8 0.2 1 0.5 0.1 0.2 0.2 0.3 0.2 0.5-0.2 0.4-0.9 0-1.2 0.3-0.1 0-0.1-0.2 0-0.2z"/><path class="o" d="m360.8 385.8c0.2-0.3 0.8-0.4 1.1-0.2 0.4 0.2 0.6 0.6 0.8 1q0 0.1 0 0.3 0 0.3-0.1 0.5c-0.4 0.5-1.3 0.3-1.6-0.2-0.3-0.6-0.2-1.3 0-1.8z"/><path class="o" d="m353.7 367.9c0.5-0.4 1.6-0.5 2.2-0.2 0.7 0.3 0.7 1.3 1.6 1.5 0.1 0 0.2 0.1 0.3 0.2 0.1 0.1 0.1 0.3 0 0.5-0.2 0.7-0.5 1.5-1.2 1.7-0.4 0.1-0.9 0-1.3 0.2-0.2 0.1-0.3 0.3-0.5 0.3-0.1 0.1-0.3 0-0.5-0.1-1.6-0.6-2-3-0.6-4.1z"/><path class="o" d="m357.6 402.4q0-0.2 0.1-0.5c0.3 0.3 0.4 0.7 0.4 1.1 0 0.3 0 0.5-0.2 0.6-0.1 0.1-0.3 0-0.5 0-0.3 0.1-0.6 0.4-0.9 0.2-0.1-0.2-0.1-0.4 0-0.5 0.1-0.2 0.2-0.3 0.4-0.4q0.5-0.3 1-0.6z"/><path class="o" d="m363.6 401.1c0.4-0.2 0.9-0.3 1.3-0.1-0.1 0.3-0.3 0.7-0.6 0.8-0.3 0.1-0.7-0.2-0.5-0.5z"/><path class="o" d="m361.8 406.2c-0.1-0.3 0.1-0.5 0.3-0.6 0.2-0.1 0.5-0.1 0.7-0.1 0.3 0 0.6 0.1 0.7 0.3 0.2 0.2 0.3 0.5 0 0.7-0.2 0.1-0.5-0.1-0.8-0.1-0.2 0.1-0.5 0.4-0.7 0.3-0.2-0.1-0.3-0.2-0.3-0.4 0-0.2 0.1-0.3 0.1-0.5z"/><path class="o" d="m361.3 407.9c0.1-0.1 0.3-0.1 0.4 0 0.1 0.1 0.1 0.3 0.1 0.5q0 0.1-0.1 0.2c-0.1 0.2-0.4 0.2-0.5 0.1-0.2-0.1-0.2-0.4-0.1-0.6 0.2-0.1 0.4-0.2 0.6 0z"/><path class="o" d="m381.8 417c0.1-0.2 0.3-0.1 0.4 0 0.1 0.1 0.2 0.3 0.1 0.4q0 0.2 0 0.3c-0.1 0.2-0.4 0.2-0.6 0.1-0.2-0.2-0.2-0.4 0-0.6 0.1-0.2 0.4-0.2 0.5-0.1z"/><path class="o" d="m359 407.4c0.2-0.1 0.4 0.1 0.4 0.2 0 0.2-0.2 0.4-0.3 0.4-0.2 0-0.4 0-0.5-0.1-0.1-0.3 0.3-0.6 0.6-0.5z"/><path class="o" d="m337.4 413.8c0.2-0.1 0.4 0 0.4 0.2 0 0.2-0.2 0.3-0.3 0.3-0.2 0.1-0.4 0-0.5 0-0.1-0.3 0.3-0.7 0.6-0.5z"/><path class="o" d="m352.2 405c0.3-0.1 0.7 0 0.8 0.2 0.2 0.3 0.2 0.7-0.1 0.8-0.1 0.1-0.3 0-0.5 0q-0.4 0-0.9-0.1c0-0.3 0.3-0.7 0.7-0.9z"/><path class="o" d="m346.6 397.1q0-0.9 0-1.8c0.3-0.1 0.5 0.3 0.6 0.6 0.1 0.3 0.1 0.6 0 0.9-0.1 0.3-0.4 0.5-0.7 0.3z"/><path class="o" d="m347.1 388c0.3 0 0.6-0.1 0.9 0 0.2 0.1 0.5 0.4 0.4 0.7 0 0.2-0.1 0.3-0.3 0.4-0.4 0.3-0.9 0.3-1.2 0-0.3-0.4-0.1-1 0.3-1.1z"/><path class="o" d="m340.3 401.7c0.3-0.3 0.8-0.1 0.9 0.3 0 0.4-0.4 0.7-0.7 0.8-0.3 0-0.6 0-0.9-0.2 0.1-0.4 0.5-0.7 0.9-0.8z"/><path class="o" d="m343.6 399.2c0.2-0.2 0.5-0.3 0.8-0.2q0 0.5 0 0.9c-0.4 0.2-0.9-0.1-1-0.5z"/><path class="o" d="m352 388.4c-0.1-1.5 2.7-1.3 3.6-1.8 0.5-0.3 1.1-0.7 1.5-0.5 0.4 0.3 0.4 0.9 0.3 1.4-0.1 0.2-0.1 0.3-0.2 0.4-0.1 0.1-0.2 0.1-0.3 0.2q-0.7 0.2-1.4 0.4c-0.8 0.3-3.5 1.5-3.5-0.1z"/><path class="o" d="m348 391.2q0-0.2 0-0.4c0.2 0.1 0.5 0.1 0.7 0.3 0.3 0.1 0.4 0.4 0.3 0.7-0.1 0.3-0.5 0.4-0.6 0.1q-0.3-0.3-0.3-0.7z"/><path class="o" d="m365 405.2c0.2-0.2 0.5-0.2 0.7-0.1 0.2 0 0.3 0.3 0.4 0.5 0 0.2-0.1 0.3-0.3 0.3q-0.1 0-0.2-0.1-0.3-0.2-0.6-0.5 0-0.1 0.1-0.1z"/><path class="o" d="m369.4 406.6c0.1 0.3 0.5 0.2 0.8 0.2 0.2-0.1 0.6-0.2 0.8 0q0.1 0.1 0.1 0.2c-0.1 0.2-0.3 0.2-0.5 0.3-0.2 0-0.3 0.1-0.4 0.2-0.4 0.2-0.8 0.2-1.1 0-0.1-0.2-0.1-0.5 0.1-0.6 0.1-0.2 0.3-0.2 0.5-0.2z"/><path class="o" d="m368.4 409.3c0.1-0.2 0.3-0.2 0.4-0.1 0.2 0.1 0.2 0.3 0 0.5-0.1 0.1-0.3 0.1-0.5 0q0.1-0.2 0.1-0.4z"/><path class="o" d="m374.4 414.2c0-0.1 0.3-0.2 0.4-0.1 0.2 0.1 0.2 0.4 0 0.5-0.1 0.1-0.3 0.1-0.5 0q0.1-0.2 0.1-0.3z"/><path class="o" d="m356.8 407.1c0.2-0.2 0-0.4-0.2-0.5-0.2-0.1-0.4 0-0.7-0.1-0.2 0-0.4-0.2-0.5-0.4 0-0.1-0.1-0.2 0-0.3q0.1-0.1 0.2-0.2c0.4-0.2 0.8-0.3 1.2-0.2 0.5 0 0.9 0.3 1 0.7 0.1 0.3 0 0.6-0.2 0.8-0.3 0.2-0.6 0.3-0.9 0.2z"/><path class="o" d="m334.4 426.1c0.1-0.1-0.1-0.4-0.3-0.5-0.2 0-0.4 0-0.6 0-0.2-0.1-0.4-0.2-0.5-0.4-0.1-0.1-0.1-0.3 0-0.4q0-0.1 0.2-0.1c0.4-0.2 0.8-0.4 1.2-0.3 0.4 0 0.8 0.3 0.9 0.7 0.1 0.3 0 0.6-0.2 0.8-0.2 0.2-0.5 0.3-0.8 0.2z"/><path class="o" d="m352 410.1q0.3 0.4 0.7 0.7c0.1 0.1 0.1 0.1 0.1 0.2 0 0.1-0.1 0.2-0.2 0.2-0.3 0-0.6-0.1-0.8-0.3-0.1-0.2-0.1-0.6 0.2-0.7z"/><path class="o" d="m340.2 417q0.9 0.3 1.5 0.9c0.2 0.2 0.4 0.5 0.4 0.7 0 0.6-0.7 0.8-1.2 0.8-0.4 0-0.8 0-1.1-0.2-0.4-0.3-0.4-0.8-0.8-1.1-0.2-0.1-0.6-0.3-0.5-0.6 0.1-0.1 0.2-0.1 0.3-0.2 0.6-0.3 1.4-0.3 2-0.1z"/><path class="o" d="m329.6 399.1q0.4 0.8 0.5 1.7c0 0.2 0 0.3 0 0.4-0.1 0.1-0.3 0.1-0.4 0.1q-0.5 0-1 0c-0.3 0-0.8-0.1-0.8-0.5-0.1-0.2 0.1-0.5 0.2-0.7 0.3-0.3 0.7-0.7 1.1-0.4z"/><path class="o" d="m340.3 391.8c-2.5-2.9-5.5 0.2-4.1 3.1 1.5 3 6.2-0.7 4.1-3.1z"/><path class="o" d="m360.5 398c0.5-0.2 1.1 0.2 1.1 0.7-0.4 0.2-0.8 0.3-1.2 0.1-0.4-0.1-0.7-0.6-0.5-0.9q0.3-0.2 0.6-0.3z"/><path class="o" d="m373.2 398.8q-0.5 0-0.9 0c0-0.9 0.6-1.7 1.4-2 0.8-0.2 1.7-0.1 2.4 0.4 0.6 0.3 1.1 1.1 0.7 1.6-0.2 0.3-0.6 0.4-1 0.4-0.3-0.1-0.7-0.2-1-0.3q-1-0.3-2.1-0.2 0-0.3 0-0.6z"/><path class="o" d="m373.7 404.4q-0.3-0.1-0.6-0.2c0.7-0.5 2.1-0.5 3.3-0.4 0.4 0 0.7 0 1 0.1 0.3 0.1 0.5 0.3 0.3 0.5-0.2 0.1-0.7 0.1-1.1 0.2q-1.1 0-2.2 0c-0.3 0-0.7 0-1-0.1-0.2-0.1-0.3-0.3-0.1-0.4z"/><path class="o" d="m372.9 408.1c0.1-0.1 0.2-0.1 0.3 0 0.1 0.1 0.2 0.2 0.2 0.3q0 0.2 0 0.3c-0.1 0.2-0.3 0.4-0.5 0.3-0.2 0-0.4-0.2-0.4-0.3q-0.1-0.2 0-0.3c0-0.1 0.1-0.2 0.2-0.1z"/><path class="o" d="m356.8 418.8c0.2 0 0.3-0.1 0.5 0 0.1 0 0.3 0.1 0.3 0.3 0 0.1 0 0.2-0.1 0.3-0.4 0.7-1.5 0.8-2.1 0.3-0.1-0.1-0.2-0.2-0.2-0.4q0.8-0.3 1.6-0.5z"/><path class="o" d="m359.5 410.4q0.3 0 0.7-0.1 0.1 0 0.1 0c0.2 0.1 0.2 0.4 0 0.5-0.2 0-0.4 0-0.5 0q0-0.2 0-0.4z"/><path class="o" d="m347.4 409.5c0.4-0.1 0.9 0.2 1 0.6 0.1 0.4-0.2 0.9-0.7 0.9q-0.2 0.1-0.4 0c-0.2-0.1-0.3-0.5-0.3-0.7 0.1-0.3 0.2-0.6 0.4-0.8z"/><path class="o" d="m333.2 412.7c-0.1-0.4 0.4-0.8 0.8-0.6q0.1 0.3 0.1 0.7c-0.2 0.1-0.5 0-0.7-0.1z"/><path class="o" d="m333.9 405.7c0.1-0.2 0.3-0.4 0.5-0.4 0.1 0.3 0 0.6-0.2 0.7-0.2 0.1-0.5-0.3-0.2-0.4z"/><path class="o" d="m363.4 390.6c0.3 0.1 0.4 0.4 0.3 0.7q-0.2 0-0.4 0 0-0.3 0-0.6z"/><path class="o" d="m321 365.8c0.3 0.1 0.5 0.4 0.4 0.7q-0.3 0.1-0.5 0 0-0.3 0-0.6z"/><path class="o" d="m339.1 383.4c-0.2-0.6 0-1.3 0.5-1.8q0.1-0.1 0.2-0.2c0.1 0 0.2 0.1 0.3 0.2 0.5 0.5 1.1 1.3 0.8 2-0.3 0.5-1.3 0.6-1.6 0.1q0.1-0.3 0.2-0.6z"/><path class="o" d="m379.7 368.2c-0.2-0.7 0-1.4 0.5-1.9q0.1-0.1 0.2-0.1c0.1 0 0.2 0.1 0.3 0.2 0.5 0.5 1.1 1.2 0.8 1.9-0.3 0.6-1.3 0.7-1.6 0.1q0.1-0.3 0.2-0.6z"/></g><g style="opacity:.5;mix-blend-mode:soft-light"><path class="o" d="m308.9 306.9c-0.2 0.1-0.5 0-0.5-0.3 0.6-0.6 1.6-0.5 2.2 0 0.7 0.6 1 1.4 1.1 2.2 0.1 1.6-0.5 3.1-1.6 4.1-1.2 1-3 1.2-4.3 0.4-0.5-0.3-1-0.8-1-1.4 0-0.4 0.1-0.7 0.3-1 0.8-1.8 2-3.4 3.5-4.7z"/><path class="o" d="m328.7 295.4c0.1-1.1 1.8-1.7 2.6-0.9 0.8 0.8 0.5 2.3-0.3 3.1-0.9 0.7-2.2 0.8-3.3 0.5-0.2-1.1 0.1-2.4 1-3.2z"/><path class="o" d="m325.6 305.3q0 0 0 0.1c0.5-0.3 1.3 0.2 1.4 0.8 0 0.1 0 0.2-0.1 0.3-0.1 0-0.2-0.1-0.2-0.1-0.4-0.3-0.8 0.2-1.2 0.2q0 0-0.1-0.1 0 0 0-0.1 0-0.6 0.2-1.1z"/><path class="o" d="m170.4 182.1q-0.1 0.2-0.2 0.3c1.1-0.5 2.6 0.3 2.7 1.5 0.1 0.2 0 0.5-0.2 0.5-0.2 0-0.3-0.1-0.4-0.2-0.6-0.4-1.4 0.5-2.1 0.4q-0.2 0-0.3-0.1 0-0.1 0-0.2 0-1.1 0.4-2.2z"/><path class="o" d="m151.5 174.9q0 0.1-0.1 0.3c1.1-0.5 2.5 0.2 2.7 1.4 0 0.2 0 0.5-0.3 0.5-0.1 0-0.2-0.1-0.3-0.1-0.7-0.4-1.4 0.5-2.2 0.4q-0.1 0-0.2-0.1-0.1-0.1-0.1-0.3 0.1-1.1 0.4-2.1z"/><path class="o" d="m320.2 309.4q-0.1 0-0.2 0.1c0.3 0.1 0.6 0.3 0.7 0.6 0 0.2-0.2 0.4-0.4 0.5-0.2 0.2-0.5 0.2-0.7 0.2-0.1-0.5 0.1-1.1 0.5-1.5z"/><path class="o" d="m323.6 311c0.1 0.2 0.1 0.5-0.1 0.7-0.1 0.1-0.4 0.1-0.4 0.3q0 0.1 0 0.1 0.1 1 0.1 2-0.4-0.4-0.9-0.8c-0.1-0.1-0.2-0.2-0.3-0.3 0-0.1 0-0.3 0.1-0.4 0.2-0.8 0.6-3.3 1.5-1.6z"/><path class="o" d="m204.6 217.9c0.1 0.3 0.2 0.6 0 0.8-0.1 0.1-0.4 0.1-0.4 0.3q-0.1 0-0.1 0.1 0.1 1 0.2 2-0.4-0.5-0.9-0.8c-0.1-0.1-0.2-0.2-0.3-0.3 0-0.1 0-0.3 0-0.4 0.3-0.8 0.7-3.3 1.5-1.7z"/><path class="o" d="m180.5 209c0.1 0.2 0.4-0.1 0.6-0.2 0.3-0.1 0.7 0.3 0.7 0.7-0.1 0.3-0.5 0.6-0.9 0.6q0-0.3 0-0.6z"/><path class="o" d="m178 200c0.3-0.4 1.1-0.4 1.3 0.1 0.2 0.5-0.2 1.2-0.8 1.1-0.5 0-0.8-0.7-0.6-1.2z"/><path class="o" d="m175.6 191.5c-0.1-0.5-0.2-1 0.2-1.2 0.4-0.2 0.8 0.2 1 0.5 0.1 0.2 0.2 0.3 0.2 0.5-0.2 0.4-1 0-1.2 0.3-0.1 0-0.1-0.2 0-0.2z"/><path class="o" d="m196.4 177.9c0.2-0.3 0.7-0.4 1.1-0.2 0.4 0.2 0.6 0.6 0.7 1q0.1 0.1 0.1 0.3 0 0.3-0.2 0.5c-0.3 0.5-1.2 0.3-1.5-0.2-0.4-0.6-0.2-1.3 0-1.8z"/><path class="o" d="m291.2 292.8c0.5-0.4 1.6-0.5 2.1-0.2 0.7 0.4 0.7 1.3 1.6 1.5 0.1 0.1 0.3 0.1 0.3 0.2 0.2 0.1 0.1 0.3 0.1 0.5-0.2 0.7-0.6 1.6-1.3 1.8-0.4 0.1-0.9-0.1-1.3 0.2-0.1 0.1-0.3 0.2-0.4 0.3-0.2 0-0.4-0.1-0.6-0.1-1.5-0.7-2-3.1-0.5-4.2z"/><path class="o" d="m323.4 303.9q0-0.3 0.1-0.5c0.3 0.2 0.4 0.7 0.4 1.1 0 0.2 0 0.5-0.2 0.6-0.1 0.1-0.3 0-0.5 0-0.3 0-0.6 0.3-0.9 0.1-0.1-0.1-0.1-0.3 0-0.5 0.1-0.1 0.3-0.2 0.4-0.3q0.5-0.3 1-0.6z"/><path class="o" d="m329.4 302.6c0.4-0.3 0.9-0.3 1.3-0.1-0.1 0.3-0.3 0.7-0.6 0.8-0.3 0.1-0.7-0.3-0.5-0.5z"/><path class="o" d="m327.6 307.6c0-0.2 0.1-0.5 0.3-0.6 0.2-0.1 0.5-0.1 0.7 0 0.3 0 0.6 0 0.8 0.2 0.1 0.2 0.2 0.6-0.1 0.7-0.2 0.2-0.5 0-0.8 0-0.2 0.1-0.5 0.3-0.7 0.3-0.2-0.1-0.3-0.3-0.3-0.4 0-0.2 0.1-0.3 0.1-0.5z"/><path class="o" d="m327.1 309.4c0.1-0.1 0.3-0.1 0.4 0 0.1 0.1 0.1 0.3 0.1 0.4q0 0.2-0.1 0.3c-0.1 0.2-0.3 0.2-0.5 0.1-0.2-0.2-0.2-0.4-0.1-0.6 0.2-0.2 0.4-0.2 0.6-0.1z"/><path class="o" d="m347.6 318.4c0.1-0.1 0.3-0.1 0.4 0 0.1 0.2 0.2 0.3 0.2 0.5q0 0.1-0.1 0.2c-0.1 0.2-0.4 0.3-0.6 0.1-0.1-0.1-0.2-0.4 0-0.5 0.1-0.2 0.4-0.2 0.5-0.1z"/><path class="o" d="m324.8 308.9c0.2-0.1 0.4 0 0.4 0.2 0 0.2-0.1 0.3-0.3 0.4-0.2 0-0.4 0-0.5-0.1-0.1-0.3 0.3-0.6 0.6-0.5z"/><path class="o" d="m173 205.9c0.1-0.1 0.3 0 0.3 0.2 0.1 0.2-0.1 0.3-0.3 0.3-0.1 0.1-0.3 0-0.5 0 0-0.3 0.4-0.7 0.7-0.5z"/><path class="o" d="m187.8 197.1c0.3-0.1 0.6 0 0.8 0.2 0.2 0.3 0.1 0.7-0.1 0.8-0.2 0.1-0.3 0-0.5 0q-0.5 0-1-0.1c0.1-0.3 0.4-0.7 0.7-0.9z"/><path class="o" d="m182.2 189.2q0-0.9 0-1.8c0.3-0.1 0.5 0.3 0.6 0.6 0 0.3 0.1 0.6 0 0.9-0.1 0.3-0.5 0.5-0.7 0.3z"/><path class="o" d="m182.7 180.1c0.3 0 0.6-0.1 0.8 0 0.3 0.1 0.5 0.4 0.5 0.7 0 0.2-0.2 0.3-0.3 0.4-0.4 0.3-0.9 0.3-1.2 0-0.3-0.4-0.1-1 0.3-1z"/><path class="o" d="m175.9 193.8c0.2-0.3 0.8-0.1 0.8 0.3 0.1 0.4-0.3 0.7-0.7 0.8-0.3 0-0.6 0-0.8-0.2 0.1-0.4 0.4-0.7 0.8-0.7z"/><path class="o" d="m179.2 191.3c0.2-0.2 0.5-0.3 0.7-0.2q0 0.5 0 0.9c-0.4 0.2-0.9-0.1-0.9-0.5z"/><path class="o" d="m187.6 180.5c-0.1-1.5 2.7-1.3 3.6-1.8 0.5-0.3 1-0.7 1.5-0.5 0.4 0.3 0.4 0.9 0.2 1.4 0 0.2 0 0.3-0.1 0.4-0.1 0.1-0.2 0.2-0.4 0.2q-0.6 0.2-1.3 0.5c-0.8 0.2-3.5 1.4-3.5-0.2z"/><path class="o" d="m183.6 183.3q0-0.2-0.1-0.4c0.3 0.1 0.6 0.1 0.8 0.3 0.2 0.1 0.4 0.4 0.3 0.7-0.1 0.3-0.5 0.4-0.7 0.1q-0.2-0.3-0.3-0.7z"/><path class="o" d="m330.9 306.7c0.1-0.2 0.4-0.2 0.6-0.2 0.2 0.1 0.4 0.3 0.4 0.6 0 0.1-0.1 0.3-0.3 0.3q-0.1 0-0.2-0.1-0.3-0.3-0.6-0.6 0 0 0.1-0.1z"/><path class="o" d="m335.2 308.1c0.1 0.2 0.5 0.2 0.8 0.1 0.2 0 0.6-0.1 0.8 0.1q0.1 0.1 0.1 0.2c-0.1 0.2-0.3 0.2-0.5 0.2-0.2 0.1-0.3 0.2-0.4 0.3-0.4 0.2-0.8 0.2-1.1-0.1-0.1-0.2-0.1-0.4 0.1-0.5 0.1-0.2 0.4-0.2 0.5-0.2z"/><path class="o" d="m334.2 310.8c0.1-0.2 0.3-0.3 0.5-0.2 0.1 0.2 0.1 0.4 0 0.5-0.2 0.1-0.4 0.1-0.5 0q0-0.1 0-0.3z"/><path class="o" d="m340.2 315.7c0-0.2 0.3-0.2 0.4-0.1 0.2 0.1 0.2 0.3 0 0.5-0.1 0.1-0.3 0.1-0.5 0q0.1-0.2 0.1-0.4z"/><path class="o" d="m322.6 308.6c0.2-0.2 0-0.5-0.2-0.5-0.2-0.1-0.4-0.1-0.6-0.1-0.3 0-0.5-0.2-0.6-0.4 0-0.1-0.1-0.2 0-0.4q0.1-0.1 0.2-0.1c0.4-0.2 0.8-0.3 1.3-0.3 0.4 0.1 0.8 0.4 0.9 0.8 0.1 0.2 0 0.6-0.2 0.8-0.2 0.2-0.6 0.3-0.9 0.2z"/><path class="o" d="m169.9 218.2c0.2-0.1 0-0.4-0.2-0.5-0.2 0-0.4 0-0.6 0-0.2-0.1-0.4-0.2-0.6-0.4 0-0.1 0-0.3 0-0.4q0.1-0.1 0.2-0.1c0.4-0.2 0.8-0.4 1.3-0.3 0.4 0 0.8 0.3 0.9 0.7 0.1 0.3 0 0.6-0.2 0.8-0.2 0.2-0.6 0.3-0.8 0.2z"/><path class="o" d="m187.6 202.2q0.3 0.4 0.7 0.7c0 0.1 0.1 0.1 0.1 0.2 0 0.1-0.2 0.2-0.3 0.2-0.2 0-0.5-0.1-0.7-0.3-0.1-0.2-0.1-0.5 0.1-0.7z"/><path class="o" d="m175.8 209.1q0.8 0.4 1.5 0.9c0.2 0.2 0.4 0.5 0.4 0.7 0 0.6-0.7 0.8-1.2 0.8-0.4 0-0.8 0-1.1-0.2-0.4-0.3-0.5-0.8-0.8-1.1-0.2-0.1-0.6-0.3-0.5-0.6 0-0.1 0.1-0.1 0.2-0.2 0.7-0.3 1.4-0.3 2.1-0.1z"/><path class="o" d="m165.1 191.2q0.5 0.8 0.6 1.7c0 0.2 0 0.3-0.1 0.4-0.1 0.1-0.2 0.1-0.4 0.1q-0.4 0-0.9 0c-0.3 0-0.8-0.1-0.9-0.5-0.1-0.2 0.1-0.5 0.3-0.7 0.2-0.3 0.7-0.7 1-0.4z"/><path class="o" d="m175.8 183.9c-2.4-2.9-5.5 0.2-4 3.1 1.5 3 6.2-0.6 4-3.1z"/><path class="o" d="m326.3 299.5c0.5-0.3 1.1 0.2 1.1 0.7-0.4 0.1-0.8 0.2-1.2 0.1-0.4-0.1-0.7-0.6-0.5-1q0.3-0.1 0.7-0.2z"/><path class="o" d="m239.7 168.8q-0.4 0-0.8 0c0-0.9 0.6-1.7 1.4-2 0.8-0.2 1.7-0.1 2.4 0.4 0.6 0.3 1.1 1.1 0.7 1.6-0.2 0.3-0.6 0.4-1 0.4-0.3 0-0.7-0.2-1-0.3q-1-0.3-2.1-0.2 0-0.3 0-0.6z"/><path class="o" d="m339.5 305.9q-0.3-0.1-0.5-0.3c0.6-0.4 2-0.5 3.2-0.4 0.4 0 0.7 0.1 1 0.2 0.3 0.1 0.5 0.3 0.3 0.4-0.2 0.2-0.7 0.2-1.1 0.2q-1.1 0-2.2 0c-0.3 0-0.7 0-0.9-0.1-0.3 0-0.4-0.3-0.2-0.3z"/><path class="o" d="m338.7 309.6c0.1-0.1 0.2-0.1 0.3 0 0.1 0.1 0.2 0.2 0.2 0.3q0 0.2 0 0.3c-0.1 0.2-0.3 0.3-0.5 0.3-0.2 0-0.4-0.2-0.4-0.4q-0.1-0.1 0-0.3c0 0 0.1-0.1 0.2-0.1z"/><path class="o" d="m376.1 307c0-1.1 1.7-1.6 2.5-0.8 0.8 0.8 0.6 2.2-0.3 3-0.8 0.7-2.1 0.8-3.2 0.5-0.2-1.1 0.1-2.3 0.9-3.1z"/><path class="o" d="m376.8 314.2c0.4-0.3 0.9-0.3 1.3-0.1-0.1 0.3-0.3 0.7-0.6 0.8-0.3 0.1-0.7-0.2-0.5-0.5z"/><path class="o" d="m395 330.1c0.1-0.2 0.3-0.1 0.4 0 0.1 0.1 0.1 0.2 0.1 0.4q0 0.1 0 0.3c-0.2 0.1-0.4 0.2-0.6 0-0.2-0.1-0.2-0.4-0.1-0.5 0.2-0.2 0.4-0.2 0.6-0.1z"/><path class="o" d="m378.2 318.3c0.2-0.2 0.4-0.2 0.7-0.1 0.2 0 0.3 0.3 0.3 0.5 0 0.1-0.1 0.3-0.2 0.3q-0.1 0-0.2-0.1-0.3-0.3-0.7-0.5 0.1-0.1 0.1-0.1z"/><path class="o" d="m382.5 319.7c0.2 0.3 0.6 0.2 0.8 0.2 0.3-0.1 0.6-0.2 0.9 0q0.1 0.1 0 0.2c0 0.2-0.3 0.2-0.5 0.3-0.1 0-0.2 0.1-0.4 0.2-0.3 0.2-0.7 0.2-1 0-0.1-0.2-0.1-0.5 0.1-0.6 0.1-0.2 0.3-0.2 0.5-0.2z"/><path class="o" d="m381.6 322.4c0-0.2 0.3-0.3 0.4-0.1 0.2 0.1 0.2 0.3 0 0.4-0.1 0.2-0.3 0.2-0.5 0.1q0.1-0.2 0.1-0.4z"/><path class="o" d="m387.6 327.3c0-0.2 0.3-0.2 0.4-0.1 0.1 0.1 0.1 0.4 0 0.5-0.1 0.1-0.4 0.1-0.5 0q0-0.2 0.1-0.3z"/><path class="o" d="m386.9 317.5q-0.3-0.1-0.6-0.2c0.6-0.5 2.1-0.5 3.3-0.5 0.3 0.1 0.7 0.1 1 0.2 0.3 0.1 0.5 0.3 0.3 0.4-0.2 0.2-0.7 0.2-1.1 0.2q-1.1 0-2.2 0.1c-0.4 0-0.7 0-1-0.1-0.2-0.1-0.3-0.3-0.1-0.4z"/><path class="o" d="m386.1 321.2c0-0.1 0.2-0.1 0.3 0 0.1 0.1 0.1 0.2 0.2 0.3q0 0.2-0.1 0.3c0 0.2-0.2 0.3-0.4 0.3-0.2 0-0.4-0.2-0.5-0.3q0-0.2 0-0.3c0.1-0.1 0.2-0.2 0.3-0.1z"/><path class="o" d="m573.5 437.1c0-1.1 1.7-1.7 2.5-0.9 0.8 0.9 0.6 2.3-0.3 3.1-0.9 0.7-2.1 0.8-3.2 0.5-0.3-1.1 0.1-2.4 0.9-3.2z"/><path class="o" d="m574.2 444.3c0.3-0.3 0.9-0.3 1.3-0.1-0.2 0.3-0.3 0.7-0.6 0.8-0.3 0.1-0.8-0.3-0.6-0.5z"/><path class="o" d="m592.3 460.1c0.1-0.1 0.3-0.1 0.5 0.1 0.1 0.1 0.1 0.2 0.1 0.4q0 0.1-0.1 0.2c-0.1 0.2-0.4 0.3-0.5 0.1-0.2-0.1-0.2-0.4-0.1-0.5 0.1-0.2 0.4-0.2 0.6-0.1z"/><path class="o" d="m575.6 448.4c0.1-0.2 0.4-0.2 0.6-0.2 0.2 0.1 0.4 0.3 0.4 0.6 0 0.1-0.1 0.3-0.3 0.3q0 0-0.1-0.1-0.4-0.3-0.7-0.5 0.1-0.1 0.1-0.1z"/><path class="o" d="m579.9 449.8c0.2 0.2 0.5 0.2 0.8 0.1 0.3 0 0.6-0.1 0.8 0.1q0.1 0.1 0.1 0.2c0 0.2-0.3 0.2-0.5 0.3-0.1 0-0.3 0.1-0.4 0.2-0.3 0.2-0.8 0.2-1.1-0.1-0.1-0.1 0-0.4 0.1-0.5 0.2-0.2 0.4-0.2 0.6-0.2z"/><path class="o" d="m578.9 452.5c0.1-0.2 0.4-0.3 0.5-0.2 0.1 0.2 0.1 0.4 0 0.5-0.1 0.2-0.4 0.1-0.5 0q0-0.1 0.1-0.3z"/><path class="o" d="m584.9 457.4c0.1-0.2 0.3-0.2 0.5-0.1 0.1 0.1 0.1 0.3 0 0.5-0.2 0.1-0.4 0.1-0.5 0q0-0.2 0-0.4z"/><path class="o" d="m584.2 447.6q-0.2-0.1-0.5-0.3c0.6-0.4 2.1-0.5 3.3-0.4 0.3 0.1 0.7 0.1 1 0.2 0.3 0.1 0.4 0.3 0.3 0.4-0.2 0.2-0.7 0.2-1.1 0.2q-1.1 0-2.3 0c-0.3 0-0.6 0-0.9-0.1-0.3 0-0.4-0.3-0.1-0.3z"/><path class="o" d="m583.4 451.3c0.1-0.1 0.3-0.1 0.4 0 0.1 0.1 0.1 0.2 0.1 0.3q0.1 0.2 0 0.3c0 0.2-0.3 0.3-0.5 0.3-0.2 0-0.3-0.2-0.4-0.4q-0.1-0.1 0-0.2c0.1-0.1 0.2-0.2 0.3-0.2z"/><path class="o" d="m322.6 320.3c0.2 0 0.3-0.1 0.5-0.1 0.1 0.1 0.3 0.2 0.3 0.3 0.1 0.1 0 0.3-0.1 0.4-0.4 0.6-1.5 0.8-2.1 0.3-0.1-0.1-0.2-0.3-0.2-0.4q0.8-0.3 1.6-0.5z"/><path class="o" d="m325.3 311.9q0.3-0.1 0.7-0.1 0.1 0 0.2 0c0.1 0.1 0.1 0.4-0.1 0.4-0.2 0.1-0.3 0.1-0.5 0q0-0.1 0-0.3z"/><path class="o" d="m482 405c-0.2 0.2-0.6 0-0.6-0.2 0.6-0.6 1.7-0.5 2.3 0 0.6 0.5 1 1.4 1 2.2 0.2 1.5-0.4 3.1-1.6 4.1-1.1 0.9-2.9 1.2-4.2 0.4-0.5-0.3-1-0.9-1-1.5 0-0.3 0.1-0.6 0.2-0.9 0.8-1.8 2-3.5 3.6-4.7z"/><path class="o" d="m501.8 393.6c0-1.2 1.7-1.7 2.5-0.9 0.8 0.8 0.6 2.3-0.3 3-0.8 0.8-2.1 0.8-3.2 0.5-0.3-1.1 0.1-2.3 0.9-3.1z"/><path class="o" d="m498.7 403.4q0 0.1-0.1 0.2c0.6-0.3 1.4 0.1 1.5 0.7 0 0.2-0.1 0.3-0.2 0.3-0.1 0-0.1 0-0.2-0.1-0.3-0.2-0.7 0.3-1.1 0.3q-0.1-0.1-0.1-0.1-0.1-0.1-0.1-0.1 0.1-0.6 0.2-1.2z"/><path class="o" d="m493.3 407.5q-0.1 0.1-0.3 0.1c0.3 0.1 0.7 0.3 0.7 0.6 0 0.3-0.1 0.5-0.3 0.6-0.2 0.1-0.5 0.1-0.7 0.2-0.1-0.6 0.1-1.1 0.4-1.5z"/><path class="o" d="m496.6 409.1c0.1 0.3 0.2 0.6 0 0.8-0.1 0.1-0.4 0.1-0.4 0.2q-0.1 0.1-0.1 0.2 0.1 1 0.2 1.9-0.4-0.4-0.9-0.7c-0.1-0.1-0.2-0.2-0.3-0.3 0-0.2 0-0.3 0-0.5 0.3-0.7 0.7-3.3 1.5-1.6z"/><path class="o" d="m464.2 391c0.5-0.4 1.6-0.5 2.2-0.2 0.7 0.3 0.7 1.3 1.6 1.5 0.1 0 0.2 0.1 0.3 0.2 0.1 0.1 0.1 0.3 0 0.5-0.2 0.7-0.5 1.5-1.2 1.7-0.4 0.1-0.9 0-1.3 0.2-0.2 0.1-0.3 0.3-0.5 0.3-0.2 0.1-0.3 0-0.5-0.1-1.6-0.6-2-3-0.6-4.1z"/><path class="o" d="m496.5 402q0-0.2 0-0.4c0.4 0.2 0.5 0.7 0.5 1.1 0 0.2 0 0.5-0.2 0.6-0.2 0-0.3 0-0.5 0-0.3 0-0.7 0.3-0.9 0.1-0.1-0.1-0.1-0.4 0-0.5 0.1-0.2 0.2-0.3 0.4-0.3q0.5-0.3 1-0.6z"/><path class="o" d="m502.5 400.8c0.4-0.3 0.9-0.4 1.3-0.1-0.1 0.3-0.3 0.6-0.6 0.7-0.3 0.2-0.7-0.2-0.6-0.5z"/><path class="o" d="m500.7 405.8c-0.1-0.2 0.1-0.5 0.3-0.6 0.2-0.1 0.4-0.1 0.7-0.1 0.2 0.1 0.5 0.1 0.7 0.3 0.2 0.2 0.2 0.6 0 0.7-0.2 0.1-0.5-0.1-0.8 0-0.3 0-0.5 0.3-0.7 0.2-0.2 0-0.3-0.2-0.3-0.4 0-0.1 0-0.3 0.1-0.4z"/><path class="o" d="m500.1 407.6c0.1-0.2 0.3-0.1 0.4 0 0.2 0.1 0.2 0.2 0.2 0.4q0 0.1-0.1 0.3c-0.1 0.1-0.4 0.2-0.6 0-0.1-0.1-0.1-0.4 0-0.5 0.1-0.2 0.4-0.2 0.6-0.1z"/><path class="o" d="m520.7 416.6c0.1-0.1 0.3-0.1 0.4 0 0.1 0.1 0.1 0.3 0.1 0.4q0 0.2-0.1 0.3c-0.1 0.2-0.3 0.2-0.5 0.1-0.2-0.1-0.2-0.4-0.1-0.6 0.2-0.1 0.4-0.2 0.6-0.1z"/><path class="o" d="m497.9 407c0.1 0 0.4 0.1 0.4 0.3 0 0.1-0.2 0.3-0.3 0.3-0.2 0.1-0.4 0-0.6 0 0-0.4 0.4-0.7 0.7-0.5z"/><path class="o" d="m503.9 404.8c0.2-0.1 0.4-0.2 0.6-0.1 0.3 0.1 0.4 0.3 0.4 0.5 0 0.2-0.1 0.4-0.2 0.4q-0.1-0.1-0.2-0.1-0.3-0.3-0.7-0.6 0.1 0 0.1-0.1z"/><path class="o" d="m508.2 406.3c0.2 0.2 0.5 0.2 0.8 0.1 0.3-0.1 0.6-0.2 0.8 0q0.1 0.1 0.1 0.2c0 0.2-0.3 0.2-0.5 0.3-0.1 0.1-0.2 0.2-0.4 0.3-0.3 0.2-0.8 0.1-1.1-0.1 0-0.2 0-0.4 0.1-0.6 0.2-0.1 0.4-0.2 0.6-0.1z"/><path class="o" d="m507.3 408.9c0-0.1 0.3-0.2 0.4-0.1 0.2 0.1 0.1 0.4 0 0.5-0.1 0.1-0.3 0.1-0.5 0q0-0.2 0.1-0.3z"/><path class="o" d="m513.3 413.9c0-0.2 0.3-0.3 0.4-0.2 0.1 0.2 0.1 0.4 0 0.5-0.1 0.1-0.4 0.1-0.5 0q0-0.1 0.1-0.3z"/><path class="o" d="m495.7 406.7c0.1-0.1 0-0.4-0.2-0.5-0.2 0-0.5 0-0.7 0-0.2-0.1-0.4-0.2-0.5-0.4-0.1-0.1-0.1-0.3 0-0.4q0.1-0.1 0.2-0.1c0.4-0.2 0.8-0.4 1.2-0.3 0.4 0 0.9 0.3 1 0.7 0 0.3 0 0.6-0.3 0.8-0.2 0.2-0.5 0.3-0.8 0.2z"/><path class="o" d="m499.3 397.6c0.5-0.2 1.2 0.2 1.2 0.8-0.4 0.1-0.8 0.2-1.2 0.1-0.5-0.2-0.8-0.6-0.6-1q0.4-0.1 0.7-0.3z"/><path class="o" d="m512.6 404q-0.3-0.1-0.6-0.2c0.6-0.5 2.1-0.5 3.3-0.4 0.3 0 0.7 0 1 0.1 0.3 0.1 0.5 0.3 0.3 0.5-0.2 0.2-0.7 0.2-1.1 0.2q-1.1 0-2.2 0c-0.4 0-0.7 0-1-0.1-0.3-0.1-0.4-0.3-0.1-0.4z"/><path class="o" d="m511.8 407.8c0-0.1 0.2-0.1 0.3 0 0.1 0 0.1 0.2 0.1 0.3q0.1 0.1 0 0.3c0 0.2-0.2 0.3-0.4 0.3-0.2-0.1-0.4-0.2-0.5-0.4q0-0.2 0-0.3c0.1-0.1 0.2-0.1 0.3-0.1z"/><path class="o" d="m495.7 418.5c0.1-0.1 0.3-0.1 0.4-0.1 0.2 0 0.4 0.1 0.4 0.3 0 0.1 0 0.2-0.1 0.3-0.4 0.7-1.5 0.9-2.1 0.3-0.1-0.1-0.2-0.2-0.2-0.4q0.7-0.3 1.5-0.4z"/><path class="o" d="m498.4 410q0.3 0 0.6 0 0.1-0.1 0.2 0c0.2 0.1 0.1 0.3 0 0.4-0.2 0.1-0.4 0-0.6 0q0.1-0.2 0.1-0.4z"/><path class="o" d="m182.9 201.6c0.4-0.1 0.9 0.2 1 0.6 0.1 0.4-0.2 0.9-0.6 0.9q-0.2 0.1-0.4 0c-0.3-0.1-0.4-0.5-0.3-0.7 0-0.3 0.2-0.6 0.3-0.8z"/><path class="o" d="m168.8 204.8c-0.1-0.4 0.4-0.8 0.8-0.6q0.1 0.3 0.1 0.7c-0.2 0.1-0.5 0-0.7-0.1z"/><path class="o" d="m169.5 197.8c0-0.2 0.3-0.4 0.5-0.4 0.1 0.3 0 0.6-0.2 0.7-0.3 0.1-0.5-0.3-0.3-0.4z"/><path class="o" d="m199 182.7c0.2 0.1 0.4 0.4 0.3 0.7q-0.2 0-0.4 0 0-0.3 0-0.6z"/><path class="o" d="m156.6 157.9c0.3 0.1 0.4 0.5 0.3 0.7q-0.2 0.1-0.4 0 0-0.3 0-0.6z"/><path class="o" d="m174.7 175.5c-0.2-0.6 0-1.3 0.5-1.8q0-0.1 0.2-0.2c0.1 0 0.2 0.1 0.3 0.2 0.5 0.5 1.1 1.3 0.8 2-0.3 0.6-1.3 0.6-1.6 0.1q0.1-0.3 0.2-0.6z"/><path class="o" d="m267.5 321.4c-0.2-0.6 0-1.4 0.5-1.9q0.1-0.1 0.2-0.1c0.1 0 0.2 0.1 0.3 0.2 0.5 0.5 1.1 1.3 0.8 1.9-0.3 0.6-1.3 0.7-1.6 0.2q0.1-0.3 0.2-0.6z"/><path class="o" d="m71.7 444.4c-0.2 0.2-0.6 0-0.6-0.2 0.6-0.6 1.7-0.5 2.3 0 0.7 0.5 1 1.4 1 2.2 0.2 1.5-0.4 3.1-1.6 4.1-1.1 0.9-2.9 1.1-4.2 0.4-0.5-0.3-1-0.9-1-1.5 0-0.3 0.1-0.6 0.2-0.9 0.8-1.8 2-3.5 3.6-4.7z"/><path class="o" d="m91.5 432.9c0-1.1 1.7-1.6 2.5-0.8 0.8 0.8 0.6 2.3-0.3 3-0.8 0.8-2.1 0.8-3.2 0.5-0.3-1.1 0.1-2.3 0.9-3.1z"/><path class="o" d="m88.4 442.8q0 0.1-0.1 0.2c0.6-0.3 1.4 0.1 1.5 0.7 0 0.1-0.1 0.3-0.2 0.3-0.1 0-0.1 0-0.2-0.1-0.3-0.2-0.7 0.3-1.1 0.2q-0.1 0-0.1 0-0.1-0.1-0.1-0.2 0.1-0.5 0.3-1.1z"/><path class="o" d="m83 446.9q-0.1 0.1-0.3 0.1c0.3 0.1 0.7 0.3 0.7 0.6 0 0.3-0.1 0.5-0.3 0.6-0.2 0.1-0.5 0.1-0.7 0.2-0.1-0.6 0.1-1.1 0.4-1.5z"/><path class="o" d="m86.3 448.5c0.1 0.3 0.2 0.6 0 0.7-0.1 0.2-0.4 0.2-0.4 0.3q-0.1 0.1-0.1 0.2 0.1 1 0.2 1.9-0.4-0.4-0.9-0.7c-0.1-0.1-0.2-0.2-0.3-0.3 0-0.2 0-0.3 0.1-0.5 0.2-0.7 0.6-3.3 1.4-1.6z"/><path class="o" d="m53.9 430.4c0.5-0.4 1.6-0.5 2.2-0.2 0.7 0.3 0.7 1.3 1.6 1.5 0.1 0 0.2 0.1 0.3 0.1 0.1 0.2 0.1 0.4 0 0.6-0.2 0.7-0.5 1.5-1.2 1.7-0.4 0.1-0.9 0-1.3 0.2-0.2 0.1-0.3 0.3-0.5 0.3-0.2 0.1-0.3 0-0.5-0.1-1.6-0.6-2-3-0.6-4.1z"/><path class="o" d="m86.2 441.4q0-0.2 0.1-0.4c0.3 0.2 0.4 0.6 0.4 1.1 0 0.2 0 0.5-0.2 0.6-0.2 0-0.3 0-0.5 0-0.3 0-0.7 0.3-0.9 0.1-0.1-0.1-0.1-0.4 0-0.5 0.1-0.2 0.2-0.3 0.4-0.4q0.5-0.3 1-0.5z"/><path class="o" d="m92.2 440.2c0.4-0.3 0.9-0.4 1.3-0.1-0.1 0.3-0.3 0.6-0.6 0.7-0.3 0.1-0.7-0.2-0.5-0.5z"/><path class="o" d="m90.4 445.2c-0.1-0.2 0.1-0.5 0.3-0.6 0.2-0.1 0.5-0.1 0.7-0.1 0.3 0.1 0.5 0.1 0.7 0.3 0.2 0.2 0.2 0.5 0 0.7-0.2 0.1-0.5-0.1-0.8 0-0.3 0-0.5 0.3-0.7 0.2-0.2 0-0.3-0.2-0.3-0.4 0-0.1 0.1-0.3 0.1-0.4z"/><path class="o" d="m89.8 446.9c0.1-0.1 0.3-0.1 0.4 0.1 0.2 0.1 0.2 0.2 0.2 0.4q0 0.1-0.1 0.3c-0.1 0.1-0.4 0.2-0.5 0-0.2-0.1-0.2-0.4-0.1-0.5 0.1-0.2 0.4-0.2 0.6-0.1z"/><path class="o" d="m110.4 456c0.1-0.1 0.3-0.1 0.4 0 0.1 0.1 0.1 0.3 0.1 0.4q0 0.2-0.1 0.3c-0.1 0.2-0.3 0.2-0.5 0.1-0.2-0.2-0.2-0.4-0.1-0.6 0.2-0.2 0.4-0.2 0.6-0.1z"/><path class="o" d="m87.6 446.4c0.2 0 0.4 0.1 0.4 0.3 0 0.1-0.2 0.3-0.3 0.3-0.2 0.1-0.4 0-0.5 0-0.1-0.4 0.3-0.7 0.6-0.5z"/><path class="o" d="m93.6 444.2c0.2-0.1 0.4-0.2 0.7-0.1 0.2 0.1 0.3 0.3 0.3 0.5 0 0.2-0.1 0.4-0.2 0.4q-0.1-0.1-0.2-0.1-0.3-0.3-0.7-0.6 0.1 0 0.1-0.1z"/><path class="o" d="m97.9 445.7c0.2 0.2 0.6 0.2 0.8 0.1 0.3-0.1 0.6-0.2 0.9 0q0 0.1 0 0.2c0 0.2-0.3 0.2-0.5 0.3-0.1 0.1-0.2 0.2-0.4 0.3-0.3 0.2-0.7 0.1-1-0.1-0.1-0.2-0.1-0.4 0-0.6 0.2-0.1 0.4-0.2 0.6-0.1z"/><path class="o" d="m97 448.3c0-0.1 0.3-0.2 0.4-0.1 0.2 0.1 0.2 0.4 0 0.5-0.1 0.1-0.3 0.1-0.5 0q0.1-0.2 0.1-0.3z"/><path class="o" d="m103 453.3c0-0.2 0.3-0.3 0.4-0.2 0.1 0.1 0.1 0.4 0 0.5-0.1 0.1-0.4 0.1-0.5 0q0-0.1 0.1-0.3z"/><path class="o" d="m85.4 446.1c0.1-0.1 0-0.4-0.2-0.5-0.2 0-0.5 0-0.7 0-0.2-0.1-0.4-0.2-0.5-0.4-0.1-0.1-0.1-0.3 0-0.4q0.1-0.1 0.2-0.1c0.4-0.2 0.8-0.4 1.2-0.3 0.4 0 0.9 0.3 1 0.7 0 0.3 0 0.6-0.3 0.8-0.2 0.2-0.5 0.3-0.8 0.2z"/><path class="o" d="m89 437c0.5-0.2 1.2 0.2 1.2 0.8-0.4 0.1-0.8 0.2-1.2 0.1-0.4-0.2-0.8-0.6-0.6-1q0.4-0.1 0.7-0.3z"/><path class="o" d="m102.3 443.4q-0.3-0.1-0.6-0.2c0.6-0.5 2.1-0.5 3.3-0.4 0.3 0 0.7 0 1 0.1 0.3 0.1 0.5 0.3 0.3 0.5-0.2 0.1-0.7 0.2-1.1 0.2q-1.1 0-2.2 0c-0.4 0-0.7 0-1-0.1-0.3-0.1-0.4-0.3-0.1-0.4z"/><path class="o" d="m101.5 447.2c0-0.1 0.2-0.1 0.3-0.1 0.1 0.1 0.1 0.3 0.2 0.4q0 0.1-0.1 0.3c0 0.2-0.2 0.3-0.4 0.3-0.2-0.1-0.4-0.2-0.5-0.4q0-0.2 0-0.3c0.1-0.1 0.2-0.1 0.3-0.1z"/><path class="o" d="m138.9 444.6c0-1.2 1.7-1.7 2.5-0.9 0.8 0.8 0.6 2.3-0.3 3-0.9 0.8-2.1 0.9-3.2 0.6-0.3-1.2 0.1-2.4 0.9-3.2z"/><path class="o" d="m139.6 451.8c0.3-0.3 0.9-0.3 1.3-0.1-0.2 0.3-0.3 0.6-0.6 0.8-0.3 0.1-0.8-0.3-0.6-0.6z"/><path class="o" d="m157.7 467.6c0.1-0.1 0.3-0.1 0.5 0 0.1 0.1 0.1 0.3 0.1 0.5q0 0.1-0.1 0.2c-0.1 0.2-0.4 0.2-0.5 0.1-0.2-0.1-0.2-0.4-0.1-0.6 0.1-0.1 0.4-0.2 0.6-0.1z"/><path class="o" d="m141 455.9c0.1-0.2 0.4-0.3 0.6-0.2 0.2 0.1 0.4 0.3 0.4 0.5 0 0.2-0.1 0.4-0.3 0.4q0 0-0.1-0.1-0.4-0.3-0.7-0.6 0.1 0 0.1-0.1z"/><path class="o" d="m145.3 457.3c0.2 0.2 0.5 0.2 0.8 0.1 0.3-0.1 0.6-0.1 0.8 0.1q0.1 0 0.1 0.2c0 0.2-0.3 0.2-0.5 0.2-0.1 0.1-0.3 0.2-0.4 0.3-0.3 0.2-0.8 0.2-1.1-0.1-0.1-0.2 0-0.4 0.1-0.6 0.2-0.1 0.4-0.2 0.6-0.1z"/><path class="o" d="m144.4 459.9c0-0.1 0.3-0.2 0.4-0.1 0.1 0.1 0.1 0.4 0 0.5-0.1 0.1-0.4 0.1-0.5 0q0-0.1 0.1-0.3z"/><path class="o" d="m150.3 464.9c0.1-0.2 0.3-0.3 0.5-0.1 0.1 0.1 0.1 0.3 0 0.4-0.2 0.2-0.4 0.2-0.5 0q0-0.1 0-0.3z"/><path class="o" d="m149.7 455.1q-0.3-0.2-0.6-0.3c0.6-0.5 2.1-0.5 3.3-0.4 0.3 0 0.7 0.1 1 0.2 0.3 0.1 0.4 0.3 0.3 0.4-0.2 0.2-0.7 0.2-1.1 0.2q-1.1 0-2.3 0c-0.3 0-0.6 0-0.9-0.1-0.3-0.1-0.4-0.3-0.1-0.4z"/><path class="o" d="m148.8 458.8c0.1-0.1 0.3-0.1 0.4 0 0.1 0 0.1 0.2 0.1 0.3q0.1 0.2 0 0.3c0 0.2-0.3 0.3-0.5 0.3-0.2 0-0.3-0.2-0.4-0.4q0-0.1 0-0.3c0.1-0.1 0.2-0.1 0.3-0.1z"/><path class="o" d="m85.4 457.9c0.1-0.1 0.3-0.1 0.5-0.1 0.1 0 0.3 0.1 0.3 0.3 0 0.1 0 0.2-0.1 0.3-0.4 0.7-1.5 0.9-2.1 0.3-0.1-0.1-0.2-0.2-0.2-0.4q0.7-0.3 1.6-0.4z"/><path class="o" d="m88.1 449.4q0.3 0 0.6 0 0.1-0.1 0.2 0c0.2 0 0.1 0.3 0 0.4-0.2 0.1-0.4 0-0.5 0q0-0.2 0-0.4z"/><path class="o" d="m30.3 459c-0.2-0.7 0-1.4 0.5-1.9q0-0.1 0.2-0.1c0.1 0 0.2 0.1 0.3 0.1 0.5 0.6 1.1 1.3 0.8 2-0.3 0.6-1.3 0.7-1.6 0.1q0.1-0.3 0.2-0.6z"/><path class="o" d="m108.4 281.2c-0.2 0-0.3-0.4-0.1-0.6 0.8 0.1 1.4 1 1.3 1.9 0 0.8-0.6 1.5-1.2 2.1-1.1 1-2.8 1.5-4.2 1.1-1.5-0.4-2.7-1.8-2.8-3.3-0.1-0.6 0.1-1.3 0.6-1.6 0.2-0.2 0.6-0.3 0.9-0.4 1.9-0.4 4-0.3 5.9 0.1z"/><path class="o" d="m129.3 290.6c0.9-0.6 2.3 0.5 2.1 1.6-0.1 1.2-1.5 1.8-2.6 1.5-1.1-0.2-1.9-1.2-2.3-2.3 0.8-0.8 2-1.3 3.1-1.1z"/><path class="o" d="m119.5 293.9q-0.1 0-0.2 0c0.5 0.3 0.7 1.2 0.2 1.6-0.1 0.1-0.2 0.1-0.3 0.1-0.1-0.1 0-0.2 0-0.3-0.1-0.4-0.7-0.4-0.9-0.7q0-0.1 0-0.2 0 0 0.1-0.1 0.5-0.3 1-0.5z"/><path class="o" d="m113 291.8q-0.1 0-0.3-0.1c0.1 0.3 0.2 0.7-0.1 0.9-0.1 0.2-0.4 0.2-0.6 0.1-0.2-0.1-0.4-0.3-0.6-0.5 0.4-0.4 1-0.6 1.5-0.5z"/><path class="o" d="m113.6 295.5c-0.1 0.2-0.3 0.5-0.6 0.4-0.2-0.1-0.3-0.2-0.5-0.2q-0.1 0-0.1 0.1-0.8 0.6-1.5 1.2 0.1-0.5 0.1-1.1c0-0.2 0-0.3 0.1-0.4 0-0.2 0.2-0.2 0.3-0.3 0.8-0.2 3.1-1.4 2.2 0.3z"/><path class="o" d="m109.6 258.6c0.5 0.2 1.3 1 1.4 1.6 0.1 0.8-0.7 1.4-0.4 2.2 0.1 0.1 0.1 0.2 0.1 0.4 0 0.1-0.2 0.2-0.4 0.3-0.7 0.2-1.6 0.5-2.1 0-0.4-0.3-0.6-0.8-1-0.9-0.1-0.1-0.3-0.1-0.5-0.3-0.1-0.1-0.2-0.3-0.2-0.5-0.4-1.6 1.3-3.4 3.1-2.8z"/><path class="o" d="m119.3 291.3q0.2-0.2 0.4-0.3c0 0.5-0.3 0.8-0.6 1-0.2 0.2-0.4 0.3-0.6 0.2-0.2-0.1-0.2-0.2-0.3-0.4-0.2-0.2-0.7-0.3-0.6-0.6 0-0.2 0.2-0.3 0.3-0.4 0.2 0 0.4 0.1 0.6 0.2q0.5 0.2 1 0.5z"/><path class="o" d="m123.8 295.4c0.5 0.1 0.8 0.6 0.9 1-0.4 0.1-0.7 0.2-1 0-0.3-0.2-0.2-0.8 0.1-0.8z"/><path class="o" d="m118.7 296.9c0.1-0.2 0.4-0.2 0.6-0.1 0.2 0.1 0.4 0.3 0.5 0.5 0.1 0.2 0.3 0.5 0.2 0.7 0 0.3-0.3 0.5-0.6 0.4-0.2-0.1-0.2-0.4-0.4-0.6-0.2-0.2-0.6-0.2-0.7-0.5 0-0.1 0.1-0.3 0.2-0.4 0.1-0.1 0.3-0.2 0.5-0.2z"/><path class="o" d="m116.9 297.4c0.2 0 0.3 0.2 0.3 0.4-0.1 0.1-0.2 0.3-0.3 0.3q-0.1 0.1-0.3 0.1c-0.2 0-0.4-0.2-0.4-0.4 0-0.2 0.3-0.4 0.5-0.3 0.2 0 0.4 0.2 0.4 0.4z"/><path class="o" d="m121.5 319.4c0.2 0 0.3 0.2 0.2 0.3 0 0.2-0.1 0.3-0.2 0.4q-0.2 0.1-0.3 0.1c-0.2 0-0.4-0.2-0.4-0.4 0-0.2 0.2-0.4 0.4-0.4 0.3 0 0.4 0.2 0.5 0.4z"/><path class="o" d="m116 295.3c0.2 0.1 0.2 0.4 0.1 0.5-0.2 0.1-0.4 0-0.5-0.1-0.1-0.1-0.2-0.3-0.2-0.4 0.2-0.3 0.7-0.1 0.7 0.2z"/><path class="o" d="m121.3 298.9c0.3 0.1 0.5 0.3 0.5 0.5 0.1 0.2 0 0.5-0.2 0.6-0.1 0.1-0.3 0.1-0.4 0q0-0.1 0-0.2 0-0.5 0-0.9 0.1 0 0.2 0z"/><path class="o" d="m122.7 303.3c-0.1 0.2 0.1 0.5 0.3 0.7 0.3 0.2 0.5 0.4 0.5 0.7q0 0.1-0.1 0.2c-0.2 0.1-0.4-0.1-0.5-0.3-0.2-0.1-0.3-0.1-0.5-0.1-0.3-0.2-0.6-0.6-0.6-1 0.1-0.1 0.4-0.2 0.6-0.2 0.2 0 0.3 0.2 0.4 0.4z"/><path class="o" d="m120 304.1c0.1-0.1 0.3 0.1 0.3 0.2 0 0.2-0.2 0.4-0.4 0.3-0.2 0-0.3-0.2-0.3-0.4q0.2-0.1 0.3-0.1z"/><path class="o" d="m119.4 311.8c0.2-0.1 0.4 0.1 0.4 0.3 0 0.2-0.2 0.3-0.4 0.2-0.2 0-0.3-0.2-0.3-0.4q0.1 0 0.3-0.1z"/><path class="o" d="m115 293.3c0.2 0.1 0.4-0.2 0.3-0.4-0.1-0.2-0.2-0.4-0.3-0.6-0.1-0.2-0.1-0.4 0-0.6 0-0.2 0.1-0.3 0.3-0.3q0.1 0 0.2 0.1c0.4 0.2 0.7 0.5 0.9 0.9 0.3 0.3 0.3 0.8 0 1.2-0.2 0.2-0.5 0.3-0.8 0.2-0.3 0-0.5-0.2-0.6-0.5z"/><path class="o" d="m124.5 291c0.5 0.3 0.6 1.1 0.1 1.4-0.3-0.3-0.7-0.5-0.8-1-0.1-0.4 0.1-0.9 0.5-1q0.3 0.3 0.6 0.5z"/><path class="o" d="m127 305.5q0-0.3-0.1-0.6c0.7 0.3 1.6 1.4 2.2 2.4 0.2 0.3 0.4 0.7 0.5 1 0.1 0.3 0 0.5-0.2 0.5-0.3-0.1-0.6-0.5-0.8-0.8q-0.7-0.9-1.3-1.8c-0.2-0.3-0.4-0.6-0.5-0.9-0.1-0.2 0-0.4 0.3-0.3z"/><path class="o" d="m123.5 307c0.1 0 0.2 0.2 0.2 0.3 0 0.1-0.1 0.2-0.2 0.3q-0.1 0.1-0.2 0.2c-0.2 0-0.4-0.1-0.5-0.3-0.1-0.1-0.1-0.4 0-0.5q0.1-0.1 0.3-0.2c0.1 0 0.2 0.1 0.2 0.2z"/><path class="o" d="m147.4 336c0.9-0.7 2.3 0.4 2.1 1.5-0.2 1.2-1.5 1.8-2.6 1.5-1.1-0.2-1.9-1.2-2.3-2.3 0.7-0.8 2-1.3 3.1-1.1z"/><path class="o" d="m141.9 340.7c0.4 0.2 0.8 0.6 0.8 1-0.3 0.1-0.7 0.2-0.9 0-0.3-0.2-0.3-0.8 0.1-0.8z"/><path class="o" d="m139.6 364.7c0.1 0 0.2 0.2 0.2 0.4 0 0.1-0.1 0.2-0.3 0.3q-0.1 0.1-0.2 0.1c-0.2 0-0.4-0.2-0.4-0.4 0-0.2 0.2-0.4 0.4-0.4 0.2 0 0.4 0.2 0.4 0.4z"/><path class="o" d="m139.4 344.2c0.2 0.1 0.4 0.3 0.5 0.5 0 0.2 0 0.5-0.2 0.6-0.1 0.1-0.4 0.1-0.4 0q-0.1-0.1-0.1-0.2 0.1-0.5 0.1-0.9 0.1 0 0.1 0z"/><path class="o" d="m140.8 348.6c-0.1 0.2 0.1 0.5 0.3 0.7 0.2 0.2 0.5 0.4 0.5 0.7q-0.1 0.1-0.2 0.2c-0.1 0.1-0.3-0.1-0.5-0.3-0.1-0.1-0.3-0.1-0.4-0.1-0.4-0.2-0.6-0.6-0.6-1 0.1-0.1 0.3-0.2 0.5-0.2 0.2 0 0.4 0.2 0.5 0.4z"/><path class="o" d="m138 349.4c0.2-0.1 0.4 0.1 0.4 0.2 0 0.2-0.2 0.4-0.4 0.3-0.2 0-0.3-0.2-0.3-0.4q0.1 0 0.3-0.1z"/><path class="o" d="m137.5 357.1c0.2-0.1 0.4 0.1 0.4 0.3-0.1 0.2-0.3 0.3-0.4 0.3-0.2-0.1-0.3-0.3-0.3-0.5q0.1 0 0.3-0.1z"/><path class="o" d="m145.1 350.8q-0.1-0.3-0.1-0.6c0.7 0.3 1.6 1.4 2.2 2.4 0.2 0.4 0.4 0.7 0.5 1 0 0.3 0 0.5-0.2 0.5-0.3-0.1-0.6-0.5-0.8-0.8q-0.7-0.9-1.3-1.8c-0.2-0.3-0.4-0.6-0.5-0.8-0.1-0.3 0-0.5 0.2-0.4z"/><path class="o" d="m141.6 352.3c0.1 0 0.2 0.2 0.2 0.3 0 0.1-0.1 0.2-0.2 0.3q-0.1 0.1-0.2 0.2c-0.2 0-0.4-0.1-0.5-0.2-0.1-0.2-0.1-0.5 0-0.6q0.1-0.1 0.2-0.2c0.1 0 0.2 0.1 0.3 0.2z"/><path class="o" d="m105.5 300.2c0.1 0.1 0.2 0.2 0.3 0.3 0.1 0.1 0.1 0.3 0 0.4-0.1 0.1-0.3 0.2-0.4 0.2-0.8 0-1.5-0.8-1.5-1.6 0.1-0.1 0.1-0.3 0.2-0.4q0.7 0.5 1.3 1z"/><path class="o" d="m113.9 297.5q0.2 0.2 0.4 0.4 0.1 0.1 0.1 0.2c0.1 0.2-0.2 0.3-0.4 0.2-0.1-0.1-0.2-0.3-0.2-0.4q0.1-0.1 0.3-0.2z"/><path class="o" d="m72.5 256c0.4-0.6 1.2-0.8 1.8-0.7q0.2 0 0.2 0.1c0.1 0.1 0.1 0.2 0.1 0.3-0.1 0.8-0.4 1.7-1.2 1.8-0.6 0.1-1.2-0.6-1-1.3q0.3 0 0.6-0.1z"/><path class="o" d="m108.2 140c-0.1-0.2 0.2-0.5 0.4-0.5 0.4 0.8-0.1 1.7-0.8 2.2-0.7 0.4-1.6 0.4-2.4 0.2-1.5-0.4-2.8-1.5-3.3-2.9-0.5-1.4-0.1-3.2 1.1-4.1 0.5-0.4 1.1-0.7 1.7-0.5 0.3 0.1 0.6 0.3 0.8 0.6 1.5 1.3 2.6 3 3.2 4.9z"/><path class="o" d="m112.2 162.5c1 0.4 0.9 2.2-0.1 2.7-1 0.5-2.4-0.2-2.7-1.3-0.4-1.1-0.1-2.3 0.6-3.2 1.1 0.1 2.1 0.9 2.6 1.9z"/><path class="o" d="m104 156.2q-0.1 0-0.2-0.1c0.1 0.6-0.5 1.2-1.2 1.1-0.1 0-0.2-0.1-0.2-0.2 0-0.1 0.1-0.1 0.2-0.2 0.3-0.2 0-0.8 0.1-1.1q0.1-0.1 0.1-0.1 0.1 0 0.2 0 0.5 0.2 1 0.6z"/><path class="o" d="m102 149.7q0-0.1 0-0.2c-0.3 0.2-0.5 0.5-0.9 0.4-0.2-0.1-0.3-0.3-0.4-0.5 0-0.3 0.1-0.5 0.1-0.7 0.6 0.1 1 0.4 1.2 0.9z"/><path class="o" d="m99.3 152.3c-0.2 0.1-0.6 0-0.7-0.3 0-0.1 0.1-0.4-0.1-0.5q0 0-0.1 0-1-0.3-1.9-0.6 0.5-0.2 1-0.5c0.1-0.1 0.3-0.2 0.4-0.2 0.2 0 0.3 0.1 0.4 0.2 0.6 0.5 2.9 1.7 1 1.9z"/><path class="o" d="m127.5 128.2c0.2 0.5-0.1 1.6-0.5 2.1-0.6 0.5-1.5 0.1-2 0.9-0.1 0.1-0.2 0.2-0.3 0.3-0.1 0-0.3-0.1-0.5-0.2-0.6-0.4-1.3-1-1.2-1.8 0-0.4 0.3-0.8 0.3-1.2-0.1-0.2-0.2-0.4-0.1-0.6 0-0.2 0.1-0.3 0.2-0.4 1.2-1.3 3.6-0.9 4.1 0.9z"/><path class="o" d="m106 154.7q0.3 0 0.4 0.2c-0.3 0.2-0.7 0.1-1.1 0-0.3-0.1-0.5-0.2-0.5-0.4 0-0.2 0.1-0.3 0.1-0.5 0.1-0.3 0-0.7 0.2-0.9 0.2 0 0.4 0 0.5 0.2 0.1 0.1 0.2 0.3 0.2 0.5q0.1 0.6 0.2 1.2z"/><path class="o" d="m105.1 160.7c0.2 0.4 0 1-0.3 1.3-0.3-0.3-0.5-0.5-0.5-0.9 0-0.3 0.5-0.6 0.6-0.3z"/><path class="o" d="m101.1 157.3c0.2 0 0.4 0.2 0.4 0.5 0 0.2-0.1 0.4-0.2 0.6-0.1 0.3-0.2 0.5-0.5 0.6-0.2 0.2-0.6 0-0.6-0.2-0.1-0.3 0.2-0.5 0.3-0.8 0-0.2-0.2-0.5 0-0.7 0.1-0.2 0.3-0.2 0.4-0.1 0.2 0 0.3 0.1 0.4 0.2z"/><path class="o" d="m99.6 156.2c0.1 0.1 0 0.3-0.2 0.3-0.1 0.1-0.3 0.1-0.4 0q-0.1 0-0.2-0.1c-0.2-0.2-0.1-0.5 0.1-0.6 0.2-0.1 0.4 0 0.5 0.2 0.1 0.1 0.1 0.4-0.1 0.5z"/><path class="o" d="m100.8 154.2c0.1 0.2-0.1 0.4-0.3 0.3-0.2-0.1-0.3-0.2-0.2-0.4 0-0.2 0.1-0.3 0.2-0.5 0.3 0.1 0.5 0.6 0.2 0.8z"/><path class="o" d="m100.8 160.6c0.1 0.2 0.1 0.5-0.1 0.7-0.1 0.2-0.4 0.2-0.6 0.2-0.1-0.1-0.3-0.2-0.2-0.4q0.1-0.1 0.1-0.1 0.4-0.2 0.8-0.5 0 0.1 0.1 0.2z"/><path class="o" d="m98 164.2c-0.3 0.1-0.4 0.4-0.4 0.7 0 0.3-0.1 0.6-0.3 0.8q-0.1 0-0.2 0c-0.2-0.1-0.1-0.4-0.1-0.6 0-0.1-0.1-0.3-0.1-0.5-0.1-0.3 0.1-0.7 0.4-0.9 0.2-0.1 0.4 0.1 0.5 0.2 0.1 0.2 0.1 0.5 0 0.6z"/><path class="o" d="m95.8 162.4c0.2 0.1 0.2 0.4 0 0.4-0.2 0.1-0.4 0-0.5-0.1 0-0.2 0.1-0.4 0.2-0.5q0.2 0.1 0.3 0.2z"/><path class="o" d="m101.9 152.3c0.1 0.2 0.4 0.1 0.5-0.1 0.2-0.1 0.2-0.4 0.3-0.5 0.1-0.2 0.3-0.4 0.6-0.4 0.1 0 0.2 0 0.3 0.1q0.1 0.1 0.1 0.2c0 0.5 0 0.9-0.2 1.3-0.2 0.4-0.6 0.7-1 0.6-0.3 0-0.6-0.2-0.7-0.5-0.1-0.2-0.1-0.6 0.1-0.8z"/><path class="o" d="m109.2 158.8c0 0.6-0.6 1-1.1 0.9 0-0.5 0.1-0.9 0.3-1.2 0.3-0.4 0.8-0.5 1.1-0.2q0 0.4 0 0.7z"/><path class="o" d="m98.6 169.1q0.2-0.3 0.4-0.5c0.3 0.8-0.2 2.1-0.7 3.2-0.2 0.3-0.3 0.7-0.5 0.9-0.2 0.3-0.4 0.4-0.5 0.1-0.1-0.2 0-0.7 0.2-1.1q0.3-1 0.7-2.1c0.1-0.3 0.3-0.6 0.4-0.8 0.2-0.2 0.4-0.3 0.4 0z"/><path class="o" d="m95.4 167c0.1 0.1 0 0.3-0.1 0.3-0.1 0.1-0.3 0.1-0.4 0.1q-0.1-0.1-0.3-0.2c-0.1-0.1-0.2-0.3-0.1-0.5 0.1-0.2 0.3-0.3 0.5-0.3q0.2 0 0.3 0.1c0.1 0.1 0.1 0.2 0 0.3z"/><path class="o" d="m90.9 148.2c0 0.2 0 0.3-0.1 0.5-0.1 0.1-0.3 0.2-0.4 0.2-0.1 0-0.2-0.1-0.3-0.2-0.5-0.6-0.3-1.7 0.5-2.1 0.1-0.1 0.3-0.1 0.4-0.1q0 0.9-0.1 1.7z"/><path class="o" d="m97.9 153.7q-0.1 0.3-0.2 0.6 0 0.1-0.1 0.2c-0.1 0.1-0.3 0-0.4-0.2 0-0.2 0.1-0.4 0.2-0.5q0.2 0.1 0.3 0.2z"/><path class="o" d="m108.8 96.1c0.7 0.1 1.3 0.5 1.6 1.1q0.1 0.1 0 0.2c0 0.2-0.1 0.2-0.2 0.3-0.7 0.3-1.6 0.6-2.1 0-0.5-0.4-0.2-1.4 0.4-1.5q0.3 0.2 0.5 0.4z"/></g><ellipse class="p" cx="164.2" cy="52.2" rx="72.7" ry="51.8"/><path class="q" d="m523.3 370.8c-3.3 21.6-30.6 35.3-60.9 30.6-30.4-4.7-52.2-26-48.9-47.7 3.4-21.6 30.7-35.3 61-30.6 30.3 4.7 52.2 26 48.8 47.7z"/><path class="r" d="m632.1 401.2c-3.3 21.6-30.6 35.3-61 30.6-30.3-4.7-52.2-26-48.8-47.6 3.3-21.6 30.6-35.4 61-30.7 30.3 4.7 52.2 26.1 48.8 47.7z"/><path class="e" d="m66 225.9l19 7.6 7.2 30.4-11.6-26.6-20.4-8.4z"/><path class="e" d="m29.7 300.6l11.3 26.1-2 8.2-11.3-8.2-9.7 34-18 13.3v-53.3l20-10.1z"/><path class="e" d="m69 376.2q32.8-12.1 44.3-11.7 26.2 0.7 43 9.5l-38.7 17.3z"/><path class="e" d="m92.6 122.7l3.9 15-14.4-3.7z"/><path class="j" d="m117.6 391.3l-20.6 28.1 4.3 32.8v21.3l1.5 5.8-1.5 24.2-101.3 0.4v-129.9l18-13.3 15.5 70.6 18.9-39 2.1 5.6 14.5-21.7z"/><path class="l" d="m118.7 389.4l11.8-5.9 3.3 0.5-11.7 5.3-0.6 5.5-13.8 10 6.9-14.4z"/><path class="n" d="m97 419.4l48 28.2-7.7 50.5-36 5.4 1.5-24.2-1.5-5.8v-21.3z"/><path class="j" d="m29.7 300.6l30.5-71.7v29.6 10.2l10.8-10.2-30 68.2z"/><path class="j" d="m39 334.9l4 30.9-15.3-39.1z"/><path class="j" d="m82.1 134l3.5 19.7-1.9 37.2-17.7 35z"/><path class="l" d="m35.3 332.1h4.4l0.2 9.5-0.9-6.7z"/><path class="l" d="m16.2 360.7l-0.9-1.2 2.3-2.1 2.3-3.4-0.8 11.8-3.8-3.1z"/><path class="f" d="m147.4 375.3q-1.6 0.7-4.2 1.6c-6 2.2-17.3 6.3-24.8 7.9-6.9 1.4-21.2-1.8-30.7-4.3q-5.3-1.4-9.1-2.6 9.7-6.8 32.9-8.9 23.1-2.1 35.9 6.3z"/><path class="i" d="m143.3 376.9h-0.1c-6 2.2-17.3 6.3-24.8 7.9-6.9 1.4-21.2-1.8-30.7-4.3q9.4-6 29.9-6.5 20.6-0.5 25.7 2.9z"/><path class="j" d="m136.8 232.2l-19.2 9.5 19.2-13z"/><path class="j" d="m43 269.3l20.2 7 11.1 46.7 4.3-1 12 32-12-29.6-5.4 0.6-11.2-46.1z"/><path class="j" d="m105.2 451l10.6 10.9h-5.3z"/><path class="k" d="m109.4 459l6.4 2.9h-8.9l-1.7-10.9z"/><path class="j" d="m68.8 362.7l11-10.5-0.1 5.3z"/><path class="k" d="m76.8 358.5l3-6.3-0.1 8.9-10.9 1.6z"/><path class="j" d="m94.3 242.1l14.1 5.6-4.9 2.1z"/><path class="k" d="m101.4 247.6l7 0.1-8.2 3.6-5.9-9.2z"/><path class="s" d="m167.8 365.2c4.2 21.4-16.8 43.6-47 49.4-30.1 5.9-57.9-6.8-62.1-28.3-4.1-21.5 16.9-43.6 47.1-49.5 30.1-5.8 57.9 6.9 62 28.4z"/></svg>