<svg version="1.2" xmlns="http://www.w3.org/2000/svg" viewBox="0 0 541 241" width="541" height="241"><defs><linearGradient id="P" gradientUnits="userSpaceOnUse"/><linearGradient id="g1" x1="152.5" y1="240.6" x2="152.5" y2=".8" href="#P"><stop stop-color="#16003b"/><stop offset="1" stop-color="#1b146d"/></linearGradient><linearGradient id="g2" x1="459.3" y1="230.7" x2="459.3" y2="198.3" href="#P"><stop stop-color="#16003b"/><stop offset="1" stop-color="#22279f"/></linearGradient><linearGradient id="g3" x1="-4.3" y1="240.1" x2="-4.3" y2="219.5" href="#P"><stop stop-color="#16003b"/><stop offset="1" stop-color="#22279f"/></linearGradient><radialGradient id="g4" cx="260" cy="147.1" r="45.3" href="#P"><stop stop-color="#ff006a"/><stop offset="1"/></radialGradient></defs><style>.a{fill:url(#g1)}.b{opacity:.5;mix-blend-mode:multiply;fill:#190024}.c{opacity:.5;mix-blend-mode:soft-light;fill:#7ef1f6}.d{fill:#ff72a7}.e{fill:#ffdede}.f{opacity:.2;mix-blend-mode:soft-light;fill:#7ef1f6}.g{fill:#1d3490}.h{fill:#1d52b1}.i{fill:url(#g2)}.j{fill:url(#g3)}.k{mix-blend-mode:screen;fill:url(#g4)}</style><path class="a" d="m202.7 227l11.1-2.6 5.2-17.9 8-8.2v-42.3q16.9-19.6 46.3-27l18.4-81.7 20.6-16.7 10.2-29.8 31.3 31.2v63.5l2.2 6.5-9.1 92.2 20.3 3.9 12.9 2.9 26.3 5.5 14.9 17.1 73.9 6.2h-192.4l-36.8 3.2 31.9 4.8-63.2 2.8-78.2-5.9z"/><path class="b" d="m227 156l9 12.2v12.8l10.7 4.5v40.7l-17.2-8.1-2.5-19.8z"/><path class="b" d="m213.8 224.4l13.2 11.2-62.6-0.3z"/><path class="b" d="m291.7 47.3l14.2 11.1v47.5l-5.4 96-5.8-63.9-21.4-9z"/><path class="b" d="m316.6 18l9.3 12.5-10.2 58 3.4-55.9-6.8-2z"/><path class="c" d="m227 156q23-23.5 46.3-27l21.4 9q-14.2 22.1-32 26.9-17.7 4.9-26.7 3.3z"/><path class="c" d="m227 198.3l2.5 19.8-5.8-2.5-4.7-9.1z"/><path class="c" d="m291.7 47.3l20.6-16.7 6.8 2-6.8 17.3v3.4l-6.4 5.1z"/><path class="c" d="m322.5 0.8l31.3 31.2-10.4-1.4h-2.9l-1.7 2-12.9-2.1-9.3-12.5z"/><path class="c" d="m356 102l-8.1 16.9v-6.9h-22l-9.3 3.1 7-6.1 22.8-2.9 7.7-9.2z"/><path class="c" d="m406.4 206.5l3.5 7.2h-43.9-22.6v-2.6l-34.3-2.9 37.8-14z"/><path class="b" d="m343.4 211.1v2.6l-4.6 16.7-28.1-0.6 1.6-9.3h-3.2v-12.3z"/><path class="d" d="m286.4 138.6q-3.9 13.6-15.8 20.5-11.9 6.9-32.1 5.8-6.3-3.5-6.1-8.9c0.2-5.4 30.6-20.8 36.8-21.6q6.1-0.8 17.2 4.2z"/><path class="e" d="m240.4 165q6.3-8.9 19-15.4 12.7-6.4 24-4.1-2.3 7-12.8 13.6-10.5 6.5-30.2 5.9z"/><path class="f" d="m246.7 185.5l31.9-6.1 19.3-6.3 2.6 28.8-38.6 16.2-12.9-9.9z"/><path class="f" d="m338.8 32.6l-2.5 30.6-10.4 13.7-9.3 9.1 9.3-55.5z"/><path class="b" d="m353.8 80.1l-5.9 2.3-12.7 25.1-8.3 4.9-9.7 26.8-4.9 0.9-9.9 28 8.9-28.8 3.2-0.7 11.4-26.6 6.3-4.1 14.3-26.5 7.3-4.1z"/><path class="g" d="m326.9 112.4l-8.6 27.8h-1.7l-4.3-0.1 4.9-0.9z"/><path class="g" d="m353.8 80.1v1.3l-3.8 1.4-2.1-0.4z"/><path class="h" d="m346.7 112l4.2-1.2-3 8.1z"/><path class="h" d="m308.3 56.5l-2.4 4.6-2.5-4.6z"/><path class="h" d="m238.1 168.4l-2.1 2.9-2.3-6.3z"/><path class="h" d="m343.4 211.1l3.3 2.6-4.1 2.9-1.9-5.7z"/><path class="b" d="m285.7 178.2l-3.3 5.2 3.3-10.3z"/><path class="g" d="m286.7 179l-4.3 4.4 3.3-5.2v-5.1z"/><path class="b" d="m305.6 115l-4.2-4.4 9.2 5.6z"/><path class="g" d="m304.6 115.8l-3.2-5.2 4.2 4.4 5 1.2z"/><path class="i" d="m540.6 230.7l-18.3-0.6-58.6-1.8h-0.4q0.3-0.7 0.9-1.8 0-0.1 0-0.1c3.4-6.3 14.6-27.1 19.5-28q0.3-0.1 0.6-0.1c5.4 0.8 40 14 42.4 16.4q2.5 2.4 13.9 16z"/><path class="j" d="m87.1 236.6l-28.1 1.1q-17.6 1.5-28.5 2.1h-0.1c-4.6 0.3-8 0.5-8.4 0.3-1.3-0.6-19.6-3.2-22.3-3.8q14.1-10 22-14.6c2.3-1.4 4.1-2.3 4.8-2.4 3.2-0.2 24.4 1.2 27.2 2.2 1.1 0.4 2.2 2.6 3.1 5.1q1.3 3.8 2.2 8.2z"/><path class="b" d="m30.4 239.8c-4.6 0.3-8 0.5-8.4 0.3-1.3-0.6-19.6-3.2-22.3-3.8q14.1-10 22-14.6l4.8-2.4-2.2 8.5 2.2 1.6-1.1 5.5z"/><path class="b" d="m522.3 230.1l-59-0.3q0.1-0.6 0.4-1.5 0.2-0.8 0.5-1.8 0-0.1 0-0.1c3.4-6.3 14.6-27.1 19.5-28q0.3-0.1 0.6-0.1l-6.5 15.4 13.5 4.4 1.5 4.5z"/><path class="c" d="m526.7 214.7q-3 2.6-15.1 1.9-12-0.7-33.8-2.9l6.5-15.4c5.4 0.8 40 14 42.4 16.4z"/><path class="c" d="m56.8 226.6q-10.8 1.6-32.5 1.2l2.2-8.5c3.2-0.2 24.4 1.2 27.2 2.2 1.1 0.4 2.2 2.6 3.1 5.1z"/><circle class="k" cx="260" cy="147.1" r="45.3"/></svg>