<svg version="1.2" xmlns="http://www.w3.org/2000/svg" viewBox="0 0 229 229" width="229" height="229"><defs><linearGradient id="P" gradientUnits="userSpaceOnUse"/><radialGradient id="g1" cx="67.9" cy="160.7" r="67.5" href="#P"><stop offset=".4" stop-color="#ff4c1f"/><stop offset="1"/></radialGradient><linearGradient id="g2" x1="123.1" y1="84.6" x2="31.2" y2="159.3" href="#P"><stop/><stop offset="1" stop-color="#fcea10"/></linearGradient><linearGradient id="g3" x1="167.9" y1="123.9" x2="99.9" y2="174.8" href="#P"><stop/><stop offset="1" stop-color="#ffa300"/></linearGradient><radialGradient id="g4" cx="79.2" cy="172.8" r="278" href="#P"><stop stop-color="#ff008b"/><stop offset="1"/></radialGradient><radialGradient id="g5" cx="184.5" cy="164.6" r="168.8" href="#P"><stop stop-color="#ff8080"/><stop offset="1"/></radialGradient><radialGradient id="g6" cx="199.2" cy="164.2" r="131.1" href="#P"><stop stop-color="#ffed00"/><stop offset="1"/></radialGradient><linearGradient id="g7" x1="156.4" y1="100.9" x2="93.8" y2="139.6" href="#P"><stop/><stop offset="1" stop-color="#fcea10"/></linearGradient><radialGradient id="g8" cx="100.4" cy="167.7" r="92.8" href="#P"><stop stop-color="#473c96"/><stop offset="1" stop-color="#ff5547"/></radialGradient><radialGradient id="g9" cx="70.2" cy="163.7" r="100.1" href="#P"><stop stop-color="#fff"/><stop offset="1" stop-color="#5c64b9"/></radialGradient><radialGradient id="g10" cx="61.4" cy="175.7" r="68.6" href="#P"><stop offset=".6" stop-color="#dbffff"/><stop offset="1" stop-color="#5c64b9"/></radialGradient><radialGradient id="g11" cx="57.4" cy="141.9" r="81.4" href="#P"><stop stop-color="#fff"/><stop offset="1" stop-color="#5c64b9"/></radialGradient><radialGradient id="g12" cx="56.1" cy="184.6" r="37.7" href="#P"><stop stop-color="#fff"/><stop offset="1" stop-color="#5c64b9"/></radialGradient><radialGradient id="g13" cx="45.5" cy="143.8" r="19.2" href="#P"><stop stop-color="#fff"/><stop offset="1" stop-color="#b1c6f2"/></radialGradient><radialGradient id="g14" cx="67.3" cy="127.4" r="15.1" href="#P"><stop stop-color="#fff"/><stop offset="1" stop-color="#b1c6f2"/></radialGradient><radialGradient id="g15" cx="82" cy="136.5" r="18.3" href="#P"><stop stop-color="#fff"/><stop offset="1" stop-color="#b1c6f2"/></radialGradient><radialGradient id="g16" cx="106.8" cy="165" r="18.9" href="#P"><stop stop-color="#fff"/><stop offset="1" stop-color="#7682ba"/></radialGradient><radialGradient id="g17" cx="100.7" cy="186.9" r="11.9" href="#P"><stop stop-color="#fff"/><stop offset="1" stop-color="#7682ba"/></radialGradient><radialGradient id="g18" cx="45.7" cy="211.8" r="14.9" href="#P"><stop stop-color="#fff"/><stop offset="1" stop-color="#b1c6f2"/></radialGradient><radialGradient id="g19" cx="46.5" cy="138.7" r="14" href="#P"><stop offset=".4" stop-color="#fff"/><stop offset="1" stop-color="#5c64b9"/></radialGradient><radialGradient id="g20" cx="67.6" cy="126.1" r="9.6" href="#P"><stop offset=".4" stop-color="#fff"/><stop offset="1" stop-color="#5c64b9"/></radialGradient><radialGradient id="g21" cx="42.7" cy="164.9" r="20.7" href="#P"><stop stop-color="#fff"/><stop offset="1" stop-color="#b1c6f2"/></radialGradient><radialGradient id="g22" cx="45.1" cy="159.4" r="19.4" href="#P"><stop offset=".4" stop-color="#fff"/><stop offset="1" stop-color="#5c64b9"/></radialGradient><radialGradient id="g23" cx="25.3" cy="158.8" r="17.4" href="#P"><stop stop-color="#fff"/><stop offset="1" stop-color="#b1c6f2"/></radialGradient><radialGradient id="g24" cx="23.1" cy="154.8" r="13.2" href="#P"><stop offset=".4" stop-color="#fff"/><stop offset="1" stop-color="#5c64b9"/></radialGradient><radialGradient id="g25" cx="67.2" cy="162.3" r="33.1" href="#P"><stop stop-color="#fff"/><stop offset="1" stop-color="#b1c6f2"/></radialGradient><radialGradient id="g26" cx="75.1" cy="153.6" r="16.6" href="#P"><stop offset=".4" stop-color="#fff"/><stop offset="1" stop-color="#5c64b9"/></radialGradient><radialGradient id="g27" cx="85.7" cy="133" r="13.4" href="#P"><stop offset=".4" stop-color="#fff"/><stop offset="1" stop-color="#5c64b9"/></radialGradient><radialGradient id="g28" cx="105.1" cy="156.9" r="18.7" href="#P"><stop offset=".4" stop-color="#fff"/><stop offset="1" stop-color="#5c64b9"/></radialGradient><radialGradient id="g29" cx="82.2" cy="192.4" r="24.2" href="#P"><stop stop-color="#fff"/><stop offset="1" stop-color="#b1c6f2"/></radialGradient><radialGradient id="g30" cx="82.6" cy="176.4" r="16.1" href="#P"><stop offset=".4" stop-color="#fff"/><stop offset="1" stop-color="#5c64b9"/></radialGradient><radialGradient id="g31" cx="100" cy="182.7" r="15.2" href="#P"><stop offset=".4" stop-color="#fff"/><stop offset="1" stop-color="#5c64b9"/></radialGradient><radialGradient id="g32" cx="32.2" cy="190.8" r="14.7" href="#P"><stop stop-color="#fff"/><stop offset="1" stop-color="#b1c6f2"/></radialGradient><radialGradient id="g33" cx="32.5" cy="187.6" r="15.2" href="#P"><stop offset=".4" stop-color="#fff"/><stop offset="1" stop-color="#5c64b9"/></radialGradient><radialGradient id="g34" cx="53.4" cy="202.7" r="33.9" href="#P"><stop stop-color="#fff"/><stop offset="1" stop-color="#b1c6f2"/></radialGradient><radialGradient id="g35" cx="53.2" cy="189.4" r="18.4" href="#P"><stop offset=".4" stop-color="#fff"/><stop offset="1" stop-color="#5c64b9"/></radialGradient><radialGradient id="g36" cx="47.1" cy="207.3" r="12.3" href="#P"><stop offset=".4" stop-color="#fff"/><stop offset="1" stop-color="#5c64b9"/></radialGradient><radialGradient id="g37" cx="78.6" cy="204.8" r="21.1" href="#P"><stop stop-color="#fff"/><stop offset="1" stop-color="#7682ba"/></radialGradient><radialGradient id="g38" cx="79" cy="208.7" r="19.5" href="#P"><stop offset=".4" stop-color="#fff"/><stop offset="1" stop-color="#5c64b9"/></radialGradient><radialGradient id="g39" cx="87.1" cy="197.8" r="11.2" href="#P"><stop stop-color="#fff"/><stop offset="1" stop-color="#7682ba"/></radialGradient><radialGradient id="g40" cx="88.6" cy="193.1" r="8.6" href="#P"><stop offset=".4" stop-color="#fff"/><stop offset="1" stop-color="#5c64b9"/></radialGradient><radialGradient id="g41" cx="52.3" cy="153.9" r="67.1" href="#P"><stop offset=".6" stop-color="#dbffff"/><stop offset="1" stop-color="#5c64b9"/></radialGradient><radialGradient id="g42" cx="46.8" cy="155.5" r="9.2" href="#P"><stop stop-color="#8cb1ff"/><stop offset="1"/></radialGradient><radialGradient id="g43" cx="27.1" cy="149.3" r="4.3" href="#P"><stop stop-color="#8cb1ff"/><stop offset="1"/></radialGradient><radialGradient id="g44" cx="48.9" cy="135.1" r="8.8" href="#P"><stop stop-color="#8cb1ff"/><stop offset="1"/></radialGradient><radialGradient id="g45" cx="73.8" cy="151.7" r="12.2" href="#P"><stop stop-color="#8cb1ff"/><stop offset="1"/></radialGradient><radialGradient id="g46" cx="52.5" cy="181.6" r="10.7" href="#P"><stop stop-color="#8cb1ff"/><stop offset="1"/></radialGradient><radialGradient id="g47" cx="30.8" cy="181.8" r="6.1" href="#P"><stop stop-color="#8cb1ff"/><stop offset="1"/></radialGradient><radialGradient id="g48" cx="33.8" cy="126.8" r="76.2" href="#P"><stop stop-color="#7888b6"/><stop offset="1"/></radialGradient><radialGradient id="g49" cx="123.6" cy="170.4" r="113.8" href="#P"><stop offset=".8"/><stop offset="1" stop-color="#f98100"/></radialGradient><radialGradient id="g50" cx="21" cy="135.4" r="113.8" href="#P"><stop offset=".7"/><stop offset="1" stop-color="#f90053"/></radialGradient><radialGradient id="g51" cx="68.8" cy="175.2" r="69.5" href="#P"><stop offset=".6"/><stop offset="1" stop-color="#9c88b6"/></radialGradient><radialGradient id="g52" cx="51.3" cy="121.4" r="76.2" href="#P"><stop offset=".6"/><stop offset="1" stop-color="#f90053"/></radialGradient><radialGradient id="g53" cx="55" cy="194.8" r="80.4" href="#P"><stop offset=".6"/><stop offset="1" stop-color="#f97d00"/></radialGradient></defs><style>.a{mix-blend-mode:screen;fill:url(#g1)}.b{mix-blend-mode:screen;fill:url(#g2)}.c{mix-blend-mode:screen;fill:url(#g3)}.d{mix-blend-mode:screen;fill:url(#g4)}.e{opacity:.7;mix-blend-mode:screen;fill:url(#g5)}.f{mix-blend-mode:screen;fill:url(#g6)}.g{mix-blend-mode:screen;fill:url(#g7)}.h{fill:url(#g8)}.i{opacity:.5;mix-blend-mode:multiply;fill:url(#g9)}.j{mix-blend-mode:multiply;fill:url(#g10)}.k{mix-blend-mode:multiply;fill:url(#g11)}.l{mix-blend-mode:multiply;fill:url(#g12)}.m{mix-blend-mode:multiply;fill:url(#g13)}.n{mix-blend-mode:multiply;fill:url(#g14)}.o{mix-blend-mode:multiply;fill:url(#g15)}.p{opacity:.5;mix-blend-mode:multiply;fill:url(#g16)}.q{opacity:.5;mix-blend-mode:multiply;fill:url(#g17)}.r{mix-blend-mode:multiply;fill:url(#g18)}.s{opacity:.5;mix-blend-mode:multiply;fill:url(#g19)}.t{mix-blend-mode:multiply;fill:url(#g20)}.u{mix-blend-mode:multiply;fill:url(#g21)}.v{mix-blend-mode:multiply;fill:url(#g22)}.w{mix-blend-mode:multiply;fill:url(#g23)}.x{mix-blend-mode:multiply;fill:url(#g24)}.y{mix-blend-mode:multiply;fill:url(#g25)}.z{opacity:.5;mix-blend-mode:multiply;fill:url(#g26)}.A{mix-blend-mode:multiply;fill:url(#g27)}.B{mix-blend-mode:multiply;fill:url(#g28)}.C{mix-blend-mode:multiply;fill:url(#g29)}.D{mix-blend-mode:multiply;fill:url(#g30)}.E{mix-blend-mode:multiply;fill:url(#g31)}.F{mix-blend-mode:multiply;fill:url(#g32)}.G{mix-blend-mode:multiply;fill:url(#g33)}.H{mix-blend-mode:multiply;fill:url(#g34)}.I{mix-blend-mode:multiply;fill:url(#g35)}.J{opacity:.5;mix-blend-mode:multiply;fill:url(#g36)}.K{mix-blend-mode:multiply;fill:url(#g37)}.L{mix-blend-mode:multiply;fill:url(#g38)}.M{opacity:.6;mix-blend-mode:multiply;fill:url(#g39)}.N{mix-blend-mode:multiply;fill:url(#g40)}.O{opacity:.5;mix-blend-mode:multiply;fill:url(#g41)}.P{opacity:.3;mix-blend-mode:screen;fill:url(#g42)}.Q{opacity:.3;mix-blend-mode:screen;fill:url(#g43)}.R{opacity:.3;mix-blend-mode:screen;fill:url(#g44)}.S{opacity:.3;mix-blend-mode:screen;fill:url(#g45)}.T{opacity:.3;mix-blend-mode:screen;fill:url(#g46)}.U{mix-blend-mode:screen;fill:url(#g47)}.V{fill:#999}.W{opacity:.3;mix-blend-mode:screen;fill:url(#g48)}.X{mix-blend-mode:screen;fill:url(#g49)}.Y{mix-blend-mode:screen;fill:url(#g50)}.Z{opacity:.5;mix-blend-mode:screen;fill:url(#g51)}.a0{opacity:.3;mix-blend-mode:screen;fill:url(#g52)}.a1{mix-blend-mode:screen;fill:url(#g53)}</style><circle class="a" cx="67.9" cy="160.7" r="67.5"/><path class="b" d="m43.9 171.5q-6.3-6.2-12.5-12.5c44.9-44.8 86.8-86.8 120.5-120.5 3.4 3.5-7.1 20.2-26.6 44.3-19.6 24.1-48.4 55.7-81.4 88.7zm-12.5-12.5q0 0 0 0-6.3-6.2-12.5-12.5c33-33 64.6-61.8 88.7-81.3 24.8-20.2 41-30 44.3-26.7-33.7 33.7-75.6 75.7-120.5 120.5z"/><path class="c" d="m112.7 187q-6.3-6.3-12.5-12.5c32.2-32.2 62.2-62.3 86.4-86.5 3.4 3.5-3.2 16.4-16.6 34.3-13.4 17.9-33.6 41-57.3 64.7zm-12.5-12.5q0 0 0 0-6.3-6.3-12.5-12.5c23.7-23.7 46.7-43.9 64.6-57.3 18.5-13.8 31-20 34.3-16.7-24.2 24.2-54.2 54.3-86.4 86.5z"/><path class="d" d="m47.7 105.3c11.9-6.4 31.4-11 41.3-23-1 7.8-5 10.5-9.5 14.3-4.9 4.1-0.1 9.5 4.8 6.5 13.9-8.7 12.6-24.2 16.8-37.7 7.1-22.6 32.9-16.3 49.5-28.9-7 16.2-20.8 16.7-25.8 25.6-5 8.8 8 22.8 21.5 0.9 2.6-4.2 4.3-8.9 6.2-13.4 9.2-22.7 18-26.6 34.2-30.3 13.9-3.3 31.7-6.7 42-18.7-11.7 27.8-35.2 25.6-45.3 43.3-5.2 9.1 4.5 15.6 10.8 8.4 9.2-10.5 7.5-17.2 23.5-26.3-13.3 15-8.9 32.3-20.7 43.6-7.2 7-21 11.3-29.6 16.7-6 3.7-12.2 7.5-17.2 12.5-13.4 13.5-6.7 27.1 3.4 23.5 9.8-3.5 9.5-22.1 33.1-34.1-19.6 22.7-12.5 55.7-49 61.5-4.5 0.7-8.8 2.1-11.6 7.7-2.6 5.2 0.7 11.8 7.2 8.1 3.1-1.8 6.7-7.6 14.9-8.3-9.9 8-8.7 20.2-31.1 34-8.2 5.1-17.2 9.7-24.3 14.4-5.3 3.6-8.8 13.3-18.6 13.3-3.2 0-7.6-0.3-10.1 0.3-2 0.4-4.2 1-6.3 1.2-6.6 0.6-14.2-7.2-18.8-11-5-4.1-9.8-7.2-14.8-11.6-5.4-4.8-5.9-8.2-6.4-16.2-0.6-7.9-6.9-10.4-6.3-17.5 1.6-21.5 16.7-48.4 36.2-58.8z"/><path class="e" d="m72.8 216.1q-6.9-0.6-13.7-0.2c-12-3.2-22.9-10.1-34.2-20.7-2-2.1-3.4-4.8-4.3-7.8-0.8-6.6-2.4-12.4-5-17.2-0.8-1.3-1.1-2.6-1.2-4 3.4-26.8 15.4-42.2 29.4-52.6 10.7-7.9 24.1-11.7 33.1-18.4-12.8 10.8-0.3 22.7 12.1 13.8 3.6-2.5 8.7-9.3 11.3-14.4 5.8-11.5 3.7-25.6 9.5-33.4 7.1-9.4 20.9-9.6 31.1-14.3-5.2 5-17.8 9.3-22.6 16.2-3.2 4.6-4.7 13.8-2.1 18 5.5 9.1 16.9 6.3 23.4 0 4.7-4.5 9.8-14.4 13-20.9 8.1-16.6 13-26.1 25.3-32.1 14.6-7.1 27.1-5.4 42.2-16.8-12.4 15-35.7 16.9-45 34.4-6.5 12.2 6.8 24.6 18.3 11.7 7-7.9 7.4-13.7 14.1-21.5-5.6 10.8-6.9 25-16.2 33.2-4.2 3.7-9.5 5.9-15.9 8.7-14.6 6.2-32.3 18.6-39.1 30.3-8.8 14.9-2.5 31.8 14 23.6 11.3-5.7 12.5-20.3 23.9-30.9-6.1 8.7-7.3 15.9-10.7 24.5-5.9 14.9-13.2 18.3-25.3 19.9-15.2 2.1-20.9 11.3-19.4 20.2 1.8 10.8 11.8 7.9 18 1.4-3.6 5.4-5.4 7.9-8.5 11.1-11.5 11.7-32.5 18.3-48.1 35.3-2.1 1.8-4.6 2.6-7.4 2.9z"/><path class="f" d="m108.1 79.1c1.4-5.9 1.3-8.1 5.9-12.8-7.7 14.7 0.4 32.9 19 25.4 10.7-4.3 18.3-15.9 23.1-25.8 2.4-4.8 4.4-9.6 7-14.2 7.2-13.3 10.8-15.6 24-20.6-7.1 5.1-10.1 6.1-14.9 14-5.4 8.8-4.6 19 1.7 21.9 11.1 5 21.4-9 26-17.3-4.4 11.5-7.1 15.1-15.8 20.9-9.8 6.5-28.5 7.5-47.9 28.2-4.7 5-8.3 10.4-10 15.1-3.8 10.5-0.1 19 6.3 22.6 8.4 4.7 20.4 0.9 28.8-12.4-13 21.4-17.7 15.7-33 21.4-11.7 4.2-10.5 9.4-10.7 20.1l-43.4-51.5c19.1 3 26.4-3.9 33.9-35z"/><path class="g" d="m111.8 156.6q-8.7-8.7-17.5-17.5c27.5-27.5 53.3-53.2 73.9-73.9 4.8 4.8 0.8 17.5-9.4 34.1-10.2 16.6-26.7 37-47 57.3zm-17.5-17.5q0 0 0 0-8.7-8.8-17.5-17.5c20.3-20.3 40.7-36.8 57.3-47 17-10.5 29.5-14 34.1-9.4-20.6 20.7-46.4 46.4-73.9 73.9z"/><path class="h" d="m40.2 124.3c3.8-0.7 7.4-2.4 10.8-4.4 1.7-1.1 3.8-2 5.6-2.4 6-0.7 11.8-2 17.6-3.4 3.4 0.4 6.8 1.1 10.1 2.1 12.6 4.7 22.1 14 28.8 27.3 2.2 6.5 3.7 13.8 4.5 22.1-1.1 7.9-2.9 14.9-5.3 20.9-12.7 9-22.5 16.3-32.1 26.7-2.4 1.4-4.9 2.3-7.4 2.9q-6.9-0.6-13.7-0.2c-12-3.2-22.9-10.1-34.2-20.7-1.7-2.3-3.1-5-4.3-7.8-0.8-6.6-2.4-12.4-5-17.2-1.1-1.8-1.4-3.7-1-5.8 0.9-5.5 2.3-11 4.5-16.3 0.6-1.5 1.4-2.6 2.7-3.7q5.2-4.5 9.1-11.2c3.6-2.9 6.9-5.8 9.3-8.9z"/><path class="i" d="m88.1 176.1c5.4 3.7 15.8 9.6 20.9 10.6 1.1 0.2 2.2 0 3.3-0.2-12.7 9-22.5 16.3-32.1 26.7-2.4 1.4-4.9 2.3-7.4 2.9q-6.9-0.6-13.7-0.2c-12-3.2-22.9-10.1-34.2-20.7q-1.1-1.5-2-3.2c1.2 1.8 2.7 3.4 4 3.3 7.8-0.3 22.2-1.6 28.5-3.3 4.9-1.3 21.2-11.7 29.3-19.2q0.7-0.6 1.4-1.5v0.2c0.3 2.2 1.6 4.3 2 4.6z"/><path class="j" d="m15.6 170.2c-1.1-1.8-1.4-3.7-1-5.8 0.9-5.5 2.3-11 4.5-16.3 0.6-1.5 1.4-2.6 2.7-3.7q5.2-4.5 9.1-11.2c3.6-2.9 6.9-5.8 9.3-8.9q2.8-0.6 5.4-1.6c-12.7 6.9-26.5 42.9-25.7 60.1-0.9-4.7-2.3-8.9-4.3-12.6z"/><path class="k" d="m93.5 141.2c0.2-0.6 1-1.6 1.1-1.7 1.3-1.2 7.5-0.8 9.1-0.3 3.3 1 7.4 2.7 9.4 4.3 2.2 6.5 3.7 13.8 4.5 22.1-1.1 7.9-2.9 14.9-5.3 20.9-1.1 0.2-2.2 0.4-3.3 0.2-5.1-1-15.5-6.9-20.9-10.6-0.4-0.3-1.7-2.4-2-4.6 5.6-6.5 8.9-24 7.4-30.3z"/><path class="l" d="m62.4 208.9c0.3 1.3-1.7 6.1-3.3 7-12-3.2-22.9-10.1-34.2-20.7q-1.1-1.5-2-3.2c1.2 1.8 2.7 3.4 4 3.3 7.1-0.2 19.5-1.4 26.5-2.8 1.7-0.4 2.8 0.2 3.2 1.1 2.3 5 4.9 9.9 5.8 15.3z"/><path class="m" d="m53.6 129.1c1.2 1 1.9 3.9 1.7 5.5-0.4 2.8-2.3 6.9-7.9 9.2-7.2 2.8-10-4-7-9.2 2.4-4 11.3-7.3 13.2-5.5z"/><path class="n" d="m71.9 120c2.6 0.2 1.5 4.9-0.2 5.9-2.5 1.4-5.8 1.5-8.5 1.1-1.1-0.1-1.3-1.5-1.3-2.4 0-1.3 3.4-4.1 6.2-4.6 1.3-0.2 2.5-0.1 3.8 0z"/><path class="o" d="m92.4 128.1c0.5 1.9 0 4.1-1.2 5.6-1.2 1.6-3.3 3.2-5.2 2.8-2.7-0.4-5.1-2.5-6.5-4.8-0.8-1.3-0.2-3.6 1-4.6 2.2-1.9 5.3-3.3 8.3-3.1 1.8 0.1 3.2 2.3 3.6 4.1z"/><path class="p" d="m101.1 147.5c1.4-0.6 3.2-0.5 4.6 0.2 1 0.5 1.9 1.9 1.7 3-0.8 4.4-2.3 8.7-4.4 12.5-0.6 0.9-2.2 1.3-3.1 0.8-2.2-1.1-4.5-2.8-5.2-5.1-0.8-2.8 2-9.6 6.4-11.4z"/><path class="q" d="m106.9 177.9c-0.2 3.6-4.5 6.8-7.7 7.5-1.2 0.3-2.9 0-3.7-1.1-1.9-2.5-2.5-7.9-1.1-10.9 0.2-0.5 1-0.7 1.6-0.7 2.6-0.2 11 1.7 10.9 5.2z"/><path class="r" d="m51.1 200.6c1.6 1.3 2.7 3.3 3.5 5.2 0.6 1.6 0.6 3.9-2 3.3-4.1-1.1-7.8-3.6-9.1-5.7-1.1-1.8 0.4-4.6 2.5-4.4 1.8 0.1 3.7 0.5 5.1 1.6z"/><path class="s" d="m40.4 134.6c2.4-4 11.3-7.3 13.2-5.5 1.2 1 1.9 3.9 1.7 5.5-0.3 2-1.3 4.7-3.9 6.9q0.3-0.5 0.6-1c1.8-3.1 0.8-7.2-2-8.5-1.8-0.8-6.1-0.3-9.9 3.1q0.1-0.2 0.3-0.5z"/><path class="t" d="m68.1 120c1.3-0.2 2.5-0.1 3.8 0 2.6 0.2 1.5 4.9-0.2 5.9q-0.4 0.2-0.9 0.4c0.8-0.8 1.6-2 0.6-3.3-0.5-0.5-1.1-0.8-1.7-1.1-2.7-1-5.6 0.2-7.6 2 0.8-1.4 3.6-3.4 6-3.9z"/><path class="u" d="m51 150.3c1.3 0.5 2.1 2.4 1.9 3.8-0.5 2.7-0.8 4.1-3 5.9-3 2.5-6.9 4.2-10.8 5-2.6 0.6-4.7-3.2-3.9-5.8 0.8-2.6 2-5.3 4-7.3 2.5-2.6 7.7-3 11.8-1.6z"/><path class="v" d="m35.2 159.2c0.8-2.6 2-5.3 4-7.3 2.5-2.6 7.7-3 11.8-1.6 1.3 0.5 2.1 2.4 1.9 3.8-0.5 2.7-0.8 4.1-3 5.9q0 0 0 0c0.3-0.4 0.5-0.8 0.7-1.3 1-2.5-1.8-4.8-4.8-5.3-2.8-0.4-8.9 2.6-10.7 7.9-0.1-0.7-0.1-1.4 0.1-2.1z"/><path class="w" d="m29.2 147.6c0.8 0.8 1.6 2 1.5 3.2-0.2 2.1-0.8 4.4-2.2 6-3.5 3.9-10.2 9-7.6 0.4 1.4-4.4 3.8-11.3 5.3-11.2 1.2 0.1 2.3 0.8 3 1.6z"/><path class="x" d="m22.5 152.6c1.2-3.5 2.7-6.7 3.7-6.6 1.2 0.1 2.3 0.8 3 1.6 0.8 0.8 1.6 2 1.5 3.2-0.2 2.1-0.8 4.4-2.2 6-0.8 0.9-1.7 1.8-2.7 2.6 0.9-1.3 1.6-2.7 1.9-3.7 0.6-1.5 1.4-8.1-2.3-6.2-1.2 0.5-2.1 1.7-2.9 3.1z"/><path class="y" d="m84.1 144.7c1.8 0.8 1.8 3 1 3.7-2 2-4 3.6-6.4 6.1-2.5 2.7-4.4 6.4-7.4 8.6-7.2 5-8.5-8.7-7.1-12.7 0.6-1.9 6.5-7.3 10.9-7.4 2.7-0.1 6.5 0.6 9 1.7z"/><path class="z" d="m64.1 150.6q0-0.1 0.1-0.2c0.6-1.9 6.5-7.3 10.9-7.4 2.7-0.1 6.5 0.6 9 1.7 1.8 0.8 1.8 3 1 3.7-2 2-4 3.6-6.4 6.1-1.1 1.2-2.1 2.5-3.1 3.9 1.3-2.8 2.6-5.1 3.7-8 1.2-2.9-0.6-4.3-3.5-4.5-5.3-0.5-9.4 1.5-11.7 4.7z"/><path class="A" d="m82.5 127.2c-2.8 1.4-3.2 3.2-2.5 5.3q-0.2-0.4-0.5-0.8c-0.8-1.3-0.2-3.6 1-4.6 2.2-1.9 5.3-3.3 8.3-3.1 1.8 0.1 3.2 2.3 3.6 4.1 0.5 1.9 0 4.1-1.2 5.6-1.2 1.5-3.1 3-5 2.9 2.1-0.5 3.9-1.6 4.4-4.5 0.5-3.4-1.6-5.9-5.1-5.7-1 0.1-2.1 0.3-3 0.8z"/><path class="B" d="m106.9 153.1c-0.1-2.2-1.4-4.2-4.8-3.3-2.4 0.7-6.9 4.9-6.9 7.6 0 2.8 2.6 5 5.2 5.2 1.4 0.1 3-1.2 4-2.3q-0.6 1.5-1.4 2.9c-0.6 0.9-2.2 1.3-3.1 0.8-2.2-1.1-4.5-2.8-5.2-5.1-0.8-2.8 2-9.6 6.4-11.4 1.4-0.6 3.2-0.5 4.6 0.2 1 0.5 1.9 1.9 1.7 3q-0.2 1.2-0.5 2.4z"/><path class="C" d="m88 167.5c1.7 1.7 1.9 7.6 0 9.1-3.7 3.1-8.2 5.3-12.7 6.9-1.1 0.4-2.6-0.2-3.2-1.1-0.6-1.1-0.3-2.5 0.1-3.6 0.1-0.2 2.2-2.2 4-5 2.1-3.2 4.5-8.2 6.9-8.1 1.7 0.2 3.7 0.6 4.9 1.8z"/><path class="D" d="m73.8 177c0.7-0.8 1.6-1.9 2.4-3.2 2.1-3.2 4.5-8.2 6.9-8.1 1.7 0.2 3.7 0.6 4.9 1.8 1.7 1.7 1.9 7.6 0 9.1q-1.6 1.4-3.5 2.5c1.3-0.9 2.6-1.8 3.1-2.6 0.9-1.3 0.8-4.1-0.4-5.1-2.2-2-5.1-2-7.3-0.1-1.8 1.5-3.7 3.8-6.1 5.7z"/><path class="E" d="m95.5 184.3c-1.9-2.5-2.5-7.9-1.1-10.9 0.2-0.5 1-0.7 1.6-0.7 2.6-0.2 11 1.7 10.9 5.2-0.1 1.6-1 3.1-2.2 4.4 1-1.8 2.1-4.5 0.5-6-1.2-1.2-6.9-1.9-8.5-0.6-2.2 1.9-2.1 5.9-0.7 9.1q-0.3-0.2-0.5-0.5z"/><path class="F" d="m32.3 178c1.8 0.7 3.4 2.2 4.2 4 0.5 1.1 0.2 2.9-0.8 3.7-2.2 1.6-8.3 3.5-10.4 0.8-0.7-1-0.8-2.6-0.4-3.7 1-2.3 4.7-5.8 7.4-4.8z"/><path class="G" d="m25.5 186.7q-0.1-0.1-0.2-0.2c-0.7-1-0.8-2.6-0.4-3.7 1-2.3 4.7-5.8 7.4-4.8 1.8 0.7 3.4 2.2 4.2 4q0 0 0 0c-1.6-1.5-3.3-2.4-5.3-2-2.2 0.4-5.6 2.9-6 5.5 0 0.4 0.1 0.9 0.3 1.2z"/><path class="H" d="m44 183c-3.6-3 3.8-8.6 8.3-8.3 2.5 0.1 5 0.9 7 2.2 1.6 0.9 2.9 2.5 3.3 4.2 0.7 2.8-6.2 5.6-8.4 5.4-3.9-0.4-7.4-1.1-10.2-3.5z"/><path class="I" d="m44.4 183.4q-0.2-0.2-0.4-0.4c-3.6-3 3.8-8.6 8.3-8.3 2.5 0.1 5 0.9 7 2.2 1.6 0.9 2.9 2.5 3.3 4.2 0.2 0.8-0.3 1.7-1.1 2.4 2.2-3.6-6.1-5.7-8.9-5.7-2.9 0.1-6 1.4-8.1 3.2-0.4 0.4-0.6 1.6-0.1 2.4z"/><path class="J" d="m46 199c1.8 0.1 3.7 0.5 5.1 1.6 1.6 1.3 2.7 3.3 3.5 5.2 0.6 1.6 0.6 3.9-2 3.3 0.4-0.1 0.8-0.2 1-0.5 0.5-1-2.1-4-4.2-5.3-2.5-1.5-5.5-2-6.2-0.9-0.2-1.7 1.1-3.6 2.8-3.4z"/><path class="K" d="m68.7 202.3c-3.6-1.6 1.2-7.9 5-8.7 2-0.4 4.3-0.3 6.3 0.3 1.4 0.4 2.9 1.4 3.6 2.7 1.1 2.2-3.9 6-5.8 6.3-3.2 0.5-6.3 0.7-9.1-0.6z"/><path class="L" d="m69.1 202.5q-0.2-0.1-0.4-0.2c-3.6-1.6 1.2-7.9 5-8.7 2-0.4 4.3-0.3 6.3 0.3 1.4 0.4 2.9 1.4 3.6 2.7 0.3 0.7 0.1 1.4-0.4 2.2 1-3.4-6.3-3.3-8.6-2.7-2.3 0.7-4.6 2.4-5.9 4.5-0.3 0.4-0.2 1.4 0.4 1.9z"/><path class="M" d="m90.6 189c0.6 0.8 0.8 2 0.5 3-0.1 0.7-0.8 1.3-1.5 1.3-1.5 0-4.7-1.2-4.7-3 0-0.7 0.4-1.3 1-1.7 1.1-0.7 3.9-1 4.7 0.4z"/><path class="N" d="m84.9 190.5q0-0.1 0-0.2c0-0.7 0.4-1.3 1-1.7 1.1-0.7 3.9-1 4.7 0.4 0.6 0.8 0.8 2 0.5 3q0 0 0 0c-0.2-1.1-0.6-2.1-1.6-2.6-1.1-0.5-3.3-0.6-4.4 0.5-0.1 0.1-0.2 0.4-0.2 0.6z"/><path class="O" d="m83.1 115.8q0.6 0.2 1.2 0.4c12.6 4.7 22.1 14 28.8 27.3 2.2 6.5 3.7 13.8 4.5 22.1-1.1 7.9-2.9 14.9-5.3 20.9-12.7 9-22.5 16.3-32.1 26.7-2.4 1.4-4.9 2.3-7.4 2.9q-6.9-0.6-13.7-0.2c-9-2.4-17.4-6.9-25.7-13.4 9.2 6.3 22.7 13.4 29 6.8 2.4 5.6 12.7 5.1 15.9 0.4 8.5-12.4 11.7-15.7 24.2-20.3 3.4-1.2 4-1.9 3.8-3.5 13.8-2.5 9.8-34.6-1.1-46.2-1.6-12-11.7-19.2-22.1-23.9z"/><path class="P" d="m50.7 159.2c1.4-1.5 1.8-2.8 2.2-5.1 0.2-1.4-0.6-3.3-1.9-3.8-3.3-1.1-7.4-1.1-10.1 0.4 4.2-3.1 10.4-3.6 12.8-1.4 2.2 2 2 5.7-3 9.9z"/><path class="Q" d="m23.2 150.8c0.9-4.6 2.2-6.1 3.4-6.4 1.3-0.2 4.1 1.6 4.6 4.5 0.3 1.7-0.3 3.2-1.1 5.1 0.3-1.1 0.5-2.2 0.6-3.2 0.1-1.2-0.7-2.4-1.5-3.2-0.7-0.8-1.8-1.5-3-1.6-0.8-0.1-1.9 2.1-3 4.8z"/><path class="R" d="m53.2 139.8l-0.1-0.1c1.3-1.8 2-3.6 2.2-5.1 0.2-1.6-0.5-4.5-1.7-5.5-1.7-1.6-8.5 0.7-11.9 3.9 4.7-5.7 11.3-7.5 13.2-6.5 2 1.2 3 5.8-1.7 13.3z"/><path class="S" d="m64.1 158.5c-0.7-3.5-1.2-6.5-0.2-9.2 1.8-5.2 8.1-8.4 11.9-7.9 2.2 0.3 4.5 1.3 6.9 2.8-2.4-0.8-5.3-1.3-7.6-1.2-4.4 0.1-10.3 5.5-10.9 7.4-0.6 1.6-0.7 5-0.1 8.1z"/><path class="T" d="m43.6 179.4c1.4-4.1 5.2-6.2 8.5-6.3 3.3-0.1 7.3 2 9.4 5.7-0.6-0.8-1.4-1.4-2.2-1.9-2-1.3-4.5-2.1-7-2.2-2.9-0.2-7.2 2.2-8.7 4.7z"/><g style="opacity:.3"><path class="U" d="m32.3 178c1.4 0.6 2.6 1.5 3.5 2.8-2.3-5.6-8-5.2-10.5 1.4 1.2-2.2 4.5-5.1 7-4.2z"/><path class="V" d="m24.7 184.4h-0.1q0-0.2 0.1-0.4 0 0.2 0 0.4z"/></g><path class="W" d="m47.3 121.9q0.8-0.3 1.6-0.4c7.9-1 32.4 7.1 43.7 17.8 3.5 3.4-1.2 27.3-7.9 33.5-8.1 7.5-24.4 17.9-29.3 19.2-6.3 1.7-20.7 3-28.5 3.3-1.3 0.1-2.8-1.5-4-3.3q-1.3-2.2-2.3-4.6-0.3-2.3-0.7-4.6c-0.8-17.2 13-53.2 25.7-60.1q0.8-0.4 1.7-0.8z"/><path class="X" d="m40.2 124.3c3.8-0.7 7.4-2.4 10.8-4.4 1.7-1.1 3.8-2 5.6-2.4 6-0.7 11.8-2 17.6-3.4 3.4 0.4 6.8 1.1 10.1 2.1 12.6 4.7 22.1 14 28.8 27.3 2.2 6.5 3.7 13.8 4.5 22.1-1.1 7.9-2.9 14.9-5.3 20.9-12.7 9-22.5 16.3-32.1 26.7-2.4 1.4-4.9 2.3-7.4 2.9q-6.9-0.6-13.7-0.2c-12-3.2-22.9-10.1-34.2-20.7-1.7-2.3-3.1-5-4.3-7.8-0.8-6.6-2.4-12.4-5-17.2-1.1-1.8-1.4-3.7-1-5.8 0.9-5.5 2.3-11 4.5-16.3 0.6-1.5 1.4-2.6 2.7-3.7q5.2-4.5 9.1-11.2c3.6-2.9 6.9-5.8 9.3-8.9z"/><path class="Y" d="m40.2 124.3c3.8-0.7 7.4-2.4 10.8-4.4 1.7-1.1 3.8-2 5.6-2.4 6-0.7 11.8-2 17.6-3.4 3.4 0.4 6.8 1.1 10.1 2.1 12.6 4.7 22.1 14 28.8 27.3 2.2 6.5 3.7 13.8 4.5 22.1-1.1 7.9-2.9 14.9-5.3 20.9-12.7 9-22.5 16.3-32.1 26.7-2.4 1.4-4.9 2.3-7.4 2.9q-6.9-0.6-13.7-0.2c-12-3.2-22.9-10.1-34.2-20.7-1.7-2.3-3.1-5-4.3-7.8-0.8-6.6-2.4-12.4-5-17.2-1.1-1.8-1.4-3.7-1-5.8 0.9-5.5 2.3-11 4.5-16.3 0.6-1.5 1.4-2.6 2.7-3.7q5.2-4.5 9.1-11.2c3.6-2.9 6.9-5.8 9.3-8.9z"/><path class="Z" d="m83.2 134.8c2 1.6 0.6 4.3-3 6-10.7 5.3-18 8-38.2 25.8-4.8 4.2-9.7 7.4-12.6 7-4-0.6-6-3-5.7-6 2.5-19.9 14.4-37.2 20.8-42.9 6.7-6 32.1 4.8 38.7 10.1z"/><path class="a0" d="m47.3 121.9q0.8-0.3 1.6-0.4c7.9-1 32.4 7.1 43.7 17.8 3.5 3.4-1.2 27.3-7.9 33.5-8.1 7.5-24.4 17.9-29.3 19.2-6.3 1.7-20.7 3-28.5 3.3-1.3 0.1-2.8-1.5-4-3.3q-1.3-2.2-2.3-4.6-0.3-2.3-0.7-4.6c-0.8-17.2 13-53.2 25.7-60.1q0.8-0.4 1.7-0.8z"/><path class="a1" d="m40.2 124.3c3.8-0.7 7.4-2.4 10.8-4.4 1.7-1.1 3.8-2 5.6-2.4 6-0.7 11.8-2 17.6-3.4 3.4 0.4 6.8 1.1 10.1 2.1 12.6 4.7 22.1 14 28.8 27.3 2.2 6.5 3.7 13.8 4.5 22.1-1.1 7.9-2.9 14.9-5.3 20.9-12.7 9-22.5 16.3-32.1 26.7-2.4 1.4-4.9 2.3-7.4 2.9q-6.9-0.6-13.7-0.2c-12-3.2-22.9-10.1-34.2-20.7-1.7-2.3-3.1-5-4.3-7.8-0.8-6.6-2.4-12.4-5-17.2-1.1-1.8-1.4-3.7-1-5.8 0.9-5.5 2.3-11 4.5-16.3 0.6-1.5 1.4-2.6 2.7-3.7q5.2-4.5 9.1-11.2c3.6-2.9 6.9-5.8 9.3-8.9z"/></svg>