<svg version="1.2" xmlns="http://www.w3.org/2000/svg" viewBox="0 0 360 191" width="360" height="191"><defs><linearGradient id="P" gradientUnits="userSpaceOnUse"/><linearGradient id="g1" x1=".2" y1="-4.3" x2="143.4" y2="-4.3" href="#P"><stop stop-color="#373e42"/><stop offset=".1" stop-color="#31343b"/><stop offset="1" stop-color="#222529"/></linearGradient><linearGradient id="g2" x1="79.3" y1="-81.1" x2="160.2" y2="64.2" href="#P"><stop stop-color="#19344f"/><stop offset="1" stop-color="#006894"/></linearGradient><linearGradient id="g3" x1="260.9" y1="-10.5" x2="300.1" y2="69.8" href="#P"><stop stop-color="#a3b0bd"/><stop offset=".4" stop-color="#e1e9f2"/><stop offset="1" stop-color="#8e9dab"/></linearGradient><linearGradient id="g4" x1="254.7" y1="-8.4" x2="261.6" y2="5.7" href="#P"><stop stop-color="#756c80"/><stop offset="1" stop-color="#fcfcff"/></linearGradient><linearGradient id="g5" x1="287" y1="46" x2="298.9" y2="70.5" href="#P"><stop stop-color="#fcfcff"/><stop offset="1" stop-color="#756c80"/></linearGradient><radialGradient id="g6" cx="216.4" cy="54.3" r="76.5" href="#P"><stop stop-color="#fff"/><stop offset="1"/></radialGradient><linearGradient id="g7" x1="225.3" y1="9.8" x2="261.7" y2="84.4" href="#P"><stop stop-color="#bcc5cf"/><stop offset="1" stop-color="#717d87"/></linearGradient><linearGradient id="g8" x1="213.7" y1="-4.6" x2="302.3" y2="152.1" href="#P"><stop stop-color="#756c80"/><stop offset="1" stop-color="#fcfcff"/></linearGradient><linearGradient id="g9" x1="222.5" y1="19.6" x2="253.7" y2="83.5" href="#P"><stop stop-color="#c30"/><stop offset=".4" stop-color="#f75925"/><stop offset="1" stop-color="#b31800"/></linearGradient><linearGradient id="g10" x1="217.1" y1="20.4" x2="220.8" y2="28.1" href="#P"><stop stop-color="#756c80"/><stop offset="1" stop-color="#fcfcff"/></linearGradient><linearGradient id="g11" x1="245.6" y1="69.2" x2="252.8" y2="84" href="#P"><stop stop-color="#fcfcff"/><stop offset="1" stop-color="#756c80"/></linearGradient><radialGradient id="g12" cx="198.3" cy="63.3" r="65.9" href="#P"><stop stop-color="#f33218"/><stop offset="1"/></radialGradient><linearGradient id="g13" x1="201.8" y1="11.2" x2="248.5" y2="92.1" href="#P"><stop stop-color="#a3b0bd"/><stop offset=".4" stop-color="#e1e9f2"/><stop offset="1" stop-color="#8e9dab"/></linearGradient><linearGradient id="g14" x1="198.3" y1="17.5" x2="202.1" y2="25.1" href="#P"><stop stop-color="#756c80"/><stop offset="1" stop-color="#fcfcff"/></linearGradient><linearGradient id="g15" x1="235.2" y1="76.7" x2="246.1" y2="95.4" href="#P"><stop stop-color="#fcfcff"/><stop offset="1" stop-color="#756c80"/></linearGradient><radialGradient id="g16" cx="156.2" cy="79.7" r="72.6" href="#P"><stop stop-color="#fff"/><stop offset="1"/></radialGradient><linearGradient id="g17" x1="151.4" y1="46.3" x2="192.3" y2="130.1" href="#P"><stop stop-color="#bcc5cf"/><stop offset="1" stop-color="#717d87"/></linearGradient><linearGradient id="g18" x1="136.8" y1="164.5" x2="100" y2="97.2" href="#P"><stop stop-color="#fcfcff"/><stop offset="1" stop-color="#756c80"/></linearGradient><linearGradient id="g19" x1="140.8" y1="56.6" x2="177" y2="119.3" href="#P"><stop stop-color="#a3b0bd"/><stop offset=".4" stop-color="#e1e9f2"/><stop offset="1" stop-color="#8e9dab"/></linearGradient><linearGradient id="g20" x1="138.3" y1="59.1" x2="141.8" y2="66.2" href="#P"><stop stop-color="#756c80"/><stop offset="1" stop-color="#fcfcff"/></linearGradient><linearGradient id="g21" x1="166.5" y1="107.7" x2="174.2" y2="121.1" href="#P"><stop stop-color="#fcfcff"/><stop offset="1" stop-color="#756c80"/></linearGradient><radialGradient id="g22" cx="120.3" cy="108.3" r="44.2" href="#P"><stop stop-color="#fff"/><stop offset="1"/></radialGradient><linearGradient id="g23" x1="116.7" y1="41.4" x2="164.6" y2="137.3" href="#P"><stop stop-color="#bcc5cf"/><stop offset="1" stop-color="#717d87"/></linearGradient><linearGradient id="g24" x1="124.5" y1="61.4" x2="162.6" y2="136.8" href="#P"><stop stop-color="#756c80"/><stop offset="1" stop-color="#fcfcff"/></linearGradient><radialGradient id="g25" cx="77" cy="167.1" r="101.5" href="#P"><stop stop-color="#f75925"/><stop offset="1" stop-color="#b31800"/></radialGradient><radialGradient id="g26" cx="39.8" cy="154.2" r="115.1" href="#P"><stop offset=".7" stop-color="#fcfcff"/><stop offset="1" stop-color="#756c80"/></radialGradient><radialGradient id="g27" cx="53.6" cy="183.7" r="78.6" href="#P"><stop stop-color="#f33218"/><stop offset="1"/></radialGradient><linearGradient id="g28" x1="60.3" y1="61.5" x2="56.3" y2="133.9" href="#P"><stop stop-color="#bcc5cf"/><stop offset="1" stop-color="#717d87"/></linearGradient><linearGradient id="g29" x1="131.9" y1="103.5" x2="61.7" y2="146.8" href="#P"><stop stop-color="#bcc5cf"/><stop offset="1" stop-color="#717d87"/></linearGradient><linearGradient id="g30" x1="118.6" y1="196.4" x2="-16.1" y2="121.5" href="#P"><stop stop-color="#90969e"/><stop offset="1" stop-color="#2f3438"/></linearGradient><linearGradient id="g31" x1="60.7" y1="122.7" x2="73.3" y2="148.4" href="#P"><stop stop-color="#a3b0bd"/><stop offset=".4" stop-color="#e1e9f2"/><stop offset="1" stop-color="#8e9dab"/></linearGradient><linearGradient id="g32" x1="58.9" y1="122.9" x2="60.6" y2="126.2" href="#P"><stop stop-color="#756c80"/><stop offset="1" stop-color="#fcfcff"/></linearGradient><linearGradient id="g33" x1="70.1" y1="142.9" x2="72.9" y2="148.6" href="#P"><stop stop-color="#fcfcff"/><stop offset="1" stop-color="#756c80"/></linearGradient><radialGradient id="g34" cx="46.5" cy="138.2" r="28.2" href="#P"><stop stop-color="#fff"/><stop offset="1"/></radialGradient><linearGradient id="g35" x1="52.5" y1="124.5" x2="67.7" y2="156.7" href="#P"><stop stop-color="#bcc5cf"/><stop offset="1" stop-color="#717d87"/></linearGradient><radialGradient id="g36" cx="35.9" cy="65.3" r="47.1" href="#P"><stop stop-color="#fff"/><stop offset="1"/></radialGradient><radialGradient id="g37" cx="112.4" cy="96.3" r="53.5" href="#P"><stop stop-color="#fff"/><stop offset="1"/></radialGradient><linearGradient id="g38" x1="183.6" y1="100.7" x2="205.8" y2="100.7" href="#P"><stop stop-color="#52585e"/><stop offset="1" stop-color="#232d36"/></linearGradient><linearGradient id="g39" x1="216.7" y1="83.5" x2="238.9" y2="83.5" href="#P"><stop stop-color="#52585e"/><stop offset="1" stop-color="#232d36"/></linearGradient><linearGradient id="g40" x1="193.2" y1="91.3" x2="358.9" y2="91.3" href="#P"><stop stop-color="#353a40"/><stop offset=".6" stop-color="#373b42"/><stop offset=".7" stop-color="#6f7e87"/><stop offset=".8" stop-color="#454545"/><stop offset="1" stop-color="#292929"/></linearGradient><linearGradient id="g41" x1="299.2" y1="54.7" x2="382.1" y2="176.2" href="#P"><stop stop-color="#19344f"/><stop offset="1" stop-color="#006894"/></linearGradient><radialGradient id="g42" cx="179" cy="125.4" r="21.3" href="#P"><stop stop-color="#fff"/><stop offset="1"/></radialGradient><radialGradient id="g43" cx="215.2" cy="107" r="19.9" href="#P"><stop stop-color="#fff"/><stop offset="1"/></radialGradient></defs><style>.a{fill:url(#g1)}.b{fill:#1d1d1b}.c{fill:url(#g2)}.d{fill:url(#g3)}.e{mix-blend-mode:multiply;fill:url(#g4)}.f{mix-blend-mode:multiply;fill:url(#g5)}.g{mix-blend-mode:screen;fill:url(#g6)}.h{mix-blend-mode:screen;fill:#e6e6e6}.i{fill:url(#g7)}.j{mix-blend-mode:multiply;fill:url(#g8)}.k{fill:url(#g9)}.l{mix-blend-mode:multiply;fill:url(#g10)}.m{mix-blend-mode:multiply;fill:url(#g11)}.n{mix-blend-mode:screen;fill:url(#g12)}.o{fill:url(#g13)}.p{mix-blend-mode:multiply;fill:url(#g14)}.q{mix-blend-mode:multiply;fill:url(#g15)}.r{mix-blend-mode:screen;fill:url(#g16)}.s{fill:url(#g17)}.t{mix-blend-mode:multiply;fill:url(#g18)}.u{fill:url(#g19)}.v{mix-blend-mode:multiply;fill:url(#g20)}.w{mix-blend-mode:multiply;fill:url(#g21)}.x{mix-blend-mode:screen;fill:url(#g22)}.y{fill:url(#g23)}.z{mix-blend-mode:multiply;fill:url(#g24)}.A{fill:#a1300b}.B{fill:#c43c0d}.C{fill:#e74e1b}.D{fill:url(#g25)}.E{mix-blend-mode:multiply;fill:url(#g26)}.F{mix-blend-mode:screen;fill:url(#g27)}.G{fill:url(#g28)}.H{fill:url(#g29)}.I{fill:url(#g30)}.J{fill:url(#g31)}.K{mix-blend-mode:multiply;fill:url(#g32)}.L{mix-blend-mode:multiply;fill:url(#g33)}.M{mix-blend-mode:screen;fill:url(#g34)}.N{fill:url(#g35)}.O{mix-blend-mode:screen;fill:url(#g36)}.P{mix-blend-mode:screen;fill:url(#g37)}.Q{fill:url(#g38)}.R{fill:url(#g39)}.S{fill:url(#g40)}.T{fill:url(#g41)}.U{mix-blend-mode:screen;fill:url(#g42)}.V{mix-blend-mode:screen;fill:url(#g43)}</style><path class="a" d="m4.4 23.6q10.6-4.5 21.2-9.1 11.7-5 23.4-10.1c2.5-1.1 6.4-1 8.7 0.1q21 10.4 42.1 20.7 18.4 9.1 36.8 18.2l6.8 1v3.3q0.1 0.2 0 0.4c-0.1 0.8-0.7 1.5-2 2.1q-11.5 5.8-23 11.5-11.6 5.7-23.1 11.4c-2.5 1.3-6.4 1.3-8.6 0.1q-21.3-11.1-42.5-22.2-21.2-11.2-42.5-22.3c-1-0.5-1.6-1.2-1.5-1.9v-3.8z"/><path class="b" d="m2.2 21.1q11.7-5.1 23.4-10.1 11.7-5 23.4-10.1c2.5-1 6.4-1 8.7 0.1q21 10.4 42.1 20.7 21 10.4 42.1 20.8c2.2 1.1 2 3-0.5 4.2q-11.5 5.8-23 11.5-11.6 5.7-23.1 11.4c-2.5 1.3-6.4 1.3-8.6 0.1q-21.3-11.1-42.5-22.2-21.2-11.2-42.5-22.3c-2.2-1.2-2-3 0.5-4.1z"/><path class="c" d="m40 7q5.7-2.4 11.4-4.9c1.1-0.4 2.7-0.4 3.6 0q6 3 12 6c4 1.9 8 3.9 12 5.9 0.9 0.4 0.8 1.2-0.2 1.7q-5.7 2.5-11.3 5.1c-1.1 0.5-2.7 0.5-3.6 0q-6.1-3-12.1-6-6-3.1-12-6.1c-0.9-0.5-0.8-1.2 0.2-1.7zm-17.7 7.7q5.7-2.5 11.4-4.9c1-0.5 2.6-0.5 3.6 0q6 3 12 6.1 6 3 12 6c1 0.5 0.9 1.3-0.2 1.8q-5.6 2.5-11.3 5.1c-1 0.4-2.7 0.4-3.6-0.1q-6-3-12.1-6.1-6-3.1-12-6.2c-0.9-0.5-0.8-1.3 0.2-1.7zm-17.7 7.6q5.7-2.4 11.3-4.9c1.1-0.4 2.7-0.4 3.6 0.1q6.1 3.1 12.1 6.2 6.1 3.1 12.1 6.2c0.9 0.5 0.8 1.2-0.2 1.7q-5.7 2.6-11.3 5.1c-1.1 0.5-2.7 0.5-3.7 0q-6-3.2-12.1-6.3-6-3.2-12-6.3c-1-0.5-0.9-1.3 0.2-1.8zm30.3 15.9q5.7-2.6 11.3-5.2c1.1-0.4 2.7-0.4 3.7 0.1q6 3.1 12 6.2 6 3.1 12.1 6.2c0.9 0.4 0.8 1.3-0.2 1.7q-5.6 2.7-11.3 5.4c-1 0.5-2.6 0.5-3.6 0q-6-3.2-12.1-6.4-6-3.1-12-6.3c-1-0.5-0.9-1.3 0.1-1.7zm17.7-8q5.6-2.6 11.3-5.2c1-0.4 2.7-0.4 3.6 0q6 3.1 12 6.1 6 3 12 6.1c1 0.5 0.9 1.2-0.1 1.7q-5.7 2.7-11.3 5.4c-1 0.5-2.7 0.5-3.6 0q-6-3.1-12-6.2-6.1-3.1-12.1-6.2c-1-0.5-0.9-1.3 0.2-1.7zm17.6-8q5.7-2.6 11.3-5.2c1.1-0.4 2.7-0.4 3.6 0q6 3 12 6 6 2.9 12 5.9c1 0.5 0.9 1.2-0.2 1.7q-5.6 2.7-11.2 5.4c-1.1 0.5-2.7 0.5-3.6 0q-6-3-12.1-6.1-6-3-12-6c-0.9-0.5-0.8-1.2 0.2-1.7zm30.2 15.1q5.7-2.6 11.3-5.3c1-0.5 2.6-0.5 3.6-0.1q6 3 12 6 6 2.9 12 5.9c0.9 0.5 0.8 1.3-0.2 1.8q-5.6 2.7-11.2 5.5c-1.1 0.5-2.7 0.5-3.6 0.1q-6-3-12-6.1-6-3-12.1-6c-0.9-0.5-0.8-1.3 0.2-1.8zm-17.5 8.4q5.6-2.7 11.2-5.4c1.1-0.5 2.7-0.5 3.6 0q6 3 12 6.1 6.1 3 12.1 6c0.9 0.5 0.8 1.3-0.2 1.8q-5.6 2.8-11.2 5.6c-1.1 0.5-2.7 0.5-3.6 0q-6-3.1-12.1-6.2-6-3.1-12-6.2c-1-0.4-0.9-1.2 0.2-1.7zm-17.6 8.3q5.6-2.7 11.2-5.3c1.1-0.5 2.7-0.5 3.7-0.1q6 3.1 12 6.2c4 2.1 8.1 4.2 12.1 6.2 0.9 0.5 0.8 1.3-0.2 1.9q-5.6 2.7-11.2 5.5c-1 0.5-2.7 0.5-3.6 0q-6.1-3.1-12.1-6.3-6-3.1-12.1-6.3c-0.9-0.5-0.8-1.3 0.2-1.8z"/><path class="d" d="m239.9 6.4c11.1-3.2 26.1 6.8 34.9 23.7 8.7 17 8.1 35-0.9 42.2l-35 28-42.1-81.6z"/><path class="e" d="m196.8 18.7l43.2-12.3c4.4-1.3 9.4-0.4 14.5 2.1q-26.9 8.8-53.8 17.7z"/><path class="f" d="m273.9 72.3l-35 28-8.3-16.2q25.1-17.3 50.2-34.6c1 9.9-1.3 18.4-6.9 22.8z"/><path class="g" d="m205.3 35.2q28.3-10.8 56.6-21.7c4.8 4.1 9.2 9.6 12.6 16.1q-28.2 15.1-56.5 30.2z"/><path class="h" d="m194.6 20.2c13.5-7 33.9 5.3 45.4 27.4 11.6 22.1 10 45.7-3.6 52.7-13.5 7-33.9-5.2-45.4-27.3-11.6-22.2-10-45.8 3.6-52.8z"/><path class="i" d="m192.4 20.3c14-7.3 34.9 5.4 46.7 28.2 11.8 22.9 9.9 47.3-4.1 54.5-14 7.2-35-5.4-46.7-28.3-11.8-22.8-10-47.2 4.1-54.4z"/><path class="j" d="m246.2 69.8c2.4 15.1-1.5 28.2-11.2 33.2-3.2 1.7-6.8 2.3-10.6 2-10.6-2.4-22.1-12.3-29.6-26.8-10.6-20.6-9-42.5 3.7-49.1 12.6-6.5 31.5 4.9 42.1 25.5 2.6 5.1 4.4 10.2 5.6 15.2z"/><path class="k" d="m198.5 29.1c10.1-4.7 25.4 5.3 34.4 22.6 9 17.6 8.2 36.1-1.9 41.4l-44.3 23.5-34.1-65.8 45.9-21.7z"/><path class="l" d="m152.6 50.8l45.9-21.7c4.4-2 9.8-1.3 15.2 1.6q-28.6 13.7-57.3 27.4z"/><path class="m" d="m231.2 92.9l-0.2 0.2q0 0 0 0l-44.3 23.5-6.8-13.2q29.6-15.3 59.2-30.7c0.6 9.4-2.1 17.1-7.9 20.2z"/><path class="n" d="m161.1 67.2q30.7-14.9 61.4-29.8c3.9 3.8 7.5 8.7 10.4 14.3q1.4 2.8 2.5 5.6-31.4 15.9-62.9 31.8z"/><path class="o" d="m178.2 27.3c13.2-6.2 33.1 6.8 44.8 29.5 11.8 22.9 10.7 47-2.5 53.9l-57.7 30.6-44.4-85.8 59.8-28.2z"/><path class="p" d="m118.4 55.5l59.8-28.2c4.9-2.3 10.7-2 16.7 0.6q-36.4 17.4-72.8 34.8z"/><path class="q" d="m220.8 110.5l-0.3 0.2-57.7 30.6-8.9-17.1q38.6-20.1 77.1-40.2c0.9 12.2-2.6 22.3-10.2 26.5z"/><path class="r" d="m126.5 71.2q38.9-18.9 77.8-37.8c6.9 5.5 13.6 13.5 18.7 23.4q1 1.9 1.9 3.8-41.2 20.9-82.3 41.8z"/><path class="h" d="m120.5 55.5c13.6-6.9 33.8 6.4 45.3 29.7 11.4 23.3 9.6 47.8-4 54.8-13.6 6.9-33.9-6.4-45.3-29.7-11.4-23.4-9.7-47.9 4-54.8z"/><path class="s" d="m118.4 55.5c13.6-7 34.6 6.5 46.8 30.2 12.2 23.7 11 48.6-2.6 55.6-13.6 7.1-34.6-6.4-46.8-30.1-12.3-23.7-11.1-48.7 2.6-55.7z"/><path class="t" d="m169.6 134.7c-1.8 2.9-4.1 5.2-7 6.6-13.6 7.1-34.6-6.4-46.8-30.1-4.1-8-6.7-16-7.8-23.5 0.5-9.4 3.9-16.8 10.3-20.1 12.9-6.6 32.7 6.1 44.2 28.5 7.1 13.8 9.4 28.1 7.1 38.6z"/><path class="u" d="m119.5 67c9.8-5 25.4 5.8 34.8 24.1 9.5 18.4 9.3 37.3-0.5 42.4l-15.1 8.3c-11.7-22.6-23.1-44.7-34.7-67.3z"/><path class="v" d="m104 74.5l1.6-0.8 13.9-6.7q0.1 0 0.2-0.1 0.1 0 0.2-0.1c4.2-2 9.5-1.1 14.8 2q-13.4 6.6-26.9 13.2-1.9-3.8-3.8-7.5z"/><path class="w" d="m154.3 133.2l-0.5 0.2q0 0 0 0.1l-15.1 8.3q-3.5-6.8-7-13.5 14.7-7.8 29.3-15.7c1 9.6-1.2 17.4-6.7 20.6z"/><path class="x" d="m112.7 91.3q15.4-7.7 30.9-15.4c3.9 4.1 7.7 9.3 10.7 15.2q2.2 4.3 3.7 8.5-16.2 8.5-32.3 17-6.5-12.7-13-25.3z"/><path class="y" d="m104 74.5c9.9-5.1 25.6 5.8 35.2 24.4 9.6 18.6 9.4 37.8-0.5 42.9-9.9 5.1-25.7-5.9-35.3-24.4-9.5-18.6-9.3-37.8 0.6-42.9z"/><path class="z" d="m144.5 135.1c-1.3 3-3.2 5.3-5.8 6.7-9.9 5.1-25.7-5.9-35.3-24.4-9.5-18.6-9.3-37.8 0.6-42.9q1.1-0.6 2.4-0.9c10.1 3.7 21.3 14.5 29.2 29.4 5.9 11.3 8.9 22.7 8.9 32.1z"/><path class="A" d="m81.5 59.2c46.4 15.7 70 61.7 55.1 109.8z"/><path class="B" d="m83.3 60.5c40 13.5 60.3 53.1 47.5 94.5z"/><path class="C" d="m57.2 59c20-10.1 50.9 10.7 68.9 46.4 18 35.7 16.3 72.9-3.7 83-20.1 10.1-50.9-10.7-68.9-46.4-18-35.7-16.4-72.9 3.7-83z"/><path class="D" d="m57.8 62.3c19.3-9.7 49 10.2 66.3 44.6 17.3 34.3 15.8 70.1-3.5 79.8-19.3 9.7-49-10.2-66.3-44.6-17.3-34.3-15.7-70.1 3.5-79.8z"/><path class="E" d="m43.7 82.6c2.2-9.4 6.9-16.7 14.1-20.3 19.3-9.7 49 10.2 66.3 44.6 15.5 30.7 15.9 62.5 2 75.8 6.8-15.6 4.3-40.7-8.1-65.2-16.9-33.6-46-53.2-64.9-43.7-3.9 2-7 5-9.4 8.8z"/><path class="F" d="m66.5 101.2c32.4 7.3 51.9 58.2 44.9 87.9-18.7 1.1-42.4-17.7-57.1-47-4.7-9.3-8-18.8-10-27.8 4.8-12 13.1-15.2 22.2-13.1z"/><path class="G" d="m48 129.3c-0.1 0.6-0.6 1.1-1.2 1.1-0.6-0.1-1.1-0.6-1-1.2l4.2-63.3c0-0.6 0.5-1.1 1.1-1.1 0.6 0.1 1.1 0.6 1 1.2z"/><path class="H" d="m60.1 138.1c-0.5 0.3-1.2 0.2-1.5-0.4-0.3-0.5-0.2-1.1 0.3-1.5l61.8-37.7c0.5-0.3 1.2-0.2 1.5 0.4 0.3 0.5 0.1 1.1-0.4 1.5z"/><path class="I" d="m60.2 154.8c-0.5-0.3-0.7-1-0.4-1.5 0.2-0.5 0.9-0.7 1.4-0.5l60.9 33.4c0.5 0.2 0.7 0.9 0.4 1.4-0.3 0.6-0.9 0.8-1.5 0.5z"/><path class="J" d="m46.9 128.3c3.9-2 10.1 2.2 13.8 9.5 3.8 7.3 3.7 14.8-0.2 16.8l-7.6 4-13.8-26.7z"/><path class="K" d="m39.1 131.9l7.8-3.6q0 0 0-0.1l0.4-0.1c1.7-0.7 3.9-0.2 6.1 1.2q-6.3 2.9-12.6 5.9z"/><path class="L" d="m60.5 154.5v0.1l-7.6 4-2.8-5.4q6.6-3.4 13.3-6.8c0.3 3.9-0.6 6.9-2.9 8.1z"/><path class="M" d="m42.5 138.5q7-3.3 14-6.6c1.6 1.6 3 3.6 4.2 5.9q0.6 1.2 1.1 2.3-7.3 3.7-14.7 7.3z"/><path class="N" d="m39.1 131.9c3.9-2.1 10.2 2.3 14 9.7 3.8 7.3 3.7 14.9-0.2 17-3.9 2-10.2-2.4-14-9.7-3.8-7.4-3.7-15 0.2-17z"/><path class="O" d="m51.6 66.7l-5 57.7 3.6-58.1c0.1-1 1.5-1.2 1.4 0.4z"/><path class="P" d="m120.7 100.3l-59.8 35.4 59-36.6c1.3-0.7 2 0.5 0.8 1.2z"/><path class="Q" d="m184.5 112.5c-1.1-0.6-1.5-1.9-1-3 0.6-1.1 1.9-1.5 3-0.9l18.4 9.5c1.1 0.6 1.5 1.9 0.9 2.9-0.5 1.1-1.9 1.5-2.9 1z"/><path class="R" d="m217.6 95.3c-1.1-0.5-1.5-1.8-1-2.9 0.5-1.1 1.9-1.5 2.9-1l18.5 9.2c1 0.5 1.5 1.9 0.9 2.9-0.5 1.1-1.8 1.6-2.9 1z"/><path class="S" d="m196.2 124.5q11.2-5.9 22.5-11.8 11.8-6.2 23.7-12.5c2.5-1.3 6.9-1.3 9.6 0.1q26.2 12.9 52.4 25.8l48.3 23.8 6.3 1v3.5c0.1 1-0.5 2-1.8 2.7q-11.8 7.1-23.5 14.1-11.8 7-23.6 14c-2.6 1.5-6.9 1.5-9.7 0-17.5-9.1-35-18.3-52.5-27.5q-26.2-13.7-52.5-27.5c-1.3-0.7-2.1-1.5-2.2-2.4q0-0.3 0-0.6v-3.2z"/><path class="b" d="m195 121.6q11.8-6.2 23.7-12.4 11.8-6.2 23.7-12.5c2.5-1.3 6.9-1.3 9.6 0.1q26.2 12.9 52.4 25.8 26.2 12.9 52.4 25.8c2.8 1.4 3 3.7 0.4 5.3q-11.8 7-23.5 14-11.8 7-23.6 14c-2.6 1.5-6.9 1.5-9.7 0-17.5-9.1-35-18.3-52.5-27.5q-26.2-13.7-52.5-27.5c-2.8-1.4-3-3.7-0.4-5.1z"/><path class="T" d="m308.8 141.9q5.7-3.3 11.4-6.6c1.1-0.6 2.9-0.6 4.1 0q7.5 3.7 14.9 7.3 7.5 3.7 14.9 7.4c1.2 0.6 1.3 1.6 0.2 2.2q-5.7 3.4-11.5 6.8c-1 0.6-2.8 0.6-4 0.1q-7.5-3.8-14.9-7.5-7.5-3.8-14.9-7.5c-1.2-0.6-1.3-1.6-0.2-2.2zm-17.9 10.2q5.7-3.3 11.4-6.5c1.1-0.6 2.9-0.7 4.1-0.1q7.5 3.8 14.9 7.6 7.5 3.7 14.9 7.5c1.2 0.6 1.3 1.6 0.2 2.2q-5.7 3.4-11.4 6.8c-1.1 0.6-2.9 0.6-4.1 0q-7.4-3.8-14.9-7.6-7.4-3.9-14.9-7.7c-1.2-0.6-1.3-1.6-0.2-2.2zm-17.9 10.2q5.7-3.2 11.5-6.5c1-0.6 2.8-0.6 4 0q7.5 3.8 14.9 7.7 7.5 3.8 15 7.6c1.1 0.6 1.2 1.6 0.2 2.3q-5.8 3.4-11.5 6.7c-1.1 0.7-2.9 0.7-4 0.1q-7.5-3.9-15-7.8-7.4-3.9-14.9-7.8c-1.2-0.7-1.3-1.6-0.2-2.3zm-37.6-19.5c3.9-2.1 7.7-4.2 11.5-6.3 1.1-0.6 2.9-0.6 4.1 0q7.5 3.8 14.9 7.7 7.5 3.8 14.9 7.6c1.2 0.6 1.3 1.6 0.2 2.2q-5.7 3.3-11.4 6.6c-1.1 0.6-2.9 0.6-4.1-0.1q-7.5-3.8-14.9-7.8-7.5-3.9-15-7.8c-1.1-0.6-1.2-1.6-0.2-2.1zm18-9.9q5.7-3.1 11.5-6.3c1-0.6 2.8-0.6 4 0q7.5 3.8 14.9 7.5 7.5 3.8 14.9 7.6c1.2 0.5 1.3 1.5 0.2 2.1q-5.7 3.3-11.4 6.6c-1.1 0.6-2.9 0.6-4.1 0q-7.4-3.8-14.9-7.7-7.5-3.8-14.9-7.6c-1.2-0.6-1.3-1.6-0.2-2.2zm17.9-9.8q5.7-3.2 11.5-6.3c1-0.6 2.8-0.6 4-0.1q7.5 3.7 14.9 7.4 7.5 3.7 14.9 7.4c1.2 0.6 1.3 1.5 0.2 2.1q-5.7 3.3-11.4 6.6c-1.1 0.6-2.9 0.6-4.1 0q-7.5-3.7-14.9-7.5-7.5-3.7-14.9-7.5c-1.2-0.6-1.3-1.5-0.2-2.1zm-37.5-18.8q5.7-3.1 11.5-6.1c1.1-0.6 2.9-0.6 4 0 5 2.5 10 4.9 15 7.4q7.4 3.7 14.9 7.4c1.1 0.5 1.2 1.5 0.1 2.1q-5.7 3.1-11.4 6.3c-1.1 0.5-2.9 0.5-4.1-0.1q-7.5-3.7-14.9-7.5-7.5-3.7-14.9-7.5c-1.2-0.5-1.3-1.5-0.2-2zm-17.9 9.4q5.7-3 11.5-6c1-0.6 2.8-0.6 4 0q7.5 3.8 14.9 7.5 7.5 3.8 15 7.5c1.1 0.6 1.2 1.6 0.1 2.2q-5.7 3.1-11.5 6.3c-1 0.5-2.8 0.5-4-0.1q-7.5-3.8-14.9-7.6-7.5-3.8-15-7.7c-1.1-0.6-1.2-1.5-0.1-2.1zm-18 9.5q5.8-3 11.5-6.1c1.1-0.5 2.9-0.5 4.1 0.1q7.4 3.8 14.9 7.7c5 2.5 9.9 5.1 14.9 7.6 1.2 0.6 1.3 1.6 0.2 2.2q-5.7 3.1-11.5 6.3c-1 0.6-2.9 0.5-4-0.1q-7.5-3.9-15-7.8-7.4-3.9-14.9-7.8c-1.2-0.6-1.3-1.6-0.2-2.1z"/><path class="U" d="m184.8 110.9c-0.5-0.3-0.8-1-0.5-1.5 0.3-0.5 1-0.8 1.5-0.5l16.8 8.7-2.4 1.3z"/><path class="V" d="m217.9 93.7c-0.5-0.2-0.7-0.9-0.5-1.4 0.3-0.6 1-0.8 1.5-0.5l16.5 8.6-2.3 1.2z"/></svg>