<svg version="1.2" xmlns="http://www.w3.org/2000/svg" viewBox="0 0 268 267" width="268" height="267"><defs><linearGradient id="P" gradientUnits="userSpaceOnUse"/><linearGradient id="g1" x1="1.9" y1="254.9" x2="44.9" y2="222.8" href="#P"><stop/><stop offset="1" stop-color="#dd2f00"/></linearGradient><linearGradient id="g2" x1="10.5" y1="249.5" x2="44.9" y2="222.8" href="#P"><stop/><stop offset="1" stop-color="#f9b233"/></linearGradient><linearGradient id="g3" x1="24.2" y1="237.9" x2="50.3" y2="217.4" href="#P"><stop/><stop offset="1" stop-color="#ffed00"/></linearGradient><linearGradient id="g4" x1="62.9" y1="170.3" x2="97.3" y2="204.4" href="#P"><stop stop-color="#28343d"/><stop offset=".3" stop-color="#38414a"/><stop offset="1" stop-color="#151e26"/></linearGradient><radialGradient id="g5" cx="85.1" cy="188" r="40.6" href="#P"><stop offset=".8"/><stop offset="1" stop-color="#f32d00"/></radialGradient><linearGradient id="g6" x1="63" y1="172.8" x2="91.4" y2="201" href="#P"><stop stop-color="#1d1d1b"/><stop offset=".2" stop-color="#bae7ff"/><stop offset=".9" stop-color="#1d1d1b"/></linearGradient><radialGradient id="g7" cx="71.3" cy="198.4" r="23.1" href="#P"><stop offset=".5" stop-color="#1d1d1b"/><stop offset="1" stop-color="#f94700"/></radialGradient><radialGradient id="g8" cx="74.8" cy="177.6" r="39.5" href="#P"><stop stop-color="#3c536b"/><stop offset=".9" stop-color="#fff"/></radialGradient><radialGradient id="g9" cx="215.6" cy="125.4" r="99.5" href="#P"><stop stop-color="#e60e65"/><stop offset="1" stop-color="#6b0026"/></radialGradient><radialGradient id="g10" cx="97.5" cy="64.2" r="76.2" href="#P"><stop stop-color="#e60e65"/><stop offset="1" stop-color="#6b0026"/></radialGradient><linearGradient id="g11" x1="141.3" y1="48.8" x2="218.7" y2="126.2" href="#P"><stop stop-color="#f39200"/><stop offset=".3" stop-color="#ffd659"/><stop offset="1" stop-color="#d97400"/></linearGradient><linearGradient id="g12" x1="208.5" y1="117" x2="221" y2="131.4" href="#P"><stop stop-color="#fff"/><stop offset="1" stop-color="#874500"/></linearGradient><linearGradient id="g13" x1="138.3" y1="48.8" x2="144.9" y2="54.5" href="#P"><stop stop-color="#874500"/><stop offset="1" stop-color="#fff"/></linearGradient><radialGradient id="g14" cx="130.2" cy="81.4" r="79.5" href="#P"><stop stop-color="#fcea10"/><stop offset="1"/></radialGradient><radialGradient id="g15" cx="174.3" cy="110.8" r="94.2" href="#P"><stop stop-color="#fcea10"/><stop offset="1"/></radialGradient><radialGradient id="g16" cx="133" cy="85.6" r="58" href="#P"><stop stop-color="#fcea10"/><stop offset="1"/></radialGradient><radialGradient id="g17" cx="147.4" cy="92.5" r="80.6" href="#P"><stop stop-color="#ffed7a"/><stop offset="1" stop-color="#de8500"/></radialGradient><radialGradient id="g18" cx="136.3" cy="109.5" r="59.9" href="#P"><stop stop-color="#fcea10"/><stop offset="1"/></radialGradient><radialGradient id="g19" cx="183.3" cy="113.9" r="59.9" href="#P"><stop offset=".2" stop-color="#fff"/><stop offset=".7" stop-color="#874500"/></radialGradient><radialGradient id="g20" cx="127.9" cy="81.6" r="50.2" href="#P"><stop stop-color="#fcea10"/><stop offset="1"/></radialGradient><radialGradient id="g21" cx="149.9" cy="78.7" r="54.8" href="#P"><stop stop-color="#fff"/><stop offset="1" stop-color="#874500"/></radialGradient><linearGradient id="g22" x1="194.6" y1="18.3" x2="249.2" y2="72.9" href="#P"><stop stop-color="#f39200"/><stop offset=".3" stop-color="#ffd659"/><stop offset="1" stop-color="#d97400"/></linearGradient><linearGradient id="g23" x1="192.3" y1="18.1" x2="197.8" y2="23.6" href="#P"><stop stop-color="#874500"/><stop offset="1" stop-color="#fff"/></linearGradient><linearGradient id="g24" x1="240.3" y1="66.1" x2="249.3" y2="75.2" href="#P"><stop stop-color="#fff"/><stop offset="1" stop-color="#874500"/></linearGradient><linearGradient id="g25" x1="222.3" y1="30.7" x2="218.8" y2="87" href="#P"><stop stop-color="#fcea10"/><stop offset="1"/></linearGradient><linearGradient id="g26" x1="227.1" y1="52.8" x2="236.3" y2="62.1" href="#P"><stop stop-color="#fcea10"/><stop offset="1"/></linearGradient><radialGradient id="g27" cx="207.5" cy="31.1" r="92.2" href="#P"><stop stop-color="#e60e65"/><stop offset="1" stop-color="#6b0026"/></radialGradient><linearGradient id="g28" x1="86.5" y1="114.6" x2="152.9" y2="181" href="#P"><stop stop-color="#6b0026"/><stop offset=".3" stop-color="#e60e65"/><stop offset="1" stop-color="#6b0026"/></linearGradient><linearGradient id="g29" x1="83.6" y1="137.2" x2="104.7" y2="158.3" href="#P"><stop stop-color="#ff6e8b"/><stop offset="1"/></linearGradient><linearGradient id="g30" x1="112.4" y1="169.8" x2="123.3" y2="180.7" href="#P"><stop stop-color="#ff6e8b"/><stop offset="1"/></linearGradient><radialGradient id="g31" cx="72.4" cy="107.5" r="101.7" href="#P"><stop stop-color="#e60e65"/><stop offset="1" stop-color="#6b0026"/></radialGradient><radialGradient id="g32" cx="78.3" cy="109" r="82.8" href="#P"><stop stop-color="#ff1070"/><stop offset="1" stop-color="#a6003b"/></radialGradient><radialGradient id="g33" cx="77.7" cy="123.9" r="32.8" href="#P"><stop stop-color="#f99"/><stop offset=".9"/></radialGradient><radialGradient id="g34" cx="39.6" cy="135.9" r="91.9" href="#P"><stop stop-color="#fafaff"/><stop offset="1" stop-color="#8c2fce"/></radialGradient><radialGradient id="g35" cx="41.5" cy="139.6" r="38.3" href="#P"><stop offset=".4" stop-color="#fff"/><stop offset="1" stop-color="#900"/></radialGradient><radialGradient id="g36" cx="165.6" cy="203.8" r="73.5" href="#P"><stop stop-color="#e60e65"/><stop offset="1" stop-color="#6b0026"/></radialGradient><radialGradient id="g37" cx="166.7" cy="195.1" r="78" href="#P"><stop stop-color="#ff1070"/><stop offset="1" stop-color="#a6003b"/></radialGradient><radialGradient id="g38" cx="157.1" cy="191.7" r="34.1" href="#P"><stop stop-color="#f99"/><stop offset=".9"/></radialGradient><radialGradient id="g39" cx="150.4" cy="227" r="95.8" href="#P"><stop offset=".1" stop-color="#fafaff"/><stop offset="1" stop-color="#8c2fce"/></radialGradient><radialGradient id="g40" cx="121.4" cy="226.7" r="33.2" href="#P"><stop offset=".4" stop-color="#fff"/><stop offset="1" stop-color="#900"/></radialGradient><radialGradient id="g41" cx="284.7" cy="133.7" r="141.2" href="#P"><stop offset=".9" stop-color="#fff"/><stop offset="1" stop-color="#600"/></radialGradient><radialGradient id="g42" cx="123.4" cy="-21.4" r="157.1" href="#P"><stop offset=".8" stop-color="#fff"/><stop offset="1" stop-color="#600"/></radialGradient><radialGradient id="g43" cx="286" cy="89" r="106.2" href="#P"><stop offset=".5"/><stop offset="1" stop-color="#ff6e8b"/></radialGradient><radialGradient id="g44" cx="176" cy="24.6" r="146.4" href="#P"><stop stop-color="#ff476c"/><stop offset=".8"/></radialGradient><radialGradient id="g45" cx="128.8" cy="139.4" r="22.2" href="#P"><stop offset=".6" stop-color="#8f8f8f"/><stop offset="1" stop-color="#fff"/></radialGradient><linearGradient id="g46" x1="134.4" y1="97" x2="170.4" y2="132.8" href="#P"><stop stop-color="#5875ab"/><stop offset=".3" stop-color="#cce4ff"/><stop offset=".5" stop-color="#b0c8fd"/><stop offset=".6" stop-color="#53699c"/><stop offset=".8" stop-color="#7d95ca"/><stop offset="1" stop-color="#4d6397"/></linearGradient><radialGradient id="g47" cx="124.2" cy="126.9" r="18.9" href="#P"><stop offset=".1" stop-color="#fff"/><stop offset=".6" stop-color="#1d1d1b"/></radialGradient><linearGradient id="g48" x1="97.9" y1="160.1" x2="97.8" y2="116" href="#P"><stop stop-color="#4564ba"/><stop offset="1" stop-color="#c3f4f7"/></linearGradient><radialGradient id="g49" cx="132.2" cy="119" r="30.7" href="#P"><stop offset="0" stop-color="#f2f7ff"/><stop offset="1" stop-color="#1d1d1b"/></radialGradient><radialGradient id="g50" cx="132.4" cy="119.1" r="75.9" href="#P"><stop stop-color="#9ff"/><stop offset=".3" stop-color="#00d0ff"/><stop offset=".5" stop-color="#005be3"/></radialGradient><radialGradient id="g51" cx="142.4" cy="90" r="94.6" href="#P"><stop offset=".6"/><stop offset="1" stop-color="#fcea10"/></radialGradient><radialGradient id="g52" cx="124.8" cy="143" r="24.8" href="#P"><stop offset=".9" stop-color="#fff"/><stop offset="1" stop-color="#be1622"/></radialGradient><radialGradient id="g53" cx="126.2" cy="142.9" r="27.9" href="#P"><stop offset=".7"/><stop offset=".8" stop-color="#80e6ff"/></radialGradient><radialGradient id="g54" cx="131.3" cy="135.2" r="28.9" href="#P"><stop offset=".6"/><stop offset=".8" stop-color="#fcea10"/></radialGradient><linearGradient id="g55" x1="108.2" y1="130.5" x2="110.5" y2="117.4" href="#P"><stop/><stop offset="1" stop-color="#8cf5ff"/></linearGradient><radialGradient id="g56" cx="134.7" cy="132.6" r="27.4" href="#P"><stop offset=".9" stop-color="#fff"/><stop offset="1" stop-color="#4564ba"/></radialGradient></defs><style>.a{mix-blend-mode:screen;fill:url(#g1)}.b{mix-blend-mode:screen;fill:url(#g2)}.c{mix-blend-mode:screen;fill:url(#g3)}.d{fill:url(#g4)}.e{mix-blend-mode:screen;fill:url(#g5)}.f{opacity:.3;mix-blend-mode:screen;fill:url(#g6)}.g{opacity:.4;mix-blend-mode:screen;fill:url(#g7)}.h{mix-blend-mode:multiply;fill:url(#g8)}.i{fill:url(#g9)}.j{fill:url(#g10)}.k{fill:url(#g11)}.l{mix-blend-mode:multiply;fill:url(#g12)}.m{opacity:.5;mix-blend-mode:multiply;fill:url(#g13)}.n{opacity:.7;mix-blend-mode:screen;fill:url(#g14)}.o{opacity:.5;mix-blend-mode:screen;fill:url(#g15)}.p{mix-blend-mode:screen;fill:url(#g16)}.q{mix-blend-mode:screen;fill:#f9b233}.r{fill:url(#g17)}.s{mix-blend-mode:screen;fill:url(#g18)}.t{mix-blend-mode:multiply;fill:url(#g19)}.u{mix-blend-mode:screen;fill:url(#g20)}.v{mix-blend-mode:multiply;fill:url(#g21)}.w{fill:url(#g22)}.x{opacity:.5;mix-blend-mode:multiply;fill:url(#g23)}.y{mix-blend-mode:multiply;fill:url(#g24)}.z{mix-blend-mode:screen;fill:url(#g25)}.A{opacity:.3;mix-blend-mode:screen;fill:url(#g26)}.B{fill:url(#g27)}.C{fill:url(#g28)}.D{mix-blend-mode:screen;fill:url(#g29)}.E{opacity:.3;mix-blend-mode:screen;fill:url(#g30)}.F{opacity:.5;mix-blend-mode:multiply;fill:#86301e}.G{fill:url(#g31)}.H{fill:url(#g32)}.I{mix-blend-mode:screen;fill:url(#g33)}.J{mix-blend-mode:multiply;fill:url(#g34)}.K{opacity:.5;mix-blend-mode:multiply;fill:url(#g35)}.L{fill:url(#g36)}.M{fill:url(#g37)}.N{mix-blend-mode:screen;fill:url(#g38)}.O{mix-blend-mode:multiply;fill:url(#g39)}.P{opacity:.5;mix-blend-mode:multiply;fill:url(#g40)}.Q{opacity:.5;mix-blend-mode:multiply;fill:url(#g41)}.R{mix-blend-mode:multiply;fill:url(#g42)}.S{mix-blend-mode:screen;fill:url(#g43)}.T{mix-blend-mode:screen;fill:url(#g44)}.U{mix-blend-mode:multiply;fill:url(#g45)}.V{fill:url(#g46)}.W{mix-blend-mode:screen;fill:url(#g47)}.X{fill:#fff}.Y{fill:url(#g48)}.Z{opacity:.5;mix-blend-mode:screen;fill:url(#g49)}.a0{fill:url(#g50)}.a1{mix-blend-mode:screen;fill:url(#g51)}.a2{mix-blend-mode:multiply;fill:url(#g52)}.a3{mix-blend-mode:screen;fill:url(#g53)}.a4{opacity:.5;mix-blend-mode:screen;fill:url(#g54)}.a5{mix-blend-mode:screen;fill:url(#g55)}.a6{opacity:.3;mix-blend-mode:multiply;fill:url(#g56)}</style><path class="a" d="m29.2 207.2c4.2 4.1 11.2 11.1 15.7 15.6-18 18.2-33.8 34.1-42 42.3-2-2-2.5-5.4-1.5-9.8 2.4-11.2 11.2-31.3 27.8-48.1zm47.9-28.1c4.4-1 7.8-0.6 9.8 1.4-8.2 8.2-24 24.1-42 42.3-4.5-4.5-11.5-11.5-15.7-15.6 16.7-16.8 36.7-25.6 47.9-28.1zm-32.2 43.7c4.5 4.4 11.5 11.4 15.7 15.6-16.7 16.8-36.7 25.6-47.9 28.1-4.4 1-7.8 0.6-9.8-1.4 8.2-8.2 24-24.1 42-42.3zm42-42.3c2 2 2.5 5.4 1.5 9.8-2.4 11.2-11.2 31.3-27.8 48.1-4.2-4.2-11.2-11.2-15.7-15.6 18-18.2 33.8-34.1 42-42.3z"/><path class="b" d="m34.6 212.5c8 8.1 7.1 7.1 10.3 10.3-14.7 14.8-19.2 19.3-34.1 34.3-1.5-1.4-1.6-4-0.7-7.4 2.4-8.6 10.9-23.5 24.5-37.2zm37-24.6c3.4-1 6-0.9 7.4 0.6-6.6 6.6-19.4 19.5-34.1 34.3-3.2-3.2-2.3-2.2-10.3-10.3 13.5-13.6 28.4-22.2 37-24.6zm-26.7 34.9c3.2 3.1 3.7 3.7 10.3 10.3-13.5 13.6-28.4 22.2-37 24.6-3.4 1-6 0.9-7.4-0.6 14.9-15 19.4-19.5 34.1-34.3zm34.1-34.3c1.5 1.4 1.6 4 0.7 7.3-2.4 8.7-10.9 23.6-24.5 37.3-6.6-6.6-7.1-7.2-10.3-10.3 14.7-14.8 27.5-27.7 34.1-34.3z"/><path class="c" d="m43.6 210.8c2.1 2.1 4.4 4.3 6.7 6.6-11.2 11.3-21 21.1-26.1 26.2-1-1-1.1-2.9-0.3-5.5 2-6.4 9.4-16.9 19.7-27.3zm27.2-19.9c2.5-0.8 4.4-0.7 5.5 0.3-5.1 5.1-14.9 14.9-26 26.2-2.3-2.3-4.6-4.5-6.7-6.6 10.3-10.4 20.8-17.9 27.2-19.9zm-20.5 26.5c2.3 2.3 4.5 4.5 6.6 6.6-10.3 10.4-20.8 17.9-27.2 19.9-2.5 0.8-4.4 0.7-5.5-0.3 5.1-5.1 14.9-14.9 26.1-26.2zm26-26.2c1 1 1.1 2.9 0.3 5.5-2 6.4-9.4 16.9-19.7 27.3-2.1-2.1-4.3-4.3-6.6-6.6 11.1-11.3 20.9-21.1 26-26.2z"/><path class="d" d="m57.1 175.9q8.6 8.6 17.3 17.2 8.6 8.6 17.3 17.2c-2.1 1.8-4.5 3.5-6.9 5.2-2.3 1.7-4.7 3.3-6.9 4.6-2.6 1.6-6.4 1.6-10.4 0.2-4.1-1.3-8.4-4-12.3-7.9-3.9-3.9-6.6-8.2-8-12.2-1.4-4-1.5-7.8 0.1-10.4 1.4-2.2 3-4.6 4.6-7 1.7-2.4 3.4-4.7 5.2-6.9z"/><path class="e" d="m57.1 175.9q8.6 8.6 17.3 17.2 8.6 8.6 17.3 17.2c-2.1 1.8-4.5 3.5-6.9 5.2-2.3 1.7-4.7 3.3-6.9 4.6-2.6 1.6-6.4 1.6-10.4 0.2-4.1-1.3-8.4-4-12.3-7.9-3.9-3.9-6.6-8.2-8-12.2-1.4-4-1.5-7.8 0.1-10.4 1.4-2.2 3-4.6 4.6-7 1.7-2.4 3.4-4.7 5.2-6.9z"/><path class="f" d="m57.2 178.4q6.8 7.6 13.6 15.1 6.8 7.4 13.5 14.9c-1.7 1.5-3.6 2.9-5.5 4.3-2 1.4-3.9 2.7-5.7 3.8-2.1 1.4-5.1 1.3-8.4 0-3.2-1.2-6.7-3.6-9.7-7-3.1-3.4-5.3-7.1-6.3-10.6-1.1-3.5-1-6.7 0.3-8.9 1.2-1.9 2.5-3.8 3.9-5.8 1.4-2 2.8-4 4.3-5.8z"/><path class="g" d="m55.2 199.7c2.4 4.9 4.7 9 3.6 10.1-1 1.1-4.8-1.8-7.5-6.6-2.6-4.7-3.1-9.5-2.1-10.7 1.1-1.1 3.7 2.2 6 7.2z"/><path class="h" d="m57.1 175.9q8.6 8.6 17.3 17.2 8.6 8.6 17.3 17.2c-2.1 1.8-4.5 3.5-6.9 5.2q-1.8 1.3-3.5 2.4c-6-0.9-13.1-5.4-19-12.6-6.4-7.7-9.9-16.6-9.7-23.5 1.4-2 3-4 4.5-5.9z"/><path class="i" d="m169.5 179l-47.2 52.1c-2.1 2.2-5.4 2-5.1-2l1-25.7c13.3-11 40.7-35.1 55.4-50.4l4.7 2.5c1.1 9.9-1.1 15-8.8 23.5z"/><path class="j" d="m112 89.2l2.5 4.7c-15.3 14.6-39.4 42.1-50.4 55.4l-25.7 1c-4 0.3-4.3-3-2-5.1l52.1-47.2c8.5-7.7 13.6-9.9 23.5-8.8z"/><path class="k" d="m67.6 199.9c-17.4-17.4-24.2-39-15.8-49.1l81.4-96.1 40.2 39.4 39.4 40.2-96.1 81.4c-10.1 8.4-31.7 1.6-49.1-15.8z"/><path class="l" d="m116.7 215.7c-5 4.2-12.9 4.6-21.6 1.8q53.2-47.3 106.5-94.7l11.2 11.5-96.1 81.4z"/><path class="m" d="m51.8 150.8l81.3-96c-3.2 3.9-4 9.7-2.8 16.4q-40.9 47.2-81.9 94.3c-0.7-5.9 0.4-11.1 3.4-14.7z"/><path class="n" d="m170.4 91.2q-52.5 53.2-105 106.4c-7.2-7.7-12.3-16.1-15-23.9q47.6-53.4 95.2-106.9z"/><path class="o" d="m194.7 115.8q-53.8 49.2-107.6 98.4c-3.9-1.9-7.8-4.4-11.7-7.5q53.6-51.6 107.2-103.2z"/><path class="p" d="m141.1 89.9l6.4 6.2c-28.2 29.6-53.9 50.8-57.4 47.4-3.5-3.4 16.5-30.2 44.7-59.8z"/><path class="q" d="m190.7 76c21.1 21.1 29.9 46.4 19.7 56.6-10.2 10.2-35.5 1.4-56.6-19.7-21.1-21-29.9-46.4-19.7-56.6 10.2-10.2 35.5-1.3 56.6 19.7z"/><path class="r" d="m217.4 125.2c-0.4 3.4-1.7 6.3-3.9 8.4-10.2 10.3-36.3 0.7-58.3-21.3-22-22-31.6-48.1-21.3-58.3 2.1-2.2 5-3.5 8.4-3.9l23.3-3.2 27.5 27.5 27.5 27.5z"/><path class="s" d="m164.6 120.8l33.2-41.7 6.6 6.6-25.7 44.7c-4.6-2.6-9.4-5.8-14.1-9.6z"/><path class="t" d="m220.6 101.9l-3.2 23.3c-0.4 3.4-1.7 6.3-3.9 8.4-5.2 5.3-14.6 5.3-25.4 1.2l20.5-44.8z"/><path class="u" d="m133.2 80.8l44.9-21.4 13.4 13.4-39.1 36.6c-8.9-9.5-15.5-19.5-19.2-28.6z"/><path class="v" d="m133.9 54c2.1-2.2 5-3.5 8.4-3.9l23.3-3.2 8.3 8.3-43.6 16c-1.3-7.3-0.3-13.4 3.6-17.2z"/><path class="w" d="m218.9 103.4c-7 6.4-24.4-0.1-39.5-15.3-15.2-15.2-21.7-32.5-15.3-39.6l22.5-24.8 28.6 28.6 28.6 28.6z"/><path class="x" d="m164.1 48.5l18.5-20.3 4-4.5 4.4 4.4q-14.5 15.7-29 31.5c-0.8-4.7-0.2-8.5 2.1-11.1z"/><path class="y" d="m218.9 103.5c-3.5 3.1-9.6 3-16.6 0.3q16.7-15.5 33.3-31.1l8.2 8.2-24.9 22.5z"/><path class="z" d="m164 66.1q15.7-16.8 31.4-33.6l17.6 17.6q-17.8 18-35.6 35.9c-6.3-6.7-10.8-13.6-13.4-19.9z"/><path class="A" d="m230.6 67.7q-17.4 16.5-34.8 33.1c-3.3-1.8-6.6-4.1-9.9-6.8q18-17.5 35.9-35.1z"/><path class="B" d="m242.8 81.7c-7.2 6.4-25.3-0.7-40.8-16.2-15.5-15.5-22.7-33.6-16.2-40.8 3.1-3.5 6-6.4 9.8-9.1 21.9-15.4 56.1-20.4 66.4-10.1 10.3 10.3 5.3 44.5-10.1 66.4-2.7 3.8-5.6 6.7-9.1 9.8z"/><path class="C" d="m67.6 199.9c-17.4-17.5-24.2-39-15.8-49.1l26.1-30.8c-7.2 10.7 0.8 32.5 18.9 50.7 18.1 18.1 40 26.1 50.7 18.9l-30.8 26.1c-10.1 8.4-31.7 1.6-49.1-15.8q0 0 0 0z"/><path class="D" d="m94.4 168.2q-14.5 14.7-29 29.4c-7.2-7.7-12.3-16.1-15-23.9q13.8-15.4 27.5-30.9c3.1 8.2 8.8 17.1 16.5 25.4z"/><path class="E" d="m117.6 186.3q-15.2 14-30.5 28c-3.9-2-7.8-4.5-11.7-7.6q14.8-14.3 29.7-28.6c4.2 3.3 8.4 6.1 12.5 8.2z"/><path class="F" d="m147.5 189.6l-30.8 26.1c-5 4.2-12.9 4.6-21.6 1.8q15.4-13.7 30.9-27.5c8.6 3 16.3 3.1 21.5-0.4z"/><path class="G" d="m96.9 109c-1 2-0.4 5 2.1 7.1l-48.2 54.1-29.5-4c-4.5-0.5-5.3-4.2-3.1-6.3 14.5-13.5 29.3-26.8 44.9-39.2 8.7-6.9 19.2-9.7 33.8-11.7z"/><path class="H" d="m75.4 118.4c-5.2 1.6-10.3 4.4-18.6 11.2-12.4 10.1-24.5 20.4-36.2 31.1-2.2 2-3.2 3.5-1.1 5.1-2.9-1.2-3.1-4.2-1.3-5.9 14.5-13.5 29.3-26.8 44.9-39.2 7.5-5.9 16.3-8.8 27.8-10.8q2.6-0.4 5.4-0.8 0.3-0.1 0.6-0.1c-0.4 0.7-0.5 1.6-0.5 2.5q0.1 0.3 0.1 0.5c0.3 1.4 1.1 2.9 2.5 4.1q-3.2 0-6.1 0-0.6 0.1-1.2 0.1-1.5 0-3 0.1-1.7 0.1-3.3 0.3c-3.8 0.3-7 0.9-10 1.8z"/><path class="I" d="m90.2 116.2c-14.8 1.5-24.5 6.8-40 18.8 14.7-13 21.7-19.6 40-18.8z"/><path class="J" d="m50.8 170.2l-26.6-3.6c10.8-1.7 14.2-5 23.9-12.7 14.1-11.2 25.8-24.1 42-27.8z"/><path class="K" d="m48.4 165.6q0.9-0.3 1.6-0.7c5-2.8 13.4-9.4 17.3-13.2l-16.5 18.5-21-2.9c6.3 0.4 11.8 0 15.8-0.9q1.6-0.3 2.8-0.8z"/><path class="L" d="m146.8 204.4c-12.4 15.6-25.7 30.4-39.2 44.9-2.1 2.2-5.8 1.4-6.3-3.1l-4-29.5 54.1-48.2c2.1 2.5 5.1 3.1 7.1 2.1-2 14.6-4.8 25.1-11.7 33.8z"/><path class="M" d="m150.9 182.1q0.2-1.6 0.3-3.3 0.1-1.5 0.1-3 0-0.6 0.1-1.2 0-2.9 0-6.1c1.2 1.4 2.7 2.2 4.1 2.5q0.2 0 0.5 0c0.9 0.1 1.8 0 2.5-0.4q0 0.3-0.1 0.6-0.4 2.8-0.8 5.4c-2 11.5-4.9 20.3-10.8 27.8-12.4 15.6-25.7 30.4-39.2 44.9-1.7 1.8-4.7 1.6-5.9-1.3 1.6 2.1 3.1 1.1 5.1-1.1 10.7-11.7 21-23.8 31.1-36.2 6.8-8.3 9.6-13.4 11.2-18.6 0.8-3 1.5-6.2 1.8-10z"/><path class="N" d="m151.3 177.3c-1.5 14.8-6.8 24.5-18.8 40 13-14.7 19.6-21.7 18.8-40z"/><path class="O" d="m141.4 177.3c-3.7 16.3-16.6 28-27.8 42.1-7.7 9.7-11 13.1-12.7 23.9l-3.6-26.6z"/><path class="P" d="m101.1 221.9c-0.9 4-1.3 9.5-0.9 15.7l-2.9-20.9 18.5-16.5c-3.8 3.9-10.4 12.3-13.2 17.3q-0.4 0.7-0.7 1.6-0.5 1.2-0.8 2.8z"/><path class="Q" d="m190.2 29.1q-3.2 3.4-6.4 6.7c-0.9-4.6-0.3-8.6 2-11.1q0.2-0.2 0.3-0.4 0.3-0.3 0.5-0.6c2.8-3 5.5-5.7 9-8.1 21.9-15.4 56.1-20.4 66.4-10.1-8.7-8.8-40.7-1.5-62.1 14.4-3.4 2.5-6.1 5.2-8.9 8.2q-0.4 0.5-0.8 1z"/><path class="R" d="m262 5.5c10.3 10.3 5.3 44.5-10.1 66.4-2.4 3.5-5.1 6.2-8.1 9q-0.5 0.4-1 0.8c-3.5 3.2-9.8 3.1-17 0.3q2.8-2.7 5.6-5.4 1.6-1.5 3.3-3 0.4-0.5 0.9-0.9c3-2.8 5.7-5.5 8.3-8.8 16.3-21 25.5-51.1 18.1-58.4z"/><path class="S" d="m212.1 51q-6.1 6.2-12.2 12.3c-6.5-6.9-11.3-14.2-14-20.7q4.3-4.6 8.6-9.1c3.2-3.5 6.1-6.4 9.8-9.3 20.8-16.4 50.6-25.9 57.7-18.7-0.8-0.8-21.5 17.7-40.4 36.1-3.3 3.2-6.2 6.1-9.5 9.4z"/><path class="T" d="m224.3 73.7q-2.6 2.5-5.2 5-0.1 0-0.1 0c-3.3-1.9-6.8-4.3-10.2-7q0 0 0 0 6-6 12.1-11.9 0.4-0.5 0.9-0.9c3-2.9 5.6-5.6 8.5-8.7 17.9-19.3 34.1-42.4 31.7-44.7 5.6 5.5-6.2 33-23.1 53.4-2.6 3.2-5.3 5.9-8.3 8.8q-0.5 0.4-1 0.9-2.6 2.6-5.3 5.1z"/><path class="U" d="m140.3 127.1c9.1 9 9.6 23.3 1.2 31.8-8.5 8.5-22.7 8-31.8-1-9.1-9-9.6-23.2-1.1-31.7 8.4-8.5 22.6-8.1 31.7 0.9z"/><path class="V" d="m147.3 120.1c5.9 5.9 8.4 10.5 9.1 16.1 0.7 5.6-1 11.2-5.3 16.1q-1.7 1.9-3.4 3.8c-2.5-2.5-10.3-10.3-18.2-18.1-7.8-7.8-15.7-15.6-18.2-18.1q1.9-1.7 3.7-3.4c4.9-4.4 10.5-6.1 16.1-5.5 5.6 0.7 11 4 16.2 9.1z"/><path class="W" d="m129.1 111.3c7.9 0 14.3 5.4 16.4 10.2l-29.5-4.7c2.2-2.4 7-5.4 13.1-5.5z"/><path class="X" d="m146.2 120.6c9.8 9.7 10.4 25 1.3 34.2-9 9.1-24.3 8.6-34.1-1.2-9.9-9.7-10.5-25-1.4-34.1 9-9.2 24.4-8.7 34.2 1.1z"/><path class="Y" d="m146 121.4c10 10 10.8 25.5 1.7 34.7-9 9.1-24.5 8.4-34.6-1.6-10.1-10-10.9-25.5-1.8-34.6 9.1-9.2 24.6-8.5 34.7 1.5z"/><path class="Z" d="m153.7 144.7c-15.6 5.8-34.4 2.5-48.7-9.6 0.1-5.7 2.2-11.1 6.3-15.2 9.1-9.2 24.6-8.5 34.7 1.5 6.5 6.5 9.1 15.4 7.7 23.3z"/><path class="a0" d="m143.7 123.7c8.4 8.4 8.8 21.5 1 29.4-7.8 7.8-20.9 7.4-29.3-0.9-8.4-8.3-8.9-21.5-1.1-29.3 7.8-7.9 21-7.5 29.4 0.8z"/><path class="a1" d="m131 141.9c6.6 1.4 11 6 9.7 10.2-1.3 4.2-7.7 6.5-14.4 5-6.6-1.5-11-6.1-9.7-10.3 1.3-4.2 7.7-6.4 14.4-4.9z"/><path class="a2" d="m138.4 121.3c-5.5-3.3-12.1-3.9-17.7-1.8-2.2 0.8-4.3 2-6.1 3.7q-0.3 0.3-0.7 0.6c-1.7 1.8-3 3.7-3.9 5.9 0.9-2.5 2.4-4.8 4.3-6.8q1.5-1.5 3.3-2.6c6.4-4.1 14.9-4.1 21.7 0.1q2.3 1.4 4.4 3.3c3.8 3.8 5.9 8.6 6.5 13.4 0.4 4.4-0.5 8.9-2.9 12.7q-1.1 1.7-2.6 3.3c-1.9 1.9-4.3 3.4-6.7 4.3 2.1-0.9 4.1-2.2 5.8-3.9q0.3-0.4 0.6-0.7c1.7-1.8 2.9-3.9 3.7-6.1 1-2.8 1.3-5.7 1.1-8.7-0.5-4.8-2.6-9.6-6.4-13.4q-2.1-2-4.4-3.3z"/><path class="a3" d="m143.3 124.1c8.2 8.1 8.6 20.9 1 28.6-7.6 7.6-20.4 7.2-28.5-0.9-8.2-8.1-8.7-20.9-1.1-28.5 7.6-7.7 20.4-7.3 28.6 0.8z"/><path class="a4" d="m143.3 124.1c8.2 8.1 8.6 20.9 1 28.6-7.6 7.6-20.4 7.2-28.5-0.9-8.2-8.1-8.7-20.9-1.1-28.5 7.6-7.7 20.4-7.3 28.6 0.8z"/><path class="a5" d="m117.3 124.6c6.6-6.6 17.8-6.2 25 0.9q1.7 1.7 2.9 3.7c-6.4 3.6-24.4-1.1-27.9-4.6z"/><path class="a6" d="m146 121.4c10 10 10.8 25.5 1.7 34.7-9 9.1-24.5 8.4-34.6-1.6-10.1-10-10.9-25.5-1.8-34.6 9.1-9.2 24.6-8.5 34.7 1.5z"/></svg>