<svg version="1.2" xmlns="http://www.w3.org/2000/svg" viewBox="0 0 946 945" width="946" height="945"><defs><linearGradient id="P" gradientUnits="userSpaceOnUse"/><radialGradient id="g1" cx="473.2" cy="472.3" r="472.3" href="#P"><stop offset="0" stop-color="#009bff"/><stop offset="1"/></radialGradient><radialGradient id="g2" cx="473.2" cy="472.3" r="395.3" href="#P"><stop offset="0" stop-color="#009bff"/><stop offset="1"/></radialGradient><radialGradient id="g3" cx="473.2" cy="472.3" r="402.3" href="#P"><stop offset="0" stop-color="#0092ff"/><stop offset="1"/></radialGradient><linearGradient id="g4" x1="183.4" y1="289.5" x2="183.4" y2="171.3" href="#P"><stop stop-color="#9a00b3"/><stop offset="1" stop-color="#7f72ff"/></linearGradient><linearGradient id="g5" x1="175.6" y1="280.7" x2="220" y2="145.2" href="#P"><stop stop-color="#5b008b"/><stop offset="1" stop-color="#8e00ff"/></linearGradient><radialGradient id="g6" cx="262.1" cy="312.9" r="548" href="#P"><stop offset="0" stop-color="#60dbff"/><stop offset=".7" stop-color="#5643ff"/><stop offset="1" stop-color="#5200ab"/></radialGradient><linearGradient id="g7" x1="132.2" y1="129.3" x2="623" y2="129.3" href="#P"><stop offset="0" stop-color="#81e0ff"/><stop offset="1" stop-color="#97a4ff"/></linearGradient><linearGradient id="g8" x1="493.5" y1="781.8" x2="493.5" y2="644.6" href="#P"><stop stop-color="#b8c2ff"/><stop offset="1" stop-color="#5b729c"/></linearGradient><radialGradient id="g9" cx="224.1" cy="240.3" r="449.1" href="#P"><stop stop-color="#ffffd9"/><stop offset="1"/></radialGradient><linearGradient id="g10" x1="135.3" y1="129.5" x2="562" y2="129.5" href="#P"><stop stop-color="#b8c2ff"/><stop offset="1" stop-color="#7d72b3"/></linearGradient><linearGradient id="g11" x1="205" y1="388.3" x2="814.6" y2="388.3" href="#P"><stop stop-color="#b8c2ff"/><stop offset="1" stop-color="#7d72b3"/></linearGradient><linearGradient id="g12" x1="169" y1="259.8" x2="777.3" y2="259.8" href="#P"><stop stop-color="#b8c2ff"/><stop offset="1" stop-color="#7d72b3"/></linearGradient><linearGradient id="g13" x1="132.3" y1="147.9" x2="730.2" y2="147.9" href="#P"><stop stop-color="#b8c2ff"/><stop offset="1" stop-color="#7d72b3"/></linearGradient><linearGradient id="g14" x1="575.3" y1="338.5" x2="583.5" y2="338.5" href="#P"><stop stop-color="#e8ddff"/><stop offset="1" stop-color="#aa8ad8"/></linearGradient><linearGradient id="g15" x1="153.6" y1="491.1" x2="155.2" y2="491.1" href="#P"><stop stop-color="#e8ddff"/><stop offset="1" stop-color="#aa8ad8"/></linearGradient><linearGradient id="g16" x1="538.8" y1="112" x2="757.8" y2="112" href="#P"><stop stop-color="#7f72ff"/><stop offset="1" stop-color="#9a00b3"/></linearGradient><linearGradient id="g17" x1="437.5" y1="673.8" x2="547" y2="339.4" href="#P"><stop stop-color="#280077"/><stop offset="1" stop-color="#812cff"/></linearGradient><linearGradient id="g18" x1="489.5" y1="667.3" x2="590.6" y2="358.8" href="#P"><stop stop-color="#7a00b3"/><stop offset="1" stop-color="#b136ff"/></linearGradient><linearGradient id="g19" x1="521.5" y1="624.9" x2="521.5" y2="398.9" href="#P"><stop stop-color="#8e00b3"/><stop offset="1" stop-color="#e05cff"/></linearGradient><linearGradient id="g20" x1="226.8" y1="757.4" x2="226.8" y2="645.4" href="#P"><stop stop-color="#81a9ce"/><stop offset="1" stop-color="#5b729c"/></linearGradient><linearGradient id="g21" x1="161.9" y1="694.5" x2="207.6" y2="555.1" href="#P"><stop stop-color="#280077"/><stop offset="1" stop-color="#812cff"/></linearGradient><linearGradient id="g22" x1="426.7" y1="834.7" x2="426.7" y2="781.8" href="#P"><stop stop-color="#7a00b3"/><stop offset=".9" stop-color="#7006fc"/><stop offset="1" stop-color="#7006f9"/></linearGradient><linearGradient id="g23" x1="179.5" y1="737.3" x2="179.5" y2="571.3" href="#P"><stop stop-color="#7a00b3"/><stop offset="1" stop-color="#b136ff"/></linearGradient><linearGradient id="g24" x1="198.9" y1="743.2" x2="198.9" y2="571.4" href="#P"><stop stop-color="#8e00b3"/><stop offset="1" stop-color="#e05cff"/></linearGradient><linearGradient id="g25" x1="474.2" y1="492.2" x2="497.9" y2="420.1" href="#P"><stop stop-color="#5b008b"/><stop offset="1" stop-color="#8e00ff"/></linearGradient><linearGradient id="g26" x1="490.3" y1="489.6" x2="509.8" y2="429.9" href="#P"><stop stop-color="#a400ca"/><stop offset="1" stop-color="#b136ff"/></linearGradient><linearGradient id="g27" x1="514.9" y1="204.3" x2="549.7" y2="98" href="#P"><stop stop-color="#5b008b"/><stop offset="1" stop-color="#8e00ff"/></linearGradient><radialGradient id="g28" cx="723.6" cy="630" r="64.6" href="#P"><stop stop-color="#317aff"/><stop offset="1"/></radialGradient><radialGradient id="g29" cx="637.1" cy="454.4" r="60" href="#P"><stop stop-color="#317aff"/><stop offset="1"/></radialGradient><radialGradient id="g30" cx="646.7" cy="167.2" r="31.2" href="#P"><stop stop-color="#317aff"/><stop offset="1"/></radialGradient><radialGradient id="g31" cx="221.6" cy="648.9" r="64.6" href="#P"><stop stop-color="#317aff"/><stop offset="1"/></radialGradient><linearGradient id="g32" x1="597.7" y1="226.4" x2="597.7" y2="120" href="#P"><stop stop-color="#b000d9"/><stop offset="1" stop-color="#e05cff"/></linearGradient><linearGradient id="g33" x1="493.2" y1="744.9" x2="493.2" y2="589.4" href="#P"><stop stop-color="#b8c2ff"/><stop offset="1" stop-color="#7d72b3"/></linearGradient><linearGradient id="g34" x1="549.2" y1="358.9" x2="549.2" y2="152.6" href="#P"><stop stop-color="#81a9ce"/><stop offset="1" stop-color="#5b729c"/></linearGradient><radialGradient id="g35" cx="333.7" cy="303" r="126.1" href="#P"><stop stop-color="#06feff"/><stop offset="1"/></radialGradient></defs><style>.a{mix-blend-mode:screen;fill:url(#g1)}.b{mix-blend-mode:screen;fill:url(#g2)}.c{mix-blend-mode:screen;fill:url(#g3)}.d{fill:url(#g4)}.e{fill:url(#g5)}.f{fill:url(#g6)}.g{fill:url(#g7)}.h{mix-blend-mode:multiply;fill:url(#g8)}.i{mix-blend-mode:screen;fill:url(#g9)}.j{opacity:.4;mix-blend-mode:multiply;fill:url(#g10)}.k{opacity:.4;mix-blend-mode:multiply;fill:url(#g11)}.l{opacity:.4;mix-blend-mode:multiply;fill:url(#g12)}.m{opacity:.4;mix-blend-mode:multiply;fill:url(#g13)}.n{opacity:.4;mix-blend-mode:multiply;fill:url(#g14)}.o{opacity:.4;mix-blend-mode:multiply;fill:url(#g15)}.p{fill:url(#g16)}.q{fill:url(#g17)}.r{fill:url(#g18)}.s{fill:url(#g19)}.t{mix-blend-mode:multiply;fill:url(#g20)}.u{fill:url(#g21)}.v{fill:url(#g22)}.w{fill:url(#g23)}.x{fill:url(#g24)}.y{fill:url(#g25)}.z{fill:url(#g26)}.A{fill:url(#g27)}.B{fill:#0edbff}.C{mix-blend-mode:screen;fill:url(#g28)}.D{mix-blend-mode:screen;fill:url(#g29)}.E{mix-blend-mode:screen;fill:url(#g30)}.F{mix-blend-mode:screen;fill:url(#g31)}.G{fill:url(#g32)}.H{opacity:.4;mix-blend-mode:multiply;fill:url(#g33)}.I{mix-blend-mode:multiply;fill:url(#g34)}.J{mix-blend-mode:screen;fill:url(#g35)}</style><circle class="a" cx="473.2" cy="472.3" r="472.3"/><circle class="b" cx="473.2" cy="472.3" r="395.3"/><circle class="c" cx="473.2" cy="472.3" r="402.3"/><path class="d" d="m185.4 289.5q4.2-36 6.9-55.7 24.6-34.3 63.7-62.5l52.1 2.7q-105.1 84.3-122.7 115.5z"/><path class="e" d="m308.1 174l-122.7 109.9 6.4-46q11.4 8 37.8-14.8 26.4-22.9 26.4-51.8z"/><path class="f" d="m814.6 472.5c0 32.8-4.6 64.5-13.3 94.5-17.3 60.3-50.8 113.6-95.5 155.3-32 29.8-69.7 53.5-111.3 69.2-37.7 14.4-78.4 22.1-121.1 22.1-6.1 0-12.2-0.1-18.2-0.5-9-0.4-17.8-1.3-26.5-2.3-65.9-8.7-125.8-36-174.3-76.8-18.2-15.2-34.8-32.3-49.4-51.1-11.1-14-21.1-28.9-29.9-44.7-2.1-3.7-4.1-7.5-6.1-11.4 0-0.1-0.1-0.2-0.2-0.3-2.1-4.1-4-8.2-5.9-12.4q0 0 0 0c-5.9-13-11.1-26.5-15.3-40.3-3.2-10-5.8-20.2-8-30.6-0.1 0-0.1-0.2-0.1-0.3-1.5-7.2-2.8-14.6-3.8-22q-3.4-23.8-3.4-48.4c0-9.4 0.3-18.9 1.2-28.1 0.4-5.9 1.1-11.7 1.8-17.5 4.4-33.6 13.8-65.6 27.3-95.3 6.7-14.6 14.3-28.7 22.9-42.1 14.2-22.5 31.1-43.1 50.1-61.6 61.4-59.8 145.3-96.6 237.8-96.6 3.6 0 7.2 0.1 10.7 0.2 3.8 0.1 7.6 0.3 11.5 0.5 19.5 1.3 38.7 4.2 57.2 8.7 10.8 2.6 21.4 5.6 31.8 9.2 7 2.4 13.9 5 20.8 7.9 5.1 2.2 10.1 4.4 15 6.8 0.9 0.4 1.8 0.8 2.6 1.2 33.1 16.2 63.2 37.5 89.2 63.1 3.8 3.6 7.4 7.3 11 11.2 2.4 2.6 4.7 5.2 7 7.9 4 4.4 7.8 9.1 11.6 13.8 13.6 17.3 25.5 35.9 35.5 55.6 11.8 22.9 21 47.3 27.3 72.9 6.5 26.3 10 53.8 10 82.2z"/><path class="g" d="m623 165.8c-1.1 0.2-2.2 0.3-3.4 0.5-3.8 0.7-6.8 0.4-10.6-0.7-2.7-0.8-4.7-1.9-7.6-2.4-4.1-0.6-8-2.4-12.1-2.9-4.4-0.6-8.2-2.3-12.3-3.8-3.3-1.2-5-0.8-8.1 0-3.2 0.8-5.4-0.5-8.2-1.7-3.1-1.3-6.2-1.6-9.5-2.2-8.7-1.8-17.3-4.6-25.8-6.8-5.4-1.3-10.3-1.3-15.7-1.4-4.3 0-8.1 1.2-12.4 1.2-2.8 0-5.3-0.5-8.1-0.9-2.9-0.5-5.9 0.1-8.8-0.3-4.3-0.7-6.6-1.3-11 0-3.2 1.1-5.8 1-9 1.1-3.6 0.2-7.7 1.2-11.3 2-6.4 1.5-13.3 2.7-19.9 2.5-4 0-9.9-1.1-13.8 0.3-2.5 0.9-3.7 3.5-5.4 5.3-3.4 3.4-7.4 6.5-10.2 10.4-2.8 3.8-5.9 7.8-5.7 12.6 0.2 4.2 2.2 9.1 4 13 1.9 4.1 2.6 7.8-1.6 10.5-5.3 3.5-11.4 6.7-17.4 8.4-4.1 1.2-7.7 1.9-11-1-1.3-1.1-2-3.1-3.6-4-1.6-0.8-3.2 0-5 0.6-4.2 1.2-8.4 2.6-12.7 3.3-2.6 0.5-5 1.9-7.6 2.4-3.1 0.5-5.3-1.8-8.6-1-4.6 1.1-9.1 3-13.8 3.2-3.4 0.2-7.7-1.3-10.5-3-1.7-1-2.1-1.9-4-1.4-1.5 0.4-3.8 2.3-4.7 3.5-1.1 1.6-1.5 3.6-2.6 5.3-1.2 1.8-2.3 3.6-3.4 5.5-1.9 3.8-4.3 7.4-6.7 10.8-1.8 2.3-3.1 5.5-5 7.7-1 1.2-3.2 2-4.5 2.9-3.6 2.5-7.3 4.7-10.7 7.4-6.6 5.2-12.9 11-19.7 16-5.1 3.8-12.3 6.1-18.2 8.5-3.7 1.5-7.5 2.6-11.1 4.1-1.2 0.5-3.4 1-4.4 1.9-1.3 1.1-2 3.2-3.2 4.7-3.2 3.9-6.6 7.8-9 12.3-1.5 2.6-2.4 5.3-3.3 8.1-1.3 3.9-3.4 7.4-4.7 11.3-2.6 8-3.2 16.4-6.1 24.4-1.8 4.7-4.2 9-6.4 13.2-3.6 7.2-4.2 15.8-5.2 23.8-0.6 4.7-0.4 10.1 0.4 14.6 0.9 4.9 0.7 10 0.6 15.1 0 5.3-3.4 10.5-6.8 14.5-3.1 3.7-7.7 5.2-11.2 8.5-2.9 2.8-6.4 6.1-7.6 10.1-0.5 1.8-0.1 3.8-0.3 5.7-0.8 4.2-1.9 8.1-2.5 12.4-0.6 5.3-0.7 10.2-0.7 15.6 0 2.6-0.2 5.4-0.1 8 0.1 2.6 1.1 4.9 1.2 7.5 0.2 1.7-0.2 3.5 0 5.3 0.4 2 1.2 4.1 1.6 6 1.2 4.8 2.1 9.4 3 14.1 0.8 4.4 2.5 8.7 3.9 13 1.9 5.8 3.1 11.8 4.3 17.8 0.9 4.5 0.8 9.2 1.4 13.7 0.6 3.7 1.4 7.4 1.6 11.1 0.2 5.6-1.2 11.1-1.3 16.7 0 9.5 3.8 19 6 28.1 0.6 2.5 1.3 5.1 2 7.7-23.5-46.3-36.7-98.6-36.7-154 0-67.3 19.6-130.1 53.2-183 14.4-22.5 31.2-43.1 50.2-61.6 61.4-59.8 145.3-96.6 237.8-96.6 7.5 0 14.8 0.3 22.1 0.7 45.5 2.9 88.6 14.8 127.5 33.8z"/><path class="h" d="m754 669.5q-56.8 78.9-136.5 112.3-6.2-25.7-48.3-63.8-42.2-38.1-74-85.2 315.7-42.2 258.8 36.7z"/><path class="i" d="m384.3 801.9c-48.4-13.1-92.5-36.5-129.9-67.9-35.3-29.5-64.5-66.1-85.5-107.5-13.2-26.1-23.2-54-29.3-83.3-0.1 0-0.1-0.2-0.1-0.3-4.7-22.7-7.3-46.3-7.3-70.4 0-67.3 19.6-130.1 53.2-183 14.4-22.5 31.2-43.1 50.2-61.6 61.4-59.8 145.3-96.6 237.8-96.6 7.5 0 14.8 0.3 22.1 0.7 29.2 1.9 57.3 7.4 84 16.2-21.6-5.9-44.1-9.7-67.3-11.2-7.3-0.5-14.6-0.7-22.1-0.7-92.5 0-176.3 36.8-237.8 96.6-19 18.4-35.8 39-50.2 61.5-33.6 52.9-53.2 115.7-53.2 183 0 24.2 2.6 47.7 7.3 70.5 0 0.1 0 0.2 0.1 0.3 6.1 29.3 16.1 57.2 29.3 83.2 21 41.5 50.2 78 85.5 107.6 33 27.7 71.3 49.2 113.2 62.9z"/><path fill-rule="evenodd" class="j" d="m563.1 190.3c-3.5 16.9-10.1 33.8-17.8 49.3-7.3 14.6-18.1 24.9-30.3 35.4-12.5 10.6-24.2 21.2-34.6 34-11.9 14.6-19.5 29-36.5 39.1-41.2 24.4-86.8 40.5-132.9 51.9-13.4 3.3-25.2 1.7-38.6 3.1-12.8 1.4-24.8 7.9-36.6 12.4-23.1 8.6-50.3 19.9-75.6 17.3-7.3-0.7-16.6-2.5-24.9-5.9 4.4-33.6 13.8-65.6 27.3-95.3 6.2 9.3 7.1 18.5 4.7 30.6-3.7 18.4 5.6 26.6 22.9 31 11.3 2.7 21.1 1.3 32.4-0.2 12.5-1.7 25.5-0.9 38-4 9.6-2.3 17.8-5.7 27.7-7.2 6.1-1 12.1-2.3 18.2-3.4 6.9-1.3 13.3-4.7 20.3-5.3 5.6-0.5 11.5 0.3 17.1 0.2 16.9-0.4 28.8-10.2 43.3-17.9 10.3-5.4 19.6-10.1 30.5-14.2 8.4-3.1 17.9-6.9 24.1-13.7 2.6-3 3.8-6.5 6.2-10.2 2-3.1 4.4-4.9 6.5-7.5 6.1-7.1 11.7-15.4 17.1-23.1 3.6-5.2 6.6-10.6 9.8-16 3.1-5.7 7-8.2 11.4-12.7 6.3-6.5 11-13.3 14.9-21.2 6.3-12.5 6.8-29.7 4.2-43.5-2.6-14-7.1-27.1-10.2-41.1-1.9-8.2-9.5-16.2-17.6-20.7 3.8 0.1 7.6 0.3 11.5 0.5 19.5 1.3 38.7 4.2 57.2 8.7 9.4 14.5 14.1 31.7 10.3 49.6zm-14.8-19.1c-1.7-6.1-2.8-14-7.4-18.7-3.6-3.8-10.9-5.7-15.7-3.5-10.3 4.4-8.8 20.7-10 14.1 1.1 11.6 1.5 22.8 1.4 34.4-0.1 4.8 0.5 9.4 1.4 14.1 0.4 2.4 0.4 5.1 1.6 7.3 2.3 3.9 7.6 5.3 11.5 3.1 8.6-4.8 14.1-14.3 17-23.4 1.2-3.6 1.7-7.7 2.4-11.5 1-5.8-0.6-10.4-2.2-15.9z"/><path fill-rule="evenodd" class="k" d="m814.6 472.5c0 32.8-4.6 64.5-13.3 94.5-0.7 1.2-1.5 2.4-2.3 3.5-6.9 9.7-13.5 19.5-20.4 29.1-3.8 5.4-6.8 11.6-11.2 16.6-3.9 4.5-9.2 8-13.7 12.1-10.8 9.7-16.7 24.4-22.7 37.4-13.4 28.5-36 57.7-66.1 70.5-8.3 3.6-17.1 4.6-25.4 8.7-11.2 5.6-22 9.5-34 13.1-32.4 9.5-60.3 29-92.7 39.1-19.4 6-38.3 11.6-57.6 16-9-0.4-17.8-1.3-26.5-2.3-65.9-8.7-125.8-36-174.3-76.8-18.2-15.2-34.8-32.3-49.4-51.1 9.6 2.4 18.6 6.8 27.9 9.8 8.9 2.8 18 3.9 26.5 7.9 9.1 4.2 16.7 8.3 26.6 10.4 16.4 3.4 32.8 7.8 49.2 11 14.5 2.8 31.7 0.5 46.4 0.5 11.1 0 19.6 0.3 29.9 3.4 8.1 2.6 15.6 5.3 23.8 7 8.1 1.7 14.5-2.6 22.3-4.2 12.9-2.8 25.3-5.1 38-9 18.1-5.6 36.7-9 54.9-14.9 11.1-3.6 22-7 33.6-8.9 7.2-1.2 14.4-0.1 21.8-1.2 11.2-1.8 21.5-4.9 32.1-9 16.9-6.3 29.7-14 43.6-25.2 6.5-5.2 12.6-12.7 19.3-17.5 6-4.2 8.8-3.8 12.7-10.6 8.4-14.1 20.3-26.2 28.2-40.8 8.2-15.1 8.9-29 12.4-45.5 3.8-18.3 12.6-34.4 21.5-50.5 4.5-8.1 8.8-15.6 11.8-24.4 2.7-7.6 6.7-13.4 8.9-21.4 3.1-11.5 5.1-20.8 5.3-32.7 0.2-9 2.7-17.9 2.9-26.8 6.5 26.3 10 53.8 10 82.2zm-325.4 266.6c1.5 2.2 4.9 2.3 7.2 2.5 3.9 0.4 7.6-0.3 11.3-1 1.8-0.3 2.8-0.3 4.1-1.6 1-1 1.9-2 1.3-3.5-0.6-1.6-3.2-2.8-4.6-3.4-2.4-1.1-4.9-0.8-7.4-0.4-1.7-0.4-3.7-0.8-5-0.4-1.3 0.4-3.3 2-4.5 2.8-1.7 1.2-3.7 2.9-2.4 5zm26.7 23.6c-1.5-3.1-3.9-6.2-6.7-8.2-3.9-2.6-9.3-3.9-13.8-4.6-11.9-2-24.3-0.7-36.1 0.6-11.8 1.3-23.2 3.7-34.7 6.8-4.7 1.3-9.6 2.8-14.5 3.6-3.7 0.5-7 0.3-10.8 0-6.2-0.5-13.1-1.6-19.3-0.7-2.6 0.3-5.4 0.8-7.8 1.9-1.2 0.5-2.5 1.4-3.8 2.4 0 0.2-0.4 0.9-0.5 1.7-0.4 1.6 0.3 3.2 1 4.7 1.9 4.2 4.5 7.5 7.8 10.6 3.6 3.5 7.1 7.4 11.2 10.1 5.8 3.9 12.5 6.9 19 9.3 7.2 2.6 14 3.9 21.6 3.4 4.6-0.3 9.2-0.5 13.8-0.7 4.6-0.3 9-1.2 13.7-1.3 3.8 0 7.7-0.1 11.5-0.5 3.3-0.2 6.4 0 9.5-0.8 7.8-2 14.9-6.2 21.8-10.1 2.8-1.6 5.7-2.8 8.3-4.8 2.7-2.1 4.8-4.8 6.9-7.5 3.5-4.5 4.7-10.7 1.9-15.9zm90.8-28.6c-3-7.7-14.4-7.2-21.2-6.4-6.2 0.8-13 1.3-19 3.3-5.3 1.8-9.2 4.7-13.1 8.5-4.6 4.4-8.9 8.3-11.9 13.8-0.8 1.4-2.5 3.6-3 5-0.8 2.5-0.1 6.1-0.1 8.6-0.9 1.2-1.3 4.2 1.3 6.9 1.7 1.8 4.4 2.8 6.8 3.3 2.9 0.5 5.9-0.8 8.6-1.8 3.8-1.3 7.6-2.5 11.1-4.3 3.2-1.6 6.6-3.2 9.8-4.7 3.3-1.5 6.3-3 9.5-4.9 3.7-2.1 7.6-4.1 11.2-6.7 2.6-1.8 5.6-3.2 7.7-5.7 3.7-4.5 4.4-9.5 2.3-14.9zm-101.7-1.3l-6.8-0.7c1 0 1.9-0.3 2.9-0.4 1.6 0.4 3 0.9 3.9 1.1z"/><path class="l" d="m777.3 317.4v1.4c-0.4 9.4-4.2 15.9-7.6 24.5-2.7 6.9-5.9 13.1-9.4 19.6-6 11-8.8 21.3-13.2 33-6.8 18.4-10.3 37.2-21 53.9-9.7 14.9-11.9 33.2-19.8 49.1-8.8 17.8-22.4 30.5-36.9 43.5-6.5 5.8-11.9 12.8-17.7 19.1-6.2 6.7-11 15.4-18.5 20.7-16 11.7-33.6 21.7-49.3 34.1-9.4 7.3-16.1 17.1-26.5 23.2-10.4 6.2-21.6 10.5-31.9 16.8-9.3 5.7-18.4 11.8-28.5 15.9-11.5 4.6-21.1 3.2-32.9 3.8-13.1 0.6-26.7 4.1-39 8.3-10.2 3.6-18.8 7.3-29.2 3.6-6.9-2.4-13.2-7-20.5-8.5-16.9-3.4-36.2 0-53.4-0.4-13.5-0.4-28.3-3.5-41.5-6.1-12.9-2.6-23.5-11.6-36.1-15.3-15.4-4.5-33.5-0.7-48.5-6.6-6.1-2.3-11.9-7.2-17.3-10.6q-1.8-1.1-3.5-2.2c-2.1-3.7-4.1-7.5-6.1-11.4 3.7 1.6 7.3 3.2 11.1 5 19.6 9.4 44 7.9 65.1 11.6 23.7 4.2 47.5 10.4 71.5 13.1 9.7 1.1 19.5 1 29.1-0.1 13.6-1.5 27.6-1.3 40.9-3.6 23.2-4.1 45.8-15 69.9-11.9 4.5 0.6 9.4 2.9 14 2.9 6.7-0.3 11.3-6.1 16.7-9.5 9.5-5.9 19.5-4.8 27.8-12.6 8.3-7.7 17.3-12.7 27.3-17.8 26.1-13.2 47.2-34.7 67.7-55.2 17.1-17.1 33.7-35.1 45.5-56.5 11.5-20.9 9.2-45.8 17.8-67.6 6.3-15.5 11.6-30.1 21.7-43.8 4.9-6.6 10.9-12.2 16.1-18.5 5.5-6.7 8.9-13.9 13.1-21.4 4.7-8.4 10.6-16.1 14.4-24.9 3.5-8.5 3.2-16 3.1-24.9-0.2-9.7 0-19.6 0-29.3 13.6 17.3 25.5 35.9 35.5 55.6z"/><path fill-rule="evenodd" class="m" d="m730.2 248c-0.4 1.7-0.9 3.4-1.4 5-3.2 10-6.6 19.6-8.2 30-2.2 14.2-6 27.2-11 40.5-2.6 6.8-6.7 12.5-10.4 18.6-4.7 7.8-12.3 13.7-16.2 21.9-2.4 5-2.9 11-4.3 16.3-2.2 8.5-5.6 17.2-10.2 24.7-9.4 15.3-12.6 32.4-17.3 49.4-5.2 18.6-10.5 39.4-23.4 54.4-9.2 10.7-18.1 20.8-29.3 29.6-5.7 4.5-11.7 8.2-17.8 12.2-7.9 5.1-15 11.4-22.6 17.1-8.8 6.8-17.7 13.8-26.2 21.1-7.7 6.6-13.2 14.9-21.8 20.3-6.5 4-13.7 5.9-21.2 7.5-12.1 2.6-24.3 5.7-36.6 7-24.6 2.6-49.1 9.1-74.2 7.4-9.6-0.6-19.3-2.5-28.9-3.7-12.9-1.4-25.7-2.5-38.6-3.3-14.1-0.9-28.6-2.8-42.5-5.1-12.3-2.1-24.2-6.4-36.8-7-13.6-0.5-26.8 1.6-40.1 3.6-9.4 1.3-19 0.1-28.3-1.4q0 0 0 0c-5.9-13-11.1-26.5-15.3-40.3-3.2-10-5.8-20.2-8-30.6-0.1 0-0.1-0.2-0.1-0.3-1.5-7.2-2.8-14.6-3.8-22q-3.4-23.8-3.4-48.4c0-9.4 0.3-18.9 1.2-28.1 4.1 3.5 10.4 9.7 15.5 12.7 2.1 1.2 5.7 0.9 8.2 1.4 8.1 1.7 17.5-1.3 24.5 4.2 3.6 2.7 7.5 5.6 11.5 7.8 1.8 1 3.9 2.7 5.7 3.5 1.5 0.6 3.6 0.2 5.2 0.2 5.4 0 10.8 0.3 16.2-0.3 11.2-1.3 22.3-0.9 33.5-0.9 12.3-0.1 18.8-12.1 29.5-16.3 3.2-1.2 6.2-1.5 9.6-1.6 4.2 0 8.5-1 12.8-1.5 12.2-1.5 23.4-8.8 34.9-12.8 5.5-2 11.3-3.1 16.8-5.3 11.2-4.6 21.7-11.1 33-15.8 11.3-4.9 21.7-11.1 32.9-15.9 10.5-4.5 20.7-10.1 31.9-12.9 9-2.4 18.3-2.6 27.3-5.3 12.4-3.8 24.8-8.1 36.5-13.8 10.2-4.7 19-12.7 26.2-21.1 8.3-9.6 21.8-11.6 30.9-20.5 9.4-8.9 16.2-21.2 19.6-33.5 4.4-15.7 8.2-31.1 14.1-46.3 3.7-9.6 9.3-18.3 7.2-28.8-1.3-6-3.1-11.6-4.9-17.3-0.8-2.4-1.2-4.6-1.6-7-0.9-4.1-2.9-8-3.6-12.1-0.8-4.5-1.4-9.1-1.6-13.6-0.2-4.7-1.5-7.5-4.4-11.3-2.9-3.8-6.4-5.2-10.6-7.4-0.9-0.4-3.5-1.6-5.7-3 7 2.4 13.9 5 20.8 7.9 5.1 2.2 10.1 4.4 15 6.8 0.9 0.4 1.8 0.8 2.6 1.2 33.1 16.2 63.2 37.5 89.2 63.1 3.8 3.6 7.4 7.3 11 11.2 2.4 2.6 4.7 5.2 7 7.9zm-450.8 229.2c0.6 3.2 1.9 8 3.8 10.7 2.2 3.2 4.5 4.4 8.2 3.8 3.7-0.6 9.9-2.1 12.2-5.2 8.1-10.6-8.5-20-17.7-16.9l8.3-3.6q0.3-0.1 0.4-0.2c-1.9 0.6-14.6 5.6-15.4 7.4-0.5 1.1 0 2.8 0.2 4zm-35.6 84.8c14.3-5.4 33.6-10.4 40.5-25.7 0.3-1.7 0.5-3.5 0.8-5.2 0.5-4.7 0.8-9.3 0.8-14 0-3.9-1-6.3-2.6-9.8-2.8-6.1-5.6-12.7-11.6-16-8-4.2-15.9-3.2-24.4-1.8-4.9 0.8-9.6 2.1-14.4 3-5 1.1-10.1 0.9-15.1 0.8-11.2 0-22.2-1.5-33.3-1.4-10 0.1-19.3 0.4-29.2 1.3-0.3 1.5-3.6 6.2-5.8 10.7-2.1 4-3.8 8.8-4.8 13.1-1.3 5.5 0.9 10.4 1.7 15.9 1.1 6.6 4.6 12 8.5 17.4 6.2 8.3 12.8 12 22.7 14.8 21.6 5.8 45.2 4.6 66.2-3.1zm91 15.9c-1.3-6.7-6-10.9-12.1-13.7-9.1-4.2-19-7.7-28.4-3-6.1 3.1-11.7 7.1-16.7 11.6-2.7 2.5-5.3 5.1-7.7 7.8-2.6 5.7-4.6 11.6-5.7 17.8 5.5-1.7 8.3 2.1 9.5 4.1 1.5 2.7 4.2 5.7 6.8 7.3 4.7 2.8 11.1 3.9 16.4 3.6 10.8-0.4 29.6-4.4 34.1-15.7 2.8-6.8 5.3-12.2 3.8-19.8zm122.6-5.9c-1.5-2.4-4.3-4.3-6.2-6.3-4.2-4.2-7.7-7.1-13.3-9.4-12.6-5.2-27.6-4.4-39.4 2.3-6.6 3.8-13.3 9.4-16.9 16.2-0.4 1.5-1.1 2.7-2.3 3.6 0.7 6 2.3 11.7 4.9 17.3-4.2-1.9-3.1 7.2 3.7 13.4 2.4 2.3 5.8 3.1 8.9 4.3 4.7 1.8 9.5 4.3 14.7 4.2 10.1 0 21-3.4 29.9-8 7.6-3.9 12.5-5.7 15.9-14 2.7-6.4 3.8-17.3 0.1-23.6zm44.3 10.7c-2.8-5-6.9-4.8-11.5-6.8-3 4.9-6 9.6-9 14.3l1.3 1.4c-0.6 2.2 3.3 6.4 5.4 6.9 2.5 0.5 6.3-2.6 8.2-4.2 3.5-2.8 8.2-6.9 5.6-11.6zm96.9-228.2c-0.6-4.9-5-9-9.6-10.5-2.3-0.8-5.5-1.5-8.5-1.9-8.2 4.2-12.3 6.4-16.5 15-3 6-4.1 10.8-3.8 17.3 0.4 11.2 10.3 8.9 17.7 5.8 5.9-2.5 11-7.3 14.8-12.4 3-3.8 6.6-8.2 5.9-13.3zm84.6-71.7c-3.6-7.8-8.3-10-16.5-11.3-7.1-1.1-13.4 0.3-19.8 3.4-21 10.3-33.3 38.1-33.6 60.4-0.1 6.8 1.3 13.9 1.9 20.6 0.7 7.2 1.2 14.3 2.3 21.4 1.1 6.8 1.7 14.1 3.1 20.8 1.3 6.1 4.6 13.4 6.5 18.8-0.2-2.9 5.9-4.1 9.2-4.1 3.7 0 7 0.3 10.3-1 7.6-3 11.3-11.6 13-19.4 3-13.8 3.7-27.3 9.8-40.4 5-10.6 9.8-21.5 13.4-32.7 3.4-11.1 5.4-25.7 0.4-36.5z"/><path class="n" d="m583.5 340.5c-1.1 0.6-2.1 1.1-3 1.6-1.9-0.3-3.7-0.4-5.2-0.2z"/><path class="o" d="m155.3 493.2c-0.5 0.1-1.1 0.1-1.7 0.1 1.4-0.8 1.9-0.8 1.7-0.1z"/><path class="p" d="m538.8 137.6l59.9-23.6q95.3 37.1 155.3 118.1l3.8 51.8q-113.6-43.5-219-146.3z"/><path class="q" d="m756.5 664.4q-50.2 54.5-88.2 66.6l-31.1 9.5q-142-51.1-149.8-140c-6.6-74.7 121.2-189.3 155.8-203q34.5-13.6 75-5.9z"/><path class="r" d="m811.5 564.4c-5 70.7-124.4 175-150.4 166.6-78.5-25.2-144.2-128.3-137.1-155.5 34.8-133.8 164.2-193.4 194.2-183.9 44.5 14.1 98.3 102.2 93.3 172.8z"/><path class="s" d="m540.5 624.9c-12.6-21.3-19-39.9-16.5-49.4 34.8-133.8 164.2-193.4 194.2-183.9 25.1 8 53.2 39.5 72 78.2-18.2-31.3-50-63.1-71.7-69.9-29.9-9.6-167.7 39.8-186.2 191.3-0.8 7.2 1.3 19.2 8.2 33.7z"/><path class="t" d="m228.7 707.5l10.7-44.7q46.6-70.6 74.1-23.8 27.6 46.7 18.9 119.7-22.5 6.1-53.4-5.2-24.3-14.7-50.3-46z"/><path class="u" d="m200.2 581.4q10.1-23.3 20.3-22.4c10.3 0.8 79.2 39.5 98.1 91.3q16.5 45.7 7 86.1l-19.8 5.3z"/><path class="v" d="m617.5 781.8l-32.9 42.7q-57.1 27.7-114.4 14.3l-41.5-28z"/><path class="w" d="m185.4 613.5c3.4-15.7 17.3-41.9 29.7-44.4 12.4-2.6 71.1 53.1 84.6 89 13.6 35.8 6.8 75.5 6.1 83.6-0.7 8.1-67.2-14.4-100.8-42q-33.6-27.6-19.6-86.2z"/><path class="x" d="m305.8 741.7c-0.1 1.4-2.1 1.8-5.4 1.6 1.6-13.9 10.6-45.8-5.7-89.9-13.4-35.9-73.1-80.2-85.5-77.7-2.8 0.6-5.6 2.4-8.4 4.9 4.5-6 9.5-10.5 14.3-11.5 12.4-2.6 71.1 53.1 84.6 89 13.6 35.8 6.8 75.5 6.1 83.6z"/><path class="y" d="m485 505.9c-14.7-6.9 2-71.5 16.5-85.6 14.5-14.1 52.2 18.8 57.2 45.7 5 26.8-40 55.7-73.7 39.9z"/><path class="z" d="m499.7 501c-11.8-5.8 1.6-59.4 13.2-71.1 11.7-11.6 41.9 15.6 45.9 37.9 4 22.3-32 46.2-59.1 33.2z"/><path class="A" d="m598.7 114q3 36.4 43.9 81 40.9 44.5 111.4 37.1l3.8 51.8q-149.9-66.2-219-146.3z"/><path class="B" d="m716.4 436.9c2.7-1.3 3.7 5.5 1.3 6.4-0.8 0.3-0.9-0.3-1.6-0.4-0.8-0.3-1.5 0-2.3-0.5-3-2.1 0.8-4.8 2.5-6.2z"/><path class="B" d="m857.8 376c2.7-1.3 3.7 5.5 1.3 6.4-0.8 0.3-0.9-0.2-1.6-0.4-0.8-0.3-1.5 0-2.3-0.5-3-2.1 0.7-4.7 2.4-6.2z"/><path class="B" d="m795.7 627.1c2.7-1.3 3.7 5.5 1.3 6.4-0.8 0.3-0.9-0.2-1.6-0.4-0.8-0.3-1.5 0-2.3-0.5-3-2.1 0.8-4.8 2.5-6.2z"/><path class="B" d="m728.6 460.9q1.6-0.9 3.4-0.9c0.2 1.4 1.6 4.3-0.5 5.5-1.8 0.9-1.3-2.2-2.1-3z"/><path class="B" d="m505.8 478.1c-1.1-0.8-2.3-2.4-2.3-4 0-1.4 1-3.4 1.9-4.5 0.9-1.2 1.8-2.6 3.2-3.3 1.1-0.5 3.1-0.8 4.1 0 0.9 0.7 1.5 2.1 2.1 3.1 0.8 1.4 1.8 3 1.2 4.9-0.4 1.2-1.4 2.8-2.5 3.5-0.8 0.5-1.9 0.4-2.6 1q-3.3-1.4-6.7-2.8z"/><path class="B" d="m187.8 648.2c-1.2-0.8-2.4-2.5-2.4-4 0.1-1.5 1.1-3.4 1.9-4.5 0.9-1.3 1.9-2.7 3.2-3.3 1.1-0.5 3.1-0.8 4.2 0 0.9 0.6 1.4 2.1 2 3 0.9 1.5 1.9 3 1.2 4.9-0.4 1.3-1.4 2.8-2.4 3.5-0.9 0.6-2 0.5-2.7 1.1q-3.3-1.5-6.7-2.8z"/><path class="B" d="m807.8 736.9c-1.1-0.8-2.4-2.4-2.3-4 0-1.4 1-3.4 1.8-4.5 0.9-1.2 1.9-2.6 3.2-3.3 1.1-0.5 3.2-0.8 4.2 0 0.9 0.7 1.5 2.1 2 3.1 0.9 1.4 1.9 3 1.3 4.9-0.5 1.2-1.4 2.8-2.5 3.5-0.9 0.5-1.9 0.4-2.7 1q-3.3-1.4-6.6-2.8z"/><path class="B" d="m763.2 675.3c-1.1-0.8-2.4-2.4-2.3-4 0-1.4 1-3.3 1.8-4.5 0.9-1.2 1.9-2.6 3.3-3.2 1-0.6 3.1-0.9 4.1-0.1 0.9 0.7 1.5 2.1 2 3.1 0.9 1.4 1.9 3 1.3 4.9-0.5 1.2-1.4 2.8-2.5 3.5-0.9 0.5-1.9 0.4-2.6 1.1q-3.4-1.5-6.7-2.8z"/><path class="B" d="m146.9 248.7c-2.9-2-6-6.2-5.9-10.2 0.1-3.6 2.6-8.5 4.7-11.4 2.2-3.1 4.7-6.6 8.1-8.2 2.8-1.3 7.9-2.1 10.6-0.2 2.2 1.7 3.6 5.3 5.1 7.8 2.2 3.7 4.7 7.6 3.1 12.5-1.1 3.1-3.5 7-6.3 8.8-2.1 1.4-4.8 1.1-6.6 2.7q-8.4-3.7-17-7.1z"/><path class="B" d="m522.9 41.8c-2.9-2.1-6.1-6.2-6-10.2 0.2-3.7 2.6-8.5 4.8-11.4 2.2-3.1 4.7-6.6 8.1-8.3 2.8-1.3 7.9-2 10.5-0.1 2.3 1.7 3.7 5.3 5.2 7.8 2.2 3.7 4.7 7.6 3.1 12.4-1.1 3.2-3.6 7.1-6.3 8.9-2.1 1.4-4.9 1.1-6.7 2.7q-8.4-3.7-16.9-7.1z"/><path class="B" d="m567.4 531.9c0.3-0.7 1.7-0.8 2.3-0.8 0.9 0 1.3 0.3 1.8 1.1 0.9 1.4 0.5 1.8 0 3.4-0.1 0.6 0.2 1.3-0.4 1.9-0.6 0.5-1.2 0.5-1.9 0.3-1.5-0.4-2-1.5-2.9-2.7q0.9-1.5 2.4-2.5z"/><path class="B" d="m574.2 568.5q-0.1 0.2-0.1 0.4c0.7 0.5 1.1 2.3 0 2.9-2.2 1.3-0.5-3.1-0.3-3.5z"/><path class="B" d="m686 633c1.1-0.6 2.1 0.4 2.4 1.4 0.2 1-0.2 1.8-0.2 2.8-0.1 1.3-0.1 1.7-1.5 1.8-0.8 0-2.1-0.3-2.7-0.9 0.7-2.1 0.9-2.9 2.4-4.9z"/><path class="B" d="m591.4 536.9q1.3 1.2 1.7 3c-1.2 0.3-1.4-0.9-1.6-1.9-0.2-1.4 0.4-1 1.1-2.2q0.2 0.1 0.4 0.1z"/><path class="B" d="m700.6 439.2c0.9-1.3 0.9 0.8 0.9 1.2-0.1 1-0.1 1.7-0.7 2.6-0.4 0.8-1.2 1.8-2.1 1.9-1.3 0.1-1.1-1.2-1.6-1.9q0.9-1.5 2.3-2.5z"/><path class="B" d="m684.8 189.2c1.1-0.2 2.5-0.8 3.6-0.8 0.3 0 0.8 0.2 1.1 0.2 1.2 0.1 1.2-0.1 1.8 0.8 0.6 1.1 0.9 1.8 0.7 3.1-0.6 4.2-6.6-2.2-4.6-3.7z"/><path class="B" d="m223.1 194.7c3.7-1.5 8.5-2.8 10.8 0.5 1.2 1.7 1.8 5.3 1 7.1-1.4 3.2-6 2.7-8.8 1.8-1.6-0.5-4.7-2.4-4.5-4.3 0.3-2.2 3.2-2.4 5.1-3z"/><path class="B" d="m712.7 637.9c-0.9-6.5-2.1-13 3.8-16.4 3.1-1.9 8.9-2.5 11.9-0.3 2.2 1.6 4 4.6 5.4 6.8 2 3.3 1.5 3.3 0.4 6.3-2.4 7-4 11.5-10.9 11.6-9.1 0-10.5-7.1-10.6-15.9z"/><path class="B" d="m716.7 450.3c0.8-3.5 4.7-1.1 6.6 0q-2.8 3-6.6 4z"/><path class="B" d="m200.6 616.5c0.7-3.4 4.7-1.1 6.5 0.1q-2.7 2.9-6.5 3.9z"/><path class="B" d="m200.6 671.3c0.7-3.4 4.7-1 6.5 0.1q-2.7 2.9-6.5 4z"/><path class="B" d="m586.5 479.1c2.5-3.1 6.2-8.7 10.8-5.6 2.6 1.8 3.4 6.6 0.8 8.5-2.3 1.7-4.5 2.2-7.2 3-2 0.5-5-0.8-4.4-3.8z"/><path class="B" d="m672.1 620.3c2.5-3.1 6.2-8.8 10.8-5.7 2.6 1.9 3.4 6.6 0.8 8.5-2.3 1.8-4.5 2.3-7.1 3-2.1 0.6-5.1-0.8-4.5-3.8z"/><path class="B" d="m659.2 152.5c4 0.6 10.7 1 10.3 6.5-0.3 3.2-4.1 6.3-7 5-2.7-1.2-4.2-2.8-6.1-4.8-1.5-1.5-1.8-4.8 1.1-5.7z"/><path class="B" d="m645.2 656.9c2.5-3.1 6.2-8.8 10.8-5.7 2.6 1.8 3.4 6.6 0.8 8.5-2.3 1.8-4.5 2.3-7.1 3-2.1 0.6-5.1-0.8-4.5-3.8z"/><path class="B" d="m524.6 477.1c3-1.9 5.5-5.9 9.6-4.5 1.3 0.5 2.5 1.9 3.1 3.1 1 2.3 1.2 3.8 0.2 6.1-1.3 3.2-4.7 5.6-7.7 7.1-2.1 1.1-5.1 1-7.2 0-2.4-1.2-3.7-2.7-3.3-5.4 0.5-4.4 6-7 9.2-9z"/><path class="B" d="m539 462.7q2.6 0.9 4.4 2.9c-1.7 0.6-3.6 2-5.4 1.4-2.3-0.9-2.8-3.1-2.3-5.3 0.3-1.2 2.5-3.4 3.8-2.8 0.6 0.2 0.7 1.1 0.9 1.7 0.5 1.1 0.5 0.9-0.1 2.1z"/><path class="B" d="m615.1 456.9c5-12.3 23.9-26.7 37.3-23 5.8 1.6 10.4 4.1 11.3 10.5 0.7 4.6-0.5 10.9-3.5 14.6-3.9 4.8-12 7.7-17.6 9.2-9.5 2.4-19.2 5.1-28.8 6.9-4.9 1-9 0.7-6.7-4.7 4.5-10.7 12.5-19.7 21.1-27.2z"/><path class="B" d="m580.6 491.8q4.1 0.2 7.7 2.1c-0.7 0.8-0.5 1.9-0.8 2.8-0.6 1.5-1.9 2.9-3.2 3.7-2.1 1.4-5.7 1.9-8 1-7.2-2.8 3.8-11.3 6.2-8.3z"/><path class="B" d="m179.5 764.7c0.3-0.7 1.7-0.9 2.3-0.9 0.9 0 1.3 0.4 1.8 1.2 0.9 1.4 0.5 1.8 0 3.3-0.1 0.7 0.2 1.4-0.4 2-0.5 0.5-1.2 0.5-1.8 0.3-1.6-0.4-2.1-1.5-3-2.7q0.9-1.5 2.4-2.5z"/><path class="B" d="m186.3 801.3q-0.1 0.2-0.1 0.4c0.7 0.5 1.2 2.2 0 2.9-2.2 1.2-0.5-3.2-0.3-3.5z"/><path class="B" d="m203.5 769.7q1.3 1.2 1.7 2.9c-1.2 0.3-1.4-0.9-1.6-1.8-0.2-1.5 0.5-1 1.2-2.2q0.2 0 0.3 0.1z"/><path class="B" d="m192.7 724.6q4.1 0.1 7.7 2c-0.7 0.8-0.5 2-0.8 2.9-0.6 1.4-1.9 2.9-3.2 3.7-2.1 1.3-5.7 1.8-8 0.9-7.2-2.7 3.8-11.2 6.2-8.2z"/><path class="B" d="m645.2 158.8c2.4 1.7 5 3 6.9 5.3 2.1 2.6 4.2 4.9 5.9 7.9 0.8 1.5 2.8 4.7-0.1 5.1-3.3 0.5-8.9-3.8-11.3-5.4-4-2.8-7.8-5.4-10.7-9.4-1.5-2.1-3.7-5.6-2.2-8.1 1.2-2.1 3-2.4 5.3-2.4 2.4 0.1 3.7 0.8 5.6 2.3 0.8 0.7 5 4.9 3.6 6z"/><path class="B" d="m669.7 434.2c3.4-2.2 10.1-5 12.7-0.1 1.3 2.4-0.8 3.8-2.9 4.7-2.3 1-6.9 1.3-9.2 0.1-4.3-2.1 4.7-7.2 5.9-8z"/><path class="B" d="m724.9 143.1c8.6-5.3 25.3-12.3 31.9-0.1 3.3 6-2 9.5-7.2 11.7-5.9 2.5-17.3 3.3-23.1 0.4-10.9-5.4 11.8-18 14.8-20.2z"/><path class="B" d="m204.8 646.5c-0.2-9.7 13.4-12.3 20.5-9.6 3.3 1.2 7.5 4.5 9.6 7.2 1.8 2.3 4.6 6.4 4.5 9.5-0.1 2.8-1.9 3.1-3.8 4.3-3.4 2.1-6.7 4.3-10.2 6.4-4.7 2.7-10.1 4.2-14.9 0.6-4.6-3.5-5.7-9.3-6.6-14.6z"/><path class="B" d="m681.2 658.1c-0.1-6.8 9.4-8.7 14.4-6.8 2.3 0.8 5.3 3.1 6.8 5.1 1.2 1.6 3.2 4.5 3.1 6.6-0.1 2-1.3 2.2-2.7 3.1-2.4 1.4-4.7 3-7.1 4.4-3.3 2-7.1 3-10.5 0.4-3.2-2.4-4-6.5-4.6-10.2z"/><circle class="C" cx="723.6" cy="630" r="64.6"/><circle class="D" cx="637.1" cy="454.4" r="60"/><path class="E" d="m675.4 188.1c-7.6 10.5-26.6 9.6-42.5-2-15.8-11.5-22.6-29.3-15-39.8 7.6-10.4 26.6-9.5 42.5 2 15.9 11.5 22.6 29.4 15 39.8z"/><circle class="F" cx="221.6" cy="648.9" r="64.6"/><path class="G" d="m658.2 199q46 31.4 95.8 33.1-38.9 11.2-94.6-20.5-44-25.1-59.7-91.6 20 52.8 58.5 79z"/><path class="H" d="m495.2 632.8l29.5-43.4q38 107.8 136.4 141.6l-21.6 13.9q-100.3-28.5-144.3-112.1z"/><path class="I" d="m757.8 283.9q27.5 36 37.4 75-102.1-63.5-244-206.3 120.8 103.1 206.6 131.3z"/><path class="J" d="m453.3 224.3c27.9 42.3-3.1 111.9-69.1 155.4-66.1 43.5-142.3 44.4-170.2 2-27.8-42.4 3.1-112 69.2-155.4 66.1-43.5 142.3-44.4 170.1-2z"/></svg>