<svg version="1.2" xmlns="http://www.w3.org/2000/svg" viewBox="0 0 265 267" width="265" height="267"><defs><linearGradient id="P" gradientUnits="userSpaceOnUse"/><radialGradient id="g1" cx="23.5" cy="185.2" r="33" href="#P"><stop stop-color="#54143c"/><stop offset="1" stop-color="#9c3329"/></radialGradient><radialGradient id="g2" cx="90.4" cy="89.7" r="119" href="#P"><stop stop-color="#691731"/><stop offset="1" stop-color="#b84d42"/></radialGradient><radialGradient id="g3" cx="89.3" cy="178.9" r="77.3" href="#P"><stop offset=".5" stop-color="#fff"/><stop offset="1" stop-color="#b87e76"/></radialGradient><radialGradient id="g4" cx="94.1" cy="188.9" r="67.6" href="#P"><stop stop-color="#f33218"/><stop offset="1"/></radialGradient><radialGradient id="g5" cx="66.3" cy="67.2" r="119.3" href="#P"><stop stop-color="#9c3329"/><stop offset="1" stop-color="#4f0c35"/></radialGradient><radialGradient id="g6" cx="49.4" cy="79.7" r="113.6" href="#P"><stop stop-color="#8a2920"/><stop offset="1" stop-color="#4a0b25"/></radialGradient><radialGradient id="g7" cx="113.8" cy="108.5" r="59.9" href="#P"><stop stop-color="#54143c"/><stop offset="1" stop-color="#9c3329"/></radialGradient><radialGradient id="g8" cx="30.5" cy="39" r="97.9" href="#P"><stop stop-color="#a93f34"/><stop offset="1" stop-color="#6b1e3b"/></radialGradient><radialGradient id="g9" cx="23.7" cy="84.5" r="64.4" href="#P"><stop stop-color="#bd4124"/><stop offset="1" stop-color="#641a3b"/></radialGradient><radialGradient id="g10" cx="45" cy="74" r="66.1" href="#P"><stop stop-color="#73251e"/><stop offset="1" stop-color="#4a1234"/></radialGradient><radialGradient id="g11" cx="73.8" cy="9.9" r="107.4" href="#P"><stop stop-color="#73251e"/><stop offset="1" stop-color="#4a1234"/></radialGradient><radialGradient id="g12" cx="38" cy="18.2" r="23.7" href="#P"><stop stop-color="#73251e"/><stop offset="1" stop-color="#4a1234"/></radialGradient><radialGradient id="g13" cx="96.6" cy="5.5" r="68.1" href="#P"><stop stop-color="#73251e"/><stop offset="1" stop-color="#4a1234"/></radialGradient><radialGradient id="g14" cx="93.4" cy="115.7" r="65.3" href="#P"><stop stop-color="#6b1e3b"/><stop offset="1" stop-color="#c44a3c"/></radialGradient><radialGradient id="g15" cx="-31.7" cy="44.8" r="96.7" href="#P"><stop stop-color="#6b1e3b"/><stop offset="1" stop-color="#db5b4e"/></radialGradient><radialGradient id="g16" cx="85.2" cy="42" r="41.5" href="#P"><stop stop-color="#96372d"/><stop offset="1" stop-color="#300317"/></radialGradient><radialGradient id="g17" cx="67.5" cy="54" r="94.9" href="#P"><stop stop-color="#a93f34"/><stop offset="1" stop-color="#6b1e3b"/></radialGradient><radialGradient id="g18" cx="83.5" cy="-5.3" r="85.1" href="#P"><stop stop-color="#993329"/><stop offset="1" stop-color="#6e203a"/></radialGradient><radialGradient id="g19" cx="85" cy="25.8" r="62.5" href="#P"><stop stop-color="#73251e"/><stop offset="1" stop-color="#3b0f29"/></radialGradient><radialGradient id="g20" cx="195.2" cy="46.1" r="75.3" href="#P"><stop stop-color="#73251e"/><stop offset="1" stop-color="#3b0e2a"/></radialGradient><radialGradient id="g21" cx="109.1" cy="118.7" r="134.2" href="#P"><stop stop-color="#6b1e3b"/><stop offset="1" stop-color="#c44a3c"/></radialGradient><radialGradient id="g22" cx="103.7" cy="14.7" r="183.1" href="#P"><stop stop-color="#bf473b"/><stop offset="1" stop-color="#6b1e3b"/></radialGradient><radialGradient id="g23" cx="171.9" cy="35.9" r="122.8" href="#P"><stop stop-color="#9e3752"/><stop offset="1" stop-color="#571133"/></radialGradient><radialGradient id="g24" cx="217.9" cy="135.5" r="74.7" href="#P"><stop stop-color="#6b1e3b"/><stop offset="1" stop-color="#c44a3c"/></radialGradient><radialGradient id="g25" cx="92.7" cy="79.7" r="169.5" href="#P"><stop stop-color="#9e3359"/><stop offset="1" stop-color="#591931"/></radialGradient><radialGradient id="g26" cx="199.2" cy="64.4" r="266.5" href="#P"><stop stop-color="#5c1233"/><stop offset="1" stop-color="#a93f34"/></radialGradient><radialGradient id="g27" cx="194.8" cy="74" r="113.3" href="#P"><stop stop-color="#9c3329"/><stop offset="1" stop-color="#480f3c"/></radialGradient><radialGradient id="g28" cx="211.7" cy="102" r="71.7" href="#P"><stop stop-color="#9c3329"/><stop offset="1" stop-color="#430c3d"/></radialGradient><radialGradient id="g29" cx="35.7" cy="140.8" r="63" href="#P"><stop stop-color="#73251e"/><stop offset="1" stop-color="#4a1234"/></radialGradient><radialGradient id="g30" cx="39.6" cy="143.4" r="147.3" href="#P"><stop stop-color="#6b1e3b"/><stop offset="1" stop-color="#c44a3c"/></radialGradient><radialGradient id="g31" cx="14.9" cy="114.1" r="74.4" href="#P"><stop stop-color="#bd5348"/><stop offset="1" stop-color="#6b1e3b"/></radialGradient><radialGradient id="g32" cx="85.3" cy="143.8" r="44.5" href="#P"><stop stop-color="#6b1e3b"/><stop offset="1" stop-color="#c44a3c"/></radialGradient><radialGradient id="g33" cx="129.9" cy="74.6" r="102.1" href="#P"><stop stop-color="#bd3634"/><stop offset="1" stop-color="#641a3b"/></radialGradient><radialGradient id="g34" cx="126.5" cy="24.9" r="110.3" href="#P"><stop stop-color="#6b1e3b"/><stop offset="1" stop-color="#c44a3c"/></radialGradient><radialGradient id="g35" cx="109" cy="111.4" r="95.1" href="#P"><stop stop-color="#9c3329"/><stop offset="1" stop-color="#480a36"/></radialGradient><radialGradient id="g36" cx="108" cy="107.7" r="94.7" href="#P"><stop stop-color="#73251e"/><stop offset="1" stop-color="#4a1234"/></radialGradient><radialGradient id="g37" cx="146.1" cy="96.6" r="129.9" href="#P"><stop stop-color="#73251e"/><stop offset="1" stop-color="#4a1234"/></radialGradient><radialGradient id="g38" cx="122.7" cy="99.9" r="72.9" href="#P"><stop stop-color="#96372d"/><stop offset="1" stop-color="#380f21"/></radialGradient><radialGradient id="g39" cx="224.3" cy="135.7" r="158" href="#P"><stop stop-color="#6b1e3b"/><stop offset="1" stop-color="#c44a3c"/></radialGradient><radialGradient id="g40" cx="203" cy="137.5" r="27.9" href="#P"><stop stop-color="#bd4124"/><stop offset="1" stop-color="#641a3b"/></radialGradient><radialGradient id="g41" cx="193.6" cy="121" r="21.6" href="#P"><stop stop-color="#73251e"/><stop offset="1" stop-color="#4a1234"/></radialGradient><radialGradient id="g42" cx="179.4" cy="117.5" r="30.5" href="#P"><stop stop-color="#9c3329"/><stop offset="1" stop-color="#480a36"/></radialGradient><radialGradient id="g43" cx="68.9" cy="161.7" r="106" href="#P"><stop stop-color="#a93f34"/><stop offset="1" stop-color="#6b1e3b"/></radialGradient><radialGradient id="g44" cx="80.7" cy="27.8" r="243.7" href="#P"><stop stop-color="#822b22"/><stop offset="1" stop-color="#4d1127"/></radialGradient><radialGradient id="g45" cx="80.2" cy="181.5" r="112" href="#P"><stop stop-color="#5c1435"/><stop offset="1" stop-color="#9e3540"/></radialGradient><radialGradient id="g46" cx="137.5" cy="140.6" r="67.4" href="#P"><stop stop-color="#73251e"/><stop offset="1" stop-color="#4a1234"/></radialGradient><radialGradient id="g47" cx="153.7" cy="137.8" r="54.4" href="#P"><stop stop-color="#8c2d2b"/><stop offset="1" stop-color="#520e34"/></radialGradient><radialGradient id="g48" cx="149.6" cy="124" r="61.1" href="#P"><stop stop-color="#9c3329"/><stop offset="1" stop-color="#4f0d35"/></radialGradient><radialGradient id="g49" cx="118.6" cy="114.1" r="85" href="#P"><stop stop-color="#a93f34"/><stop offset="1" stop-color="#6b1e3b"/></radialGradient><radialGradient id="g50" cx="155.7" cy="99.4" r="85" href="#P"><stop offset=".6" stop-color="#b87e76"/><stop offset=".8" stop-color="#fff"/></radialGradient><radialGradient id="g51" cx="162.1" cy="146.6" r="35.3" href="#P"><stop stop-color="#73251e"/><stop offset="1" stop-color="#4a1234"/></radialGradient><radialGradient id="g52" cx="143.8" cy="153.1" r="28.6" href="#P"><stop stop-color="#6b1e3b"/><stop offset="1" stop-color="#9e3838"/></radialGradient><radialGradient id="g53" cx="144.6" cy="155.4" r="33" href="#P"><stop stop-color="#480a36"/><stop offset="1" stop-color="#9c3329"/></radialGradient><radialGradient id="g54" cx="48.6" cy="211.3" r="14.5" href="#P"><stop stop-color="#a93f34"/><stop offset="1" stop-color="#6b1e3b"/></radialGradient><radialGradient id="g55" cx="40.1" cy="194.7" r="37.2" href="#P"><stop stop-color="#73251e"/><stop offset="1" stop-color="#4a1234"/></radialGradient><radialGradient id="g56" cx="31.9" cy="193" r="34.3" href="#P"><stop stop-color="#9c3329"/><stop offset="1" stop-color="#54143c"/></radialGradient><radialGradient id="g57" cx="63.2" cy="195.9" r="53.8" href="#P"><stop stop-color="#6b1e3b"/><stop offset="1" stop-color="#c44a3c"/></radialGradient><radialGradient id="g58" cx="238.8" cy="59.1" r="129.4" href="#P"><stop stop-color="#6b1e3b"/><stop offset="1" stop-color="#d44747"/></radialGradient><radialGradient id="g59" cx="134.7" cy="42" r="52.8" href="#P"><stop stop-color="#f33218"/><stop offset="1"/></radialGradient><radialGradient id="g60" cx="170.6" cy="-5.9" r="82.6" href="#P"><stop stop-color="#9c3329"/><stop offset="1" stop-color="#430c3d"/></radialGradient><radialGradient id="g61" cx="153.1" cy="12.9" r="63.6" href="#P"><stop stop-color="#b02e34"/><stop offset="1" stop-color="#380f21"/></radialGradient><radialGradient id="g62" cx="202.3" cy="67.8" r="12.3" href="#P"><stop stop-color="#9c3329"/><stop offset="1" stop-color="#480a36"/></radialGradient><radialGradient id="g63" cx="130.6" cy="54.2" r="16" href="#P"><stop stop-color="#9c3329"/><stop offset="1" stop-color="#480a36"/></radialGradient><radialGradient id="g64" cx="142.7" cy="-46.7" r="100.6" href="#P"><stop stop-color="#6b1e3b"/><stop offset="1" stop-color="#c44a3c"/></radialGradient><radialGradient id="g65" cx="148.2" cy="212" r="82.7" href="#P"><stop stop-color="#92334b"/><stop offset="1" stop-color="#571133"/></radialGradient><radialGradient id="g66" cx="182.7" cy="197.2" r="96.6" href="#P"><stop stop-color="#6b1e3b"/><stop offset="1" stop-color="#c44a3c"/></radialGradient><radialGradient id="g67" cx="168.6" cy="235.5" r="155.7" href="#P"><stop stop-color="#6b1e3b"/><stop offset="1" stop-color="#c44a3c"/></radialGradient><radialGradient id="g68" cx="232.2" cy="163.6" r="179.1" href="#P"><stop stop-color="#6b1e3b"/><stop offset="1" stop-color="#c44a3c"/></radialGradient><radialGradient id="g69" cx="83.2" cy="208" r="42.6" href="#P"><stop stop-color="#8a2920"/><stop offset="1" stop-color="#4a0b25"/></radialGradient><radialGradient id="g70" cx="109.8" cy="158.2" r="183.6" href="#P"><stop stop-color="#8a2c2c"/><stop offset="1" stop-color="#4d0d35"/></radialGradient><radialGradient id="g71" cx="129.1" cy="120.8" r="142" href="#P"><stop stop-color="#73251e"/><stop offset="1" stop-color="#4a1234"/></radialGradient><radialGradient id="g72" cx="39.7" cy="207.8" r="29.8" href="#P"><stop stop-color="#9c3329"/><stop offset="1" stop-color="#4f0c35"/></radialGradient><radialGradient id="g73" cx="80.2" cy="188" r="29.2" href="#P"><stop stop-color="#6b1e3b"/><stop offset="1" stop-color="#c44a3c"/></radialGradient><radialGradient id="g74" cx="81.2" cy="187.8" r="66.5" href="#P"><stop stop-color="#5c1435"/><stop offset="1" stop-color="#9e3540"/></radialGradient><radialGradient id="g75" cx="160.1" cy="253" r="150.4" href="#P"><stop stop-color="#6b1e3b"/><stop offset="1" stop-color="#c44a3c"/></radialGradient><radialGradient id="g76" cx="44.9" cy="79.5" r="226.1" href="#P"><stop stop-color="#993329"/><stop offset="1" stop-color="#591233"/></radialGradient><radialGradient id="g77" cx="224.5" cy="224.1" r="80.2" href="#P"><stop stop-color="#782626"/><stop offset="1" stop-color="#3b0a28"/></radialGradient><radialGradient id="g78" cx="217.7" cy="184.5" r="68.5" href="#P"><stop stop-color="#96372d"/><stop offset="1" stop-color="#572121"/></radialGradient><radialGradient id="g79" cx="225.7" cy="175.8" r="67.9" href="#P"><stop stop-color="#8f2f26"/><stop offset="1" stop-color="#3d0d27"/></radialGradient><radialGradient id="g80" cx="225" cy="156.6" r="53.1" href="#P"><stop stop-color="#9c3329"/><stop offset="1" stop-color="#430c3d"/></radialGradient><radialGradient id="g81" cx="253.7" cy="177.6" r="41.4" href="#P"><stop stop-color="#6b1e3b"/><stop offset="1" stop-color="#c44a3c"/></radialGradient><radialGradient id="g82" cx="246" cy="163.6" r="31.8" href="#P"><stop stop-color="#9c3329"/><stop offset="1" stop-color="#480a36"/></radialGradient><radialGradient id="g83" cx="240.7" cy="152.6" r="29.4" href="#P"><stop stop-color="#9c3329"/><stop offset="1" stop-color="#430c3d"/></radialGradient><radialGradient id="g84" cx="246.4" cy="144.3" r="30.4" href="#P"><stop stop-color="#9c3329"/><stop offset="1" stop-color="#430c3d"/></radialGradient><radialGradient id="g85" cx="239.4" cy="153.9" r="18.5" href="#P"><stop stop-color="#9c3329"/><stop offset="1" stop-color="#480a36"/></radialGradient><radialGradient id="g86" cx="194.7" cy="172.8" r="47.2" href="#P"><stop stop-color="#96372d"/><stop offset="1" stop-color="#380f21"/></radialGradient><radialGradient id="g87" cx="199.6" cy="135.3" r="33" href="#P"><stop stop-color="#73251e"/><stop offset="1" stop-color="#4a1234"/></radialGradient><radialGradient id="g88" cx="86.1" cy="63.8" r="227.8" href="#P"><stop offset=".6" stop-color="#fff"/><stop offset="1" stop-color="#69163f"/></radialGradient><radialGradient id="g89" cx="156.8" cy="161.3" r="203" href="#P"><stop/><stop offset="1" stop-color="#9c1442"/></radialGradient><radialGradient id="g90" cx="177.4" cy="182.9" r="203" href="#P"><stop offset="0"/><stop offset=".8"/><stop offset="1" stop-color="#f93f3f"/></radialGradient><radialGradient id="g91" cx="80.3" cy="46.4" r="149.9" href="#P"><stop stop-color="#d41f3b"/><stop offset="1"/></radialGradient><radialGradient id="g92" cx="51" cy="58.7" r="35.4" href="#P"><stop stop-color="#d95234"/><stop offset="1"/></radialGradient><radialGradient id="g93" cx="66.6" cy="58.9" r="27.2" href="#P"><stop stop-color="#d95234"/><stop offset="1"/></radialGradient><radialGradient id="g94" cx="131.3" cy="21.1" r="31.7" href="#P"><stop stop-color="#d95234"/><stop offset="1"/></radialGradient><radialGradient id="g95" cx="100.3" cy="85.2" r="46.7" href="#P"><stop stop-color="#d95234"/><stop offset="1"/></radialGradient><linearGradient id="g96" x1="38.8" y1="62.4" x2="49.4" y2="69.1" href="#P"><stop/><stop offset="1" stop-color="#c44a3c"/></linearGradient><linearGradient id="g97" x1="43.8" y1="65.5" x2="49.4" y2="69" href="#P"><stop/><stop offset="1" stop-color="#c44a3c"/></linearGradient><linearGradient id="g98" x1="55.6" y1="46.7" x2="71" y2="54.1" href="#P"><stop/><stop offset="1" stop-color="#c44a3c"/></linearGradient><linearGradient id="g99" x1="62.9" y1="50.2" x2="71" y2="54.1" href="#P"><stop/><stop offset="1" stop-color="#c44a3c"/></linearGradient><linearGradient id="g100" x1="92.6" y1="80.3" x2="102.2" y2="88.5" href="#P"><stop/><stop offset="1" stop-color="#c44a3c"/></linearGradient><linearGradient id="g101" x1="97.2" y1="84.2" x2="102.2" y2="88.5" href="#P"><stop/><stop offset="1" stop-color="#c44a3c"/></linearGradient><radialGradient id="g102" cx="41.6" cy="57.3" r="53.2" href="#P"><stop stop-color="#f33218"/><stop offset="1"/></radialGradient><radialGradient id="g103" cx="73.5" cy="58.4" r="46.5" href="#P"><stop stop-color="#f33218"/><stop offset="1"/></radialGradient><radialGradient id="g104" cx="51.1" cy="67.9" r="37.1" href="#P"><stop stop-color="#f33218"/><stop offset="1"/></radialGradient><radialGradient id="g105" cx="113.7" cy="75.1" r="53.9" href="#P"><stop stop-color="#f33218"/><stop offset="1"/></radialGradient></defs><style>.a{fill:url(#g1)}.b{fill:url(#g2)}.c{mix-blend-mode:multiply;fill:url(#g3)}.d{mix-blend-mode:screen;fill:url(#g4)}.e{fill:url(#g5)}.f{fill:url(#g6)}.g{fill:url(#g7)}.h{fill:url(#g8)}.i{fill:url(#g9)}.j{fill:url(#g10)}.k{fill:#511334}.l{fill:url(#g11)}.m{fill:url(#g12)}.n{fill:url(#g13)}.o{fill:url(#g14)}.p{fill:url(#g15)}.q{fill:url(#g16)}.r{fill:url(#g17)}.s{fill:url(#g18)}.t{fill:url(#g19)}.u{fill:url(#g20)}.v{fill:url(#g21)}.w{fill:url(#g22)}.x{fill:url(#g23)}.y{fill:url(#g24)}.z{fill:url(#g25)}.A{fill:url(#g26)}.B{fill:url(#g27)}.C{fill:url(#g28)}.D{fill:url(#g29)}.E{fill:url(#g30)}.F{fill:url(#g31)}.G{fill:url(#g32)}.H{fill:url(#g33)}.I{fill:#bc5152}.J{fill:url(#g34)}.K{fill:url(#g35)}.L{fill:url(#g36)}.M{fill:url(#g37)}.N{fill:url(#g38)}.O{fill:url(#g39)}.P{fill:#6c61b8}.Q{fill:url(#g40)}.R{fill:url(#g41)}.S{fill:url(#g42)}.T{fill:url(#g43)}.U{fill:url(#g44)}.V{fill:url(#g45)}.W{fill:url(#g46)}.X{fill:url(#g47)}.Y{fill:url(#g48)}.Z{fill:url(#g49)}.a0{opacity:.5;mix-blend-mode:multiply;fill:url(#g50)}.a1{fill:url(#g51)}.a2{fill:url(#g52)}.a3{fill:url(#g53)}.a4{fill:url(#g54)}.a5{fill:url(#g55)}.a6{fill:url(#g56)}.a7{fill:url(#g57)}.a8{fill:url(#g58)}.a9{opacity:.5;mix-blend-mode:screen;fill:url(#g59)}.aa{fill:url(#g60)}.ab{fill:url(#g61)}.ac{fill:url(#g62)}.ad{fill:url(#g63)}.ae{fill:url(#g64)}.af{fill:url(#g65)}.ag{fill:url(#g66)}.ah{fill:url(#g67)}.ai{fill:url(#g68)}.aj{fill:url(#g69)}.ak{fill:url(#g70)}.al{fill:url(#g71)}.am{fill:url(#g72)}.an{opacity:.5;fill:url(#g73)}.ao{fill:url(#g74)}.ap{fill:url(#g75)}.aq{fill:url(#g76)}.ar{fill:url(#g77)}.as{fill:url(#g78)}.at{fill:url(#g79)}.au{fill:url(#g80)}.av{fill:url(#g81)}.aw{fill:url(#g82)}.ax{fill:url(#g83)}.ay{fill:url(#g84)}.az{fill:url(#g85)}.aA{fill:url(#g86)}.aB{fill:url(#g87)}.aC{mix-blend-mode:multiply;fill:url(#g88)}.aD{mix-blend-mode:screen;fill:url(#g89)}.aE{mix-blend-mode:screen;fill:url(#g90)}.aF{opacity:.6;mix-blend-mode:screen;fill:url(#g91)}.aG{mix-blend-mode:screen;fill:url(#g92)}.aH{mix-blend-mode:screen;fill:url(#g93)}.aI{mix-blend-mode:screen;fill:url(#g94)}.aJ{mix-blend-mode:screen;fill:url(#g95)}.aK{mix-blend-mode:screen;fill:url(#g96)}.aL{mix-blend-mode:screen;fill:url(#g97)}.aM{mix-blend-mode:screen;fill:url(#g98)}.aN{mix-blend-mode:screen;fill:url(#g99)}.aO{mix-blend-mode:screen;fill:url(#g100)}.aP{mix-blend-mode:screen;fill:url(#g101)}.aQ{mix-blend-mode:screen;fill:url(#g102)}.aR{opacity:.7;mix-blend-mode:screen;fill:url(#g103)}.aS{mix-blend-mode:screen;fill:url(#g104)}.aT{opacity:.6;mix-blend-mode:screen;fill:url(#g105)}</style><path class="a" d="m21.2 197.5q-2.7-1.3-4.7-3-0.8-1.7-1.3-3.4-3-3.9-5.2-7.7c-1.9-3.7-4.1-9.5-4.3-14.7q0.5-1.5 1.3-2.8 5.7 2.4 11.5 4.9 3.6 6.4 7.1 12.9-2.2 6.9-4.4 13.8z"/><path class="b" d="m30.1 133l64.9-30.3c2.5 4.9 5 9.8 7.9 14.3 4.2 5.4 8.9 10.6 14.2 15.6q0.7 1.2 1.1 2.6c-1 3.2-1.7 6.6-2.1 10q-0.2 3.5-0.3 7.1c-1.5 9.5-2.2 13.4-5.9 22.4-6.1 3.9-13.6 7.2-23.3 9.8q-2.5-0.1-4.7-0.5c-4.8-10.5-13.2-19.1-22.2-27.5-7.3-4.1-14.3-8.4-21.2-12.8q-0.6-1.2-1.2-2.4c-3-1.1-5.7-2.4-8.3-3.8-0.4-0.9-0.6-1.7-0.6-2.5q0.8-1.2 1.7-2z"/><path class="c" d="m30.1 133l64.9-30.3c2.5 4.9 5 9.8 7.9 14.3 4.2 5.4 8.9 10.6 14.2 15.6q0.7 1.2 1.1 2.6c-1 3.2-1.7 6.6-2.1 10q-0.2 3.5-0.3 7.1c-1.5 9.5-2.2 13.4-5.9 22.4-6.1 3.9-13.6 7.2-23.3 9.8q-2.5-0.1-4.7-0.5c-4.8-10.5-13.2-19.1-22.2-27.5-7.3-4.1-14.3-8.4-21.2-12.8q-0.6-1.2-1.2-2.4c-3-1.1-5.7-2.4-8.3-3.8-0.4-0.9-0.6-1.7-0.6-2.5q0.8-1.2 1.7-2z"/><path class="d" d="m30.1 133l64.9-30.3c2.5 4.9 5 9.8 7.9 14.3 4.2 5.4 8.9 10.6 14.2 15.6q0.7 1.2 1.1 2.6c-1 3.2-1.7 6.6-2.1 10q-0.2 3.5-0.3 7.1c-1.5 9.5-2.2 13.4-5.9 22.4-6.1 3.9-13.6 7.2-23.3 9.8q-2.5-0.1-4.7-0.5c-4.8-10.5-13.2-19.1-22.2-27.5-7.3-4.1-14.3-8.4-21.2-12.8q-0.6-1.2-1.2-2.4c-3-1.1-5.7-2.4-8.3-3.8-0.4-0.9-0.6-1.7-0.6-2.5q0.8-1.2 1.7-2z"/><path class="e" d="m84.6 177.7c-0.1 0.5-1.7 4.4-2.7 6.3-4.8-10.5-13.2-19.1-22.2-27.5-7.3-4.1-14.3-8.4-21.2-12.8q-0.6-1.2-1.2-2.4c-3-1.1-5.7-2.4-8.3-3.8-0.4-0.9-0.6-1.7-0.6-2.5q0.8-1.2 1.7-2l5.7-2.7c1.6 2.4 3.1 4.7 5 6.7 0.3 0.3 3.7 1.4 3.9 1.6 0.6 0.4 4 4.3 4.3 4.5 4.8 3.5 10 6.2 15.2 9.1 3.4 1.9 7 3.4 10.3 5.6 0.8 0.5 7.2 6.3 10.6 9.6-0.2 3.4-0.4 9.4-0.5 10.3z"/><path class="f" d="m101.1 158c2.1-2.7 4.1-5.5 5.8-8.5 2-3.8 3.5-7.8 5.3-11.7q3-1.3 6-2.6c-1 3.2-1.7 6.6-2.1 10q-0.2 3.5-0.3 7.1c-1.5 9.5-2.2 13.4-5.9 22.4-6.1 3.9-13.6 7.2-23.3 9.8q-2.5-0.1-4.7-0.5c1-1.9 2.6-5.8 2.7-6.3 0.1-0.9 0.3-6.9 0.5-10.3 3.2-0.6 9.2-2.3 10.1-3 0.4-0.3 4.1-4.1 5.9-6.4z"/><path class="g" d="m90.3 105l4.7-2.3c2.5 4.9 5 9.8 7.9 14.3 4.2 5.4 8.9 10.6 14.2 15.6q0.7 1.2 1.1 2.6-3 1.3-6 2.6c-2.9-2.7-6.1-5.2-8.6-8.3-3.6-4.3-6.8-9-9.4-14-1.8-3.3-2.7-7-3.9-10.5z"/><path class="h" d="m53.1 60c3 4.4 6.5 9.6 12 12.5 3.6 1.9 12.5 4.4 19.6 7.1 2.3 4.5 5.2 8.9 10 12.8 1 3.1 1.4 6.4 1.6 9.4-13.6 10-27.1 20-41.4 28.6-6.4 1.4-12.9 2.4-19.4 3.1q-6.7 0.3-13.8-0.5-8.9-5.2-15.8-10.8c-1.2-5-2.1-15.9-1.4-24.4 3.3-12.4 8.4-24.5 14.4-36.6 7.6-10.3 17.3-22.2 26.6-29.5 2.3 0 3.6 0 5.8 1q1 2.6 2.1 5.1c-2 5.1-4.4 16.1-0.3 22.2z"/><path class="i" d="m35.5 133.5q-6.7 0.3-13.8-0.5-8.9-5.2-15.8-10.8c-1.2-5-2.1-15.9-1.4-24.4-0.2 4.8-0.1 11.2 2.2 16.1q0.9 1.8 2.3 3.3 2.2 0.5 4.5 0.8 1.9 1.3 3.7 2.1c6.5 2 12.2 4.1 18.5 6.6 5.9-0.1 15.7-2.7 22.2-5.3l-3 9c-6.4 1.4-12.9 2.4-19.4 3.1z"/><path class="j" d="m60 117.2c10.3-6.9 21-13.5 31.6-20.8l4.7 5.4c-13.6 10-27.1 20-41.4 28.6l3-9q1.1-2.1 2.1-4.2z"/><path class="k" d="m84.7 79.6c2.3 4.5 5.2 8.9 10 12.8 1 3.1 1.4 6.4 1.6 9.4l-4.7-5.4c-2.2-4.8-5.2-9.4-8.8-13.7z"/><path class="l" d="m46.7 37.6l6.7 0.2c-2 5.1-4.4 16.1-0.3 22.2 3 4.4 6.5 9.6 12 12.5 3.6 1.9 12.5 4.4 19.6 7.1l-1.9 3.1c-12.5-3.9-21.2-7-32.7-14.8-5.3-8.2-6.5-14.1-3.4-30.3z"/><path class="m" d="m46.5 36.9c-0.3-1.7-0.5-3.4-1-5.2 2.3 0 3.6 0 5.8 1q1 2.6 2.1 5.1l-6.7-0.2q-0.1-0.4-0.2-0.7z"/><path class="n" d="m51.3 32.7l1-2.9 8.2-5.5 6.3-4 9.6-6.9 4.6-0.7 13.3-5.4 13.5-6.8 12.1 0.4 15.6-0.4 18.3 0.7 8.6 2.7 3.9 2.5 2.7 4.6-56.2 26.2-59.4 0.6-1.4-3.3z"/><path class="o" d="m82.8 82.7c3.6 4.3 6.6 8.9 8.8 13.7-10.6 7.3-21.3 13.9-31.6 20.8q-0.6 1.2-1.2 2.4-0.5 0.9-0.9 1.8c-2.8 1.1-6.3 2.3-9.7 3.2-4.6 1.2-9.2 2-12.5 2.1q-2.6-1-5.1-2c0.6-4.1 1.6-8.2 3.2-12.2 3.4-5.6 6.7-11.3 9.7-17.1 2.9-7.6 6.2-19.2 6.6-27.5 11.5 7.8 20.2 10.9 32.7 14.8z"/><path class="p" d="m33.8 112.5c-1.6 4-2.6 8.1-3.2 12.2-4.4-1.6-8.7-3.1-13.4-4.6q-1.8-0.8-3.7-2.1-2.3-0.3-4.5-0.8-1.4-1.5-2.3-3.3c-2.3-4.9-2.4-11.3-2.2-16.1 3.3-12.4 8.4-24.5 14.4-36.6 7.6-10.3 17.3-22.2 26.6-29.5 0.5 1.8 0.7 3.5 1 5.2q0.1 0.3 0.2 0.7c-3.1 16.2-1.9 22.1 3.4 30.3-0.4 8.3-3.7 19.9-6.6 27.5-3 5.8-6.3 11.5-9.7 17.1z"/><path class="q" d="m71 68.9c0.4 2.6 0.8 4.4 1.4 7-2.9-1-5.8-2-8.9-3.1-9.9-9.1-13.4-13.3-15.2-27.3 0.4-3.2 1-6.3 2-9.4 8.5-8.4 18-15 29.4-20.5-3.6 2.3-7.1 4.7-10.4 7.8q-4.2 4.4-6.9 9.7c-1.8 4.7-2.6 9.7-3.1 14.9 1.9 2.1 3.8 4.2 6.3 6.3 0.2 4.6 1.4 10 5.4 14.6z"/><path class="r" d="m94.4 61.2c-8.1 5.1-15.9 8.2-23.4 7.7-4-4.6-5.2-10-5.4-14.6q5.2-0.3 10.4 0.5c6.5 1.6 12.5 4 18.4 6.4z"/><path class="s" d="m108.6 57.4c-0.7 3.9-1.7 7.8-2.9 11.8-1.2 3.2-2.5 6.5-3.9 9.7q-2.6 0.3-5.2 0.5-2.1 0.6-4.3 1.1-3.8-0.4-7.6-0.9c-4.2-1.3-8.3-2.4-12.3-3.7-0.6-2.6-1-4.4-1.4-7 7.5 0.5 15.3-2.6 23.4-7.7 4.9-0.8 9.7-1.8 14.2-3.8z"/><path class="t" d="m120.4 44.2l7.5 9.8q-3.1 5.9-5.3 12-9.9 8.5-20.8 12.9c1.4-3.2 2.7-6.5 3.9-9.7 1.2-4 2.2-7.9 2.9-11.8 4.3-4.2 8.6-8.4 11.8-13.2z"/><path class="u" d="m122.2 27.1q1.1-4 2.3-8.1 0.6 0.9 1.1 1.7c-0.7 13.5 0.2 21.8 2.3 33.3l-7.5-9.8q0.9-8.5 1.8-17.1z"/><path class="v" d="m98.5 38.4c10-5.9 20.3-11.9 26-19.4q-1.2 4.1-2.3 8.1-0.9 8.6-1.8 17.1c-3.2 4.8-7.5 9-11.8 13.2-4.5 2-9.3 3-14.2 3.8-5.9-2.4-11.9-4.8-18.4-6.4q-1.8-0.3-3.6-0.4c6.3-3.1 11.4-8.2 15.6-10.4 1.5-0.8 7.1-3.6 10.5-5.6z"/><path class="w" d="m65.6 54.3c-2.5-2.1-4.4-4.2-6.3-6.3 0.5-5.2 1.3-10.2 3.1-14.9q2.7-5.3 6.9-9.7c3.3-3.1 6.8-5.5 10.4-7.8 9.9-2.5 19.2-4.2 29.3-4.6 3.5 0.4 7 1 10.6 2.1q2.6 2.7 4.9 5.9c-5.7 7.5-16 13.5-26 19.4-3.4 2-9 4.8-10.5 5.6-4.2 2.2-9.3 7.3-15.6 10.4q-3.4-0.3-6.8-0.1z"/><path class="x" d="m224 117.6c1.2-2.2 2.2-4.4 3-6.6-4.7-11.1-9.7-22.2-15-33.3-0.5-5-1.2-10-2-14.9q-3.3-10.6-7.3-20.5c-1.1-1.8-2.4-3.4-4-4.7-1.3-4.9-3-9.6-5.2-14.1-5.2-6.4-6.9-10.6-7.7-12.1-4.8-2.4-11.8-6.2-14.4-10.1 2.5 0.5 4.9 1.1 7.2 2.1q3.9 2.6 7.8 5.3c2.3 0.4 4.5 0.9 6.7 1.7q1.7 1 3.5 1.9c12.3 8.2 23.4 16.3 33.2 26.8 4.2 4.5 8 9.2 12.2 13.8 4.1 8.8 7.7 15.9 12.7 24.3 0.5 7.6 3.2 12.6 6 19.7q1.8 10.9 3.7 21.8-0.3 7.3-0.7 14.7c-1-1.6-2.4-3.3-3.5-4.4-2 1.4-5.9 3.2-7.2 3.5-2.1 0.2-4.7 0.2-7 0.5-3 1.1-6.1 2.7-9.1 4.5-1.5 0.9-12.4 0.6-14.5 0.5 0-6.7 0.7-14.4 1.6-20.4z"/><path class="y" d="m236.9 137.5c-1.5 0.9-12.4 0.6-14.5 0.5 0-6.7 0.7-14.4 1.6-20.4 1.2-2.2 2.2-4.4 3-6.6 5.3 4.4 16.4 17.6 19 22-3 1.1-6.1 2.7-9.1 4.5z"/><path class="z" d="m191 39.1q-1.1-2.5-2.1-4.9c-6.8-14.1-12.1-19.7-21.2-23.9-0.8-1.3-1.2-2.6-1.4-3.9q2.2-2.8 5.1-5.1c2.6 3.9 9.6 7.7 14.4 10.1 0.8 1.5 2.5 5.7 7.7 12.1 2.2 4.5 3.9 9.2 5.2 14.1 1.6 1.3 2.9 2.9 4 4.7q4 9.9 7.3 20.5c-3.6 2.9-7.3 5.1-11.1 6.8-0.6-12.9-2.5-18.5-7.9-30.5z"/><path class="A" d="m212 77.7c5.3 11.1 10.3 22.2 15 33.3-0.8 2.2-1.8 4.4-3 6.6-0.9 6-1.6 13.7-1.6 20.4-4.2 2.7-9 4.7-14.1 6.6q-6.1 1.3-11.7 3.2c-1.3-3.3-2-6.6-1.9-9.9 4.5-9 6.4-17.5 7.5-27.3-0.1-4.1-0.7-8.1-1.4-12 0.3-9.4 0.1-19.6-1.9-29 3.8-1.7 7.5-3.9 11.1-6.8 0.8 4.9 1.5 9.9 2 14.9z"/><path class="B" d="m246 133c2.3-0.3 4.9-0.3 7-0.5 1.3-0.3 5.2-2.1 7.2-3.5q-1.3 2.3-2.7 4.6c-2.1 6-3.8 12.2-5.2 18.5q0.1 1.7 0.2 3.5c-3 1.3-6.1 2.3-9.2 3.2-17.4-2.8-30.2-4.3-46.7-11q5.6-1.9 11.7-3.2c5.1-1.9 9.9-3.9 14.1-6.6 2.1 0.1 13 0.4 14.5-0.5 3-1.8 6.1-3.4 9.1-4.5z"/><path class="C" d="m260.2 129c1.1 1.1 2.5 2.8 3.5 4.4q-0.6 4.9-1.2 9.8-1.3 3.2-3 6.1-3.1 3.4-7 6.3-0.1-1.8-0.2-3.5c1.4-6.3 3.1-12.5 5.2-18.5q1.4-2.3 2.7-4.6z"/><path class="D" d="m77.2 182.6c0.5-2 0.7-4 0.6-6q2.3 3.5 4.1 7.4-0.2 2.7-1.1 5.4c-3.2 2-6.6 3.6-10 5q-8.2 0.1-16.3 1c-4.4-0.7-8.5-1-12.5-1q-2.5-1.5-5-3-1.5-0.3-2.9-0.9c-1.9-1-3.9-2.6-5.5-4.1-1.9-0.1-5.8-0.8-6.9-1.5q-2.6-2.5-5.3-5c-2.7-3.6-5.1-6.4-8.2-9.4 2.8 1.6 5.6 3.2 8.8 4.1 0.1 0.8 0.3 2.2 0.6 3.1 2 0.8 7.2 1.7 10.4 2 2.8 3.4 8 7.4 13.9 11 7.5 0 19.1-1 27.8-3.3q4.2-2.1 7.5-4.8z"/><path class="E" d="m28 179.7c2.4-9.1 4.2-18.2 5.2-27.6 2-2.4 3.8-5.2 5.3-8.4 6.9 4.4 13.9 8.7 21.2 12.8 6.8 6.3 13.3 12.8 18.1 20.1 0.1 2-0.1 4-0.6 6q-3.3 2.7-7.5 4.8c-8.7 2.3-20.3 3.3-27.8 3.3-5.9-3.6-11.1-7.6-13.9-11z"/><path class="F" d="m17.6 177.7c-0.3-0.9-0.5-2.3-0.6-3.1-3.2-0.9-6-2.5-8.8-4.1q-0.6-2.3-1.2-4.6-2.2-3.7-4.3-7.5c-1.8-4.2-2.6-12.5-2.2-17.9q1.1-3.2 2.1-6.3 0-3.1 0.3-6.3c0.8-2 1.8-3.9 3-5.7q6.9 5.6 15.8 10.8l7.3 4.5c2.6 1.4 5.3 2.7 8.3 3.8q0.6 1.2 1.2 2.4c-1.5 3.2-3.3 6-5.3 8.4-1 9.4-2.8 18.5-5.2 27.6-3.2-0.3-8.4-1.2-10.4-2z"/><path class="G" d="m101.1 158c-1.8 2.3-5.5 6.1-5.9 6.4-0.9 0.7-6.9 2.4-10.1 3-3.4-3.3-9.8-9.1-10.6-9.6 2.7-1.1 9.9-2.8 13.9-2.7 4.6 1.3 7.9 2.1 12.7 2.9z"/><path class="H" d="m121.2 127.7l-4 11c-2.1-3.7-4.3-7.3-6.5-11-8.7-9.8-10.6-12.7-15.7-25-3.1-7.5-7.9-16.6-10.3-23.1q4.6 1.3 9.2 2.7c2.8 1.8 5.5 3.9 8 6.5 2.5 7.3 4.1 14.7 5.1 22.1 5.2 5.4 10 11 14.2 16.8z"/><path class="I" d="m93.9 82.3q5.1-0.6 10.2-1.2l-2.2 7.7c-2.5-2.6-5.2-4.7-8-6.5z"/><path class="J" d="m93.9 82.3q-4.6-1.4-9.2-2.7c6.1 0.3 11.4-0.7 17.4-1.3 9.3-3.7 15.2-8.7 21.5-15.1 4.5-2.6 7.5-4.7 11.8-8.2 0.7 1.7 0.3 7.2-0.3 9-10.1 11.2-16.6 13.6-31 17.1q-5.1 0.6-10.2 1.2z"/><path class="K" d="m135.4 55q4.4 0.3 8.8 0.7 2.2 1.4 4.3 2.7 5 1.9 10 3.8 8.8 2.5 17.7 4.9 7.3 1.7 14.6 3.3c-2.3 0.4-4.5 1-6.5 2-12.9-1.9-23.6-4.6-35.3-8.4-4.5 0.4-9.2 0.3-13.9 0 0.6-1.8 1-7.3 0.3-9z"/><path class="L" d="m190.8 70.4q4.6 3.1 9.3 6.2c0.9 7.3 0.9 14.9 0.7 22l-6.9-6.6c-3.5-3.6-6.7-10.6-9.6-19.6 2-1 4.2-1.6 6.5-2z"/><path class="M" d="m200.8 98.6c0.7 3.9 1.3 7.9 1.4 12-0.3 3-0.7 5.8-1.2 8.6-6.3 6.5-13.9 11.5-21 17-6.3 1.9-12.5 3.9-18.8 6-0.9-2.8-6.6-8.1-10-10.2 8.4-3.8 21.6-9.9 28.8-17.1 1.4-9 9.3-15.3 13.9-22.9z"/><path class="N" d="m144.6 144.9c-9.1-1.3-19.3-1.4-27.4-6.2l4-11c9.8 2.3 19.8 4 30 4.3 3.4 2.1 9.1 7.4 10 10.2-6.3 1.5-10.1 2.2-16.6 2.7z"/><path class="O" d="m121.2 127.7c-4.2-5.8-9-11.4-14.2-16.8-1-7.4-2.6-14.8-5.1-22.1l2.2-7.7c14.4-3.5 20.9-5.9 31-17.1 4.7 0.3 9.4 0.4 13.9 0 11.7 3.8 22.4 6.5 35.3 8.4 2.9 9 6.1 16 9.6 19.6-4.6 7.6-12.5 13.9-13.9 22.9-7.2 7.2-20.4 13.3-28.8 17.1-10.2-0.3-20.2-2-30-4.3z"/><path class="P" d="m201 119.2c-1.2 6.4-3.1 12.4-6.3 18.7q-3.3-3.9-6.6-7.8c4.5-3.4 9-6.8 12.9-10.9z"/><path class="Q" d="m201 119.2c-1.5 3.8-4.1 8.8-7.1 10.9q-2.9 0-5.8 0c4.5-3.4 9-6.8 12.9-10.9z"/><path class="R" d="m195 133q0 2.5-0.3 4.9-3.3-3.9-6.6-7.8 2.9 0 5.8 0 0.6 1.3 1.1 2.9z"/><path class="S" d="m201 119.2c-1.2 6.4-3.1 12.4-6.3 18.7q0.3-2.4 0.3-4.9-0.5-1.6-1.1-2.9c3-2.1 5.6-7.1 7.1-10.9z"/><path class="k" d="m29 137.5l-7.3-4.5q4 0.5 7.9 0.6-0.7 0.6-1.2 1.4c0 0.8 0.2 1.6 0.6 2.5z"/><path class="T" d="m22.5 197.1q7.7 9.7 15.4 19.3c3.6 1.9 7 3 10.5 5 3.4 0.9 6.9 2.9 10.3 3.8q3.7 2.1 7.5 4.1 5.7 1.6 11.3 3.2 7.4 2.3 14.9 4.7c13.2 5.9 22.3 10.6 36.4 13.8 3.3 0.5 7.5 0.5 11 0.5 2.2 0.7 4.2 1.4 6.1 2.3q8.7 1.4 17.4 2.8c-0.4 0.7-1.1 1.9-1.9 2.5-12.1 4.7-17.2 5.4-30 7.2q-4.4-0.5-8.7-1c-9.4-0.7-17.5-1.5-26.8-3-14.1-5.2-22.5-8.9-35.9-16.1-13.5-9.4-22.1-18.1-33.9-29.5-3.4-4.6-7-8.7-10.7-13.1-0.3-3.2 0.1-6.2 1.1-9.1q3 1.3 6 2.6z"/><path class="U" d="m16.5 194.5q3 1.3 6 2.6 7.7 9.7 15.4 19.3c3.6 1.9 7 3 10.5 5 3.4 0.9 6.9 2.9 10.3 3.8q3.7 2.1 7.5 4.1 5.7 1.6 11.3 3.2 7.4 2.3 14.9 4.7c13.2 5.9 22.3 10.6 36.4 13.8 3.3 0.5 7.5 0.5 11 0.5 2.2 0.7 4.2 1.4 6.1 2.3-1 0.7-2.7 1.7-3.1 1.9-0.5 0.2-9.9 1-14.2 1.4-1.3 0.1-3.7 0.5-4 0.5-0.6-0.1-6.2-1.9-8.1-2.3-2-0.4-3.8-0.8-6-1.5-2.2-0.6-5.2-2-7.4-2.7-3.2-1.2-6.7-2-9.9-3.3-3.3-1.3-6-3.2-9.2-4.5-5.1-2.2-11.4-3.2-17.5-5.8-1.3-0.5-3.1-1.5-4.4-2.3-2.2-1.3-4.6-2.4-6.9-3.6-8.1-4.1-16.6-8-24.4-12.8-1.4-0.8-3.4-2.4-3.9-2.9-2.7-2.5-6.7-7.8-11.5-12.3-0.3-3.2 0.1-6.2 1.1-9.1z"/><path class="V" d="m125.2 191.1c-3.6 1.2-7.2 2.5-10.6 4.3-3.2 1.4-6.5 2.6-9.8 3.6q-2.7 0-5.3-0.7c-6-3.4-12.3-6.2-18.7-8.9q0.9-2.7 1.1-5.4 2.2 0.4 4.7 0.5c9.7-2.6 17.2-5.9 23.3-9.8 1.2-2.9 2.1-5.3 2.8-7.5 5.6 1.5 11.5 2.6 17.6 2.8q7.8-0.5 15.7-1-0.5 5.5-1 11c-7.6 3.6-12.8 6.6-19.8 11.1z"/><path class="W" d="m150.3 179.8c1.4 0.8 2.4 1.7 3.3 2.6q-3.7 2.1-7.2 4.3c-10.2 2.8-20.1 6.3-29.6 10-4 0.5-8 1.4-12 2.3 3.3-1 6.6-2.2 9.8-3.6 3.4-1.8 7-3.1 10.6-4.3 7-4.5 12.2-7.5 19.8-11.1 1.9-0.2 3.7-0.3 5.3-0.2z"/><path class="X" d="m146 169q7.9-0.6 15.8-1.1c4-0.5 7.7-1.3 11.8-2.2 6.8 0.3 13.3 0.4 20.1 1.8-8.5 2.8-17.4 5.2-26.6 7.3q-6.9 3.8-13.5 7.6c-0.9-0.9-1.9-1.8-3.3-2.6-1.6-0.1-3.4 0-5.3 0.2q0.5-5.5 1-11z"/><path class="Y" d="m161.8 167.9c7.8-2.7 15.8-5.8 24.5-11q1.9-2.6 3.8-5.2c2.2 2.1 4.4 4.6 6.7 7.9-0.2 1.6-2.2 6.8-3.1 7.9-6.8-1.4-13.3-1.5-20.1-1.8-4.1 0.9-7.8 1.7-11.8 2.2z"/><path class="Z" d="m146 169q-7.9 0.5-15.7 1c-6.1-0.2-12-1.3-17.6-2.8 1.4-4.6 2.1-8.4 3.1-14.9q0.1-3.6 0.3-7.1 0.4-3.3 1.1-6.5c8.1 4.8 18.3 4.9 27.4 6.2 6.5-0.4 10.3-1.2 16.6-2.7 6.3-2.1 12.5-4.1 18.8-6q2.4-1.8 4.8-3.6c2.1 6.3 3.9 12.7 5.3 19.1q-1.9 2.6-3.8 5.2c-8.7 5.2-16.7 8.3-24.5 11q-7.9 0.5-15.8 1.1z"/><path class="a0" d="m146 169q-7.9 0.5-15.7 1c-6.1-0.2-12-1.3-17.6-2.8 1.4-4.6 2.1-8.4 3.1-14.9q0.1-3.6 0.3-7.1 0.4-3.3 1.1-6.5c8.1 4.8 18.3 4.9 27.4 6.2 6.5-0.4 10.3-1.2 16.6-2.7 6.3-2.1 12.5-4.1 18.8-6q2.4-1.8 4.8-3.6c2.1 6.3 3.9 12.7 5.3 19.1q-1.9 2.6-3.8 5.2c-8.7 5.2-16.7 8.3-24.5 11q-7.9 0.5-15.8 1.1z"/><path class="a1" d="m188.1 130.1q3.3 3.9 6.6 7.8c-0.1 3.3 0.6 6.6 1.9 9.9q0.4 5.8 0.2 11.8c-2.3-3.3-4.5-5.8-6.7-7.9-1.4-6.4-3.2-12.8-5.3-19.1q1.7-1.3 3.3-2.5z"/><path class="a2" d="m156.1 171.9q-5.2 1.2-10.5 1.9c-4.2-0.1-8.2-0.6-12.2-1.3-1.6-0.8-2.9-1.6-3.9-2.5 1-0.9 2.1-1.8 3.5-2.5 5.5-1.8 13.1-2.4 23-1.8 1.8 0.5 3.3 1.3 4.6 2.3-1.1 1.7-2.6 3.1-4.5 3.9z"/><path class="a3" d="m156 165.7c1.7 0.5 3.1 1.2 4.3 2.1q0.1 0.1 0.1 0.2 0.1 0.1 0 0.2-0.1 0.1-0.2 0.3-0.1 0-0.2 0c-3.9 0.2-8 0.1-11.9 0.3q-0.6 0.1-1.1 0.1c-5.7 0.3-11.3 0.6-17 1.1q0 0-0.1 0.1-0.1 0-0.1-0.1-0.1 0 0-0.1 0-0.2 0.1-0.3c0.9-0.8 1.9-1.5 3.1-2.1 5.5-1.8 13.1-2.4 23-1.8z"/><path class="a4" d="m56.9 220.6c-2.9 0.6-5.7 0.8-8.5 0.8q-0.8-2.8-1.1-5.5c3 1.7 6.1 3.3 9.6 4.7z"/><path class="a5" d="m46.9 211.3c5.2-1.7 10.2-3.8 15.2-6.2q-0.5 3.6-0.4 7.3c0.6 2.8 2.4 7.2 3.9 10.2-2.6-0.9-5.8-1.5-8.7-2-3.5-1.4-6.6-3-9.6-4.7q-0.4-2.3-0.4-4.6z"/><path class="a6" d="m30.5 210.4q-0.9-1.5-1.7-3.1c-3-2.9-5.8-6.1-7.5-8.9 7.5 4.7 15.7 9.1 25.6 12.9q0 2.3 0.4 4.6 0.3 2.7 1.1 5.5c-8.8-3-15.3-8-17.9-11z"/><path class="a7" d="m21.7 184.9c1.1 0.7 5 1.4 6.9 1.5 1.6 1.5 3.6 3.1 5.5 4.1q1.4 0.6 2.9 0.9 2.5 1.5 5 3 3.3 0 6.8 0.3c3.6 3.7 8.1 6.8 13.3 10.4-5 2.4-10 4.5-15.2 6.2-9.9-3.8-18.1-8.2-25.6-12.9-0.6-5.4-0.4-9.8 0.4-13.5z"/><path class="a8" d="m152.4 8.6c5.2 0.2 10.3 0.9 15.3 1.7 9.1 4.2 14.4 9.8 21.2 23.9q1 2.4 2.1 4.9c5.4 12 7.3 17.6 7.9 30.5-2.6 0.4-5.3 0.7-8.1 0.8q-7.3-1.6-14.6-3.3-8.9-2.4-17.7-4.9-5-1.9-10-3.8-2.1-1.3-4.3-2.7-4.4-0.4-8.8-0.7-3.8-0.4-7.5-1c-2.1-11.5-3-19.8-2.3-33.3 3.7-3.2 7.6-6.4 12.2-9.3 4.8-1.5 9.7-2.4 14.6-2.8z"/><path class="a9" d="m152.4 8.6c5.2 0.2 10.3 0.9 15.3 1.7 9.1 4.2 14.4 9.8 21.2 23.9q1 2.4 2.1 4.9c5.4 12 7.3 17.6 7.9 30.5-2.6 0.4-5.3 0.7-8.1 0.8q-7.3-1.6-14.6-3.3-8.9-2.4-17.7-4.9-5-1.9-10-3.8-2.1-1.3-4.3-2.7-4.4-0.4-8.8-0.7-3.8-0.4-7.5-1c-2.1-11.5-3-19.8-2.3-33.3 3.7-3.2 7.6-6.4 12.2-9.3 4.8-1.5 9.7-2.4 14.6-2.8z"/><path class="aa" d="m198.9 69.6c-2.6 0.4-5.3 0.7-8.1 0.8q-7.3-1.6-14.6-3.3-8.9-2.4-17.7-4.9-5-1.9-10-3.8-2.1-1.3-4.3-2.7-4.4-0.4-8.8-0.7-3.8-0.4-7.5-1c3.9-2.2 8-4.3 12.6-5.9 1.5 1.2 2.9 2.5 4.2 4.1 3.1 0.2 6 0.6 8.9 1.2 11 2.9 33.5 9.8 45.3 16.2z"/><path class="ab" d="m127.9 54c-2.1-11.5-3-19.8-2.3-33.3 1.9 0.7 3.6 1.5 5.1 2.3 3.2 10.3 5.8 16.9 9.8 25.1-4.6 1.6-8.7 3.7-12.6 5.9z"/><path class="k" d="m123.6 63.2q1.9-4.7 4.3-9.2 3.7 0.6 7.5 1c-4.3 3.5-7.3 5.6-11.8 8.2z"/><path class="k" d="m198.9 69.6q0.7 3.5 1.2 7-4.7-3.1-9.3-6.2c2.8-0.1 5.5-0.4 8.1-0.8z"/><path class="ac" d="m190.8 70.4c2.8-0.1 5.5-0.4 8.1-0.8-0.4 1-1 1.8-1.7 2.6-2.2-0.3-4.3-1-6.4-1.8z"/><path class="ad" d="m127.9 54c0.4 0.8 0.9 1.6 1.2 2.6-1.6 2.3-3.5 4.5-5.5 6.6q1.9-4.7 4.3-9.2z"/><path class="ae" d="m81 12.7l13.3-5.4 13.5-6.8 12.1 0.4 15.6-0.4 18.3 0.7 8.6 2.7q-1.3 0.5-2.8 0.9c-12.5 3.6-30.2 1.7-42.6 1.3-10.4 2-20.9 3.9-31.4 5.8q-2.3 0.4-4.6 0.8z"/><path class="af" d="m145.9 253.8q0.7-1.4 1.4-2.7c10.7-3.7 20.8-8 30.5-14.4q2.2-0.4 4.4-0.9 1.2-1.7 2.4-3.4c6.6-2.8 13.4-5 20.5-6.4q2.2 0 4.4 0c6.4-2 12.2-4.1 18.4-6.4 0 1.6-0.2 3.4-0.5 5.2-1.3 3.7-3.1 7.4-5.7 10.8-7.9 1.9-16.8 10.4-23.4 15.4-2.7 1.7-5.6 3-8.6 4.1q-2.9 0.4-5.8 0.9c-3.7 2.3-8.6 3.8-11.8 4.3-3.6-1.1-6.3-2.4-8.8-3.7q-8.7-1.4-17.4-2.8z"/><path class="ag" d="m177.8 236.7q2.2-0.4 4.4-0.9 1.2-1.7 2.4-3.4c6.6-2.8 13.4-5 20.5-6.4q2.2 0 4.4 0c6.4-2 12.2-4.1 18.4-6.4 0 1.6-0.2 3.4-0.5 5.2-5.9 2.5-9.2 4.4-14.7 7.8-7.8 4.9-19.4 9.4-28.3 11.7-1.8 0.1-3.7 0.2-5.5 0.1-0.4 0.5-1.8 1.6-2.4 1.9-4.7 1.6-8.1 2.9-12.6 5-6.9-2.5-10.7-2.2-15.5-0.5 10.3-3.7 20-7.9 29.4-14.1z"/><path class="ah" d="m94.3 226.6c-7.7-3.1-15.5-5.3-23.3-7.2-1.7-3.3-1.9-6.6-1-9.7 10.2-1.5 20.4-2.2 30.8-2 11.6-4.2 24.6-7.2 35.4-12.3 0.7-0.6 2-3 2.8-4.4 4.1 0 8.3-0.4 12.5-1.2 6.3-3.7 12.8-7.3 19.6-10.5 9.2-2.9 18.5-5.5 28-7.4 5.2-2 10.6-3.5 16.1-4.8 4.9 0.4 9.3 1.6 13.5 3.3 0.9 3.4 1.1 7 1.1 10.6l-3.9 3.6c-4.9 3.7-10 7.2-15.2 10.2-0.9 1.5-2 2.9-3.2 4.1q-5.2 2.1-10.7 3.1c-0.1 7.9-25.8 20.5-35.8 26.4-22.5 0.4-45 0.5-66.7-1.8z"/><path class="ai" d="m171.1 179.3c9.2-2.9 18.5-5.5 28-7.4 5.2-2 10.6-3.5 16.1-4.8 4.9 0.4 9.3 1.6 13.5 3.3 0.9 3.4 1.1 7 1.1 10.6l-3.9 3.6c-4.9 3.7-10 7.2-15.2 10.2-0.9 1.5-2 2.9-3.2 4.1q-5.2 2.1-10.7 3.1-7.8 0.2-16.4 1.6c-4.6-0.2-8.2-1.1-11.5-2.2-5.7-3.5-11.5-7.5-17.4-11.6 6.3-3.7 12.8-7.3 19.6-10.5z"/><path class="aj" d="m65.6 222.6c-1.5-3-3.3-7.4-3.9-10.2q-0.1-3.7 0.4-7.3 3.9 2.3 7.9 4.6c-0.9 3.1-0.7 6.4 1 9.7q-2.7 1.6-5.4 3.2z"/><path class="ak" d="m62.1 205.1l11.4-2 26-4.8q2.6 0.7 5.3 0.7c4-0.9 8-1.8 12-2.3 9.5-3.7 19.4-7.2 29.6-10q3.5-2.2 7.2-4.3 6.6-3.8 13.5-7.6c9.2-2.1 18.1-4.5 26.6-7.3l25.6-6 12.7 1.7 6.9 7.8-9.1 10c0-3.6-0.2-7.2-1.1-10.6-4.2-1.7-8.6-2.9-13.5-3.3-5.5 1.3-10.9 2.8-16.1 4.8-9.5 1.9-18.8 4.5-28 7.4-6.8 3.2-13.3 6.8-19.6 10.5-4.2 0.8-8.4 1.2-12.5 1.2-0.8 1.4-2.1 3.8-2.8 4.4-10.8 5.1-23.8 8.1-35.4 12.3-10.4-0.2-20.6 0.5-30.8 2q-4-2.3-7.9-4.6z"/><path class="al" d="m196.8 202q5.5-1 10.7-3.1c1.2-1.2 2.3-2.6 3.2-4.1 5.2-3 10.3-6.5 15.2-10.2l-12.6 12-11 13.4-24.9 15.4-15.9 7.6-33 2.1-20.5-2-14-1.8-12-4.4-16.4-4.3q2.7-1.6 5.4-3.2c7.8 1.9 15.6 4.1 23.3 7.2 21.7 2.3 44.2 2.2 66.7 1.8 10-5.9 35.7-18.5 35.8-26.4z"/><path class="am" d="m62.1 205.1c-5.2-3.6-9.7-6.7-13.3-10.4q2.8 0.2 5.7 0.7c1.7 1.7 3.7 4 5.8 6.7q1 1.4 1.8 3z"/><path class="k" d="m99.5 198.3l-26 4.8-11.4 2q-0.8-1.6-1.8-3 5.7 0.1 11.1-1.6c9.5-1.2 18.5-3 28.1-2.2z"/><path class="an" d="m54.5 195.4q8.1-0.9 16.3-1c0.4 2 0.6 4.1 0.6 6.1q-5.4 1.7-11.1 1.6c-2.1-2.7-4.1-5-5.8-6.7z"/><path class="ao" d="m80.8 189.4c6.4 2.7 12.7 5.5 18.7 8.9-9.6-0.8-18.6 1-28.1 2.2 0-2-0.2-4.1-0.6-6.1 3.4-1.4 6.8-3 10-5z"/><path class="ap" d="m177.8 236.7c-9.4 6.2-19.1 10.4-29.4 14.1q-0.5 0.1-1.1 0.3-0.7 1.3-1.4 2.7c-1.9-0.9-3.9-1.6-6.1-2.3-3.5 0-7.7 0-11-0.5-14.1-3.2-23.2-7.9-36.4-13.8q-7.5-2.4-14.9-4.7-5.6-1.6-11.3-3.2-3.8-2-7.5-4.1c-3.4-0.9-6.9-2.9-10.3-3.8 2.8 0 5.6-0.2 8.5-0.8 2.9 0.5 6.1 1.1 8.7 2l16.4 4.3 12 4.4 14 1.8 20.5 2 33-2.1 13.2 0.1z"/><path class="aq" d="m48.4 221.4c2.8 0 5.6-0.2 8.5-0.8 2.9 0.5 6.1 1.1 8.7 2l16.4 4.3 12 4.4 14 1.8 20.5 2 33-2.1 13.2 0.1c-1.4 1.4-4.3 3-5.8 3.5-3.1 0.9-33.7 1.6-40.4 1.7-5.5 0.9-19.1 0.8-22.6 0.4-4.9-2-13.5-5.5-15.3-6.1-10.5-3.9-19.2-6.2-31.9-7.4-3.4-0.9-6.9-2.9-10.3-3.8z"/><path class="k" d="m161.5 233l15.9-7.6-2.7 7.7z"/><path class="ar" d="m184.9 223.9c-3.2 4.3-6.9 7.3-10.2 9.2l2.7-7.7 24.9-15.4 11-13.4 12.6-12 3.9-3.6 9.1-10q3.7-1.4 7.5-2.8-3.2 4.2-5.5 8.6c-3.6 2.5-6.9 5.1-9.7 7.9-4.2 5.6-7.7 11.7-10.8 18.1-5.1 2.2-10.3 5-15.3 9q-0.7 1.6-1.4 3.2c-6.2 2.2-12.5 5-18.8 8.9z"/><path class="as" d="m220.4 202.8c4.8 2.6 9.3 5.9 13.3 10.2q1 1.1 2 2.3c-2.5 1.8-5.1 3.1-7.8 4.3-6.2 2.3-12 4.4-18.4 6.4q-2.2 0-4.4 0c-7.1 1.4-13.9 3.6-20.5 6.4q-1.2 1.7-2.4 3.4-2.2 0.5-4.4 0.9l-3.1-3.6c3.3-1.9 7-4.9 10.2-9.2 6.3-3.9 12.6-6.7 18.8-8.9q0.7-1.6 1.4-3.2c5-4 10.2-6.8 15.3-9z"/><path class="at" d="m231.2 184.7c2.8-2.8 6.1-5.4 9.7-7.9 1.9 5 4.5 9.7 7.4 14.2q1.6 2.4 3.3 4.8-6.1 5.7-11.8 11.8c-1.1 2.5-2.5 5.1-4.1 7.7q-1-1.2-2-2.3c-4-4.3-8.5-7.6-13.3-10.2 3.1-6.4 6.6-12.5 10.8-18.1z"/><path class="au" d="m246.4 168.2c2.4 1.4 6.9 5.4 8.3 8.8-0.6 6.1-1.5 12.6-3.1 18.8q-1.7-2.4-3.3-4.8c-2.9-4.5-5.5-9.2-7.4-14.2q2.3-4.4 5.5-8.6z"/><path class="av" d="m254.7 177c-1.4-3.4-5.9-7.4-8.3-8.8l-3.1-9.4c3.1-0.9 6.2-1.9 9.2-3.2 1.6 1.9 2.9 4.3 4 7.3 0.3 1.5-0.5 9-1.8 14.1z"/><path class="aw" d="m259.5 149.3q1.7-2.9 3-6.1l2 10.7q-1 0.1-2 0.4c-0.5 0.3-1.2 1-1.9 1.9-1.8 2.2-3.9 5.5-4.1 6.7-1.1-3-2.4-5.4-4-7.3q3.9-2.9 7-6.3z"/><path class="ax" d="m262.5 154.3q1-0.3 2-0.4l-3.7 11.6-6.1 11.5c1.3-5.1 2.1-12.6 1.8-14.1 0.2-1.2 2.3-4.5 4.1-6.7 0.7-0.9 1.4-1.6 1.9-1.9z"/><path class="ay" d="m243.3 158.8l3.1 9.4q-3.8 1.4-7.5 2.8l-6.9-7.8 3.5-5.7q3.8 0.6 7.8 1.3z"/><path class="az" d="m235.5 157.5q3.8 0.6 7.8 1.3l-1.8 2.2-4.8 1.7-4.7 0.5z"/><path class="aA" d="m219.3 161.5l-25.6 6c0.9-1.1 2.9-6.3 3.1-7.9q0.2-6-0.2-11.8c13.9 5.7 25.2 7.6 38.9 9.7l-3.5 5.7z"/><path class="aB" d="m219.3 161.5l-25.6 6c0.9-1.1 2.9-6.3 3.1-7.9 5.5 0.3 11 0 16.4-1.1 2.5 0.6 4.5 1.9 6.1 3z"/><path class="aC" d="m264.5 153.9l-3.7 11.6-6.1 11.5c-0.6 6.1-1.5 12.6-3.1 18.8q-6.1 5.7-11.8 11.8c-1.1 2.5-2.5 5.1-4.1 7.7-2.5 1.8-5.1 3.1-7.8 4.3 0 1.6-0.2 3.4-0.5 5.2-1.3 3.7-3.1 7.4-5.7 10.8-7.9 1.9-16.8 10.4-23.4 15.4-2.7 1.7-5.6 3-8.6 4.1q-2.9 0.4-5.8 0.9c-3.7 2.3-8.6 3.8-11.8 4.3-3.6-1.1-6.3-2.4-8.8-3.7-0.4 0.7-1.1 1.9-1.9 2.5-12.1 4.7-17.2 5.4-30 7.2q-4.4-0.5-8.7-1c-9.4-0.7-17.5-1.5-26.8-3-14.1-5.2-22.5-8.9-35.9-16.1-13.5-9.4-22.1-18.1-33.9-29.5-3.4-4.6-7-8.7-10.7-13.1-0.3-3.2 0.1-6.2 1.1-9.1q-0.8-1.7-1.3-3.4-3-3.9-5.2-7.7c-1.9-3.7-4.1-9.5-4.3-14.7q0.5-1.5 1.3-2.8-2.2-3.7-4.3-7.5c-1.8-4.2-2.6-12.5-2.2-17.9q1.1-3.2 2.1-6.3 0-3.1 0.3-6.3c0.8-2 1.8-3.9 3-5.7-1.2-5-2.1-15.9-1.4-24.4 3.3-12.4 8.4-24.5 14.4-36.6 7.6-10.3 17.3-22.2 26.6-29.5 2.3 0 3.6 0 5.8 1q0.4 0.9 0.7 1.8l-0.7-1.8 1-2.9 8.2-5.5 6.3-4 9.6-6.9 4.6-0.7 13.3-5.4 13.5-6.8 12.1 0.4 15.6-0.4 18.3 0.7 8.6 2.7 3.9 2.5q2.2-2.8 5.1-5.1c2.5 0.5 4.9 1.1 7.2 2.1q3.9 2.6 7.8 5.3c2.3 0.4 4.5 0.9 6.7 1.7q1.7 1 3.5 1.9c12.3 8.2 23.4 16.3 33.2 26.8 4.2 4.5 8 9.2 12.2 13.8 4.1 8.8 7.7 15.9 12.7 24.3 0.5 7.6 3.2 12.6 6 19.7q1.8 10.9 3.7 21.8-0.3 7.3-0.7 14.7-0.6 4.9-1.2 9.8z"/><path class="aD" d="m264.5 153.9l-3.7 11.6-6.1 11.5c-0.6 6.1-1.5 12.6-3.1 18.8q-6.1 5.7-11.8 11.8c-1.1 2.5-2.5 5.1-4.1 7.7-2.5 1.8-5.1 3.1-7.8 4.3 0 1.6-0.2 3.4-0.5 5.2-1.3 3.7-3.1 7.4-5.7 10.8-7.9 1.9-16.8 10.4-23.4 15.4-2.7 1.7-5.6 3-8.6 4.1q-2.9 0.4-5.8 0.9c-3.7 2.3-8.6 3.8-11.8 4.3-3.6-1.1-6.3-2.4-8.8-3.7-0.4 0.7-1.1 1.9-1.9 2.5-12.1 4.7-17.2 5.4-30 7.2q-4.4-0.5-8.7-1c-9.4-0.7-17.5-1.5-26.8-3-14.1-5.2-22.5-8.9-35.9-16.1-13.5-9.4-22.1-18.1-33.9-29.5-3.4-4.6-7-8.7-10.7-13.1-0.3-3.2 0.1-6.2 1.1-9.1q-0.8-1.7-1.3-3.4-3-3.9-5.2-7.7c-1.9-3.7-4.1-9.5-4.3-14.7q0.5-1.5 1.3-2.8-2.2-3.7-4.3-7.5c-1.8-4.2-2.6-12.5-2.2-17.9q1.1-3.2 2.1-6.3 0-3.1 0.3-6.3c0.8-2 1.8-3.9 3-5.7-1.2-5-2.1-15.9-1.4-24.4 3.3-12.4 8.4-24.5 14.4-36.6 7.6-10.3 17.3-22.2 26.6-29.5 2.3 0 3.6 0 5.8 1q0.4 0.9 0.7 1.8l-0.7-1.8 1-2.9 8.2-5.5 6.3-4 9.6-6.9 4.6-0.7 13.3-5.4 13.5-6.8 12.1 0.4 15.6-0.4 18.3 0.7 8.6 2.7 3.9 2.5q2.2-2.8 5.1-5.1c2.5 0.5 4.9 1.1 7.2 2.1q3.9 2.6 7.8 5.3c2.3 0.4 4.5 0.9 6.7 1.7q1.7 1 3.5 1.9c12.3 8.2 23.4 16.3 33.2 26.8 4.2 4.5 8 9.2 12.2 13.8 4.1 8.8 7.7 15.9 12.7 24.3 0.5 7.6 3.2 12.6 6 19.7q1.8 10.9 3.7 21.8-0.3 7.3-0.7 14.7-0.6 4.9-1.2 9.8z"/><path class="aE" d="m264.5 153.9l-3.7 11.6-6.1 11.5c-0.6 6.1-1.5 12.6-3.1 18.8q-6.1 5.7-11.8 11.8c-1.1 2.5-2.5 5.1-4.1 7.7-2.5 1.8-5.1 3.1-7.8 4.3 0 1.6-0.2 3.4-0.5 5.2-1.3 3.7-3.1 7.4-5.7 10.8-7.9 1.9-16.8 10.4-23.4 15.4-2.7 1.7-5.6 3-8.6 4.1q-2.9 0.4-5.8 0.9c-3.7 2.3-8.6 3.8-11.8 4.3-3.6-1.1-6.3-2.4-8.8-3.7-0.4 0.7-1.1 1.9-1.9 2.5-12.1 4.7-17.2 5.4-30 7.2q-4.4-0.5-8.7-1c-9.4-0.7-17.5-1.5-26.8-3-14.1-5.2-22.5-8.9-35.9-16.1-13.5-9.4-22.1-18.1-33.9-29.5-3.4-4.6-7-8.7-10.7-13.1-0.3-3.2 0.1-6.2 1.1-9.1q-0.8-1.7-1.3-3.4-3-3.9-5.2-7.7c-1.9-3.7-4.1-9.5-4.3-14.7q0.5-1.5 1.3-2.8-2.2-3.7-4.3-7.5c-1.8-4.2-2.6-12.5-2.2-17.9q1.1-3.2 2.1-6.3 0-3.1 0.3-6.3c0.8-2 1.8-3.9 3-5.7-1.2-5-2.1-15.9-1.4-24.4 3.3-12.4 8.4-24.5 14.4-36.6 7.6-10.3 17.3-22.2 26.6-29.5 2.3 0 3.6 0 5.8 1q0.4 0.9 0.7 1.8l-0.7-1.8 1-2.9 8.2-5.5 6.3-4 9.6-6.9 4.6-0.7 13.3-5.4 13.5-6.8 12.1 0.4 15.6-0.4 18.3 0.7 8.6 2.7 3.9 2.5q2.2-2.8 5.1-5.1c2.5 0.5 4.9 1.1 7.2 2.1q3.9 2.6 7.8 5.3c2.3 0.4 4.5 0.9 6.7 1.7q1.7 1 3.5 1.9c12.3 8.2 23.4 16.3 33.2 26.8 4.2 4.5 8 9.2 12.2 13.8 4.1 8.8 7.7 15.9 12.7 24.3 0.5 7.6 3.2 12.6 6 19.7q1.8 10.9 3.7 21.8-0.3 7.3-0.7 14.7-0.6 4.9-1.2 9.8z"/><path fill-rule="evenodd" class="aF" d="m67.9 28.4c3.5-2.6 7.3-4.9 11.4-6.4 5.6-2.1 11.5-2.9 17.2-4.4 6-1.4 11.7-3.8 17.8-4.3 5.7-0.5 11.6 0 17.2 1.2 8.4 1.8 23.3 10.4 29.4 16.5 3.1 3.2 6.7 6 9.2 9.7 2.8 4.3 4.7 9.2 6.2 14.1 1.6 4.9 2.9 9.9 3 15 0.2 8.1-0.4 16.3-1.9 24.3-0.7 3.7-3.3 6.9-4.5 10.4-1.6 4.6-2 9.5-3.9 13.9-1.6 4.1-3.8 8-6.6 11.3-2.2 2.7-5.8 3.9-8.1 6.5-4.7 5-8.2 11-12.7 16.1-8.1 9-15.6 12.1-26.5 16.2-5.7 2.2-11.2 4.7-17 6.8-4 1.5-8 3.6-12.3 3.8-7.3 0.4-14.7-0.9-21.9-1.9-4.1-0.6-8.2-1.2-12-2.8-4.5-1.8-8.9-4-12.5-7.1-4.5-3.9-7.8-9-11.5-13.7-3-3.9-5-7.7-7.6-11.8-6.1-9.8-7.9-15.4-6.8-22.7 0.2-1.4-0.1-2.9 0-4.3 0.2-3.3 0.1-6.6 0.8-9.7 1.8-8.1 3.1-16.4 6.6-23.9 4.5-9.2 11.1-17.3 17.1-25.7 0.8-1.1 5.3-10.1 8.7-11.7 4-1.8 7.7-3.2 11.3-5.7 3.8-2.6 6.2-6.9 9.9-9.7zm-27.4 144.8c2.9 2 5.7 3.1 8.7 4.4 5.6 2.4 0.6 6.6-6.3 4.2-2.2-0.8-2.8-2.9-5-3.5-2.4-0.7-5.4 1.2-7.6-0.2-3.4-2.1-6-5.6-7.8-9.2-1.8-3.7-6.9-15.6-2.7-18.7 0.6-0.3 1.4 0.2 1.8 0.8 5.8 9 9.2 15.3 18.9 22.2zm106.9-10.4c-2.3 0.7-4.8 0.4-7.1-0.2-0.6-0.2-1-1.2-0.8-1.9 0.4-1.5 1.5-2.7 2.5-3.8 1.2-1.3 2.6-2.4 4.1-3.3 1.1-0.6 2.3-1.2 3.6-1.4 0.6-0.1 1.4 0 1.8 0.4 1.8 2.3-0.8 9.2-4.1 10.2z"/><path class="aG" d="m48.9 64.7c2.4 4.7 10.1 8.3 14.6 10.9-3.6-1.6-7-3.3-10.5-5.2-1.7-0.9-2.1-0.7-2.4 0.3-2 7.7-2.4 13.1-5.7 20.8 1.9-5.8 3.5-17.4 3.3-23.5 0-1.1-0.3-1.9-1.1-3.5-3.1-7-3.4-12.1-1.6-20-0.5 7.9-0.6 12.4 3.4 20.2z"/><path class="aH" d="m60.1 47.6c1.1 2.2 3 3.8 4.7 5.6 1.1 0.9 5.1 1.1 7.4 0.6 0.6-0.1 1.3-0.4 2.1-0.8 2.6-1.4 5-2.9 7.4-4.7-2 2-4.5 3.8-7.6 5.3-0.3 0.2-0.4 0.4-0.1 0.5 1.8 0.5 4.3 0.9 6.2 1.9-2.3-0.6-4.2-1-6.5-1.1-1.8-0.2-4.2-0.2-6.3 0.1-1.5 0.3-1.4 0.4-1.2 1.8 0.3 3 1 4.8 2 7.9-1.6-3.4-2.2-5.1-3-8.5-0.5-2.7-3.9-5.6-5.9-7.1-1.1-0.1-2.3 0.4-3.4 0.8 1.2-0.6 2.4-1.4 2.6-2.5 0.8-3.8 1.8-7.3 2.8-10.9-0.8 3.6-0.8 7.4-1.2 11.1z"/><path class="aI" d="m138 42.9c-3.9-7.1-5.3-11.5-7.7-19.6-1.4-1-2.3-1.5-3.9-2.3 1 0.4 3.6 1.6 4.4 1.6 6-7.7 10.2-10.4 17.6-11.5-6.1 1.4-11.6 5.2-16.5 12.5-0.2 4.3 4.2 15.1 6.1 19.3z"/><path class="aJ" d="m99.7 86.1c1.8 1.5 1.9 2.5 2.7 0.4q0.5-1.3 0.9-2.6c-0.6 3.3-1 3.6-0.2 6.7 1.4 5.5 3.1 16.3 5.3 20.8q3.8 4.8 7.7 9.6c-5.3-5-7.6-8.4-8.8-8.8-1.2-0.4-2.9 0.3-5.4 1.5 2.6-2 4.5-2 3.9-5.4-1.1-6.4-2.4-12.9-4.7-19.1-4.8-5.3-7.5-6.9-12.8-8.6 6 1.6 7.4 2.2 11.4 5.5z"/><g style="opacity:.5"><path class="aK" d="m41.8 55.3c4.6 8.2 6.8 12.1 7.6 13.7-1 0.5-1.6 0.9-7.5 4.1-2.1-3.8-3.1-7.6-3.2-10.9 0-3.2 1-5.8 3.1-6.9zm7.5 1c2.8 1.8 5.5 4.7 7.6 8.5-5.8 3.2-6.6 3.7-7.5 4.2-0.8-1.6-3-5.5-7.6-13.7 2.1-1.2 4.8-0.7 7.5 1zm0.1 12.7c0.6 1.1 1.5 2.5 7.6 13.6-2 1.2-4.7 0.7-7.5-1-2.7-1.8-5.5-4.7-7.6-8.5 5.9-3.2 6.5-3.6 7.5-4.1zm7.5-4.2c2.1 3.8 3.2 7.6 3.2 10.9 0 3.2-1 5.8-3.1 6.9-6.1-11.1-7-12.5-7.6-13.6 0.9-0.5 1.7-1 7.5-4.2z"/><path class="aL" d="m45.4 61.8c2.4 4.3 3.6 6.3 4 7.2-0.5 0.2-0.8 0.5-3.9 2.1-1.1-1.9-1.7-4-1.7-5.7 0-1.7 0.5-3 1.6-3.6zm4 0.5c1.4 0.9 2.9 2.5 4 4.5-3.1 1.7-3.5 1.9-4 2.2-0.4-0.9-1.6-2.9-4-7.2 1.1-0.6 2.5-0.4 4 0.5zm0 6.7c0.3 0.5 0.8 1.3 4 7.1-1.1 0.6-2.5 0.4-3.9-0.5-1.5-0.9-2.9-2.5-4-4.5 3.1-1.6 3.4-1.9 3.9-2.1zm4-2.2c1.1 1.9 1.6 4 1.6 5.7 0 1.7-0.5 3-1.6 3.6-3.2-5.8-3.7-6.6-4-7.1 0.5-0.3 0.9-0.5 4-2.2z"/></g><g style="opacity:.5"><path class="aM" d="m70.2 42c0.5 7.3 0.7 10.7 0.8 12-2.9 0.2-4.7 0.4-21.1 1.4-0.2-3.3 1.9-6.4 5.6-8.9 3.7-2.4 8.9-4.1 14.7-4.5zm15.1 2.6c4 1.9 6.6 4.7 6.8 8-16.5 1.1-18.7 1.3-21.1 1.4-0.1-1.3-0.3-4.7-0.8-12 5.8-0.3 11.2 0.7 15.1 2.6zm-14.3 9.4c0 1 0.1 2.3 0.8 12-5.9 0.4-11.2-0.6-15.2-2.5-4-1.9-6.5-4.8-6.7-8.1 16.4-1 18.2-1.2 21.1-1.4zm21.1-1.4c0.2 3.4-2 6.5-5.7 8.9-3.6 2.4-8.8 4.1-14.6 4.5-0.7-9.7-0.8-11-0.8-12 2.4-0.1 4.6-0.3 21.1-1.4z"/><path class="aN" d="m70.6 47.7c0.2 3.8 0.3 5.6 0.4 6.3-1.5 0.1-2.5 0.2-11.1 0.8-0.1-1.8 1-3.4 2.9-4.7 2-1.3 4.7-2.2 7.8-2.4zm7.9 1.4c2.1 1 3.4 2.5 3.6 4.2-8.7 0.6-9.9 0.7-11.1 0.7-0.1-0.7-0.2-2.5-0.4-6.3 3-0.2 5.8 0.4 7.9 1.4zm-7.5 4.9c0 0.5 0.1 1.2 0.4 6.3-3.1 0.2-5.9-0.3-8-1.3-2.1-1-3.4-2.5-3.5-4.2 8.6-0.6 9.6-0.7 11.1-0.8zm11.1-0.7c0.1 1.7-1.1 3.4-3 4.7-1.9 1.2-4.7 2.1-7.7 2.3-0.3-5.1-0.4-5.8-0.4-6.3 1.2 0 2.4-0.1 11.1-0.7z"/></g><g style="opacity:.5"><path class="aO" d="m101.3 75.9c0.5 7.6 0.8 11.2 0.9 12.6-1.8 0.1-2.9 0.2-12.9 0.8-0.2-3.4 1-6.7 3.2-9.1 2.2-2.4 5.3-4 8.8-4.3zm9.3 3.1c2.5 2.1 4.2 5.2 4.4 8.7-10 0.6-11.4 0.7-12.8 0.8-0.1-1.4-0.4-5-0.9-12.6 3.6-0.2 6.9 1 9.3 3.1zm-8.4 9.5c0 1 0.1 2.4 0.8 12.6-3.6 0.2-6.9-1-9.3-3.1-2.5-2.1-4.2-5.2-4.4-8.7 10-0.6 11.1-0.7 12.9-0.8zm12.8-0.8c0.2 3.4-1 6.7-3.2 9.1-2.2 2.4-5.3 4.1-8.8 4.3-0.7-10.2-0.8-11.6-0.8-12.6 1.4-0.1 2.8-0.2 12.8-0.8z"/><path class="aP" d="m101.7 81.9c0.3 4 0.4 5.9 0.5 6.6-0.9 0.1-1.5 0.1-6.8 0.4-0.1-1.8 0.5-3.5 1.7-4.8 1.1-1.2 2.8-2.1 4.6-2.2zm4.9 1.6c1.3 1.1 2.2 2.7 2.3 4.6-5.3 0.3-6 0.4-6.7 0.4-0.1-0.7-0.2-2.6-0.5-6.6 1.9-0.1 3.6 0.5 4.9 1.6zm-4.4 5c0 0.5 0 1.2 0.4 6.6-1.9 0.1-3.6-0.5-4.9-1.6-1.3-1.1-2.2-2.7-2.3-4.6 5.3-0.3 5.9-0.3 6.8-0.4zm6.7-0.4c0.1 1.8-0.5 3.5-1.7 4.8-1.1 1.2-2.7 2.1-4.6 2.2-0.4-5.4-0.4-6.1-0.4-6.6 0.7 0 1.4-0.1 6.7-0.4z"/></g><path class="aQ" d="m82.8 82.7c3.6 4.3 6.6 8.9 8.8 13.7-10.6 7.3-21.3 13.9-31.6 20.8q-0.6 1.2-1.2 2.4-0.5 0.9-0.9 1.8c-2.8 1.1-6.3 2.3-9.7 3.2-4.6 1.2-9.2 2-12.5 2.1q-2.6-1-5.1-2c0.6-4.1 1.6-8.2 3.2-12.2 3.4-5.6 6.7-11.3 9.7-17.1 2.9-7.6 6.2-19.2 6.6-27.5 11.5 7.8 20.2 10.9 32.7 14.8z"/><path class="aR" d="m65.6 54.3c-2.5-2.1-4.4-4.2-6.3-6.3 0.5-5.2 1.3-10.2 3.1-14.9q2.7-5.3 6.9-9.7c3.3-3.1 6.8-5.5 10.4-7.8 9.9-2.5 19.2-4.2 29.3-4.6 3.5 0.4 7 1 10.6 2.1q2.6 2.7 4.9 5.9c-5.7 7.5-16 13.5-26 19.4-3.4 2-9 4.8-10.5 5.6-4.2 2.2-9.3 7.3-15.6 10.4q-3.4-0.3-6.8-0.1z"/><path class="aS" d="m33.8 112.5c-1.6 4-2.6 8.1-3.2 12.2-4.4-1.6-8.7-3.1-13.4-4.6q-1.8-0.8-3.7-2.1-2.3-0.3-4.5-0.8-1.4-1.5-2.3-3.3c-2.3-4.9-2.4-11.3-2.2-16.1 3.3-12.4 8.4-24.5 14.4-36.6 7.6-10.3 17.3-22.2 26.6-29.5 0.5 1.8 0.7 3.5 1 5.2q0.1 0.3 0.2 0.7c-3.1 16.2-1.9 22.1 3.4 30.3-0.4 8.3-3.7 19.9-6.6 27.5-3 5.8-6.3 11.5-9.7 17.1z"/><path class="aT" d="m121.2 127.7c-4.2-5.8-9-11.4-14.2-16.8-1-7.4-2.6-14.8-5.1-22.1l2.2-7.7c14.4-3.5 20.9-5.9 31-17.1 4.7 0.3 9.4 0.4 13.9 0 11.7 3.8 22.4 6.5 35.3 8.4 2.9 9 6.1 16 9.6 19.6-4.6 7.6-12.5 13.9-13.9 22.9-7.2 7.2-20.4 13.3-28.8 17.1-10.2-0.3-20.2-2-30-4.3z"/></svg>