<svg version="1.2" xmlns="http://www.w3.org/2000/svg" viewBox="0 0 2427 3178" width="2427" height="3178"><style>.a{fill:#040e70}.b{fill:#ffdebd}.c{fill:#fff}.d{fill:#34f4e1}.e{fill:#c0fff9}.f{fill:#ff8098}.g{fill:#ff8aa3}.h{fill:#4df7ea}.i{fill:#ff5a7e}.j{fill:#b199c5}</style><g style="opacity:.2"><path class="a" d="m2187.6 3031.7c0 80.8-489.6 146.3-1093.6 146.3-604 0-1093.6-65.5-1093.6-146.3 0-80.7 489.6-146.2 1093.6-146.2 604 0 1093.6 65.5 1093.6 146.2z"/></g><path class="b" d="m1964.9 2570.8q67.8-54.7 126-16.1 58.2 38.7 11.3 138.6z"/><g style="opacity:.6"><path class="c" d="m2102.2 2693.3l-17.7-15.8c8.2-32.6 12-79.1-23.6-102.8-33.2-21.9-69.3-13.7-94.4-2.5l-1.6-1.4q67.8-54.7 126-16.1 58.2 38.7 11.3 138.6z"/></g><path fill-rule="evenodd" class="a" d="m2102.2 2712.7c-4.8 0-9.4-1.8-13-5l-137.2-122.4c-4.2-3.8-6.6-9.3-6.5-15 0.2-5.7 2.8-11 7.3-14.6 3.2-2.6 79.5-63.1 148.8-17.1 71.4 47.3 20.3 158.2 18.1 162.9-2.6 5.6-7.7 9.6-13.7 10.8q-1.9 0.4-3.8 0.4zm-105.1-139.2l96.5 86.2c8-27.6 14.5-70.2-13.4-88.8-28.9-19.1-62.4-8.2-83.1 2.6z"/><path class="b" d="m2193.5 2755q52.1-69.7 118.1-46.7 65.9 23 45.2 131.4z"/><g style="opacity:.6"><path class="c" d="m2356.8 2839.7l-21.1-10.9c0-33.7-7.9-79.7-48.3-93.7-37.5-13.1-70.5 3.8-92 20.9l-1.9-1q52.1-69.7 118.1-46.7 65.9 23 45.2 131.4z"/></g><path fill-rule="evenodd" class="a" d="m2356.8 2859.1c-3.1 0-6.1-0.7-8.9-2.2l-163.3-84.7c-5.1-2.6-8.7-7.3-10-12.9-1.3-5.5 0-11.4 3.4-15.9 2.4-3.3 61.5-80.8 139.9-53.5 80.9 28.2 58.9 148.3 57.9 153.4-1.1 6-5 11.2-10.5 13.8-2.7 1.3-5.6 2-8.5 2zm-131.6-109.5l115 59.6c0.9-28.7-3.3-71.6-35-82.6-33-11.5-62.6 7.4-80 23z"/><path class="d" d="m1678 2134.7q155.3 465.8 704.6 685.7c26.1 10.5 33 44.8 12.2 63.9-65.1 59.8-245.5 137.3-716.8-34.4z"/><g style="opacity:.3"><path class="a" d="m2030.5 2832.6c206.4 69.2 317.9 43 374.2 10.8 4.9 13.7 2.1 29.9-9.9 40.9-65.1 59.8-245.5 137.3-716.8-34.4v-715.2q26.3 78.9 95.5 187l-10.8 64.9c-32.5 194.3 81.1 383.4 267.8 446z"/></g><g style="opacity:.6"><path class="c" d="m1678 2205.6v-70.9q155.3 465.8 704.6 685.7c26.1 10.5 33 44.8 12.2 63.9q-0.6 0.6-1.3 1.2c-3.9-8.7-11-16.1-20.9-20.1-471.6-188.8-652.8-558.9-694.6-659.8z"/></g><path fill-rule="evenodd" class="a" d="m2157.4 2973.7c-113.4 0-270.2-26.9-486-105.5-7.7-2.8-12.8-10.1-12.8-18.3v-715.2c0-9.5 6.9-17.6 16.3-19.2 9.4-1.5 18.5 4 21.5 13 0.6 1.8 39.9 116.7 144.4 256.3 96.5 128.9 270.1 306 549 417.6 18.7 7.5 32 23.8 35.6 43.7 3.6 19.5-2.9 39.1-17.5 52.5-38.1 35-112 75.1-250.5 75.1zm-460-137.4c198.7 71.3 363.7 104.3 490.4 98.3 107.8-5.2 164.9-38 193.9-64.6 6.7-6.2 6.1-13.9 5.6-16.9-1.2-6.7-5.7-12.1-11.9-14.6-288-115.3-467.1-298.5-566.6-431.8-51.7-69.2-87.7-132-111.4-179.1z"/><path class="d" d="m546.3 2463.6c-137 123.2-292.1 90.7-348.7-37.5-26.6-60.2-31.5-141.6-2.4-238q90.9-301.2 365.4-431.3l135.4 121.6q0.8 6.1 1.8 17.2c7.1 78.9 25.1 409.3-151.5 568z"/><g style="opacity:.3"><path class="a" d="m546.3 2463.6c-137 123.2-292.1 90.7-348.7-37.5q1-8.5 1.8-13.4 156.2 65 187.4-79.3c31.2-144.4 63.3-385.9 256.6-437.6 20.3-5.4 38.4-5.1 54.4-0.2 7.1 78.9 25.1 409.3-151.5 568z"/></g><g style="opacity:.6"><path class="c" d="m218.6 2463.1c-8-11.2-15-23.5-21-37-26.6-60.2-31.5-141.6-2.4-238q90.9-301.2 365.4-431.3l135.4 121.6q0.8 6.1 1.8 17.2c0.1 0.5 0.1 1.1 0.2 1.6l-117.4-105.4q-274.5 130.1-365.4 431.3c-29.1 96.4-24.2 177.8 2.4 238 0.3 0.7 0.7 1.3 1 2z"/></g><path fill-rule="evenodd" class="a" d="m368 2560.6c-38.2 0-75-10.2-107.9-31.1-76.3-48.5-138.3-165.1-83.4-347 92.3-305.9 364.1-437.7 375.6-443.2 7-3.3 15.4-2.1 21.2 3.1l135.5 121.6c3.5 3.1 5.7 7.3 6.3 12 2.1 16.9 50.6 416.4-156 602.1-60.5 54.4-127.9 82.5-191.3 82.5zm189.6-780.3c-51.7 28.2-266.9 158.7-343.8 413.5-48.6 161 2.8 262.1 67.1 302.9 72.2 45.8 168.9 27.6 252.5-47.5 177.4-159.5 149.6-507.4 144.2-561.3z"/><path class="b" d="m319.9 2628.3c-203.1-49-171.8-222.2-124.6-231.5 11.9-2.4 23.4-0.6 33.9 3.4q31.3 11.7 54.2 42.7-16.2 102.2 36.5 185.4z"/><g style="opacity:.3"><path class="a" d="m319.9 2628.3q-98.1-57-91.1-131 7.1-74.1-29.3-96.8l29.7-0.3q31.3 11.7 54.2 42.7-16.2 102.2 36.5 185.4z"/></g><path fill-rule="evenodd" class="a" d="m319.9 2647.7q-2.3 0-4.5-0.5c-130.9-31.6-175.9-115.2-174.5-182.8 0.9-45.4 21.8-81 50.6-86.7 58.6-11.5 105.5 51.1 107.5 53.7 3.1 4.2 4.4 9.5 3.5 14.6-14.7 93.3 33.3 171.2 33.8 171.9 4.2 6.7 4 15.3-0.7 21.7-3.7 5.2-9.6 8.1-15.7 8.1zm-114-232.6q-3.4 0-6.9 0.7c-5 1-18.7 17.7-19.3 49.4-0.5 22.6 6.4 92.8 103.3 131.3-13.5-34.7-27.6-87.7-20-147.9-11.5-13.1-34.4-33.5-57.1-33.5z"/><path class="b" d="m406.4 2640.8c-189.8-87.3-125.6-251.3-77.5-251.3 12.1 0 23.1 4 32.6 9.9q28.5 17.6 44.9 52.5-35.6 97.1 0 188.9z"/><g style="opacity:.3"><path class="a" d="m406.4 2640.8q-85.3-74.9-64-146.1 21.2-71.3-10.1-100.7l29.2 5.4q28.5 17.6 44.9 52.5-35.6 97.1 0 188.9z"/></g><path fill-rule="evenodd" class="a" d="m406.4 2660.2c-2.7 0-5.5-0.6-8.1-1.8-122.2-56.2-150.3-146.9-135.8-213 9.7-44.3 37-75.3 66.4-75.3 59.7 0 93.7 70.5 95.1 73.5 2.2 4.7 2.4 10.1 0.6 15-32.5 88.7-0.4 174.4-0.1 175.2 2.8 7.4 0.9 15.8-4.8 21.2-3.7 3.4-8.5 5.2-13.3 5.2zm-77.5-251.3c-5.2 0-21.7 13.8-28.5 44.8-4.9 22.1-11.7 92.2 76 148.8-6.6-36.7-10.1-91.3 8.9-149-9.6-16.6-31.1-44.6-56.4-44.6z"/><path class="d" d="m1497.6 1895.6q1-11.1 1.8-17.2l135.5-121.6q274.4 130.1 365.4 431.3c29 96.4 24.2 177.8-2.4 238-56.7 128.2-211.8 160.7-348.7 37.5-176.6-158.7-158.7-489.1-151.6-568z"/><g style="opacity:.3"><path class="a" d="m1497.6 1895.6c16.1-4.9 34.2-5.2 54.4 0.2 193.4 51.7 225.5 293.2 256.7 437.6q31.1 144.3 187.3 79.3 0.9 4.9 1.9 13.4c-56.7 128.2-211.8 160.7-348.7 37.5-176.6-158.7-158.7-489.1-151.6-568z"/></g><g style="opacity:.6"><path class="c" d="m1977.9 2461.1c26.6-60.2 31.4-141.6 2.3-238q-90.9-301.2-365.3-431.3l-117.4 105.4c0.1-0.5 0.1-1.1 0.1-1.6q1-11.1 1.8-17.2l135.5-121.6q274.4 130.1 365.3 431.3c29.1 96.4 24.3 177.8-2.3 238-6 13.5-13 25.8-21 37 0.3-0.7 0.7-1.3 1-2z"/></g><path fill-rule="evenodd" class="a" d="m1827.5 2560.6c-63.4 0-130.8-28.1-191.3-82.5-206.6-185.7-158.1-585.2-156-602.1 0.6-4.7 2.8-8.9 6.3-12l135.5-121.6c5.8-5.2 14.2-6.4 21.2-3.1 11.6 5.5 283.3 137.3 375.6 443.2 54.9 181.9-7.1 298.5-83.4 347-32.9 20.9-69.7 31.1-107.9 31.1zm-309.6-672.7c-5.4 53.9-33 402 144.2 561.3 83.6 75.1 180.3 93.3 252.5 47.5 64.3-40.8 115.7-141.9 67.1-302.9-76.9-254.8-292.1-385.3-343.8-413.5z"/><path class="b" d="m1912.1 2442.9q22.9-31 54.2-42.7c10.5-4 22-5.8 33.9-3.4 47.2 9.3 78.5 182.5-124.6 231.5q52.7-83.2 36.5-185.4z"/><g style="opacity:.3"><path class="a" d="m1912.1 2442.9q22.9-31 54.2-42.7l29.7 0.3q-36.4 22.7-29.3 96.8 7 74-91.1 131 52.7-83.2 36.5-185.4z"/></g><path fill-rule="evenodd" class="a" d="m1875.6 2647.7c-6.2 0-12.1-2.9-15.8-8.1-4.6-6.4-4.8-15-0.6-21.7 0.5-0.7 48.5-78.6 33.8-171.9-0.9-5.1 0.4-10.4 3.5-14.6 2-2.6 48.9-65.3 107.5-53.7 28.8 5.7 49.7 41.3 50.6 86.7 1.4 67.6-43.6 151.2-174.5 182.8q-2.2 0.5-4.5 0.5zm56.9-199.1c7.6 60.2-6.5 113.2-20 147.9 96.9-38.5 103.8-108.7 103.3-131.3-0.6-31.7-14.3-48.4-19.3-49.4-24.8-4.9-51.3 18.3-64 32.8z"/><path class="b" d="m1789 2451.9q16.5-34.9 44.9-52.5c9.6-5.9 20.5-9.9 32.7-9.9 48.1 0 112.3 164-77.6 251.3q35.7-91.8 0-188.9z"/><g style="opacity:.3"><path class="a" d="m1789 2451.9q16.5-34.9 44.9-52.5l29.3-5.4q-31.4 29.4-10.1 100.7 21.2 71.2-64.1 146.1 35.7-91.8 0-188.9z"/></g><path fill-rule="evenodd" class="a" d="m1789.1 2660.2c-4.9 0-9.6-1.8-13.3-5.3-5.8-5.4-7.7-13.7-4.8-21.1 0.5-1.3 32.3-86.8-0.1-175.2-1.8-4.9-1.6-10.3 0.6-15 1.4-3 35.4-73.5 95.1-73.5 29.4 0 56.7 31 66.4 75.3 14.5 66.1-13.6 156.8-135.8 213-2.6 1.2-5.4 1.8-8.1 1.8zm21.1-206.6c19 57.6 15.5 112.3 8.9 148.9 87.7-56.6 80.9-126.7 76-148.8-6.8-31-23.3-44.8-28.5-44.8-27.2 0-48.3 30.9-56.4 44.7z"/><path class="d" d="m1825.2 3008.8h-495.4c-44 0-79.4-36-78.6-80.1 1.1-51.3 1.2-119.7-2.5-181q-72.7 17.3-151 17.8-1.8 0.1-3.7 0-79.7 0-154.7-17.8c-3.7 61.3-3.6 129.7-2.6 181 0.9 44.1-34.6 80.1-78.6 80.1h-495.4c-7.9-27.6-7.6-52-2.1-73.4q19.4-77.1 104.5-114-119.9-225.8 1-411.1-14.3-335 123.6-491.9 7.6-190.1 504.3-190.1 496.7 0 504.3 190.1 137.8 156.9 123.5 491.9 120.9 185.3 1.1 411.1 138.8 60.3 102.3 187.4z"/><path class="e" d="m1461.5 2616.8q-125 152.3-367.5 148.8-242.5 3.5-367.5-148.8c-124.9-152.4-116.7-661.5 367.5-661.5 484.2 0 492.4 509.1 367.5 661.5z"/><g style="opacity:.3"><path class="a" d="m1825.2 3008.8h-495.4c-44 0-79.4-36-78.6-80.1 1.1-51.3 1.2-119.7-2.5-181q-75.1 17.8-154.7 17.8-79.7 0-154.7-17.8c-3.7 61.3-3.6 129.7-2.6 181 0.9 44.1-34.6 80.1-78.6 80.1h-495.4c-7.9-27.6-7.6-52-2.1-73.4q35.6-1.5 61.5-2.3 244.8 33.2 337.5-14.3c92.6-47.5-13.9-174-33.1-302.1q-67.5-75.9-67.5-216.6 92.2 245.4 435 245.4 342.8 0 435-245.4 0 140.7-67.5 216.6c-19.3 128.1-125.8 254.6-33.1 302.1q92.7 47.5 337.4 14.3 26 0.8 61.6 2.3c5.4 21.4 5.8 45.8-2.2 73.4z"/></g><g style="opacity:.6"><path class="c" d="m589.7 1918.4q-73 212.9-72.1 479.8c0.1 11.5-2.7 22.8-7.7 33.2-22.8 46.2-82.1 191.3-13.8 332.5 15.3 31.6 5.7 69.6-22 91.2-32.9 25.7-69.8 61.9-78.4 99.6l-26.3-56.1q49.5-58.8 94.9-75.7-114-201.9 1.8-412.6-32.6-305.3 123.6-491.9z"/></g><g style="opacity:.6"><path class="c" d="m1721.8 2410.3q115.9 210.7 1.9 412.6 45.4 16.9 94.9 75.7l-26.3 56.1c-8.6-37.7-45.5-73.9-78.4-99.6-27.7-21.6-37.3-59.6-22-91.2 68.3-141.2 9-286.3-13.8-332.5-5-10.4-7.8-21.7-7.7-33.2q0.9-266.9-72.1-479.8 156.2 186.6 123.5 491.9z"/></g><path class="a" d="m1246.7 2728.5l2.9-0.5c1.1-0.1 2.3-0.4 3.5-0.6q3.5-0.7 7.1-1.5c4.7-0.9 9.6-2.2 14.4-3.4 9.5-2.7 19.2-5.5 28.6-9 9.5-3.3 18.9-7.1 28.1-11.3l13.9-6.4 13.5-7.1c17.8-10 35.3-20.9 51.8-33.6 4.3-3 8.6-5.9 12.6-9.3l12.5-9.6c8.4-6.4 16.4-13.5 25.3-19.9h0.1c0.3-0.2 0.7-0.1 1 0.2 0.1 0.2 0.1 0.5 0 0.7-2.5 4.8-5.1 9.6-7.9 14.3-2.9 4.6-5.5 9.5-8.8 13.8-6.6 8.7-13 17.7-20.7 25.5-3.8 4-7.5 8.1-11.4 11.9-4 3.8-8.2 7.4-12.3 11.1-4.1 3.8-8.4 7.1-12.8 10.5-4.4 3.4-8.6 7.1-13.2 10.1-18.1 13-37.6 23.9-58.1 33.1-10.3 4.6-20.9 8.5-31.7 11.9-5.4 1.6-10.8 3.2-16.5 4.4-2.8 0.7-5.6 1.3-8.5 1.8-1.5 0.3-2.9 0.5-4.4 0.8-1.6 0.2-2.9 0.4-4.9 0.6-10.7 1.2-20.3-6.4-21.5-17.1-1.1-10.3 6.1-19.7 16.3-21.3z"/><path class="a" d="m937.2 2767c-2-0.2-3.3-0.4-4.9-0.6-1.5-0.3-2.9-0.5-4.4-0.8-2.9-0.5-5.7-1.1-8.5-1.8-5.7-1.2-11.1-2.8-16.5-4.4-10.8-3.4-21.4-7.3-31.7-11.9-20.5-9.2-40-20.1-58.1-33.1-4.6-3-8.8-6.7-13.2-10.1-4.4-3.4-8.7-6.7-12.8-10.5-4.1-3.7-8.3-7.3-12.3-11.1-3.9-3.8-7.6-7.9-11.4-11.9-7.7-7.8-14.1-16.8-20.7-25.5-3.3-4.3-5.9-9.2-8.8-13.8-2.8-4.7-5.4-9.5-7.9-14.3-0.2-0.4 0-0.8 0.3-0.9 0.2-0.2 0.5-0.1 0.7 0h0.1c8.9 6.4 16.9 13.5 25.3 19.9l12.5 9.6c4 3.4 8.3 6.3 12.6 9.3 16.5 12.7 34 23.6 51.8 33.6l13.5 7.1 13.9 6.4c9.2 4.2 18.6 8 28.1 11.3 9.4 3.5 19.1 6.3 28.6 9 4.8 1.2 9.7 2.5 14.4 3.4q3.6 0.8 7.1 1.5c1.2 0.2 2.4 0.5 3.5 0.6l2.9 0.5 1 0.1c10.6 1.6 17.9 11.5 16.3 22.1-1.6 10.3-11.1 17.5-21.4 16.3z"/><path class="a" d="m1600.7 1916.3c17.4 14.5 31.2 31.9 43.5 50.2 3.2 4.6 6.1 9.2 9 13.9l8.3 14.4c5.6 9.6 10 19.6 14.7 29.6 18.1 40.3 32.2 82.2 42.8 125l7.2 32.2c1.3 5.4 2.2 10.8 3 16.3l2.6 16.3 2.6 16.3 1.3 8.1 0.8 8.2 3.3 32.8c1.3 11 1.6 21.9 2 32.9l1.1 32.9c0 22-0.9 43.9-1.6 65.8l-3.2-11.5v0.1c1.7 2.5 2.8 4.4 4 6.6q1.9 3.2 3.6 6.3 3.4 6.4 6.4 12.7 6.2 12.8 11.4 25.8c7 17.4 12.8 35.2 17.5 53.3 9.4 36.2 14.3 73.6 14.2 111.1 0.1 18.7-1.2 37.4-3.6 56-2.2 18.6-6.2 36.9-10.7 55.1-9.6 36.1-23.5 71-40.9 103.8l-9.4-26.9c3.2 1.4 5.3 2.5 7.8 3.8q3.5 1.8 7 3.7c4.6 2.6 9.1 5.4 13.5 8.2q13.3 8.5 25.5 18.7c16.3 13.6 31.1 29.5 42.7 48.2 11.7 18.5 19.7 40.1 22.4 62.4 2.9 22.3 0.2 44.8-5.6 65.6-2.4 8.5-10.1 14-18.5 14h-0.2-400.7-50-25.1-12.5-6.3c-2.2 0-5-0.2-7.6-0.3-10.3-0.8-20.6-2.9-30.3-7-9.6-4-18.5-9.5-26.5-16.2-7.9-6.7-14.6-14.8-20.1-23.7-5.5-8.8-9.5-18.6-11.7-28.8l-0.9-3.8-0.5-3.9c-0.3-2.5-0.9-5.1-0.9-7.7l-0.2-7.8 0.1-6.4 0.3-24.8q0.3-24.9 0.1-49.8c-0.3-33.1-1.1-66.2-3.1-99.1l23.9 17.7c-13.6 3.1-26.4 5.5-39.6 7.7q-19.7 3.3-39.5 5.6c-26.5 3.2-53.2 4.9-80.1 5.1-26.9-0.2-53.6-1.9-80.1-5.1q-19.8-2.3-39.5-5.6c-13.2-2.2-26-4.6-39.6-7.7l23.9-17.7c-2 32.9-2.8 66-3.1 99.1q-0.2 24.9 0.1 49.8l0.3 24.8 0.1 6.4-0.2 7.8c0 2.6-0.6 5.2-0.9 7.7l-0.5 3.9-0.9 3.8c-2.2 10.2-6.2 20-11.7 28.8-5.5 8.9-12.2 17-20.1 23.7-8 6.7-16.9 12.2-26.5 16.2-9.7 4.1-20 6.2-30.3 7-2.6 0.1-5.4 0.3-7.6 0.3h-6.3-12.5-25.1-50-400.7-0.2c-8.8 0-16.2-5.9-18.5-14-5.8-20.8-8.5-43.3-5.6-65.6 2.7-22.3 10.7-43.9 22.4-62.4 11.6-18.7 26.4-34.6 42.7-48.2q12.2-10.2 25.5-18.7c4.4-2.8 8.9-5.6 13.5-8.2q3.5-1.9 7-3.7c2.5-1.3 4.6-2.4 7.8-3.8l-9.4 26.9c-17.4-32.8-31.3-67.7-40.9-103.8-4.5-18.2-8.5-36.5-10.7-55.1-2.4-18.5-3.7-37.3-3.6-56-0.1-37.4 4.8-74.8 14.2-111 4.7-18.1 10.5-35.9 17.5-53.3q5.2-13.1 11.3-25.8 3.1-6.4 6.5-12.7c2.3-4.3 4.5-8.2 7.5-13l0.1-0.1-3.2 11.5c-0.9-21.9-2-43.8-2.2-65.8l1-32.9c0.3-11 0.6-22 1.8-32.9l3.1-32.9 0.8-8.2 1.2-8.2 2.6-16.3 2.5-16.4c0.8-5.4 1.7-10.8 3-16.2l7.1-32.3c10.4-42.9 24.5-85 42.5-125.4 4.8-10 9.3-20 14.9-29.6l8.2-14.4c3-4.7 6.1-9.4 9.2-13.9 12.6-18.3 26.5-35.7 44.2-50 1.8-1.5 4.4-1.2 5.8 0.6 1.1 1.3 1.2 3 0.5 4.4l-0.1 0.3c-19.2 38.3-35.5 77-50.7 116.1-15.2 39.1-26.1 79.7-35.1 120.7l-5.8 31c-0.4 2.6-1 5.2-1.4 7.8l-1.1 7.8-2.2 15.6c-3.4 20.8-4.8 41.8-6.9 62.8-1.3 10.4-1.4 21-1.9 31.5l-1.6 31.7-0.6 63.4v1.1c0 3.8-1.2 7.4-3.1 10.3-1.8 2.8-4 6.7-5.9 10.3q-3 5.5-5.8 11.2c-3.6 7.6-7.1 15.4-10.2 23.3-6.4 15.8-11.7 32.1-16 48.6-8.5 33.1-13 67.2-12.9 101.3-0.1 17.1 1.1 34.1 3.3 51 2 17 5.6 33.7 9.8 50.2 8.8 33.1 21.5 65.1 37.5 95.5 5 9.5 1.4 21.3-8.1 26.3q-0.6 0.3-1.1 0.5l-0.2 0.1c-1.3 0.6-3.6 1.7-5.4 2.7l-5.8 3.1c-3.9 2.2-7.8 4.5-11.5 6.9-7.6 4.9-14.8 10.2-21.6 15.9-13.7 11.4-25.7 24.4-34.6 38.9-4.6 7.2-8.3 14.8-11.1 22.6-2.8 7.8-5 15.8-5.8 24.1-2.2 16.4-0.2 33.4 4.4 50.1l-18.6-14.1h400.7 50 25.1 12.5 6.3c1.9 0 3.2-0.1 4.9-0.2 12.6-0.7 24.6-5.9 34.3-14 4.8-4 8.8-9 12.1-14.3 3.4-5.3 5.8-11.2 7.1-17.4l0.5-2.2 0.3-2.4c0.2-1.5 0.6-3.1 0.6-4.7l0.1-4.7-0.1-6.2-0.3-25.2q-0.3-25.1-0.1-50.4c0.3-33.6 1.1-67.3 3.1-101.1 0.7-10.7 9.9-18.9 20.5-18.2q1.6 0.1 3 0.4l0.4 0.1c24 5.4 49.6 9.5 74.7 12.5 25.2 3 50.4 4.7 75.5 4.8 25.1-0.1 50.3-1.8 75.5-4.8 25.1-3 50.7-7.1 74.7-12.5l0.3-0.1c10.4-2.3 20.8 4.3 23.1 14.7 0.3 1 0.4 2.1 0.5 3.1 2 33.8 2.8 67.5 3.1 101.1q0.2 25.3-0.1 50.4l-0.3 25.2-0.1 6.2 0.1 4.7c0 1.6 0.4 3.2 0.6 4.7l0.3 2.4 0.5 2.2c1.3 6.2 3.7 12.1 7.1 17.4 3.3 5.3 7.3 10.3 12.1 14.3 9.7 8.1 21.7 13.3 34.3 14 1.7 0.1 3 0.2 4.9 0.2h6.3 12.5 25.1 50 400.7l-18.6 14.1c4.6-16.7 6.6-33.7 4.4-50.1-0.8-8.3-3-16.3-5.8-24.1-2.8-7.8-6.5-15.4-11.1-22.6-8.9-14.5-20.9-27.5-34.6-38.9-6.8-5.7-14-11-21.6-15.9-3.7-2.4-7.6-4.7-11.5-6.9l-5.8-3.1c-1.8-1-4.1-2.1-5.4-2.7h-0.1c-9.8-4.4-14.3-15.9-9.9-25.7 0.2-0.4 0.4-0.8 0.6-1.2 16-30.4 28.7-62.4 37.5-95.5 4.2-16.5 7.8-33.3 9.8-50.2 2.2-16.9 3.4-34 3.3-51 0.1-34.1-4.4-68.3-13-101.3-4.3-16.5-9.5-32.8-15.9-48.6-3.1-7.9-6.6-15.7-10.3-23.3q-2.7-5.7-5.7-11.2c-1.9-3.6-4.2-7.5-5.9-10.3-2.1-3.1-3.1-6.7-3.1-10.2v-1.2l-0.1-63.5-1.3-31.6c-0.4-10.5-0.6-21.1-1.8-31.6-1.9-21-3.2-42.1-6.6-62.9l-2.1-15.6c-0.6-5.3-1.4-10.5-2.5-15.6l-5.7-31.1c-8.8-41.1-19.7-81.9-34.9-121.1-15.3-39.2-31.9-77.9-51.6-115.9l-0.2-0.3c-0.8-1.6-0.2-3.6 1.4-4.4 1.2-0.6 2.7-0.4 3.6 0.4z"/><path class="b" d="m378.1 2995.8q-11 13.2-22.5 21.2c-81.6-19.8-150.8 19.4-154.2 21.3q-0.1 0.1-0.1 0.1c48.2-176.8 190-139 195.8-96.7 3 21.5-7.7 40.6-19 54.1z"/><g style="opacity:.3"><path class="a" d="m378.1 2995.8q-11 13.2-22.5 21.2c-81.6-19.8-150.8 19.4-154.2 21.3 3.9-3.6 78.7-72.8 123.4-76.7 28.1-2.5 44.7 18 53.3 34.2z"/></g><path fill-rule="evenodd" class="a" d="m201.3 3055c-3.5 0-7.1-1.1-10.1-3.4-5.3-4.1-7.7-11-5.9-17.5 38.2-140.5 128.4-145.9 155.2-144.1 38.7 2.4 69.5 23.2 73.1 49.4 7.2 51.9-46.2 89.6-48.5 91.2-3.9 2.7-8.7 3.6-13.4 2.5-76.2-18.5-141.3 19.2-141.9 19.6-2.7 1.6-5.6 2.3-8.5 2.3zm132.3-132c-21.9 0-72.6 8.9-104.5 85.2 29.1-9.9 73.2-19.1 122.5-9.1 10.5-9 32.5-30.9 29.1-55.1-0.9-6.4-16.2-19.2-42.3-20.9q-2.1-0.1-4.8-0.1z"/><path class="b" d="m469 3000.7q-11 13.2-22.5 21.2c-81.6-19.8-150.8 19.4-154.2 21.3q-0.1 0.1-0.1 0.1c48.2-176.8 190-139 195.8-96.7 3 21.5-7.7 40.6-19 54.1z"/><g style="opacity:.3"><path class="a" d="m469 3000.7q-11 13.2-22.5 21.2c-81.6-19.8-150.8 19.4-154.2 21.3 3.9-3.6 78.7-72.8 123.4-76.7 28.1-2.5 44.7 18 53.3 34.2z"/></g><path fill-rule="evenodd" class="a" d="m292.2 3059.9c-3.6 0-7.1-1.1-10.1-3.4-5.3-4.1-7.7-11-5.9-17.5 38.2-140.5 128.4-145.8 155.2-144.1 38.7 2.5 69.4 23.3 73.1 49.5 7.2 51.8-46.2 89.6-48.5 91.1-3.9 2.7-8.8 3.7-13.4 2.5-76.2-18.5-141.3 19.3-142 19.6-2.6 1.6-5.5 2.3-8.4 2.3zm132.3-132c-21.9 0-72.6 8.9-104.6 85.3 29.2-10 73.3-19.2 122.6-9.2 10.5-9 32.5-30.8 29.1-55.1-0.9-6.4-16.2-19.2-42.4-20.9q-2-0.1-4.7-0.1z"/><path class="b" d="m572.4 3000.7q-10.9 13.2-22.4 21.2c-81.6-19.8-150.8 19.4-154.2 21.3q-0.1 0.1-0.1 0.1c48.1-176.8 189.9-139 195.8-96.7 3 21.5-7.8 40.6-19.1 54.1z"/><g style="opacity:.3"><path class="a" d="m572.4 3000.7q-10.9 13.2-22.4 21.2c-81.6-19.8-150.8 19.4-154.2 21.3 3.8-3.6 78.7-72.8 123.3-76.7 28.1-2.5 44.7 18 53.3 34.2z"/></g><path fill-rule="evenodd" class="a" d="m395.7 3059.9c-3.6 0-7.1-1.1-10.1-3.4-5.4-4.1-7.7-11-5.9-17.5 38.2-140.5 128.4-145.8 155.1-144.1 38.8 2.5 69.5 23.3 73.2 49.5 7.2 51.8-46.2 89.6-48.5 91.1-3.9 2.7-8.8 3.7-13.4 2.5-75.8-18.4-141.4 19.3-142 19.7-2.6 1.5-5.5 2.2-8.4 2.2zm132.2-132c-21.8 0-72.6 8.9-104.5 85.3 29.2-10 73.3-19.2 122.5-9.2 10.6-9 32.5-30.8 29.2-55.1-0.9-6.4-16.2-19.2-42.4-20.9q-2.1-0.1-4.8-0.1z"/><path class="b" d="m1790.9 2941.7c5.8-42.3 147.6-80.1 195.8 96.7q0 0-0.1-0.1c-3.4-1.9-72.6-41.1-154.2-21.3q-11.5-8-22.5-21.2c-11.3-13.5-22-32.6-19-54.1z"/><g style="opacity:.3"><path class="a" d="m1863.2 2961.6c44.7 3.9 119.5 73.1 123.4 76.7-3.4-1.9-72.6-41.1-154.2-21.3q-11.5-8-22.5-21.2c8.6-16.2 25.2-36.7 53.3-34.2z"/></g><path fill-rule="evenodd" class="a" d="m1986.7 3055c-2.9 0-5.8-0.7-8.4-2.3-1-0.5-66.4-37.9-142-19.6-4.7 1.1-9.5 0.2-13.4-2.5-2.3-1.6-55.7-39.3-48.5-91.2 3.6-26.2 34.4-47 73.1-49.4 26.8-1.8 116.9 3.6 155.2 144.1 1.8 6.5-0.6 13.4-5.9 17.5-3 2.3-6.6 3.4-10.1 3.4zm-107-60.2c31.5 0 59 6.5 79.2 13.4-34.5-82.6-91.1-86.3-109.3-85.1-26.1 1.7-41.4 14.5-42.3 20.9-3.4 24.2 18.6 46.1 29.1 55.1 15-3.1 29.6-4.3 43.3-4.3z"/><path class="b" d="m1700 2946.6c5.8-42.3 147.6-80.1 195.8 96.7q0 0-0.1-0.1c-3.4-1.9-72.6-41.1-154.2-21.3q-11.5-8-22.5-21.2c-11.3-13.5-22-32.6-19-54.1z"/><g style="opacity:.3"><path class="a" d="m1772.3 2966.5c44.7 3.9 119.5 73.1 123.4 76.7-3.4-1.9-72.6-41.1-154.2-21.3q-11.5-8-22.5-21.2c8.6-16.2 25.2-36.7 53.3-34.2z"/></g><path fill-rule="evenodd" class="a" d="m1895.8 3059.9c-2.9 0-5.8-0.7-8.4-2.3-1-0.5-66.4-37.9-142-19.6-4.6 1.2-9.5 0.2-13.4-2.5-2.3-1.5-55.7-39.3-48.5-91.1 3.7-26.2 34.4-47 73.1-49.5 26.7-1.7 117 3.6 155.2 144.1 1.8 6.5-0.6 13.4-5.9 17.5-3 2.3-6.5 3.4-10.1 3.4zm-107-60.2c31.5 0 59 6.6 79.3 13.5-34.6-82.7-91.2-86.3-109.3-85.2-26.2 1.7-41.5 14.5-42.4 20.9-3.4 24.3 18.6 46.1 29.1 55.1 15-3 29.6-4.3 43.3-4.3z"/><path class="b" d="m1596.5 2946.6c5.8-42.3 147.7-80.1 195.8 96.7q0 0-0.1-0.1c-3.4-1.9-72.6-41.1-154.2-21.3q-11.5-8-22.5-21.2c-11.3-13.5-22-32.6-19-54.1z"/><g style="opacity:.3"><path class="a" d="m1668.8 2966.5c44.7 3.9 119.5 73.1 123.4 76.7-3.4-1.9-72.6-41.1-154.2-21.3q-11.5-8-22.5-21.2c8.6-16.2 25.2-36.7 53.3-34.2z"/></g><path fill-rule="evenodd" class="a" d="m1792.3 3059.9c-2.9 0-5.8-0.7-8.4-2.3-0.9-0.5-66.4-37.9-142-19.6-4.6 1.2-9.5 0.2-13.4-2.5-2.3-1.5-55.7-39.3-48.5-91.1 3.7-26.2 34.4-47 73.2-49.5 26.7-1.7 116.9 3.6 155.1 144.1 1.8 6.5-0.5 13.4-5.9 17.5-3 2.3-6.5 3.4-10.1 3.4zm-106.9-60.2c31.4 0 58.9 6.6 79.2 13.5-34.6-82.7-91.2-86.3-109.3-85.2-26.2 1.7-41.5 14.5-42.4 20.9-3.3 24.1 18.7 46.1 29.2 55.1 15-3 29.5-4.3 43.3-4.3z"/><path class="b" d="m765.5 471q-16.4 27.4-57.1 47.2c-35.2 17.1-88.5 28.4-165.1 11.3q-63.7-190.1 72.2-291c8.2-6.1 17.9-7.9 26.8-6.3 12.7 2.3 23.9 11.6 27.2 25.7 13.4 56.2 42.6 151.5 96 213.1z"/><g style="opacity:.3"><path class="a" d="m708.4 518.2c-35.2 17.1-88.5 28.4-165.1 11.3q-63.7-190.1 72.2-291c8.2-6.1 17.9-7.9 26.8-6.3q-118.6 183 66.1 286z"/></g><path fill-rule="evenodd" class="a" d="m615.8 557.5c-22.8 0-48.2-2.7-76.7-9-6.6-1.5-12-6.4-14.1-12.8-2.8-8.3-66.6-204.7 79-312.8 14.6-10.8 33.5-13.6 50.6-7.4 17 6.2 29.6 20.4 33.8 38 12.2 51 40.4 145.5 91.8 204.8 5.5 6.3 6.3 15.5 2 22.7-2.2 3.7-47.4 76.5-166.4 76.5zm-57-44.6c109.5 21 163-21 181.9-41.6-50.3-65.3-77.8-157.6-90-208.8-1.7-7-7.1-9.7-9.4-10.5-2.2-0.9-8.2-2.3-14.2 2.1-105.8 78.5-78.5 219.5-68.3 258.8z"/><path class="b" d="m1518.4 257.9c3.4-14.1 14.6-23.4 27.3-25.7 8.9-1.6 18.5 0.2 26.7 6.3q135.9 100.9 72.2 291c-76.5 17.1-129.8 5.8-165-11.3q-40.7-19.8-57.2-47.2c53.4-61.6 82.7-156.9 96-213.1z"/><g style="opacity:.3"><path class="a" d="m1545.7 232.2c8.9-1.6 18.5 0.2 26.7 6.3q135.9 100.9 72.2 291c-76.5 17.1-129.8 5.8-165-11.3q184.6-103 66.1-286z"/></g><path fill-rule="evenodd" class="a" d="m1572.2 557.5c-119 0-164.2-72.8-166.4-76.5-4.3-7.2-3.5-16.4 2-22.7 51.4-59.3 79.6-153.8 91.8-204.8 4.2-17.6 16.8-31.8 33.8-38 17.1-6.2 36-3.4 50.6 7.4 145.6 108.1 81.8 304.5 79 312.8-2.1 6.4-7.5 11.3-14.1 12.8-28.4 6.3-53.9 9-76.7 9zm-125-86.2c18.9 20.6 72.4 62.6 182 41.6 10.1-39.4 37.1-180.5-68.3-258.8-6-4.4-12-3-14.3-2.1-2.2 0.8-7.6 3.5-9.3 10.5-12.2 51.2-39.7 143.5-90.1 208.8zm197.4 58.2h0.1zm0 0z"/><path class="d" d="m1864.4 1583.4q-40.3 155.6-148.5 230.5c-108.1 74.8-242.4 102.1-253.1-15.5q-117.5 57.1-368.8 57.1c-233.3 0-351.3-49.2-367-56.2q-1.3-0.6-1.9-0.9c-2.2 24.8-10 43.2-21.9 56-0.3 0.5-0.8 0.9-1.2 1.4-45 46-145.4 16.6-230-41.9q-108.1-74.9-148.5-230.5c-60.6 85.5-180.6 11.9-174.6-219.8q5.9-231.7 117.6-404.3c-37.4 37.4-98.9 11.6-87.3-71.3 2.1-15.4 7.4-32 14.6-48.7q31-73.3 97.7-150c-32.9-86.5-50.7-166.3-57.9-238.8-20.1-201.3 40.6-345.8 81.6-417.9 12.5-22 45.2-19.1 53.7 4.7 21.9 61.5 60.5 159.9 104.3 228.4q80.6 125.9 130.7 215.1c61.8-32.3 152.6-53 239.3-66.4 82.7-12.7 166.2-19 249.7-19.1 84.3 0 168.5 6.3 251.9 19.1 86.7 13.4 177.5 34.1 239.2 66.4q50.2-89.2 130.7-215.1c43.9-68.5 82.4-166.9 104.4-228.4 8.5-23.8 41.1-26.7 53.7-4.7 55.8 98.1 148 330.1 23.7 656.7q100.7 115.9 112.3 198.7c11.6 82.9-49.9 108.7-87.3 71.3q111.6 172.6 117.6 404.3c6 231.7-114.1 305.3-174.7 219.8z"/><g style="opacity:.3"><path class="a" d="m1808.7 1224.4c0 288.8-320 522.9-714.7 522.9-394.7 0-714.7-234.1-714.7-522.9 0-288.8 320-522.9 714.7-522.9 394.7 0 714.7 234.1 714.7 522.9z"/></g><path class="f" d="m424.2 578q-31.1 0-24 53.4-41.9-8.9-66 16.9-124.7-329.1 30.9-395.6 58.3 175.8 131.9 335.1c-40.4 0-41.6-9.8-72.8-9.8z"/><path class="f" d="m1691 587.8q73.6-159.3 131.9-335.1 155.6 66.5 30.9 395.6-24.1-25.8-66-16.9 7.1-53.4-24-53.4c-31.2 0-32.4 9.8-72.8 9.8z"/><g style="opacity:.3"><path class="a" d="m727 1799.3c-0.5 17-6.1 36.9-23.8 55.1-0.3 0.5-0.8 0.9-1.2 1.4-45 46-145.4 16.6-230-41.9q-108.1-74.9-148.5-230.5c-60.6 85.5-180.6 11.9-174.6-219.8q5.9-231.7 117.6-404.3c-37.4 37.4-98.9 11.6-87.3-71.3 2.1-15.4 7.4-32 14.6-48.7-0.2 3.6-2.3 65.9 37.5 75 11.3 2.6 25.9-0.1 41.8-6.3 30.1-11.7 59.3 19.2 46 48.7-38 84.7-80.8 197.3-96.5 303.5-27.8 186.9 3.4 337 99.3 264.4 18.3-13.9 44.8-6.8 54 14.3 35.3 80.9 115.8 239.3 215.8 266.9 71.5 19.8 102.8 5.1 116.4-13.3 6.1-8.2 19.1-4.3 18.9 5.9q0 0.5 0 0.9z"/></g><g style="opacity:.3"><path class="a" d="m1461 1798.4c-0.2-10.2 12.8-14.1 18.9-5.9 13.6 18.4 44.9 33.1 116.3 13.3 100.1-27.6 180.6-186 215.9-266.9 9.2-21.1 35.7-28.2 54-14.3 95.9 72.6 127.1-77.5 99.3-264.4-15.7-106.2-58.5-218.8-96.5-303.5-13.3-29.5 15.9-60.4 46-48.7 15.9 6.2 30.5 8.9 41.7 6.3 39.8-9.1 37.8-71.4 37.6-75 7.2 16.7 12.4 33.3 14.6 48.7 11.6 82.9-49.9 108.7-87.3 71.3q111.6 172.6 117.6 404.3c6 231.7-114.1 305.3-174.7 219.8q-40.3 155.6-148.5 230.5c-84.5 58.5-185 87.9-229.9 41.9-0.5-0.5-0.9-0.9-1.3-1.4-17.6-18.2-23.2-38.1-23.7-55.1q0-0.4 0-0.9z"/></g><g style="opacity:.3"><path class="a" d="m291.5 672.1q-3.6-72.5 59.4-85.5-9.7-60.6 45.1-60.6-83.1-159.2-30.9-273.3 47.6 202 131.9 335.1l-87.3-13.7q-20.2 24.3-9.5 57.3-56.4-5-108.7 40.7z"/></g><g style="opacity:.3"><path class="a" d="m1787.8 631.4q10.7-33-9.5-57.3l-87.3 13.7q84.3-133.1 131.9-335.1 52.2 114.1-30.9 273.3 54.8 0 45.1 60.6 63 13 59.4 85.5-52.3-45.7-108.7-40.7z"/></g><g style="opacity:.6"><path class="c" d="m1954.8 450.6q-17.5-210.1-81.9-322.7c-7.5-13.2-26.9-11.9-32.9 2-18.1 41.7-54.1 117.5-101.1 182.3q-68.9 95.1-210.2 320.2 24.4-67.2 12.7-96.3c-9.4-23.5-124.2-65.3-308.5-80.2-9.5 23.7-67.9 41.9-138.6 41.9-70.7 0-129.1-18.3-138.5-41.9-184.6 14.8-299.4 56.5-308.8 80.1q-11.7 29.1 12.7 96.3-141.3-225.2-210.2-320.2c-47-64.8-82.9-140.7-101-182.4-6.1-13.9-25.4-15.1-32.9-2q-64.5 112.7-82 322.8c-20.1-201.3 40.6-345.8 81.6-417.9 12.5-22 45.2-19.1 53.7 4.7 21.9 61.5 60.5 159.9 104.3 228.4q80.6 125.9 130.7 215.1c61.8-32.3 152.6-53 239.3-66.4 82.4-12.6 166.5-18.9 249.7-19q0 0 0-0.1c83.6 0.1 169.6 6.6 252.4 19.3 86.6 13.3 177.4 34 239.2 66.3q50.2-89.2 130.7-215c43.8-68.5 82.4-167 104.3-228.4 8.6-23.9 41.2-26.8 53.7-4.7 41.1 72.1 101.8 216.6 81.6 417.8z"/></g><path class="a" d="m619.9 469.7c2.5 3.5 4.3 6.2 6.2 9.3 1.9 3 3.5 6 5.2 9 3.3 6.2 6.4 12.3 9 18.6 5.5 12.6 10 25.5 13.7 38.5 3.5 13.2 6.6 26.4 8.2 39.8 1.9 13.4 2.7 26.9 2.3 40.4 0 2.8-2.4 5-5.1 4.9-2 0-3.7-1.2-4.4-2.8l-0.1-0.2c-5.7-12-10.7-24-16-35.7-1.4-2.9-2.6-5.8-3.9-8.8l-4.1-8.6c-2.5-5.9-5.4-11.5-8.1-17.2-5.5-11.4-11.3-22.5-17.2-33.5q-4.4-8.2-8.9-16.2l-8.7-15.3-0.6-1.1c-5.3-9.3-2.1-21.2 7.2-26.5 8.7-4.9 19.5-2.4 25.3 5.4z"/><path class="a" d="m1600 491.9l-8.7 15.3q-4.5 8-8.9 16.2c-5.9 11-11.7 22.1-17.2 33.5-2.7 5.7-5.6 11.3-8.1 17.2l-4.1 8.6c-1.3 3-2.5 5.9-3.9 8.8-5.3 11.7-10.3 23.7-16 35.7l-0.1 0.2c-1.1 2.5-4.1 3.5-6.7 2.3-1.7-0.8-2.8-2.5-2.8-4.4-0.4-13.5 0.4-27 2.3-40.4 1.6-13.4 4.7-26.6 8.2-39.8 3.7-13 8.2-25.9 13.7-38.5 2.6-6.3 5.7-12.4 9-18.6 1.7-3 3.3-6 5.2-9 1.9-3.1 3.7-5.8 6.2-9.3 6.3-8.6 18.5-10.5 27.1-4.2 8 5.9 10.2 16.8 5.4 25.3z"/><path class="a" d="m275 679.1c2.2-3.4 3.8-5.5 5.7-8.1q2.8-3.6 5.7-7.1c3.9-4.6 8-9 12.3-13.2 8.7-8.4 18.2-16 28.7-22.6 10.3-6.6 21.9-11.8 33.9-15.5l9.2-2.5 9.4-1.7c1.5-0.2 3.1-0.5 4.7-0.7l4.7-0.3 9.6-0.5-19.1 23c-0.4-2.2-0.5-3.4-0.7-5-0.1-1.5-0.3-3-0.4-4.5-0.1-2.9-0.2-5.8-0.1-8.9 0.3-6 1-12.1 2.9-18.6 2-6.4 5.1-13.1 9.9-19.2 4.9-6.1 11.5-10.8 18.5-14 4.3-2 9.1-2.1 13.3-0.7l1.3 0.4 3.9 1.3 4.5 1.3c3.1 0.9 6.2 1.7 9.4 2.5 6.4 1.5 12.9 2.8 19.4 3.9 13.1 2.2 26.5 3.6 39.9 4.4l-18.2 28.8c-7.6-14-14.3-27.6-21.1-41.6l-9.9-20.9-9.4-21.1c-12.5-28.2-23.9-56.9-34.5-85.8-10.7-28.9-20.3-58.2-28.8-87.8-4.3-14.8-8-29.8-11.1-44.9-1.7-7.5-3.1-15.1-4.3-22.8-1.2-7.6-2.3-15.3-3.2-22.9-0.3-2.4 1.4-4.4 3.7-4.7 1.9-0.2 3.6 0.8 4.3 2.5l0.1 0.1c12.4 28.1 22.8 56.5 34.2 84.7 5.5 14.1 11.2 28.1 16.9 42.1 5.9 13.9 11.8 27.9 17.9 41.7 12.3 27.7 25 55.1 38.3 82.3l20.1 40.5c6.8 13.4 13.9 26.9 20.8 39.8l0.2 0.5c5.1 9.4 1.5 21-7.9 26-3.3 1.8-6.9 2.5-10.4 2.3-14.7-0.9-29.4-2.5-44-5-7.3-1.2-14.7-2.7-22-4.4-3.6-0.9-7.3-1.8-11-2.9l-5.6-1.6c-1.9-0.6-3.5-1.1-6.1-2.1l14.6-0.3c-1.5 0.9-2.6 1.6-3.7 2.8-0.9 1.3-2 3.2-2.7 5.8-0.8 2.5-1.2 5.7-1.4 9.1-0.1 1.7 0 3.4 0.1 5.2 0 0.8 0.1 1.7 0.2 2.5l0.2 2c1.5 11.2-6.4 21.4-17.6 22.9-0.4 0-1 0.1-1.4 0.1-8.9 0.5-17.8 1.1-26.3 4-8.5 2.7-16.9 6.3-24.7 11.4-7.8 4.9-15.3 10.7-22.1 17.4-3.4 3.3-6.7 6.8-9.8 10.4q-2.3 2.8-4.4 5.5c-1.3 1.8-2.9 4-3.7 5.2l-0.4 0.7c-5.9 8.9-17.9 11.4-26.9 5.5-8.9-5.8-11.4-17.8-5.6-26.7z"/><path class="a" d="m1880.1 699.6c-0.8-1.2-2.4-3.4-3.7-5.2q-2.1-2.7-4.4-5.5c-3.1-3.6-6.4-7.1-9.8-10.4-6.8-6.7-14.3-12.5-22.1-17.4-7.8-5.1-16.2-8.7-24.7-11.4-8.5-2.9-17.4-3.5-26.3-4-11.2-0.6-19.8-10.3-19.2-21.5q0.1-0.7 0.2-1.4v-0.1l0.2-2c0.1-0.8 0.2-1.7 0.2-2.5 0.1-1.8 0.2-3.5 0.1-5.2-0.2-3.4-0.6-6.6-1.4-9.1-0.7-2.6-1.8-4.5-2.7-5.8-1.1-1.2-2.2-1.9-3.7-2.8l14.6 0.3c-2.6 1-4.2 1.5-6.1 2.1l-5.6 1.6c-3.7 1.1-7.4 2-11 2.9-7.3 1.7-14.7 3.2-22 4.4-14.6 2.5-29.3 4.1-44 5-10.6 0.7-19.8-7.3-20.6-17.9-0.2-3.7 0.6-7.3 2.2-10.4l0.3-0.5c6.9-12.9 14-26.4 20.8-39.8l20.1-40.5c13.3-27.2 26-54.6 38.3-82.3 6.1-13.8 12-27.8 17.9-41.7 5.7-14 11.4-28 16.9-42.1 11.4-28.2 21.8-56.6 34.2-84.7l0.1-0.1c0.9-2.2 3.4-3.1 5.5-2.2 1.7 0.8 2.7 2.6 2.5 4.4-0.9 7.6-2 15.3-3.2 22.9-1.2 7.7-2.6 15.3-4.3 22.8-3.1 15.1-6.8 30.1-11.1 44.9-8.5 29.6-18.1 58.9-28.8 87.8-10.6 28.9-22 57.6-34.5 85.8l-9.4 21.1-9.9 20.9c-6.8 14-13.5 27.6-21.2 41.6l-18.1-28.8c13.4-0.8 26.8-2.2 39.9-4.4 6.5-1.1 13-2.4 19.4-3.9 3.2-0.8 6.3-1.6 9.4-2.5l4.5-1.3 3.9-1.3 1.3-0.4c4.5-1.5 9.3-1.2 13.3 0.7 7 3.2 13.6 7.9 18.5 14 4.8 6.1 7.9 12.8 9.9 19.2 1.9 6.5 2.6 12.6 2.9 18.6 0.1 3.1 0 6-0.1 8.9-0.1 1.5-0.3 3-0.4 4.5-0.2 1.6-0.3 2.8-0.7 5l-19.1-23 9.6 0.5 4.7 0.3c1.6 0.2 3.2 0.5 4.7 0.7l9.4 1.7 9.2 2.5c12 3.7 23.6 8.9 33.9 15.5 10.5 6.6 20 14.2 28.7 22.6 4.3 4.2 8.4 8.6 12.3 13.2q2.9 3.5 5.7 7.1c1.9 2.6 3.5 4.7 5.7 8.1 5.8 9 3.2 21-5.8 26.8-8.9 5.8-20.8 3.3-26.7-5.6z"/><path class="a" d="m1466.4 1798.1c6.3 11.5 11.9 21.9 18.2 30.3 6.3 8.5 13.2 14.8 20.9 19.4 7.6 4.6 16.2 8.1 26.2 9.3 9.9 1.4 20.5 1.2 31.3-0.2 21.7-2.7 43.7-10 65-19 21.4-9.1 42-20.5 61.7-33.4 4.9-3.1 9.8-6.5 14.6-9.8l13.4-10.3 3.4-2.5 3.1-2.9 6.3-5.8 6.3-5.7c2.1-2 4-4.2 6-6.3 16-16.4 30.2-35 43.1-54.7 12.7-19.7 24.6-40.3 34.7-61.8l7.5-16.2c2.3-5.5 4.8-11 7-16.5 4.5-10.9 8.8-22.4 12.4-33l0.1-0.4c2.8-9.3 12.6-14.6 21.9-11.9 3.9 1.2 7 3.5 9.2 6.6 8.3 11.4 18.6 20.6 29.9 24.6 11.2 3.9 23.4 3.1 35-2.8 11.7-5.4 22.3-15.6 31.2-27.1 9-11.7 16.3-25.3 22.2-39.6 11.7-28.8 18.5-60.2 21.9-92.1 3.2-32 3.9-64.4 1.4-97-1.6-32.6-6.2-64.9-11.7-97.1l-5-23.9-2.5-12-3-11.9-6.1-23.7-7-23.5c-9.7-31.2-20.9-62-34-92l-10-22.3c-3.6-7.3-7.1-14.7-10.8-22-3.7-7.2-7.5-14.4-11.4-21.5-3.9-7-8.1-14.2-12-20.6-5.1-8.2-2.6-19 5.6-24.1 6.9-4.3 15.7-3.2 21.3 2.2l0.1 0.1c8.6 8.1 19.4 12.9 29.1 11.2l1.8-0.2c0.6-0.1 1.1-0.4 1.7-0.6 1.2-0.4 2.4-0.6 3.5-1.1q1.6-1 3.3-1.8c1.2-0.4 2-1.6 3-2.2 2.2-1.3 3.7-3.8 5.7-5.6 0.8-1.1 1.5-2.4 2.3-3.6 0.7-1.2 1.6-2.3 2.1-3.8 5.2-10.7 6.9-24.5 6.1-38.5l-1-10.6-2.1-10.5c-0.5-3.5-1.9-7-2.9-10.5-1.1-3.6-1.9-7.1-3.4-10.6-10.5-28.2-25.9-55.8-43.2-82-17.2-26.3-36.4-52.1-56.5-75.8-4.2-5-5.2-11.7-3.2-17.5l0.1-0.2c17-48.2 33.4-96.9 42.9-147.1l4-18.8c1.5-6.2 2-12.5 3.1-18.8l5.5-37.9c2-25.4 4.9-50.7 4.7-76.2 0.9-50.9-3.2-101.8-13-151.6-9.8-49.9-25.4-98.5-46.1-144.7-2.5-5.9-5.5-11.4-8.2-17.1-2.8-5.7-5.5-11.4-8.6-16.9l-4.5-8.3-2.3-4.2c-0.6-0.8-0.9-1.2-1.2-1.9-1.7-2.1-3.9-3.4-6.5-4-2.6-0.7-5.6-0.4-8 0.7-2.4 1.1-4.3 2.7-5.6 5.1-0.3 0.8-0.5 1.1-1 2.2l-1.6 4.7-3.4 9.2-6.8 18.5c-18.7 49.1-39 97.8-63.2 145-6.2 11.8-12.4 23.5-19.3 35.1-3.3 5.8-6.9 11.4-10.4 17.2l-10.5 16.5c-13.9 21.9-27.7 43.9-41.3 66-27.2 44.2-54.1 88.8-79.6 133.6-4.7 8.2-15 11.2-23.4 6.9-35.1-18.1-74.3-30.5-113.8-40.7-39.7-10.1-80.3-17.8-121.2-24-81.6-12.5-164.3-18.7-246.9-18.7-82.6 0-165.3 6.2-246.9 18.7-40.9 6.2-81.5 13.9-121.2 24-39.5 10.2-78.7 22.6-113.8 40.7-8.4 4.4-18.7 1.2-23.4-6.9-25.5-44.8-52.4-89.4-79.6-133.6-13.6-22.1-27.4-44.1-41.3-66l-10.5-16.5c-3.5-5.8-7.1-11.4-10.4-17.2-6.9-11.6-13.1-23.3-19.3-35.1-24.2-47.2-44.5-95.9-63.2-145l-6.8-18.5-3.4-9.2-1.6-4.7c-0.5-1.1-0.7-1.4-1-2.2-1.3-2.4-3.2-4-5.6-5.1-2.4-1.1-5.4-1.4-8-0.7-2.6 0.6-4.8 1.9-6.5 4-0.3 0.7-0.6 1.1-1.2 1.9l-2.3 4.2-4.5 8.3c-3.1 5.5-5.8 11.2-8.6 16.9-2.7 5.7-5.8 11.2-8.2 17.1-20.7 46.2-36.3 94.8-46.1 144.7-9.8 49.8-13.9 100.7-13 151.6-0.2 25.5 2.7 50.8 4.7 76.2l5.5 37.9c1.1 6.3 1.6 12.6 3.1 18.8l4 18.8c9.5 50.2 25.9 98.9 42.9 147.1l0.1 0.2c2.2 6.2 0.7 12.8-3.2 17.5-20.1 23.7-39.3 49.5-56.5 75.8-17.3 26.2-32.7 53.8-43.2 82-1.5 3.5-2.3 7-3.4 10.6-1 3.5-2.4 7-2.9 10.5l-2.1 10.5-1 10.6c-0.8 14 0.9 27.8 6.1 38.5 0.5 1.5 1.4 2.6 2.1 3.8 0.8 1.2 1.5 2.5 2.3 3.6 2 1.8 3.5 4.3 5.7 5.6 1 0.6 1.8 1.8 3 2.2q1.7 0.8 3.3 1.8c1.1 0.5 2.3 0.7 3.5 1.1 0.6 0.2 1.1 0.5 1.7 0.6l1.8 0.2c9.7 1.7 20.5-3.1 29-11.2l0.1-0.1c7.1-6.7 18.2-6.4 24.8 0.6 5.7 5.9 6.3 14.7 2.2 21.3-3.9 6.4-8.1 13.6-12 20.6-3.9 7.1-7.7 14.3-11.4 21.5-3.7 7.3-7.2 14.7-10.8 22l-10 22.3c-13.1 30-24.2 60.8-34 92l-7 23.5-6 23.7-3.1 11.9-2.5 11.9-5 24c-5.5 32.2-10.1 64.5-11.7 97.1-2.5 32.5-1.8 65 1.4 96.9 3.4 31.9 10.2 63.4 21.9 92.1 5.9 14.4 13.2 27.9 22.2 39.6 8.9 11.6 19.4 21.8 31.2 27.2 11.6 5.9 23.7 6.6 35 2.8 11.3-4 21.6-13.1 29.8-24.6h0.1c6.1-7.8 17.4-9.1 25.2-3 2.8 2.2 4.8 5.2 5.9 8.4l0.1 0.3c3.5 10.6 7.7 22.1 12.3 33 2.1 5.6 4.6 11 6.9 16.5l7.4 16.3c10.1 21.5 21.8 42.3 34.6 62 12.8 19.7 27 38.4 43.1 54.8 2 2.1 3.9 4.3 5.9 6.3l6.3 5.8 6.3 5.8 3.2 2.9 3.4 2.5 13.4 10.4c4.7 3.3 9.7 6.7 14.6 9.8 19.8 12.8 40.4 24.3 61.8 33.4 21.3 9.1 43.5 16.3 65.2 19.1 21.6 2.7 43.2 0.9 57.8-9.6 14.7-10.2 24-26.9 39.3-49.8 1.1-1.7 3.3-2.1 4.9-1 0.6 0.4 1.1 0.9 1.3 1.5 5.7 13.2 6.1 27.6 2.4 41.9-0.9 3.6-2.5 7-3.9 10.5-1.6 3.5-3.7 6.7-5.7 10-4.6 6.3-10.1 12-16.4 16.7-12.6 9.5-27.3 15.4-41.7 17.9-14.4 2.8-28.6 2.8-42.2 1.6-13.7-1.3-26.9-3.9-39.8-7.3-12.8-3.5-25.2-7.9-37.3-12.8-12.1-4.9-23.9-10.4-35.4-16.4-11.5-6-22.8-12.3-33.6-19.3-5.5-3.4-10.8-7-16.1-10.8l-16-12.2-3.9-3-3.7-3.4-7.3-6.7-7.3-6.7c-2.4-2.3-4.6-4.8-6.9-7.2-18.4-18.9-33.6-40.3-47.3-62.1-13.7-21.9-25.2-44.9-35.2-68.4l-7.1-17.9c-2.1-6-4.4-11.9-6.4-18q-3.1-9.1-5.8-18.3c-1.8-6.2-3.4-12.2-5-19l31.2 5.7v0.1c-5.8 7.6-11.9 15.3-19.9 21.7-7.8 6.4-16.7 12.1-26.8 15.6-10.1 3.5-21.1 5-31.8 4.2-10.8-0.7-21-4-30.2-8.5-4.7-2.1-8.8-4.8-13.1-7.5-2-1.4-3.9-2.9-5.9-4.4-2-1.5-3.8-3-5.6-4.7l-5.3-4.9-4.9-5.2c-3.3-3.4-6.1-7.1-9-10.8-11.3-14.8-19.8-30.9-26.6-47.4-13.5-33-20.7-67.4-24.4-101.7-3.5-34.4-4.1-68.9-1.5-102.8 1.6-34.1 6.5-67.8 12.2-101.4l5.2-25 2.6-12.5 3.2-12.3 6.3-24.7 7.3-24.4c10.1-32.5 21.7-64.5 35.3-95.6l10.5-23.3c3.7-7.6 7.3-15.3 11.2-22.9 3.9-7.6 7.8-15.2 12-22.7 4.2-7.5 8.3-14.7 13.2-22.6l27.1 21.9c-7.5 6.9-15.8 13.5-26.1 17.2l-3.8 1.5-4 1c-2.6 0.6-5.3 1.3-8 1.6q-4.2 0.3-8.4 0.5c-2.8 0.2-5.6-0.4-8.4-0.7l-4.1-0.6c-1.4-0.2-2.7-0.7-4.1-1.1-2.7-0.9-5.4-1.6-8-2.8q-3.7-1.9-7.4-3.9c-2.5-1.2-4.5-3.2-6.7-4.8-4.6-3.3-7.9-7.5-11.5-11.5-1.6-2.1-2.9-4.4-4.3-6.6-1.4-2.2-2.9-4.4-3.8-6.7-8.8-18.6-10.6-38-9.6-56.1 0.4-4.5 0.7-9 1.2-13.5l2.7-13.3c0.7-4.5 2.2-8.5 3.4-12.8 1.4-4.1 2.4-8.5 4.1-12.4 12.1-32.4 28.6-61.6 46.8-89.3 9-13.9 18.6-27.3 28.4-40.6 9.9-13.3 20-26 31-38.9l-3.2 17.7c-17.7-49.9-34.5-100.3-44.5-152.5l-4.1-19.5c-1.6-6.4-2.1-13.1-3.2-19.6l-5.8-39.5c-2.1-26.5-5.1-53-4.9-79.6-0.9-53.2 3.4-106.7 13.7-159 10.3-52.4 26.6-103.6 48.6-152.4 2.5-6.2 5.7-12.1 8.6-18.1 2.9-6 5.9-12.1 9.2-17.9l4.8-8.9 2.4-4.4c1.1-1.9 2.7-4.2 4.1-6.2 6.4-8.2 15.8-14.1 25.9-16.5 10.1-2.4 20.7-1.5 30.2 2.7 9.4 4.2 17.7 11.7 22.5 20.9 1 2.2 2.2 4.9 2.9 6.8l1.7 4.5 3.3 9.1 6.7 18.2c18.3 48.2 38.2 95.8 61.5 141.2 5.9 11.4 11.9 22.6 18.4 33.5 3.1 5.5 6.5 10.8 9.8 16.1l10.4 16.5c14 22.1 27.9 44.2 41.6 66.4 27.4 44.5 54.3 89.2 80.3 134.8l-23.4-6.9c39.3-20.1 80.3-33 121.5-43.6 41.2-10.5 82.8-18.3 124.5-24.7 83.4-12.7 167.8-19.1 252.2-19.1 84.4 0 168.8 6.4 252.2 19.1 41.7 6.4 83.3 14.2 124.5 24.7 41.2 10.6 82.2 23.5 121.5 43.6l-23.4 6.9c26-45.6 52.9-90.3 80.3-134.8 13.7-22.2 27.6-44.3 41.6-66.4l10.4-16.5c3.3-5.3 6.7-10.6 9.8-16.1 6.5-10.9 12.5-22.1 18.4-33.5 23.3-45.4 43.2-93 61.5-141.2l6.7-18.2 3.3-9.1 1.7-4.5c0.7-1.9 1.9-4.6 2.9-6.8 4.8-9.2 13.1-16.7 22.5-20.9 9.5-4.2 20.1-5.1 30.2-2.7 10.1 2.4 19.5 8.3 25.9 16.5 1.4 2 3 4.3 4.1 6.2l2.4 4.4 4.8 8.9c3.3 5.8 6.3 11.9 9.2 17.9 2.9 6 6.1 11.9 8.6 18.1 22 48.8 38.3 100 48.6 152.4 10.3 52.3 14.6 105.8 13.7 159 0.2 26.6-2.8 53.1-4.9 79.6l-5.8 39.5c-1.1 6.5-1.6 13.2-3.2 19.6l-4.1 19.5c-10 52.2-26.8 102.6-44.5 152.5l-3.2-17.7c11 12.9 21.1 25.6 31 38.9 9.8 13.3 19.4 26.7 28.4 40.6 18.2 27.7 34.7 56.9 46.8 89.3 1.7 3.9 2.7 8.3 4.1 12.4 1.2 4.3 2.7 8.3 3.4 12.8l2.7 13.3c0.5 4.5 0.8 9 1.2 13.5 1 18.1-0.8 37.5-9.6 56.1-0.9 2.3-2.4 4.5-3.8 6.7-1.4 2.2-2.7 4.5-4.3 6.6-3.7 4-6.9 8.2-11.5 11.5-2.2 1.6-4.2 3.6-6.7 4.8q-3.7 2-7.4 3.9c-2.6 1.2-5.3 1.9-8 2.8-1.4 0.4-2.7 0.9-4.1 1.1l-4.1 0.6c-2.8 0.3-5.6 0.9-8.4 0.7q-4.2-0.2-8.4-0.5c-2.7-0.3-5.4-1-8-1.6l-4-1-3.8-1.5c-10.3-3.7-18.6-10.3-26.1-17.2l27.1-21.9c4.9 7.9 9 15.1 13.2 22.6 4.2 7.5 8.1 15.1 12 22.7 3.9 7.6 7.5 15.3 11.2 22.9l10.5 23.3c13.6 31.2 25.2 63.1 35.3 95.6l7.3 24.4 6.3 24.7 3.2 12.4 2.6 12.5 5.2 24.9c5.7 33.6 10.6 67.4 12.2 101.4 2.6 34 2 68.5-1.5 102.8-3.7 34.3-10.9 68.8-24.4 101.8-6.8 16.5-15.3 32.6-26.7 47.4-11.3 14.6-25.2 28.6-43.8 37.5-9.1 4.4-19.4 7.7-30.1 8.4-10.8 0.8-21.8-0.7-31.9-4.2-10.1-3.5-19-9.3-26.8-15.7-7.9-6.4-14-14-19.8-21.7l31.2-5.7c-1.6 6.8-3.1 12.8-5 19-1.7 6.2-3.6 12.3-5.6 18.4-2 6.1-4.3 12-6.4 18l-7 17.9c-10 23.5-21.4 46.6-35.1 68.6-13.7 21.9-28.8 43.3-47.3 62.2-2.3 2.4-4.5 4.9-6.8 7.2l-7.4 6.8-7.3 6.7-3.7 3.4-3.9 3.1-16 12.2c-5.3 3.8-10.6 7.4-16.1 10.8-21.9 13.7-44.8 25.9-69.1 35.8-24.2 9.9-49.8 17.4-77.3 20.1-13.7 1.2-28 1.1-42.5-1.6-14.3-2.7-29.4-8.4-41.7-18.3-6.2-4.9-11.3-11-15.6-17.4-1.9-3.4-3.9-6.7-5.3-10.2-1.3-3.5-2.9-6.9-3.6-10.4-3.7-14.2-3.3-28.3 0.6-41.3 0.6-2.1 2.8-3.2 4.8-2.6 1 0.3 1.8 1 2.2 1.8z"/><ellipse class="b" cx="1094" cy="1174.4" rx="681.6" ry="498.7"/><ellipse class="g" cx="581.4" cy="1223.3" rx="102.2" ry="66.4"/><ellipse class="g" cx="1606.6" cy="1223.3" rx="102.2" ry="66.4"/><g style="opacity:.3"><path class="a" d="m1775.6 1174.4q0 13.8-1 27.5c-15-202-194.3-372-441.8-439.7 1.6 43.5-14.4 92.1-94.5 90.7-91.6-1.7-150.5-57.5-181.3-98.1 18.7 60.7-40.3 119.3-130.6 97.6-59.5-14.3-101.7-46-128.2-72.4-217.6 76.8-371 235.8-384.8 421.9q-1-13.7-1-27.5c0-188.2 142.4-352 352.7-436.9 47.9-22.1 100.8-36.3 153.8-45.2 55.9-10.8 114.6-16.6 175.1-16.6 61 0 120.2 5.9 176.4 16.9q0.8 0.1 1.1 0.2l47.4 2.8q1.3 3.2 3.1 8.7c264.3 68.6 453.6 253.2 453.6 470.1z"/></g><path class="a" d="m787.4 1161.8c-9.4 0.5-18.6-0.4-27.6-2.4-21.4-44.1-54.6-58.9-79.9-63.3-11.4-20.4-18.4-44.5-19.6-70.5-3.6-78.2 47.6-144.1 114.2-147.1 66.6-3.1 123.5 57.9 127.1 136.1 3.5 78.3-47.6 144.2-114.2 147.2z"/><path class="a" d="m643.8 1093.1c7-5.9 14.9-9.3 23.2-11.6 4.2-1.1 8.5-1.8 12.8-2.4 4.3-0.2 8.8-0.6 13.1-0.1 8.8 0.5 17.7 2.5 26.1 5.8 4.2 1.7 8.4 3.5 12.4 5.7 3.8 2.5 7.6 5.1 11.3 7.7 3.7 2.7 6.7 6.1 10 9.2 1.6 1.6 3.4 3 4.7 4.8l4 5.3q2.1 2.7 3.9 5.4c1.3 1.9 2.6 3.7 3.5 5.6 2 3.9 3.9 7.8 5.6 11.7 1.9 3.9 3 8 4.1 12.1q1.6 6.1 2.8 12.2c0.9 8.3 1.1 16.6 0.2 24.8-0.6 5.9-5.9 10.2-11.8 9.6-2.6-0.3-4.9-1.5-6.6-3.3l-1.1-1.1c-5.5-5.7-9.6-11.5-13.6-17q-3.4-4-6.3-7.9c-2-2.6-3.7-5.3-6-7.5-2.1-2.4-4-4.7-5.9-7.1-1.8-2.5-4.2-4.2-6.1-6.5l-2.9-3.2c-1-1.1-2.1-1.9-3.1-2.9-2.2-1.8-4.1-3.9-6.3-5.8-8.5-7.2-17.8-13.3-28.6-19.6-10.8-6.4-23.3-12-38.3-18.7l-0.4-0.2c-1.5-0.7-2.2-2.4-1.5-4q0.3-0.6 0.8-1z"/><path class="a" d="m1286.4 1014.6c3.5-78.2 60.5-139.2 127.1-136.1 66.6 3 117.7 68.9 114.1 147.1-1.1 26-8.1 50.1-19.5 70.5-25.3 4.4-58.5 19.2-79.9 63.3-9 2-18.2 2.9-27.7 2.4-66.6-3-117.7-68.9-114.1-147.2z"/><path class="a" d="m1543.1 1098.3c-15 6.7-27.5 12.3-38.3 18.7-10.9 6.3-20.1 12.4-28.6 19.6-2.2 1.9-4.1 4-6.3 5.8-1 1-2.1 1.8-3.1 2.9l-2.9 3.2c-1.9 2.3-4.3 4-6.1 6.5-1.9 2.4-3.8 4.7-5.9 7.1-2.3 2.2-4 4.9-6 7.5q-2.9 3.9-6.3 7.9c-4 5.5-8.1 11.3-13.6 17l-1.1 1.1c-4.1 4.3-10.9 4.5-15.2 0.3-1.9-1.8-3-4.2-3.2-6.6-0.9-8.2-0.7-16.5 0.2-24.8q1.2-6.1 2.8-12.2c1.1-4.1 2.2-8.2 4.1-12.1 1.7-3.9 3.6-7.8 5.6-11.7 0.9-1.9 2.2-3.7 3.5-5.6q1.8-2.7 3.9-5.4l4-5.3c1.3-1.8 3.1-3.2 4.7-4.8 3.3-3.1 6.3-6.5 10-9.2 3.7-2.6 7.5-5.2 11.3-7.7 4-2.2 8.2-4 12.4-5.7 8.4-3.3 17.3-5.3 26.1-5.8 4.3-0.5 8.8-0.1 13.1 0.1 4.3 0.6 8.6 1.3 12.8 2.4 8.3 2.3 16.2 5.7 23.2 11.6 1.3 1 1.4 2.9 0.4 4.2q-0.5 0.6-1.1 0.8z"/><path fill-rule="evenodd" class="a" d="m1094 1692.5c-186.2 0-361.4-53.2-493.4-149.8-133.9-98-207.6-228.8-207.6-368.3 0-139.6 73.7-270.4 207.6-368.3 132-96.6 307.2-149.8 493.4-149.8 186.2 0 361.4 53.2 493.5 149.8 133.8 97.9 207.5 228.7 207.5 368.3 0 139.5-73.7 270.3-207.5 368.3-132.1 96.6-307.3 149.8-493.5 149.8zm0-997.4c-365.2 0-662.2 215-662.2 479.3 0 264.3 297 479.3 662.2 479.3 365.2 0 662.2-215 662.2-479.3 0-264.3-297-479.3-662.2-479.3z"/><path class="h" d="m1242.3 632.3q98 158.6-8.9 164-107 5.3-229.1-115c89.2 146.2-52.5 128.3-107.8 102.5q-55.2-25.8-90-90 199.6-172.9 435.8-61.5z"/><g style="opacity:.3"><path class="a" d="m839.8 745.2c-25.5-25.5-36.5-54.6-40.6-79.7-2.2-13 14.6-20.1 22.3-9.4 10 13.7 24.5 29.5 45.9 46.7q95.1 76.5 163.7 32.3c16.6 97.4-131 70.4-191.3 10.1z"/></g><g style="opacity:.3"><path class="a" d="m1179.9 790c-60.6-9.8-137.2-70.4-175.6-108.7-18.3-18.3-20.5-39.3-17.8-56.2 2.5-16 21.6-23.2 34.1-12.8 31 25.6 89.5 71.1 145.9 99.3q82 41 107.3-12.4c31.6 66.8-33.3 100.6-93.9 90.8z"/></g><path class="a" d="m810.9 691.4c24.6 20.4 44.8 41.9 67.2 59.1 2.9 2.1 5.8 3.9 8.7 5.9 2.9 1.8 5.9 3.4 8.8 5.2l9.1 4.3q4.6 1.9 9.5 3.6c13.2 4.5 27.3 7.8 41.1 9.4 13.8 1.5 27.6 1.5 38.6-1.2 5.4-1.3 9.6-3.5 12.1-5.6 2.5-2.2 3.8-4.3 4.8-8 1-3.7 0.7-9.2 0-14.9-0.6-3-0.9-6-2-9.1l-1.3-4.8-1.7-4.8c-4.5-12.9-11-26-18-39.1l-1-1.9c-5-9.4-1.5-21 7.9-26 7.9-4.2 17.5-2.3 23.3 4 6.3 5.9 13.8 12.1 20.9 18q10.8 9 22 17.4c15 11.3 30.5 21.6 46.2 31.4 31.6 19.1 65.2 35 99.3 40.6 8.5 1.3 16.9 1.9 25.3 1.8 7.8-0.3 15.1-1.5 20.2-4 5-2.5 8.1-5.4 10.5-10.6 2.3-5.2 3.2-12.7 2.8-20.6-0.3-8.1-1.8-16.6-4-25.2-2.1-8.6-5.1-17.3-7.8-26-5.7-17.6-11.9-35.6-16.6-54.6v-0.3c-0.9-3.6 1.3-7.2 4.8-8 2.2-0.6 4.5 0.1 6.1 1.5 15.2 14.2 26.4 31 35.4 49.3 4.5 9.2 8.1 18.8 11.1 28.8 3.1 10.1 5.5 20.6 6.6 31.9 0.9 11.2 0.8 23.6-3.8 36.6-2.6 6.4-5.9 12.9-10.9 18.3l-3.7 4-4.2 3.4c-2.8 2.3-5.9 4-8.9 5.6-12.2 6.3-24.5 8.2-35.9 9.1-11.1 0.5-22 0-32.7-1.3-21.4-2.9-41.7-9.1-60.7-16.9-19.3-7.7-37.2-17.5-54.5-27.9-17.3-10.5-33.6-22.3-49.4-34.7q-11.8-9.3-23.1-19.1c-7.7-6.7-14.7-13.3-22.3-20.9l30.2-23.9c9.1 13.7 17.5 28.2 24.1 44.5l2.5 6.1 2 6.5c1.5 4.3 2.5 9 3.4 13.7 1.7 9.6 2.5 20 0 31.7-2.4 11.5-9.3 23.6-18.9 31.5-9.5 7.9-20 12-29.7 14.3-19.6 4.4-37.6 3.6-54.7 1-17.1-2.7-33.4-7.1-49.6-13.5q-6-2.5-12-5.5c-3.9-2.2-7.9-4.3-11.7-6.6-3.7-2.4-7.4-4.8-10.9-7.3-3.4-2.7-7-5.3-10.2-8-13.2-11.1-24.8-23.4-33.8-37.5-4.6-6.9-8.5-14.2-11.8-21.9-3.3-7.6-6-15.4-7.5-24-0.4-2.9 1.5-5.6 4.4-6.1 1.5-0.3 3 0.2 4.2 1.1z"/><path class="a" d="m1407 1399.2q-63 145-313 145-250.1 0-313.1-145c-28.1-64.8-19.8-113.5-2.2-147.3 18-34.8 59.6-48.8 95.6-35.3q3.9 1.5 7.7 3.3c35.9 18 73.2 30.2 106.2 38.5 13.9 3.5 27 6.3 39 8.5 22.1 4.2 44.4 6.2 66.8 6.2 22.3 0 44.7-2 66.8-6.2 12-2.2 25.1-5 39-8.5 33-8.3 70.2-20.5 106.2-38.5q3.7-1.8 7.6-3.3c36.1-13.5 77.7 0.5 95.7 35.3 17.5 33.8 25.9 82.5-2.3 147.3z"/><path class="i" d="m1296.7 1501.8q-92.8 46.9-202.7 42.3-109.9 4.6-202.7-42.3 15-98.7 71.2-128.1c56.1-29.4 131.5 9.8 131.5 41.9 0-32.1 75.4-71.3 131.5-41.9q56.2 29.4 71.2 128.1z"/><path class="c" d="m1340.4 1477.1q-205.3 161.1-492.8 0 9.8-27.9 35.3-40.7c9.9-5.1 22.2-7.8 37.2-5.7 20.3 2.9 31.6 20.6 37.9 40.1 5.4 16.5 7.2 34.2 7.7 45.3q0 0.1 0 0.1 0.4 6.8 0.3 11.1 1-4.1 3.2-10.3c4.3-12.3 13.3-33.1 28.1-47.3 9.8-9.4 22.1-15.9 37.3-15.4 22.5 0.8 36.7 10.6 45.4 24.7q0 0.1 0.1 0.1c6.9 11.1 10.5 24.7 12.4 38.6 0 0 0 0 0 0.1 1.1 8.9 1.5 17.9 1.5 26.4 0-6.6 0.2-13.6 0.9-20.5 1.3-14.9 4.6-29.9 11.5-42.1 8.7-15.5 23.1-26.5 46.9-27.3 14.9-0.5 26.8 5.7 36.5 14.6q0 0 0 0.1c0.2 0.1 0.4 0.2 0.5 0.4 0.4 0.4 0.9 0.9 1.6 1.6 2.9 2.9 5.5 5.9 7.9 9.2 0.1 0.1 0.3 0.3 0.4 0.4 7.1 9.7 12.4 20.5 15.8 29.2 0 0.1 0.1 0.2 0.1 0.2q4 10 5.8 17.3-0.2-8.2 0.9-19.8 0.1-0.7 0.2-2c1.4-13.7 4.5-31.5 11.5-46.4 6.8-14.5 17.2-26.1 33.4-28.4 12.4-1.8 23-0.2 31.9 3.3q29.4 11.4 40.6 43.1z"/><g style="opacity:.3"><path class="a" d="m1299.8 1434q15.5 35.9-16.6 45.3c-28.3 8.2-45.2-14.7-48.7-20.2q-0.5-0.7-0.7-1.1c-7.9 17.4-10.3 40.6-10.8 47.5q-0.1 1.3-0.2 2l-6.7 2.5c0 0-0.1-0.1-0.1-0.2-2.7-10.8-9.7-21.5-15.8-29.2-0.1-0.1-0.3-0.3-0.4-0.4-4.3-5.5-8.1-9.4-9.5-10.8q-0.3-0.3-0.5-0.4 0-0.1 0-0.1c0 12.8-2.4 44.7-35.3 44.7q-33 0-48.1-32l-11.5 42.1-0.9 3.2q-0.6-4.6-1.5-9.1c0-0.1 0-0.1 0-0.1-4-19.7-11.7-37-12.4-38.6q-0.1 0-0.1-0.1c0 15.8-13.7 38.1-44.9 33.7q-31.2-4.5-37.8-43-17.8 43.9-28.1 47.3c-1.2 0.4-2.4 0.2-3.4-0.8h-0.1q0 0 0-0.1c-8.7-9-7.7-43.7-7.7-45.3q-19.6 23.6-50.4 16.3-30.7-7.4-24.7-50.7-25.5 12.8-35.3 40.7 287.5 161.1 492.8 0-11.2-31.7-40.6-43.1z"/></g><path class="a" d="m1094 1556.7c-6.9 0-12.5-5.6-12.5-12.5 0-67.9-27-76.7-47.3-77.4-38.6-1.3-55.9 62.9-56 63.5-1.6 6.2-7.5 10.2-13.8 9.4-6.3-0.8-11-6.3-10.8-12.7 0-0.7 0.5-78.8-35.2-83.9-42.5-6-58.4 36.5-59.1 38.3-2.3 6.4-9.4 9.8-15.9 7.5-6.5-2.3-9.9-9.4-7.6-15.9 7.8-22 35.8-61.8 86.1-54.7 31 4.4 45.1 34.1 51.5 61.4 12.7-20 32.5-39 61.7-37.9 21.1 0.8 44.8 8.9 58.9 36.9 14.1-28 37.8-36.1 58.9-36.9 29.2-1 49 17.9 61.7 37.9 6.4-27.3 20.5-57 51.5-61.4 50.3-7.1 78.3 32.7 86.1 54.7 2.3 6.5-1.1 13.7-7.6 16-6.5 2.2-13.6-1.1-15.9-7.6-0.7-1.9-16.7-44.3-59.1-38.3-35.7 5.1-35.2 83.2-35.2 84 0.2 6.3-4.5 11.8-10.8 12.6-6.3 0.8-12.3-3.2-13.8-9.4-0.1-0.6-16.5-64.9-56-63.5-20.3 0.7-47.3 9.5-47.3 77.4 0 6.9-5.6 12.5-12.5 12.5z"/><path class="c" d="m1318.9 1264.9c-1 24.4-9.3 50.5-37.7 58.4-36.6 10.2-59.5-18.8-71.4-41.3-5.3-9.9-8.4-18.5-9.6-22 1 3.6 3.4 12.6 4.3 23.7 2.3 25.9-2.7 63.2-48.5 68.6-42.4 5-56-28.1-60.2-53.1-1.2-6.7-1.7-13-1.8-17.6-0.2 4.9-0.7 11.5-2 18.7-4.4 24.8-18.2 56.9-60.1 52-48.6-5.8-51.2-47.4-48-73.2 1.1-9 3-16 3.8-19.1-1.1 3.4-4.1 11.7-9.1 21.3-11.8 22.6-34.9 52.3-71.9 42-36.5-10.2-39.7-50.5-37.2-78.6q1.5-16.1 4.8-28.1 3.9 1.5 7.7 3.3c35.9 18 73.2 30.2 106.2 38.5 13.9 3.5 27 6.3 39 8.5 22.1 4.2 44.4 6.2 66.8 6.2 22.3 0 44.7-2 66.8-6.2 12-2.2 25.1-5 39-8.5 33-8.3 70.2-20.5 106.2-38.5q3.7-1.8 7.6-3.3 6.4 23.3 5.3 48.3z"/><g style="opacity:.3"><path class="a" d="m976.3 1282.3l2.3-1c-11.8 22.6-34.9 52.3-71.9 42-36.5-10.2-39.7-50.5-37.2-78.6 4.2 13.3 29.6 81 106.8 37.6z"/></g><g style="opacity:.3"><path class="a" d="m1090.1 1300.8l1.9-0.5c-4.4 24.8-18.2 56.9-60.1 52-48.6-5.8-51.2-47.4-48-73.2l2.4-1q15.8 39 43.5 45.2 27.5 6.3 60.3-22.5z"/></g><g style="opacity:.3"><path class="a" d="m1204.5 1283.7c2.3 25.9-2.7 63.2-48.5 68.6-42.4 5-56-28.1-60.2-53.1l7-1.9q21.8 29.6 50.6 29.6 28.7 0 43-40.6z"/></g><g style="opacity:.3"><path class="a" d="m1318.9 1264.9c-1 24.4-9.3 50.5-37.7 58.4-36.6 10.2-59.5-18.8-71.4-41.3l4.2-1.3q34.5 23.8 60.9 19 26.5-4.7 36.6-49.6 3.1 5.9 7.4 14.8z"/></g><path class="a" d="m1040.4 1365.3q-4.8 0-9.9-0.6c-22.2-2.6-38.7-12-48.9-28-4.8-7.4-7.7-15.6-9.3-23.9-16.5 18.3-39.5 30.8-68.9 22.6-68.7-19.2-42.3-117.9-41.1-122.1 1.8-6.6 8.7-10.6 15.4-8.7 6.6 1.8 10.5 8.7 8.7 15.4-0.2 0.7-21 78.8 23.7 91.3 43.1 12 63.6-48.4 66-55.8q0.2-0.7 0.3-0.9c2.1-6.5 9-10.1 15.6-8.1 6.5 2 10.2 8.9 8.3 15.5q-0.3 0.8-0.6 1.7c-3.4 11.8-8.6 41.6 3 59.6 6.1 9.4 16.1 14.9 30.7 16.6 13.2 1.6 23.3-1.1 30.9-8.2 12.9-12.1 16.6-35.5 17.2-49.8-0.2-5.4 0-8.9 0-9.5 0.4-6.6 5.9-11.8 12.5-11.8 6.6 0 12.1 5.2 12.5 11.8 0 0.6 0.2 4.1 0 9.6 0.6 14.2 4.3 37.6 17.2 49.7 7.6 7.1 17.7 9.8 30.9 8.2 14.6-1.7 24.7-7.2 30.7-16.6 11.6-18 6.5-47.5 3-59.4q-0.3-0.9-0.6-1.9c-1.9-6.6 1.8-13.5 8.3-15.5 6.6-2 13.5 1.6 15.6 8.1q0.1 0.2 0.3 0.9c2.4 7.4 22.9 67.9 66 55.8 44.7-12.5 23.9-90.6 23.7-91.4-1.8-6.6 2.1-13.5 8.8-15.3 6.6-1.8 13.5 2.1 15.3 8.7 1.2 4.2 27.6 102.9-41.1 122.1-29.4 8.2-52.5-4.3-68.9-22.6-1.6 8.3-4.5 16.5-9.3 23.9-10.2 16-26.7 25.4-48.9 28-20.7 2.5-37.8-2.5-50.9-14.8-5.2-4.9-9.3-10.6-12.6-16.6-3.3 6-7.4 11.7-12.6 16.6-10.9 10.2-24.7 15.4-41 15.4z"/><path fill-rule="evenodd" class="a" d="m1094 1561.7c-10.7 0-262.3-1.8-329.1-155.5-32.4-74.6-18.8-129.4-1.7-162.3 23.3-45 80.1-62.8 126.6-39.6 50.8 25.3 104.5 38.7 140.6 45.5 42.2 7.8 85 7.8 127.2 0 36.1-6.8 89.8-20.2 140.6-45.5 46.5-23.2 103.3-5.4 126.6 39.6 17.1 32.9 30.7 87.7-1.7 162.3-66.8 153.7-318.4 155.5-329.1 155.5zm-247.5-332.6c-21.5 0-42.1 11.2-52.3 30.9-19.7 38-18.8 82.5 2.8 132.3 57.6 132.5 294.1 134.4 297 134.4 2.9 0 239.4-1.9 297-134.4 21.6-49.8 22.5-94.3 2.8-132.3-14.6-28.2-50.5-39.1-80-24.4-54.4 27.2-111.5 41.4-149.8 48.6-46.4 8.6-93.6 8.6-140 0-38.3-7.2-95.4-21.4-149.8-48.6-8.9-4.4-18.4-6.5-27.7-6.5z"/><path class="a" d="m1486.2 1045.6c-20 72.6-80 118.8-134.2 103-54.2-15.8-81.9-87.5-62-160.2 19.9-72.7 80-118.8 134.2-103 54.2 15.8 81.9 87.5 62 160.2z"/><path class="c" d="m1456.5 956.5c4.2 25.9-7.5 49.7-26.2 53.1-18.6 3.4-37.1-14.8-41.3-40.8-4.2-25.9 7.5-49.7 26.2-53.1 18.6-3.4 37.2 14.8 41.3 40.8z"/><path class="j" d="m1355.8 1079.5c5.2 12.9 1.9 26.6-7.4 30.7-9.2 4.1-20.9-3-26.1-15.8-5.1-12.8-1.8-26.5 7.4-30.6 9.3-4.1 21 2.9 26.1 15.7z"/><path class="a" d="m767 885.4c54.2-15.8 114.2 30.3 134.2 103 19.9 72.7-7.8 144.4-62 160.2-54.2 15.8-114.3-30.4-134.2-103-19.9-72.7 7.8-144.4 62-160.2z"/><path class="c" d="m776 915.7c18.7 3.4 30.4 27.2 26.2 53.1-4.2 26-22.7 44.2-41.4 40.8-18.6-3.4-30.4-27.2-26.2-53.1 4.2-26 22.7-44.2 41.4-40.8z"/><path class="j" d="m861.4 1063.8c9.3 4.1 12.6 17.8 7.4 30.6-5.1 12.8-16.8 19.9-26 15.8-9.3-4.1-12.6-17.8-7.4-30.7 5.1-12.8 16.8-19.8 26-15.7z"/></svg>