<svg version="1.2" xmlns="http://www.w3.org/2000/svg" viewBox="0 0 2820 3449" width="2820" height="3449"><defs><clipPath clipPathUnits="userSpaceOnUse" id="cp1"><path d="m2820 1758c0 778.72-631.28 1410-1410 1410-778.72 0-1410-631.28-1410-1410 0-778.72 631.28-1410 1410-1410 778.72 0 1410 631.28 1410 1410z"/></clipPath></defs><style>.a{fill:#0bcbff}.b{fill:#fff}.c{fill:#371a45}.d{fill:#ff1564}.e{fill:none;stroke:#293856;stroke-linecap:round;stroke-width:32.8}.f{fill:#293856}.g{fill:#22a7f0}.h{fill:#afafb2}.i{fill:#32b1d1}.j{fill:#111a28}</style><path class="a" d="m2820 1758c0 778.7-631.3 1410-1410 1410-778.7 0-1410-631.3-1410-1410 0-778.7 631.3-1410 1410-1410 778.7 0 1410 631.3 1410 1410z"/><g clip-path="url(#cp1)"><path class="b" d="m2196.9 1299.7c22.8-88.2 88.5-126.8 166.1-126.8 35.9 0 69.3 12.1 97.1 32.7 17.2-96.6 93.9-169.4 186.1-169.4 92 0 168.7 72.7 186 169.2 21.2-17 47.2-27 75.3-27 65 0 118.7 53.3 127.6 122.7 30.7-7.7 56.5-0.1 73 17.5 19.1 20.4 4.5 54.4-23.2 54.4h-832.8c-37.5 0-64.7-36.3-55.2-73.3z"/><path class="b" d="m511.8 2268h-779c-25.8 0-39.5-31.8-21.6-50.8 15.4-16.5 39.5-23.6 68.3-16.5 8.3-64.9 58.5-114.7 119.3-114.7 26.3 0 50.6 9.3 70.4 25.2 16.2-90.2 87.9-158.2 174-158.2 86.2 0 157.9 68.1 174 158.5 26-19.4 57.3-30.6 90.9-30.6 72.5 0 134 36.1 155.3 118.5 8.9 34.6-16.5 68.6-51.6 68.6z"/></g><path class="b" d="m1678.7 3049.3c-236.8-4.6-465.3-38.7-693.1-103.4-47.5-14.2-85.4-60.5-71.7-111.6q79-257.9 158-515.8c13.7-44.6 57.6-69.2 98.6-57 175 49.2 349.3 75.2 531 79.2 42.8 0.2 77.6 36.6 77.7 83.2q0.3 269.8 0.7 539.5c-1.8 52.9-51.6 86.1-101.2 85.9z"/><g style="opacity:.3"><path class="c" d="m1779.6 2776.7q0.2 93.3 0.3 186.7c-1.8 52.9-51.6 86.1-101.2 85.9-236.8-4.6-465.3-38.7-693.1-103.3-47.5-14.3-85.4-60.6-71.7-111.7q27.3-89.3 54.7-178.5c-13.7 44.6 15.5 94.7 65.8 109.7 213.7 60.7 428.1 92.7 650.3 97 52.4 0.3 95-39.2 94.9-85.8z"/></g><path fill-rule="evenodd" class="c" d="m1179.6 2230.1c172.4 48.4 343.3 73.9 522.3 77.8 29.8 0.3 57.6 12.6 78.3 34.6 20.4 21.7 31.7 50.6 31.7 81.4l0.1 38.6 0.7 500.9q0 0.5-0.1 1.1c-2.5 73.6-69.8 117.5-133.4 117.5h-0.6q-0.3 0-0.5 0c-240.5-4.7-470-38.9-701.4-104.6q-0.3 0-0.5-0.1c-61.2-18.4-113.1-80.1-94-151.5q0.2-0.6 0.3-1.1l158.1-515.8c15.3-49.8 58.9-83.2 108.6-83.2 10.3 0 20.5 1.4 30.4 4.4zm-107.7 88.4q-79 257.9-158 515.8c-13.7 51.1 24.2 97.4 71.7 111.6 227.8 64.7 456.3 98.8 693.1 103.4q0.3 0 0.5 0c49.4 0 98.9-33.2 100.7-85.9q-0.4-269.7-0.7-539.5c-0.1-46.6-34.9-83-77.7-83.2-181.7-4-356-30-531-79.2-7-2.1-14.2-3.1-21.3-3.1-34 0-66 23.2-77.3 60.1z"/><path class="b" d="m2214.3 2585.8c-4.1 14-14.1 27.9-22.4 37q-35.8 39.3-92.3 39.7 46.7 21 18.3 50.4c-19.6 20.2-248.3 52.5-393.1-129.6q-9.6-12.1-18.7-25.5l-34.6-190.5-21.4-118.1q17.1 14.2 44.8 35.8c13.3 10.3 28.9 22.3 46.3 35.3 88.2 65.6 220.7 155.9 306.1 174.9 32.6 7.3 60.3 12.3 83.4 16.7 73.3 14 99 21.4 83.6 73.9z"/><g style="opacity:.3"><path class="c" d="m2117.9 2712.9c-20.4 21.1-269 55.4-411.8-155.1l-56-308.6q1.9 1.6 5.5 4.6l16.8 112.2c96 296.5 433.2 368 439.2 313.1 0.3-3.2 3.7-5.8 0-9.4 11.5 8.5 24.8 24.1 6.3 43.2z"/></g><g style="opacity:.3"><path class="c" d="m2214.3 2585.8c-4.1 14-14.1 27.9-22.4 37-30.9 33.9-77.2 38.9-89.3 39.6q-19.4-13.6-50.2-26.3 85.3 2.7 139.5-46.1c9.2-8.2 18.3-23 22.4-37 0.6-2.1 1.2-4.2 1.6-6.1 4.1 9.3 3.5 21.7-1.6 38.9z"/></g><g style="opacity:.3"><path class="c" d="m2111.6 2669.7q-6.2-4.6-12-7.2 1.1 0 3-0.1c3.5 2.4 6.5 4.9 9 7.3z"/></g><path class="c" d="m2030.2 2745.2c-11.6 0-23.5-0.5-35.4-1.5-72.4-6.3-207.9-37.6-302.3-176.7-5.1-7.5-3.1-17.7 4.4-22.7 7.5-5.1 17.6-3.2 22.7 4.3 73.3 108 173.2 145.5 244 158 74.8 13.1 132.8 1.4 142.9-5.5 1.9-2 4.6-5.4 4.1-7.9-1-5.4-11.1-12.7-17.7-15.8-7-3.2-10.9-10.8-9.2-18.3 1.6-7.5 8.1-12.9 15.8-12.9 0.5-0.1 49.9-1.1 80.3-34.4 9.1-10 16.1-21.4 18.8-30.7 4.3-14.4 4.8-24 1.6-29.2-6.5-10.6-34.2-16.6-72.6-23.9l-11.3-2.1c-21-4-44.8-8.5-72.5-14.7-139.9-31.1-393.5-240.4-404.2-249.3-7-5.8-7.9-16.1-2.1-23.1 5.7-7 16-7.9 23-2.2 2.6 2.2 258.2 213.2 390.4 242.6 27.2 6.1 50.7 10.5 71.5 14.5l11.3 2.1c49.5 9.4 80.6 16.4 94.4 39 10.9 17.9 6.8 39.1 1.9 55.6-5.8 19.8-20.1 37-26 43.4-20.3 22.3-46 33.6-66.8 39.3 2.6 4.1 4.6 8.8 5.6 13.9 1.7 9 0.8 22.8-13.2 37.3-12.4 12.9-52.9 20.9-99.4 20.9z"/><path class="c" d="m966.8 1595c-8.4 0-15.6-6.4-16.3-14.9-8.8-99.9 22.9-150.4 50.9-194.9 26.9-42.8 50.1-79.7 33.8-157.8-18.6-89.5-27.4-123.7-27.5-124.1-2.3-8.7 2.9-17.6 11.7-19.9 8.7-2.3 17.7 2.9 20 11.7 0.3 1.4 9.1 35 27.9 125.6 18.9 91-10.1 137.2-38.2 181.9-26.4 42.1-53.8 85.7-46 174.6 0.8 9-5.9 17-14.9 17.8q-0.7 0-1.4 0z"/><path class="d" d="m1059.8 1076.8l40.9 79.3c12 23.3-1.8 51.9-27.6 56.5-8.6 1.5-18.6 2.7-30.3 3.3-17.1 0.9-31.5-0.4-43.3-2.8-25.2-5-39-32.3-27.9-55.4l38.9-80.9z"/><g style="opacity:.3"><path class="c" d="m968.5 1167.1c0.6-3.2 1.6-6.3 3.1-9.4l38.9-80.9h49.3l30.2 58.7c-0.1 18-12.6 34.8-31.9 38.2-8.6 1.5-18.6 2.7-30.3 3.4-17.1 0.9-31.5-0.4-43.3-2.8-6.1-1.2-11.5-3.7-16-7.2z"/></g><path fill-rule="evenodd" class="c" d="m1032.1 1233.6c-12.7 0-24.8-1.1-36.1-3.4-17.3-3.5-31.9-14.6-39.7-30.4-7.9-15.7-8-33.8-0.4-49.7l43.7-90.7h70.8l45.7 88.7c8.4 16.2 8.5 34.9 0.5 51.2-8 16.2-22.7 27.2-40.4 30.4-9.9 1.8-20.9 3-32.5 3.6q-5.9 0.3-11.6 0.3zm-10.6-139.3l-34.2 70.9c-2.9 6.1-2.9 13.1 0.1 19.1 3.1 6.1 8.7 10.4 15.5 11.8 11.8 2.3 25 3.2 38.9 2.4 10.3-0.5 19.8-1.6 28.3-3.1 6.6-1.2 12.2-5.4 15.3-11.5 3.1-6.3 3-13.6-0.2-19.8l-36-69.8z"/><path class="b" d=""/><path class="e" d=""/><path class="f" d="m1099.6 1927.2q-9.1-10.6-16.8-21.7 0-0.7 0.1-1.5z"/><path class="b" d="m1307.2 2201.7l-70.9 78.1-2.7 3-92.1 101.4q-7.8-5.5-20.5-17.5c-56.1-53.9-207-239.8-183.2-667.5q-22.4-8.6-46.7-30.8c-57-52.4-5.7-178 19.8-218.4 28.1-44.6 57.8-26.1 61.4-23.6 18.6-18 46.7-22.2 88.2-8q104 35.3 107.5 106.1c3.6 15 11.3 58.3 21.6 116.4 7.6 43.4 16.6 95 26.3 149.1 20.9 116.7 45.1 245 65.4 328.6 9.7 40.1 18.6 69.9 25.9 83.1z"/><g style="opacity:.3"><path class="c" d="m1203.7 2315.7l-62.2 68.5q-7.8-5.5-20.5-17.6c-56.1-53.8-207-239.7-183.2-667.4q-22.5-8.6-46.7-30.8c-32-29.4-29.9-81.9-17.3-129.4 8.4 143.8 118.5 135 152.1 129.6q14.9-2.4 21.3-49.4c-1.6 30.1 7 60.9-3 87-13 34-54.6 37.3-57.2 83.8-19.2 338.8 157.2 469 207.3 517 3.5 3.4 6.7 6.3 9.4 8.7z"/></g><path class="c" d="m1321.7 2179.8c-5.6 0-11-2.9-14.1-8-75.7-126.3-118.9-409.8-142-562.1-5.9-38.5-10.5-68.8-13.5-81.5l-0.3-1.5-0.1-1.4c-0.2-2.3-5.4-60.5-96.4-91.4-28.6-9.7-50.3-10.1-64.8-1.1-16 9.9-26.2 32.5-31.1 68.9-4 30 8 51.3 21.4 53.8 15.8 3 39.2-20.1 53.1-77.7 2.1-8.8 11-14.2 19.8-12.1 8.8 2.1 14.2 11 12 19.7-20.2 84.2-60.3 108.1-90.9 102.3-33.4-6.2-53.9-45.1-47.8-90.3 6.3-46.8 21.4-77.1 46.3-92.5 23.5-14.5 53.7-15.2 92.5-2 105.3 35.8 117.2 106.6 118.5 119 3.2 14.4 7.6 43.3 13.6 82.9 21.2 139.4 65.4 429.4 137.8 550.2 4.7 7.7 2.1 17.8-5.6 22.4-2.6 1.6-5.5 2.4-8.4 2.4z"/><path class="c" d="m1141.5 2400.5c-3.3 0-6.6-1-9.5-3-2.5-1.8-62.1-45.1-117.8-153.8-50-97.5-106.4-269-93.3-534.4-9.9-5.1-25.1-14.4-40.8-28.8-63.5-58.2-14.9-188.7 16.9-239.2 13.2-21 29-33.2 46.7-36.4 21.6-3.9 37.2 7.4 38.9 8.7 7.2 5.5 8.6 15.8 3.1 23-5.5 7.2-15.8 8.5-22.9 3-0.1 0-6-4-13.6-2.4-8.2 1.6-16.6 9.1-24.4 21.5-22.4 35.5-71.3 153-22.6 197.6 21.3 19.6 41.3 27.6 41.5 27.7l11.1 4.3-0.6 11.8c-14.8 262.8 39.7 431.3 87.9 526.3 52.1 102.6 108.4 144 109 144.5 7.3 5.2 9 15.5 3.7 22.8-3.2 4.4-8.2 6.8-13.3 6.8z"/><path class="c" d="m978.5 2022c-16.7 0-27.1-1.4-27.5-1.5-9-1.3-15.1-9.7-13.8-18.6 1.4-9 9.7-15.1 18.7-13.8 7.4 1.1 183.4 24.9 252.7-159.2 3.2-8.5 12.7-12.8 21.1-9.6 8.5 3.2 12.8 12.7 9.6 21.1-61.5 163.3-201.3 181.6-260.8 181.6z"/><path class="c" d="m968.7 1722.6c-11.9 0-24.3-2.8-37.3-8.3-8.3-3.6-12.2-13.2-8.6-21.5 3.5-8.3 13.2-12.2 21.5-8.6 16.8 7.2 31 7.5 43.3 0.9 24.2-13.1 43.5-53.9 54.4-114.9 8.6-48.3-5.5-60.3-5.6-60.4q0.6 0.5 1 0.6l16.1-28.5c5.7 3.2 33.4 22.9 20.7 94.1-13 73.1-36.9 119.5-71.1 137.9-10.7 5.8-22.3 8.7-34.4 8.7z"/><path class="b" d="m1710 2548.9l-5.8 36.8-2.1-16c1.9-6.9 4.4-13.9 7.9-20.8z"/><path class="b" d="m1854.9 3355.7c-117.3 93.3-287.8 93.8-347.1 41-60.2-53.4-75.8-158.9-97.6-276.9q-9.2-49.5-21-127.7-21.7 3.4-52 0.2-27.8-2.9-47.1-11.6-26 60.7-63.2 144.4c-47.4 106.8-117.1 201.5-154.5 229.7-47.1 35.6-225.8-18.2-315.4-138.5-52.4-70.5-60.9-161.7-11.9-204 9-7.8 20.1-14 33.3-17.9q60.5-18.5 130.9 9.4c20.7-86.2 43-166.4 65.5-239.8 14.2-46.5 28.6-90.3 42.7-131 39.1-113.4 76.1-203.9 103.5-266.3q28.2-63.9 46.2-98.5 4.7-24 20.9-54.5c0.1-0.1 0.2-0.2 0.3-0.4 16.6-31.1 45.2-68.8 92.9-94.7 45.4-24.7 108.1-38.6 194.3-25.7 144.2 21.4 198.6 110.4 218.2 187.5 0.5 1.6 0.8 3.1 1.1 4.6 5.5 23 7.9 44.7 8.8 63.1 0.4 7.2 0.5 13.9 0.5 20q-0.2 21-2.1 34.2 12.2 66.3 22.7 181c3.7 41 7.3 88.2 9.9 140.8 2 38.9 3.6 80.6 4.3 125q0.2 6.5 0.2 13.1c1.2 80 0 168.1-5.2 262.5q63.5-2.9 117.9 29.4c20.6 12.3 35.1 27.3 44.5 43.6 30.1 52.7 6.3 119.9-41.5 158z"/><g style="opacity:.3"><path class="c" d="m1854.8 3355.7c-117.2 93.3-287.7 93.8-347 41-60.2-53.4-75.9-158.9-97.6-276.8q-9.1-49.7-21-127.8-21.7 3.4-52 0.2-27.8-2.9-47.1-11.6-26 60.8-63.2 144.4c-47.4 106.8-117.1 201.5-154.5 229.7-47.1 35.6-225.8-18.3-315.3-138.5-52.6-70.5-61-161.7-12-203.9 47.6 1.8 101.9 22.7 143.7 65.3 56.9 58 153.6 175.4 198.4 154.2 44.8-21.1 92.3-143 94.9-195.2 2.7-52.2-28.1-110.2-11.4-112.8 16.7-2.7 50.9 28.1 56.2 11.4 5.3-16.7-39.5-68.1-22.4-91 10.9-14.5 64.9 68.4 130.1 77.8 85 12.3 142.8-57.6 175.4-40.4 13 6.9-55.9 62.8-39.1 71.4 16.7 8.6 62.4 0 65.2 14.7 6.6 33.8-81.7 66.9-83.3 104.2-1.6 37.2 27.3 213.5 78.2 217.7 24.1 1.9 100.8-19.5 176.7-47.7 71.8-26.7 124.6-78 188.7-44.3 30.1 52.7 6.4 119.9-41.6 158z"/></g><path class="c" d="m1631.7 3448.7c-56.5 0-105.8-14-134.8-39.7-60.4-53.8-78.1-150.8-98.6-263.3l-4.2-22.9c-6.7-36.1-14.8-87.7-18.7-113-10 0.4-23.8 0.5-39.9-1.2-14.7-1.6-27.3-4.6-36.4-7.4-9.8 22.8-30.8 71.1-57.2 130.6-48.4 108.9-119.1 205.5-159.6 236.1-21.8 16.4-56.8 15.5-82.4 11.9-76.3-10.9-188.9-63.6-256-153.7-41.9-56.2-57.9-126.2-40.8-178.2 11.4-34.7 35.8-58.6 70.5-69.2 46.8-14.3 97.7-3.7 124 3.9 106.9-435.1 269-727.2 270.6-730.1 4.4-7.9 14.4-10.7 22.3-6.3 7.9 4.4 10.7 14.4 6.3 22.3-1.7 2.9-165.9 299.1-271.6 739.1l-4.4 18.3-17.6-6.9c-0.6-0.3-65.9-25.5-120-9-24.5 7.5-41 23.7-49 48.2-13.9 42.1 0.3 100.4 36 148.4 61.4 82.5 164.6 130.8 234.4 140.8 26.6 3.8 48.3 1.7 58-5.6 36.3-27.5 103.7-120.6 149.4-223.3 36.7-82.6 62.7-143.6 63-144.2l6.5-15.4 15.3 6.9c0.1 0 17.6 7.6 42.1 10.2 27.5 2.9 47.6 0 47.8-0.1l16.2-2.4 2.5 16.2c0.1 0.7 11.9 78.4 20.9 127.2l4.2 23c19.4 106.4 36.2 198.4 88.1 244.6 52.1 46.3 211.9 49.2 326.1-41.6 31.8-25.4 50.8-64.7 48.4-100.3-2-30.5-19.2-56.3-49.6-74.4-49.6-29.5-108.1-27.2-108.7-27.2l-18.1 0.8 1-18c22.5-417.2-30.8-747.4-31.4-750.6-1.4-9 4.6-17.4 13.5-18.9 8.9-1.4 17.4 4.6 18.9 13.5 0.5 3.3 53 327.9 32.5 740.8 24.2 1.4 68.7 7.4 109 31.5 39.6 23.5 62.8 59.1 65.6 100.3 3.2 46.7-20.1 95.8-60.8 128.1-69.2 55.1-157.7 80.2-233.3 80.2z"/><g style="opacity:.3"><path class="c" d="m1739.3 2862.2c-47-40.3-110.6-56.8-143.5-63l-3.8 25.9c-1.8 35.9-36.6 60.9-71.2 51.1-49.6-13.9-116.9-31.5-168.2-39.6-50.9-8-118-15.2-167.8-20.1-35.6-3.5-58.9-39-47.9-73.1l2.7-14.6c-44.2-3.1-112.6-0.4-164.8 35.2 14.2-46.5 28.6-90.3 42.7-131.1 56.5-33.6 133.8-31.5 173.3-27.6 17.8-21.7 37.2-39.4 49.9-38.1 160.7 17 266.9 46.4 320.2 64.1 8.8 3 16.9 17.2 23.6 35.3 14.4 2.2 92.6 15.3 150.2 57.5 2 38.9 3.6 80.6 4.3 125q0.1 6.5 0.3 13.1z"/></g><path class="b" d="m1568.4 2632.8q160.6 20.1 195.1 121.6 16.5 48.8-13.2 103.5-51.4-90.8-189.5-104.1z"/><g style="opacity:.3"><path class="c" d="m1750.3 2857.9q-51.4-90.8-189.5-104.1l7.6-121q1.7 0.2 4.8 0.8l-4.3 69q138.1 13.3 189.5 104.1 5.1-9.5 10-24.1 1.4 39.5-18.1 75.3z"/></g><path fill-rule="evenodd" class="c" d="m1750.6 2891.7l-14.6-25.7c-46.4-82.2-175.5-95.8-176.8-95.9l-15.7-1.6 9.7-154.1 17.3 2.2c6.9 0.9 171.1 22.6 208.5 132.6 18.6 54.9-13 114-14.3 116.5zm-172.5-152c34.7 5.9 118.1 25.5 168.1 84.1 5.3-17.8 9.2-42 1.8-64-24.6-72.2-123.9-99.4-164.4-107.6z"/><path class="b" d="m1197 2696.5q-135.5-29.8-212.3 40.8-11.5-61.2 19.2-102.5 64.1-86 223-55.8z"/><g style="opacity:.3"><path class="c" d="m1226.9 2579l-29.9 117.5q-135.5-29.8-212.3 40.8-7.4-39 5.4-75.8-0.1 16.6 2.1 28.4 76.7-70.6 212.2-40.8l18.1-70.8q2.9 0.5 4.4 0.7z"/></g><path fill-rule="evenodd" class="c" d="m974.9 2766.6l-5-26.6c-0.5-2.7-12.2-68.2 22-114.2 68.9-92.4 231-62.8 237.8-61.5l15.7 3-37.5 146.9-14.1-3.1c-1.5-0.3-129-27.1-199 37.2zm188.5-177.7c-48.4 0-113.6 9.5-147.4 54.8-14.7 19.8-18.2 45.8-18.4 64.8 66.3-42.2 154.1-34.4 188.3-29.2l22.4-87.8c-10.9-1.2-26.7-2.6-44.9-2.6z"/><path class="b" d="m1165.3 2636.2c7.6-23.7 59.7-98.5 84.4-95.9 150 15.9 249.2 43.3 298.9 59.9 22.2 7.4 39.7 92.4 38.5 115.8l-9.5 65c-1.7 33.6-34.1 56.9-66.5 47.8-46.3-13.1-109.1-29.4-157-37-47.5-7.5-110.1-14.3-156.6-18.8-33.2-3.3-55-36.4-44.7-68.2z"/><g style="opacity:.3"><path class="c" d="m1165.3 2636.2c7.6-23.7 59.7-98.5 84.4-95.9 150 15.9 249.2 43.3 298.9 59.9 22.2 7.4 39.7 92.4 38.5 115.8l-9.5 65c-1.7 33.6-34.1 56.9-66.5 47.8-46.3-13.1-109.1-29.4-157-37-47.5-7.5-110.1-14.3-156.6-18.8-33.2-3.3-55-36.4-44.7-68.2z"/></g><path fill-rule="evenodd" class="c" d="m1525.4 2845.7c-6.1 0-12.3-0.8-18.3-2.5-44.6-12.5-107.7-29.1-155.3-36.6-47.7-7.5-111-14.3-155.8-18.7-20.4-2-38.5-13-49.7-30.1-11.1-16.8-14-37.4-8.1-56.6l12.8-69.6c7-21.9 61.9-110.2 100.2-106.2 153.9 16.3 255.3 44.9 302.1 60.5 35.6 11.9 49.8 112.6 48.8 130.9l-0.1 1.4-9.4 64.3c-1.3 20.3-11.5 38.7-28 50.6-11.6 8.3-25.3 12.6-39.2 12.6zm-345.6-205.8l-12.8 69.5c-3.4 10.8-1.9 22.5 4.4 32 6.2 9.5 16.3 15.5 27.6 16.7 45.1 4.4 109 11.3 157.4 18.9 49.1 7.7 113.4 24.6 158.8 37.3 11 3.1 22.6 1.1 31.9-5.6 9.3-6.7 14.9-17 15.5-28.4l0.2-1.5 9.4-64.2c0.9-25.8-17-93.4-28.8-100.4-45.2-15.1-144.3-43-295.3-59-14.1 1.4-59.8 60.4-68.3 84.7zm-27 64.9z"/><path class="b" d="m1520.3 2770.4c-46.3-13-109.1-29.4-157-36.9-47.5-7.5-110.1-14.3-156.6-18.8-33.2-3.3-55-36.4-44.7-68.3l15.3-47.4 26.1-81.1c7.6-23.6 30.8-38.6 55.5-35.9 149.9 15.8 249.1 43.2 298.8 59.8 22.3 7.5 36.9 28.9 35.7 52.3l-0.8 14.3-5.8 114.3c-1.7 33.5-34.1 56.8-66.5 47.7z"/><g style="opacity:.3"><path class="c" d="m1520.3 2770.4c-46.3-13-109.1-29.4-157-36.9-47.5-7.5-110.1-14.3-156.6-18.8-33.2-3.3-55-36.4-44.7-68.3l15.3-47.4c12.4 99.2 252.7 124.6 263.8 75.7 1-4.3 2.5-31.8 5.5-35.1 9.1-9.6 26.6 9.9 44 14.1 15.9 3.7 35.3-5.2 40.3 6.1 2.3 5.3-4.3 29.5-5.6 35.1-0.7 3.2-2.2 6.2-4.1 8.8 49.5-13.9 60.1-48.2 71.4-95.3l-5.8 114.3c-1.7 33.5-34.1 56.8-66.5 47.7z"/></g><path fill-rule="evenodd" class="c" d="m1534.6 2787.4c-6.1 0-12.3-0.8-18.4-2.5-44.5-12.6-107.6-29.1-155.3-36.6-47.6-7.5-110.9-14.3-155.7-18.7-20.4-2-38.5-13-49.7-30.1-11.3-17.2-14.1-38.2-7.8-57.7l41.4-128.4c9.7-30.2 39.7-49.7 71.3-46.4 153.8 16.3 255.3 45 302.1 60.6 28.5 9.5 47.4 37.2 45.8 67.3l-6.5 128.5c-1.1 20.6-11.3 39.3-28 51.3-11.6 8.4-25.3 12.7-39.2 12.7zm-281.3-290.7c-16 0-30.6 10.4-35.6 25.9l-41.5 128.5c-3.5 10.8-1.9 22.4 4.3 31.9 6.3 9.5 16.3 15.6 27.7 16.7 45.1 4.4 109 11.3 157.4 19 49.1 7.7 113.4 24.5 158.8 37.3 11 3.1 22.6 1 31.9-5.6 9.3-6.7 14.9-17.1 15.5-28.5l6.6-128.5c0.8-16.7-9.6-32.1-25.4-37.4-45.6-15.2-144.7-43.1-295.7-59.1q-2-0.2-4-0.2zm-91.3 149.8z"/><path class="g" d="m1455.7 2635.6c0.9-3.4 2.1-25.5 4.5-28.1 7.3-7.8 21.3 7.9 35.3 11.2"/><path class="g" d="m1527.9 2655c-3.8 15.7-24.1 24.4-45.5 19.3-21.3-5.1-35.5-22.1-31.7-37.8 0.9-4 2.2-29.2 5-32.2 8.3-8.8 24.4 9.1 40.4 12.9 14.5 3.5 32.3-4.7 36.8 5.6 2.2 4.9-3.8 27.1-5 32.2z"/><g style="opacity:.3"><path class="c" d="m1527.9 2655c-3.8 15.7-24.1 24.4-45.5 19.3-21.3-5.1-35.5-22.1-31.7-37.8 0.9-4 2.2-29.2 5-32.2 8.3-8.8 24.4 9.1 40.4 12.9 14.5 3.5 32.3-4.7 36.8 5.6 2.2 4.9-3.8 27.1-5 32.2z"/></g><path fill-rule="evenodd" class="c" d="m1494.5 2683.2c-4.5 0-9.1-0.5-13.8-1.6-25.3-6.1-42.1-27.1-37.3-46.9 0.2-0.9 0.5-4.8 0.9-7.9 1.8-18.1 2.8-24.3 6-27.6 9.1-9.8 21.5-2.6 31.4 3.1 5.4 3.1 11 6.4 16.1 7.6 4.6 1.1 10.1 0.7 15.4 0.3 9.7-0.6 21.7-1.5 26.6 9.6 2.2 5 1.2 13.7-4.1 34.6l-0.5 2.3c-3.9 16.1-20.9 26.5-40.7 26.5zm-32.8-73.8c-1 3.9-2 13.9-2.5 18.9-0.6 5.4-0.9 8.3-1.3 9.9-2.7 11.5 9.3 24.7 26.3 28.8 16.9 4 33.6-2.3 36.4-13.8l0.6-2.4c4.3-17.3 4.8-23.2 4.7-25.2-1.3-1.1-7.7-0.7-11.6-0.4-6.2 0.4-13.1 0.9-20-0.7-7.2-1.8-14.1-5.7-20.1-9.2-3.8-2.2-10-5.8-12.5-5.9zm66.2 45.6z"/><path class="g" d="m1532.9 2622.8c-3.7 15.8-24.1 24.4-45.4 19.3-21.3-5.1-35.6-22-31.8-37.8 3.8-15.7 24.1-24.4 45.4-19.3 21.4 5.1 35.6 22 31.8 37.8z"/><g style="opacity:.7"><path class="b" d="m1456.4 2617.1c-1.4-4.2-1.7-8.5-0.7-12.8 3.8-15.7 24.1-24.4 45.4-19.3 21.4 5.1 35.6 22 31.8 37.8-0.2 0.8-0.4 1.5-0.7 2.3-3.7-11.3-15.5-21.3-31.1-25.1-20.2-4.8-39.6 2.8-44.7 17.1z"/></g><path fill-rule="evenodd" class="c" d="m1499.7 2651.1c-4.6 0-9.3-0.6-13.9-1.7-25.4-6.1-42.1-27.1-37.4-46.8 2.4-10 9.7-18 20.5-22.6 10.1-4.3 22.1-5.1 34-2.3 25.3 6.1 42 27.1 37.3 46.8-2.4 10-9.6 18.1-20.5 22.7-6.1 2.6-12.9 3.9-20 3.9zm-10.8-60c-5.1 0-9.9 0.9-14.1 2.7-6.4 2.7-10.5 7-11.8 12.3-2.7 11.5 9.3 24.6 26.2 28.7 8.8 2.1 17.5 1.6 24.7-1.4 6.3-2.7 10.5-7.1 11.7-12.3 2.8-11.6-9.2-24.7-26.2-28.8-3.5-0.8-7.1-1.2-10.5-1.2z"/><path class="c" d="m1373.6 2747.7q-1 0-2-0.2c-6.8-1-11.4-7.4-10.4-14.3l16.7-105.9c0.8-4.8-1.2-9.5-5-12.4l-31.6-23.5c-11.4-8.4-17.1-22.4-14.8-36.3l9.9-63.4c1.1-6.9 7.5-11.5 14.3-10.4 6.9 1 11.5 7.4 10.4 14.3l-10 63.3c-0.7 4.8 1.2 9.6 5.1 12.5l31.6 23.4c11.3 8.5 17 22.4 14.8 36.4l-16.7 105.9c-0.9 6.2-6.3 10.6-12.3 10.6z"/><path class="h" d="m1060.4 3361.1c-53.7 19-186.9-22.3-274-110.7q-0.1 0-0.1-0.1c-10.5-10.6-20.3-22-29.2-34-40.2-53.8-54.5-119.8-37.2-166.7 21.1-15.1 54.7-22.4 103.6 9.6 46.6 30.5 86.5 81.6 117.9 122.3q0 0 0 0c4.2 5.4 8.3 10.7 12.2 15.7 45.9 58.8 132.1 121 106.8 163.9z"/><g style="opacity:.3"><path class="c" d="m1060.4 3361.1c-53.7 19-186.9-22.3-274-110.7 30.4 16.9 74.4 31.7 118.9 13.2 38.8-16.3 42.5-50.8 36.1-82.1 4.2 5.4 8.3 10.7 12.2 15.7 45.9 58.8 132.1 121 106.8 163.9z"/></g><g style="opacity:.7"><path class="b" d="m924 3159.2c-29.4-22.5-60.2-43.6-85.8-59.2-10.6-6.4-20.4-11.2-29.7-14.7-41.8-15.9-85.4 13.9-88.9 55.7-9.2-32.8-9.4-65.1 0.3-91.4 21.1-15.1 54.7-22.4 103.6 9.6 38.4 25.1 72.3 64.3 100.5 100z"/></g><path class="h" d="m1854.8 3355.7c-18.3 14.6-38 26.9-58.3 37.1-109.6 55-238.7 48.4-288.7 3.9q-8.2-7.3-15.3-15.7c-2.3-7.2-2.1-14.8 1.6-22.9 17.9-39 67.7-45.1 132.4-60.9 40.5-9.9 86.9-23.7 134.8-51.6 58-33.9 116.3-54.4 146.6-16.7 8.8 45.9-14.2 95.9-53.1 126.8z"/><g style="opacity:.3"><path class="c" d="m1796.5 3392.8c-109.6 55-238.7 48.4-288.7 3.9q-8.2-7.3-15.3-15.7c-2.3-7.2-2.1-14.8 1.6-22.9 17.9-39 67.7-45.1 132.4-60.9-2.5 15.4-3.6 41.7 11.1 64.6 24.9 38.7 114.4 35.3 158.9 31z"/></g><g style="opacity:.7"><path class="b" d="m1876.8 3334.2c4.4-9.6 7.6-19.5 9.6-29.6 6.8-34.8-21.6-66.3-56.7-61.8-27 3.5-58.3 17.9-89.5 36.1-66.1 38.6-138.6 38.6-196.4 39.7 51.3-18.6 131.8-23.1 217.5-73 58-33.9 116.3-54.4 146.6-16.7 6.9 36.3-6 75.3-31.1 105.3z"/></g><path fill-rule="evenodd" class="c" d="m1029.5 3380.4c-77.8 0-209.3-54.1-284.5-155.1-43-57.8-58.4-128.8-39.2-180.9l1.6-4.4 3.8-2.7c23.2-16.5 63-28.3 120.5 9.3 49.7 32.6 90.6 85.6 123.5 128.2q5.3 6.8 10.2 13.2c12.6 16.2 28.9 33.1 44.6 49.5 44.8 46.7 87.2 90.8 63.3 131.2l-2.7 4.7-5.2 1.8c-9.8 3.5-22 5.2-35.9 5.2zm-297.1-321.1c-13 41.9 1.4 100.7 36.7 148.1 78.9 106 225.4 153.4 280.3 141.2 4.9-21.7-30-58-61-90.4-16.3-16.9-33.1-34.4-46.6-51.8q-5-6.4-10.4-13.3c-31.5-40.8-70.7-91.6-116.1-121.4-32.9-21.5-60.7-25.7-82.9-12.4zm328 301.8h0.1z"/><path class="c" d="m880.6 2116c-8 0-15.1-6-16.2-14.2-11-82 29.8-122.9 59.6-152.8 29.5-29.6 37-39.4 15.7-67.1-84.7-110.3-37.1-197-35-200.6 4.5-7.9 14.5-10.6 22.3-6.1 7.9 4.4 10.6 14.4 6.2 22.2-1.7 3.2-38.3 72.4 32.5 164.6 39.7 51.7 8.8 82.7-18.5 110.1-27.7 27.8-59.2 59.4-50.3 125.3 1.2 9-5.1 17.2-14.1 18.4q-1.1 0.2-2.2 0.2z"/><path fill-rule="evenodd" class="c" d="m1631.6 3447.3c-56 0-105-13.8-133.8-39.4-5.9-5.2-11.5-11-16.8-17.3l-1.9-2.2-0.9-2.8c-3.6-11.2-2.8-22.6 2.3-33.8 18.5-40.4 62.1-50.5 117.3-63.3 44.4-10.2 99.7-23 156-55.9 29.7-17.3 120-70 165.8-13.1l2.3 2.9 0.7 3.6c9.6 50.1-13.4 105.6-58.4 141.4-69.1 55-157.2 79.9-232.6 79.9zm-125.4-73.4c3.7 4.2 7.6 8.1 11.6 11.6 52.3 46.6 213 49.7 327.7-41.6 34.7-27.6 53.7-70.6 48.3-108.4-20.8-21.4-61.7-13.9-124.9 23-60.3 35.2-118 48.5-164.3 59.3-49 11.3-84.5 19.5-96.8 46.5-1.6 3.4-2.1 6.5-1.6 9.6z"/><path class="i" d=""/><path class="c" d="m1405 3116.8c-4.4 0-8.6-2.4-10.8-6.5-3.2-6-1-13.5 5-16.7 8.1-4.3 198.3-104.9 297.5-66.1 25.8 10.1 43.5 28.6 52.7 54.9 2.2 6.4-1.2 13.4-7.6 15.6-6.4 2.2-13.4-1.2-15.7-7.6-6.7-19.5-19.3-32.6-38.4-40-88.7-34.8-275 63.9-276.9 64.9-1.9 1-3.8 1.5-5.8 1.5z"/><path class="c" d="m1247.6 3094.9c-3.6 0-7.2-1.6-9.6-4.7-1.2-1.5-118.4-148.4-225.8-158.8-30.3-2.9-56.2 5.2-79.2 24.9-5.2 4.4-12.9 3.8-17.3-1.3-4.4-5.2-3.8-12.9 1.3-17.3 27.9-24 60.8-34.3 97.6-30.7 117.8 11.4 237.6 161.6 242.7 168 4.2 5.3 3.3 13-2.1 17.2-2.2 1.8-4.9 2.7-7.6 2.7z"/><path class="c" d="m1240.5 2910.9c8.9 12 17.8 23.1 27.4 32.8 4.7 5 9.8 9.2 14.6 13.6 4.7 4.5 9.7 8.1 14.3 12.9l0.9 1c4.8 5 4.7 12.9-0.3 17.7-3.9 3.7-9.5 4.5-14.1 2.3-7.5-3.5-14.3-8.5-19.8-14.5-5.7-6-10.2-12.8-13.9-19.8-3.8-7.1-6.7-14.4-8.9-21.9-2.1-7.6-3.5-15.2-3.6-23.1 0-1 0.8-1.9 1.8-1.9 0.7 0 1.2 0.3 1.5 0.8z"/><path class="c" d="m1451.6 2954c-1.7 6.8-5 12.7-8.9 18.3-3.9 5.5-8.6 10.5-13.8 15-5.2 4.3-10.8 8.5-17 11.3-6.1 3-12.7 5-19.4 5.6-7 0.6-13.1-4.6-13.7-11.5-0.5-5 2-9.5 6-11.9l1.2-0.7c2.4-1.6 5-2.5 7.6-3.6 2.5-1.1 5.2-1.9 7.7-2.9 5.2-1.8 10.5-3.5 15.8-5.5 10.4-4.1 21-9.1 31.4-15.9l0.2-0.2c0.9-0.6 2-0.3 2.6 0.5 0.3 0.5 0.4 1 0.3 1.5z"/><path class="c" d="m714.1 3124.8c-4.7 0-9-3.5-9.8-8.4-0.9-5.4 2.7-10.6 8.2-11.5 5.9-1 12.9-1.9 20.9-3 31.3-4.1 78.6-10.4 113.7-29.8 4.8-2.7 10.9-1 13.6 3.9 2.6 4.8 0.9 10.9-3.9 13.6-38.5 21.2-88 27.8-120.8 32.1-7.8 1.1-14.6 2-20.2 2.9q-0.8 0.2-1.7 0.2z"/><path class="c" d="m740.4 3200.7c-4.9 0-9.2-3.6-9.9-8.6-0.8-5.5 3-10.5 8.5-11.3 35.6-5 134.4-23.4 163.6-47.8 4.2-3.6 10.6-3 14.1 1.2 3.5 4.3 3 10.6-1.3 14.1-39.5 33.1-168.2 51.5-173.6 52.3q-0.7 0.1-1.4 0.1z"/><path class="c" d="m803 3276.2c-4.9 0-9.2-3.6-9.9-8.5-0.8-5.5 3-10.6 8.5-11.4 1.2-0.1 122.8-18.1 163.6-46.7 4.5-3.2 10.7-2.1 13.9 2.4 3.2 4.5 2.1 10.8-2.4 13.9-44.7 31.4-167.1 49.5-172.3 50.2q-0.7 0.1-1.4 0.1z"/><path class="c" d="m892.1 3336.7c-5.2 0-9.6-4-9.9-9.3-0.4-5.6 3.8-10.3 9.3-10.6 0.9-0.1 92.3-6.1 135-40.5 4.4-3.5 10.7-2.8 14.1 1.5 3.5 4.3 2.8 10.6-1.5 14.1-47.8 38.4-142.3 44.6-146.3 44.8q-0.4 0-0.7 0z"/><path class="c" d="m1902.4 3299.7c-30.8 0-88.2-17.1-120.3-64.1-3.2-4.6-2-10.8 2.6-13.9 4.5-3.2 10.8-2 13.9 2.6 27.5 40.3 78.3 55.4 103.8 55.4 5.6 0 10 4.5 10 10 0 5.5-4.4 10-10 10z"/><path class="c" d="m1859.8 3361.5q-0.6 0-1.2 0c-3.7-0.5-90.3-11.6-145.9-89.5-3.2-4.5-2.1-10.7 2.4-13.9 4.4-3.2 10.7-2.2 13.9 2.3 50.5 70.7 131.2 81.1 132 81.2 5.4 0.7 9.4 5.7 8.7 11.1-0.6 5.1-4.9 8.8-9.9 8.8z"/><path class="c" d="m1768.5 3415.4q-1.5 0-3.1-0.5c-3.4-1.1-85.7-28.3-144.1-112.8-3.2-4.5-2-10.7 2.5-13.9 4.6-3.1 10.8-2 13.9 2.6 54.6 78.9 133.1 104.8 133.8 105.1 5.3 1.7 8.2 7.3 6.5 12.6-1.4 4.2-5.3 6.9-9.5 6.9z"/><path class="c" d="m1662.4 3440.7c-1.4 0-2.9-0.3-4.3-1-4-1.9-99.1-48.7-107.2-125.5-0.6-5.5 3.4-10.4 8.9-11 5.5-0.6 10.4 3.4 11 8.9 6.9 65.7 95.1 109.2 96 109.6 5 2.4 7.1 8.4 4.6 13.4-1.7 3.6-5.2 5.6-9 5.6z"/><ellipse class="d" cx="1036.4" cy="556.7" rx="474.5" ry="538.7"/><g style="opacity:.4"><path class="b" d="m1437.3 258.5c-87-115.6-216.4-188.9-360.8-188.9-262 0-474.5 241.2-474.5 538.8 0 106 27 204.8 73.6 288.2-70.9-94.2-113.7-216.3-113.7-349.9 0-297.5 212.5-538.7 474.5-538.7 168.7 0 316.8 99.9 400.9 250.5z"/></g><g style="opacity:.3"><path class="c" d="m650.8 873.3c-32.3-49.2-57.4-104.8-73.5-164.9 87 115.8 216.5 189.3 361.1 189.3 262.1 0 474.5-241.2 474.5-538.8 0-54.4-7.1-107-20.4-156.6 0.2 0.7 0.4 1.5 0.6 2.2 55.2 88.1 87.8 195.9 87.8 312.2 0 297.6-212.5 538.8-474.5 538.8-141.6 0-268.7-70.5-355.6-182.2z"/></g><path fill-rule="evenodd" class="c" d="m1036.4 1112.9c-271.2 0-491.9-249.5-491.9-556.2 0-306.6 220.7-556.1 491.9-556.1 271.2 0 491.9 249.5 491.9 556.1 0 306.7-220.7 556.2-491.9 556.2zm0-1077.5c-252 0-457.1 233.9-457.1 521.3 0 287.5 205.1 521.4 457.1 521.4 252 0 457-233.9 457-521.4 0-287.4-205-521.3-457-521.3z"/><g style="opacity:.3"><path class="b" d="m740.9 490.3c-28.9-50.5-29.3-173.7 80.4-259.2 90.8-70.7 168.4-30.9 163.4 7.3-5 38.2-40.6 58.6-64.1 183.2-19.5 102.9-104.1 201.2-179.7 68.7z"/></g><path class="c" d="m2058.7 2630.8c3.1 2.5 6.3 4.9 9.9 6.7 3.6 1.9 7.3 3.5 11.1 4.7 3.8 1.3 7.7 2.3 11.7 3.1q3 0.5 5.9 0.8c1.8 0.2 4.2 0.4 5.2 0.3 9.3-1 17.7 5.7 18.8 15 1 9.3-5.7 17.7-15 18.7-2.3 0.3-4.6 0.1-6.7-0.6l-2.9-0.9c-3.4-1-5.5-1.9-8.1-3-2.4-1.1-4.8-2.2-7.1-3.5q-7-3.6-13.4-8.2c-4.3-3-8.3-6.5-12-10.2-3.8-3.7-7-8-10-12.3-2.5-3.7-1.5-8.9 2.2-11.4 3.1-2.1 7-1.8 9.7 0.3z"/><path class="b" d="m1988.3 2176.8c-5.3-0.9-8.9-6-8-11.3l47.7-278.9c0.9-5.3 6-8.9 11.3-8 56.1 9.6 93.8 62.8 84.2 118.9l-16.2 95.1c-9.6 56.1-62.9 93.8-119 84.2z"/><path fill-rule="evenodd" class="c" d="m2005.9 2180.9q-9 0-18-1.6c-3.3-0.5-6.1-2.3-8-5-1.9-2.7-2.7-6-2.1-9.2l47.7-278.9c1.1-6.7 7.5-11.3 14.2-10.1 57.4 9.8 96.1 64.5 86.3 121.9l-16.2 95c-4.8 27.9-20.1 52.1-43.1 68.4-18 12.8-39.1 19.5-60.8 19.5zm31.7-299.9c-1.4 0-2.9 0.5-4.1 1.4-1.6 1.1-2.7 2.8-3 4.7l-47.7 278.8c-0.6 4 2 7.7 6 8.4 26.4 4.5 53.1-1.5 75-17 21.9-15.5 36.4-38.7 40.9-65.1l16.3-95.1c4.5-26.4-1.5-53.1-17-75-15.6-21.9-38.7-36.4-65.1-41q-0.6-0.1-1.3-0.1z"/><g style="opacity:.3"><path class="c" d="m2114.9 2048l-7.6 44.6c-9.6 56.1-62.9 93.8-119 84.2-5.3-0.9-8.9-6-8-11.3l12.6-74.2c1 3.7 4 6.6 7.9 7.3l6.6 1.1c44.3 7.6 86.9-14.4 107.5-51.7z"/></g><path fill-rule="evenodd" class="c" d="m2005.9 2192.6q-9.9 0-20-1.8c-6.3-1-11.8-4.5-15.5-9.8-3.8-5.2-5.2-11.6-4.1-17.9l47.6-278.9c1.1-6.3 4.6-11.8 9.9-15.5 5.2-3.7 11.6-5.2 17.9-4.1 63.7 10.9 106.7 71.6 95.8 135.3l-16.2 95.1c-5.3 30.9-22.3 57.9-47.8 76-20.1 14.1-43.5 21.6-67.6 21.6zm-10.8-29.2c21.9 2.7 43.8-2.8 61.9-15.7 19.4-13.7 32.2-34.1 36.2-57.5l16.3-95.1c4-23.3-1.4-46.9-15.1-66.2-12.8-18.2-31.6-30.6-53.2-35.4zm-4.3-0.6q0 0 0 0 0 0 0 0z"/><path class="b" d="m1118.9 1721.3c5.4 0.9 9 6 8 11.3l-47.6 278.8c-0.9 5.4-6 9-11.4 8.1-56.1-9.6-93.7-62.9-84.2-119l16.3-95c9.6-56.1 62.8-93.8 118.9-84.2z"/><path fill-rule="evenodd" class="c" d="m1069.6 2022.2q-1 0-2.1-0.2c-57.4-9.8-96.1-64.5-86.3-121.9l16.3-95.1c4.7-27.8 20-52.1 43-68.4 23.1-16.3 51-22.6 78.8-17.9 3.3 0.6 6.2 2.4 8.1 5.1 1.9 2.7 2.6 6 2.1 9.2l-47.7 278.9c-0.6 3.2-2.4 6.1-5.1 8-2.1 1.5-4.5 2.3-7.1 2.3zm31.7-299.9c-20.6 0-40.6 6.4-57.8 18.5-21.9 15.5-36.5 38.6-41 65.1l-16.2 95.1c-9.4 54.6 27.5 106.6 82.1 115.9 1.9 0.4 3.8-0.1 5.4-1.2 1.6-1.1 2.6-2.8 3-4.7l47.6-278.8c0.4-1.9-0.1-3.9-1.2-5.5-1.1-1.5-2.8-2.6-4.7-2.9-5.7-1-11.5-1.5-17.2-1.5z"/><g style="opacity:.3"><path class="c" d="m1092.5 1934.1l-13.2 77.3c-0.9 5.4-6 9-11.4 8.1-29.4-5.1-53.8-22.1-68.9-45.3-13.7-21-19.8-47-15.3-73.6l6.9-40.1c9.9 37.9 41.2 68.4 82.3 75.5l10.2 1.7c3.7 0.6 7.2-0.9 9.4-3.6z"/></g><path fill-rule="evenodd" class="c" d="m1069.6 2033.8q-2 0-4.1-0.3c-63.7-10.9-106.7-71.6-95.8-135.4l16.3-95c5.2-30.9 22.2-57.9 47.8-76 25.6-18.1 56.6-25.1 87.5-19.9q0 0 0 0c6.4 1.1 11.9 4.6 15.6 9.8 3.7 5.3 5.2 11.7 4.1 18l-47.7 278.8c-1.1 6.4-4.6 11.9-9.8 15.6-4.1 2.9-8.9 4.4-13.9 4.4zm31.8-299.8c-18.3 0-36 5.6-51.2 16.3-19.3 13.8-32.2 34.2-36.2 57.6l-16.2 95c-8 46.8 22.3 91.5 68.2 101.7l46.2-269.9q-5.5-0.7-10.8-0.7z"/><path class="b" d="m2021.9 2063.8c-63.4 258.6-324.4 416.8-583 353.5-258.5-63.4-416.8-324.4-353.4-583 63.3-258.6 324.3-416.8 582.9-353.5 258.6 63.4 416.9 324.4 353.5 583z"/><path fill-rule="evenodd" class="c" d="m1554.6 2433.9c-38.7 0-77.7-4.7-116.3-14.2-125.7-30.8-231.9-108.7-299-219.4-67.1-110.7-87.1-240.9-56.3-366.6 30.8-125.7 108.7-231.9 219.4-299 110.7-67.2 240.9-87.2 366.6-56.3 259.6 63.6 419 326.4 355.4 586-30.8 125.7-108.8 231.9-219.4 299-76.8 46.6-162.9 70.5-250.4 70.5zm-1.8-964.5c-86.6 0-171.8 23.6-247.7 69.6-109.6 66.4-186.7 171.5-217.1 295.9-30.5 124.4-10.7 253.3 55.7 362.8 66.4 109.5 171.5 186.6 295.9 217.1 124.4 30.5 253.2 10.7 362.7-55.7 109.5-66.4 186.6-171.5 217.1-295.9 30.5-124.4 10.7-253.3-55.7-362.8-66.4-109.5-171.5-186.6-295.9-217.1-38.1-9.3-76.7-13.9-115-13.9z"/><g style="opacity:.3"><path class="c" d="m2033.3 1997.9c-2.2 21.9-6 43.9-11.4 65.9-63.4 258.6-324.4 416.8-583 353.5-258.5-63.4-416.8-324.4-353.4-583 1.8-7.4 3.8-14.8 5.9-22.1-24.3 235.7 128.3 459.1 364.9 517.1 251.1 61.5 504.5-86 577-331.4z"/></g><path fill-rule="evenodd" class="c" d="m1554.6 2445.5c-39.7 0-79.6-4.7-119-14.4-128.8-31.6-237.6-111.4-306.3-224.7-68.7-113.4-89.2-246.7-57.7-375.5 65.2-265.8 334.4-429 600.2-363.9 128.8 31.6 237.5 111.4 306.3 224.7 68.7 113.4 89.2 246.7 57.6 375.5-31.5 128.7-111.3 237.5-224.7 306.2-78.6 47.7-166.8 72.1-256.4 72.1zm-1.8-964.5c-84.5 0-167.6 23.1-241.7 68-106.8 64.8-182.1 167.3-211.8 288.7-29.7 121.4-10.4 247.1 54.3 353.9 64.8 106.9 167.4 182.1 288.7 211.8 121.4 29.8 247.1 10.5 354-54.3 106.8-64.8 182-167.3 211.8-288.7 29.7-121.4 10.4-247.1-54.4-353.9-64.8-106.9-167.3-182.1-288.7-211.8-37.2-9.2-74.8-13.7-112.2-13.7zm469.1 582.8z"/><path class="c" d="m2017.5 2075.4c-21.1 92-70.5 170.5-137.7 229.5-50.5 44.1-229 100.8-423.7 58-180.5-39.6-322.4-173.2-348.5-234.9-34.9-82.4-45.2-174.6-24.1-266.5 55.8-243.3 287.9-296.3 545.8-237.2 257.9 59 443.9 207.8 388.2 451.1z"/><path fill-rule="evenodd" class="c" d="m1598.7 2392.6c-45.9 0-94.9-4.6-145.6-15.8-187.6-41.2-331-178.2-358.6-243.3-37.3-88.1-45.9-183.3-24.9-275.2 27.5-120 96.8-201.4 206-242.2 95.1-35.4 218.5-37.4 356.9-5.7 138.4 31.7 248.6 87.2 318.8 160.5 80.6 84.2 107.5 187.8 80 307.7-21 91.9-70.2 173.9-142.2 237-37.7 33-149.1 77-290.4 77zm-150.5-776.2c-60.7 0-115.5 8.8-162.6 26.4-99.7 37.2-163 111.8-188.2 221.9-19.7 86-11.7 175.1 23.3 257.7 24.8 58.6 162.9 188.1 338.5 226.6 194.6 42.8 366.4-15.6 411.2-54.8 67.4-59.2 113.5-135.9 133.2-221.9 25.2-110.1 0.7-204.8-72.9-281.7-66.3-69.3-171.6-122-304.5-152.5-63.3-14.4-123-21.7-178-21.7z"/><g style="opacity:.5"><path class="b" d="m1906.8 1929.2c31.4 13.4 41.8 59.4 23.3 102.7-18.6 43.4-59 67.6-90.4 54.1-31.4-13.4-41.8-59.4-23.3-102.7 18.6-43.3 59-67.5 90.4-54.1z"/></g><g style="opacity:.5"><path class="b" d="m1781.9 2121.9c15.9 9.6 19.7 32.4 8.6 50.9-11.2 18.5-33.1 25.7-49 16.2-15.9-9.6-19.7-32.4-8.6-50.9 11.2-18.5 33.2-25.8 49-16.2z"/></g><g style="opacity:.3"><path class="j" d="m1978.6 1827.6c44.6 67.6 61.2 150.1 38.8 247.8-21 92-70.4 170.5-137.6 229.5-50.4 44.1-229 100.8-423.7 58-68.7-15-131.8-43.8-185.1-77 240.4 47.5 458.1-22.4 520.6-77.2 85.3-74.8 148-174.5 174.8-291.2 7.1-31.1 11.1-61.1 12.2-89.9z"/></g><path class="c" d="m2026.1 1867.1c-4.2 0-8.3-1.9-11.1-5.4l-1.2-1.6-0.8-1.8c-53.5-128.6-191.4-226.8-378.3-269.7-187.9-43-355.1-12.5-458.7 83.8l-1.9 1.5c-6.5 4.3-15.4 2.6-19.7-4-4.1-6-2.8-14 2.6-18.7 110.6-102.5 287-135.4 484.1-90.3 195.8 44.9 340.9 149.1 398 286.1 2.6 5.8 1.1 12.9-4.2 17-2.6 2.1-5.7 3.1-8.8 3.1z"/><g style="opacity:.5"><path class="b" d="m1155.2 2030.3q-20.4-257.3 130.9-323.4c151.3-66 337.3-23 330.3-12q-217.5 2.7-335.5 147.1-90.9 111.4-125.7 188.3z"/></g><path class="c" d="m1840 2693c-6.3 0-11.7-4.8-12.2-11.2-12.9-155.2 107.7-238 112.9-241.5 5.6-3.8 13.2-2.3 17 3.4 3.8 5.6 2.3 13.2-3.3 17-1.3 0.9-113.8 78.7-102.1 219 0.6 6.8-4.5 12.7-11.2 13.3q-0.5 0-1.1 0z"/></svg>