<svg version="1.2" xmlns="http://www.w3.org/2000/svg" viewBox="0 0 299 235" width="299" height="235"><defs><linearGradient id="P" gradientUnits="userSpaceOnUse"/><radialGradient id="g1" cx="205.4" cy="207.4" r="136.6" href="#P"><stop stop-color="#657d94"/><stop offset="1" stop-color="#293140"/></radialGradient><radialGradient id="g2" cx="107.6" cy="204" r="190.9" href="#P"><stop stop-color="#07f"/><stop offset=".8" stop-color="#004cb7"/></radialGradient><radialGradient id="g3" cx="70.1" cy="198.3" r="253.5" href="#P"><stop stop-color="#2b8fff"/><stop offset="1" stop-color="#004cb7"/></radialGradient><radialGradient id="g4" cx="64.2" cy="242.2" r="240.1" href="#P"><stop stop-color="#0cf"/><stop offset="1"/></radialGradient><radialGradient id="g5" cx="234.2" cy="206.7" r="116.4" href="#P"><stop stop-color="#748fa8"/><stop offset="1" stop-color="#475670"/></radialGradient><radialGradient id="g6" cx="86.3" cy="-5" r="51.7" href="#P"><stop stop-color="#688096"/><stop offset="1" stop-color="#404e66"/></radialGradient><radialGradient id="g7" cx="75.7" cy="240.2" r="120.7" href="#P"><stop stop-color="#89a9c7"/><stop offset="1" stop-color="#526482"/></radialGradient><radialGradient id="g8" cx="248" cy="-27.5" r="99.6" href="#P"><stop stop-color="#688096"/><stop offset="1" stop-color="#404e66"/></radialGradient><radialGradient id="g9" cx="105.3" cy="205.9" r="233.6" href="#P"><stop stop-color="#89a9c7"/><stop offset="1" stop-color="#526482"/></radialGradient><radialGradient id="g10" cx="24.1" cy="264" r="201.6" href="#P"><stop stop-color="#89a9c7"/><stop offset="1" stop-color="#526482"/></radialGradient><radialGradient id="g11" cx="177.3" cy="23.6" r="227.8" href="#P"><stop offset="0"/><stop offset=".7"/><stop offset="1" stop-color="#99f0ff"/></radialGradient><radialGradient id="g12" cx="119.3" cy="128.5" r="106.6" href="#P"><stop stop-color="#00a3dd"/><stop offset="1" stop-color="#002c51"/></radialGradient><radialGradient id="g13" cx="124.8" cy="140.3" r="114.2" href="#P"><stop stop-color="#00a3dd"/><stop offset="1" stop-color="#00618e"/></radialGradient><radialGradient id="g14" cx="140.1" cy="8.1" r="162.3" href="#P"><stop offset=".4" stop-color="#000014"/><stop offset="1" stop-color="#00f7eb"/></radialGradient><radialGradient id="g15" cx="115.5" cy="109.2" r="81" href="#P"><stop stop-color="#00c9ff"/><stop offset="1" stop-color="#007999"/></radialGradient><radialGradient id="g16" cx="141.1" cy="76.4" r="96.5" href="#P"><stop stop-color="#002c51"/><stop offset="1" stop-color="#00a3dd"/></radialGradient><radialGradient id="g17" cx="131.5" cy="62.5" r="33.1" href="#P"><stop stop-color="#002c51"/><stop offset="1" stop-color="#006b9b"/></radialGradient><radialGradient id="g18" cx="118.7" cy="75" r="58" href="#P"><stop stop-color="#07f"/><stop offset=".8" stop-color="#004cb7"/></radialGradient><radialGradient id="g19" cx="183" cy="137.4" r="64.2" href="#P"><stop stop-color="#404e66"/><stop offset="1" stop-color="#688096"/></radialGradient><radialGradient id="g20" cx="105.3" cy="85" r="59.5" href="#P"><stop stop-color="#4db6ff"/><stop offset="1" stop-color="#030030"/></radialGradient><radialGradient id="g21" cx="109.9" cy="92.3" r="55.3" href="#P"><stop stop-color="#4db6ff"/><stop offset="1" stop-color="#030030"/></radialGradient><radialGradient id="g22" cx="116.8" cy="88.5" r="59.1" href="#P"><stop stop-color="#83ffea"/><stop offset="1" stop-color="#0ff"/></radialGradient><radialGradient id="g23" cx="68" cy="256.3" r="271.6" href="#P"><stop stop-color="#89a5cf"/><stop offset="1"/></radialGradient><radialGradient id="g24" cx="104" cy="193" r="262.3" href="#P"><stop offset=".6" stop-color="#fff"/><stop offset="1" stop-color="#2d4670"/></radialGradient><linearGradient id="g25" x1="107.2" y1="97.6" x2="108.5" y2="95.4" href="#P"><stop/><stop offset="1" stop-color="#78ffff"/></linearGradient><radialGradient id="g26" cx="112.5" cy="87" r="8.8" href="#P"><stop stop-color="#0ff"/><stop offset="1" stop-color="#000a00"/></radialGradient><radialGradient id="g27" cx="112.5" cy="87" r="5.2" href="#P"><stop stop-color="#83ffea"/><stop offset="1" stop-color="#000a00"/></radialGradient><radialGradient id="g28" cx="126" cy="90.1" r="8.8" href="#P"><stop stop-color="#0ff"/><stop offset="1" stop-color="#000a00"/></radialGradient><radialGradient id="g29" cx="126" cy="90.1" r="5.2" href="#P"><stop stop-color="#83ffea"/><stop offset="1" stop-color="#000a00"/></radialGradient><radialGradient id="g30" cx="104.5" cy="79.2" r="6.4" href="#P"><stop stop-color="#0ff"/><stop offset="1" stop-color="#000a00"/></radialGradient><radialGradient id="g31" cx="104.5" cy="79.2" r="3.8" href="#P"><stop stop-color="#83ffea"/><stop offset="1" stop-color="#000a00"/></radialGradient><radialGradient id="g32" cx="141.6" cy="86.8" r="6.2" href="#P"><stop stop-color="#0ff"/><stop offset="1" stop-color="#000a00"/></radialGradient><radialGradient id="g33" cx="141.6" cy="86.8" r="3.7" href="#P"><stop stop-color="#83ffea"/><stop offset="1" stop-color="#000a00"/></radialGradient><radialGradient id="g34" cx="154.7" cy="78.6" r="5.2" href="#P"><stop stop-color="#0ff"/><stop offset="1" stop-color="#000a00"/></radialGradient><radialGradient id="g35" cx="154.7" cy="78.6" r="3.1" href="#P"><stop stop-color="#83ffea"/><stop offset="1" stop-color="#000a00"/></radialGradient><radialGradient id="g36" cx="104.5" cy="68.3" r="5.3" href="#P"><stop stop-color="#0ff"/><stop offset="1" stop-color="#000a00"/></radialGradient><radialGradient id="g37" cx="104.5" cy="68.3" r="3.1" href="#P"><stop stop-color="#83ffea"/><stop offset="1" stop-color="#000a00"/></radialGradient><radialGradient id="g38" cx="161.7" cy="105" r="136.1" href="#P"><stop offset=".3" stop-color="#fff"/><stop offset="1"/></radialGradient><radialGradient id="g39" cx="119.8" cy="38.3" r="183.1" href="#P"><stop offset=".3" stop-color="#fff"/><stop offset="1"/></radialGradient><radialGradient id="g40" cx="144.9" cy="138.7" r="139.7" href="#P"><stop offset=".3" stop-color="#fff"/><stop offset="1"/></radialGradient><radialGradient id="g41" cx="161.4" cy="107.9" r="111.7" href="#P"><stop offset=".3" stop-color="#fff"/><stop offset="1"/></radialGradient><radialGradient id="g42" cx="114.6" cy="185.1" r="188.2" href="#P"><stop stop-color="#b3fff2"/><stop offset="1" stop-color="#009fd9"/></radialGradient><linearGradient id="g43" x1="44.5" y1="176.8" x2="54" y2="189.6" href="#P"><stop/><stop offset="1" stop-color="#0ff"/></linearGradient><linearGradient id="g44" x1="49" y1="182.9" x2="53.9" y2="189.6" href="#P"><stop/><stop offset="1" stop-color="#d2fff1"/></linearGradient><linearGradient id="g45" x1="196.3" y1="161.4" x2="209.1" y2="160.1" href="#P"><stop/><stop offset="1" stop-color="#0ff"/></linearGradient><linearGradient id="g46" x1="202.4" y1="160.8" x2="209.1" y2="160.1" href="#P"><stop/><stop offset="1" stop-color="#d2fff1"/></linearGradient><linearGradient id="g47" x1="230.1" y1="136.9" x2="239.9" y2="132.2" href="#P"><stop/><stop offset="1" stop-color="#0ff"/></linearGradient><linearGradient id="g48" x1="234.7" y1="134.7" x2="239.9" y2="132.2" href="#P"><stop/><stop offset="1" stop-color="#d2fff1"/></linearGradient><linearGradient id="g49" x1="208.5" y1="137.7" x2="216" y2="136" href="#P"><stop/><stop offset="1" stop-color="#0ff"/></linearGradient><linearGradient id="g50" x1="212.1" y1="136.9" x2="216" y2="136" href="#P"><stop/><stop offset="1" stop-color="#d2fff1"/></linearGradient><linearGradient id="g51" x1="208.6" y1="173" x2="216.9" y2="172.9" href="#P"><stop/><stop offset="1" stop-color="#0ff"/></linearGradient><linearGradient id="g52" x1="212.5" y1="172.9" x2="216.9" y2="172.9" href="#P"><stop/><stop offset="1" stop-color="#d2fff1"/></linearGradient><linearGradient id="g53" x1="66.9" y1="172" x2="76.1" y2="181" href="#P"><stop/><stop offset="1" stop-color="#0ff"/></linearGradient><linearGradient id="g54" x1="71.2" y1="176.2" x2="76.1" y2="181" href="#P"><stop/><stop offset="1" stop-color="#d2fff1"/></linearGradient><linearGradient id="g55" x1="53.8" y1="144.5" x2="60" y2="155.2" href="#P"><stop/><stop offset="1" stop-color="#0ff"/></linearGradient><linearGradient id="g56" x1="56.8" y1="149.6" x2="60" y2="155.2" href="#P"><stop/><stop offset="1" stop-color="#d2fff1"/></linearGradient><linearGradient id="g57" x1="262.3" y1="143.9" x2="241.7" y2="154.2" href="#P"><stop/><stop offset="1" stop-color="#0ff"/></linearGradient><linearGradient id="g58" x1="252.6" y1="148.8" x2="241.7" y2="154.2" href="#P"><stop/><stop offset="1" stop-color="#d2fff1"/></linearGradient></defs><style>.a{fill:url(#g1)}.b{fill:url(#g2)}.c{fill:url(#g3)}.d{opacity:.5;mix-blend-mode:screen;fill:url(#g4)}.e{fill:url(#g5)}.f{fill:url(#g6)}.g{fill:url(#g7)}.h{fill:url(#g8)}.i{fill:url(#g9)}.j{fill:url(#g10)}.k{mix-blend-mode:screen;fill:url(#g11)}.l{fill:#0ff}.m{fill:url(#g12)}.n{opacity:.7;mix-blend-mode:screen;fill:#9cfff8}.o{fill:url(#g13)}.p{mix-blend-mode:screen;fill:url(#g14)}.q{fill:url(#g15)}.r{fill:url(#g16)}.s{fill:url(#g17)}.t{opacity:.5;mix-blend-mode:screen;fill:#9cfff8}.u{fill:url(#g18)}.v{fill:url(#g19)}.w{opacity:.5;mix-blend-mode:screen;fill:url(#g20)}.x{opacity:.5;mix-blend-mode:screen;fill:url(#g21)}.y{fill:url(#g22)}.z{opacity:.7;mix-blend-mode:screen;fill:url(#g23)}.A{mix-blend-mode:multiply;fill:url(#g24)}.B{opacity:.5;mix-blend-mode:screen;fill:url(#g25)}.C{fill:#baffff}.D{mix-blend-mode:screen;fill:url(#g26)}.E{mix-blend-mode:screen;fill:url(#g27)}.F{mix-blend-mode:screen;fill:url(#g28)}.G{mix-blend-mode:screen;fill:url(#g29)}.H{mix-blend-mode:screen;fill:url(#g30)}.I{mix-blend-mode:screen;fill:url(#g31)}.J{mix-blend-mode:screen;fill:url(#g32)}.K{mix-blend-mode:screen;fill:url(#g33)}.L{mix-blend-mode:screen;fill:url(#g34)}.M{mix-blend-mode:screen;fill:url(#g35)}.N{mix-blend-mode:screen;fill:url(#g36)}.O{mix-blend-mode:screen;fill:url(#g37)}.P{opacity:.2;mix-blend-mode:screen;fill:url(#g38)}.Q{opacity:.3;mix-blend-mode:screen;fill:url(#g39)}.R{opacity:.3;mix-blend-mode:screen;fill:url(#g40)}.S{opacity:.2;mix-blend-mode:screen;fill:url(#g41)}.T{fill:url(#g42)}.U{mix-blend-mode:screen;fill:url(#g43)}.V{mix-blend-mode:screen;fill:url(#g44)}.W{mix-blend-mode:screen;fill:url(#g45)}.X{mix-blend-mode:screen;fill:url(#g46)}.Y{mix-blend-mode:screen;fill:url(#g47)}.Z{mix-blend-mode:screen;fill:url(#g48)}.a0{mix-blend-mode:screen;fill:url(#g49)}.a1{mix-blend-mode:screen;fill:url(#g50)}.a2{mix-blend-mode:screen;fill:url(#g51)}.a3{mix-blend-mode:screen;fill:url(#g52)}.a4{mix-blend-mode:screen;fill:url(#g53)}.a5{mix-blend-mode:screen;fill:url(#g54)}.a6{mix-blend-mode:screen;fill:url(#g55)}.a7{mix-blend-mode:screen;fill:url(#g56)}.a8{mix-blend-mode:screen;fill:url(#g57)}.a9{mix-blend-mode:screen;fill:url(#g58)}</style><path class="a" d="m288 118l1.2-60.9c9.4 23.4 13.8 39.5 3.5 73.4z"/><path class="b" d="m118.4 26.3c75-26 150.3-4.9 168.3 47.1 18 52-28.3 115.1-103.2 141.1-75 25.9-150.4 4.8-168.3-47.2-18-52 28.2-115.1 103.2-141z"/><path class="c" d="m115.6 18.6c75-25.9 150.3-4.8 168.3 47.1 18 52-28.2 115.1-103.2 141.1-75 25.9-150.3 4.8-168.3-47.2-18-51.9 28.2-115.1 103.2-141z"/><path class="d" d="m245.5 169.6c-17.4 15.4-39.5 28.4-64.8 37.2-75 25.9-150.3 4.8-168.3-47.2-13.3-38.3 8.4-82.7 50.7-113.8 83.6-19.7 162.2 7.1 182.3 65.3 6.5 18.8 6.2 38.8 0.1 58.5z"/><path class="e" d="m292.7 130.5l-11.1 3.8 2.7-6.3-2.5-8.4c-26.7-12.2-44.5-18.2-70.1-26l2.1-3.3c13.8 0.9 55.8 11.9 75.4 28.2z"/><path class="f" d="m108.2 39.1l-1.9 1c-4.5-4.9-10.3-10.1-14.3-11.7l-2.6-6.1c4.4 0 15.2 9.2 18.8 16.8z"/><path class="g" d="m66.5 119.1l1.3 3.9c-20.3 14.7-36.5 30.3-50.2 48.3l5.5 12.1-6.5 0.1-5.6-7.9c7.5-19.4 30.9-41.8 55.5-56.5z"/><path class="h" d="m192 8c-10.7 6.5-13.8 9.9-21.6 19l-5.5 0.1c5.8-12.1 19.2-22.9 28.8-26l3.2 7.3z"/><path class="i" d="m165.3 26.5c19.5 1.4 36.1 8.7 45.3 20.9 21.2-5.9 41.6-9.6 66.6-9.6 6.1 7.2 10.9 15.4 14 24.4 6.2 18.1 5.1 37.5-2 56.3-27.7-13.1-47-20.1-75.4-28.2-7.1 15.7-22 30.5-42.1 40.7l39.1 68c-9 4.6-18.6 8.7-28.6 12.2-31.3 10.8-62.7 13.9-90.4 10.3 4.1-27 9.4-51.7 17.4-78.1-19.5-2.1-35.6-10.4-43.8-23.5-19.4 14.1-45.7 38.9-54.4 55.7q-4-6.7-6.6-14.2c-7.9-22.6-4.2-47.2 8.4-70.2 16.5-7.7 32.2-12.4 53.2-14.9 7.8-14.7 22.5-28.3 41.7-37.8-5.7-6.2-12.2-12.5-18.3-16.2 7.7-3.7 15.7-7 24-9.9 27.6-9.5 55.2-13 80.3-11.3-13.2 7.6-22.5 17.3-28.4 25.4z"/><path class="j" d="m182.2 211.2c10-3.5 19.6-7.6 28.6-12.2l3.3 11.2c-9.3 5-19.3 9.4-29.9 13.1-30.5 10.6-61.2 13.3-87.9 9.4l-4.5-11.2c27.7 3.6 59.1 0.5 90.4-10.3z"/><path class="k" d="m165.3 26.5c19.5 1.4 36.1 8.7 45.3 20.9 21.2-5.9 41.6-9.6 66.6-9.6 6.1 7.2 10.9 15.4 14 24.4 6.2 18.1 5.1 37.5-2 56.3-27.7-13.1-47-20.1-75.4-28.2-7.1 15.7-22 30.5-42.1 40.7l39.1 68c-9 4.6-18.6 8.7-28.6 12.2-31.3 10.8-62.7 13.9-90.4 10.3 4.1-27 9.4-51.7 17.4-78.1-19.5-2.1-35.6-10.4-43.8-23.5-19.4 14.1-45.7 38.9-54.4 55.7q-4-6.7-6.6-14.2c-7.9-22.6-4.2-47.2 8.4-70.2 16.5-7.7 32.2-12.4 53.2-14.9 7.8-14.7 22.5-28.3 41.7-37.8-5.7-6.2-12.2-12.5-18.3-16.2 7.7-3.7 15.7-7 24-9.9 27.6-9.5 55.2-13 80.3-11.3-13.2 7.6-22.5 17.3-28.4 25.4z"/><path class="l" d="m98.7 227c0.3-0.6 0.8-0.9 1.5-0.9 28 2.3 56.8-2.2 83.2-11.3q11.7-4.1 22.9-9.4c0.7-0.3 1.5-0.2 2.1 0.4 0.6 0.5 0.8 1.3 0.6 2.1-0.3 0.6-0.7 1.1-1.3 1.4-8 4-16.3 7.5-24.7 10.4-26.2 9.1-55 13.1-82.7 9.7-0.6-0.1-1.1-0.3-1.4-0.8-0.4-0.4-0.5-1.1-0.2-1.6z"/><path class="m" d="m122.7 38.7c36.2-12.9 72.6-3.6 81.3 20.8 8.7 24.4-13.6 54.6-49.8 67.5-36.2 12.9-72.6 3.6-81.3-20.8-8.6-24.4 13.6-54.7 49.8-67.5z"/><path class="n" d="m122 38.7c35.7-12.7 71.6-3.5 80.1 20.6 8.6 24-13.4 53.8-49 66.5-35.7 12.7-71.6 3.5-80.1-20.5-8.6-24.1 13.4-53.9 49-66.6z"/><path class="o" d="m121.7 36.2c36.2-12.8 72.6-3.5 81.3 20.9 8.7 24.4-13.6 54.6-49.8 67.5-36.2 12.9-72.6 3.6-81.3-20.8-8.7-24.4 13.6-54.7 49.8-67.6z"/><path class="p" d="m200.9 85.1c-7.4 16.2-24.7 31.3-47.7 39.5-36.2 12.9-72.6 3.6-81.3-20.8-5.3-15 1.1-32.2 15.2-46.3q5.8-2.7 12-5c44.6-15.8 89.4-4.4 100.1 25.7q1.2 3.4 1.7 6.9z"/><path class="q" d="m124.4 44c25-8.9 50.1-2.5 56.1 14.3 6 16.9-9.4 37.7-34.4 46.6-24.9 8.9-50 2.5-56-14.4-6-16.8 9.4-37.6 34.3-46.5z"/><path class="r" d="m125.3 46.4c23-8.2 46.1-2.3 51.6 13.2 5.5 15.5-8.6 34.7-31.6 42.9-23 8.2-46.1 2.3-51.6-13.2-5.5-15.5 8.6-34.7 31.6-42.9z"/><path class="s" d="m93.7 89.3c-5.5-15.5 8.6-34.7 31.6-42.9 23-8.2 46.1-2.3 51.6 13.2q0.5 1.4 0.8 2.9c-7.2-13.4-28.8-18.2-50.4-10.5-21.6 7.7-35.4 25.1-32.4 40q-0.7-1.3-1.2-2.7z"/><path class="t" d="m93 77.5c2.6-12.4 14.9-24.9 32.3-31.1 20.6-7.4 41.4-3.3 49.4 8.8-8.5-11.6-29-15.3-49.3-8.1-17.1 6.1-29.3 18.2-32.4 30.4z"/><path class="u" d="m126.1 48.8c9.9-3.6 20.2-4.1 28.4-1.8 13 3.5 20.3 14.2 22.8 25.4-3 12.1-15.1 24.1-32 30.1-16.7 5.9-33.4 4.5-43.4-2.7-4.9-7.9-6.4-18.9-2.3-28.7 4-9.3 13.8-17.8 26.5-22.3z"/><path class="v" d="m212.2 93.7c-6.9 14.8-20.9 28.9-39.6 38.9l-0.9-1.6c18.6-9.4 32.8-22.9 40.4-37.3q0 0 0.1 0z"/><path class="w" d="m97.6 78q0.3-1.9 0.9-3.9 0.5-1.5 1.1-3c4-9.3 13.8-17.8 26.5-22.3 6.5-2.4 13.3-3.4 19.4-3.2 9.6 0.4 18.1 5.7 21.4 14.7 10.1 27.5-32.3 48.2-55 41-9.9-3.1-15.9-13-14.3-23.3z"/><path class="x" d="m115 56.9c11.9-8 25.6-8.1 30.7-0.3 5 7.8-0.5 20.6-12.3 28.5-11.9 8-25.6 8.1-30.7 0.3-5.1-7.8 0.4-20.6 12.3-28.5z"/><path class="y" d="m156.6 49.4c0 1-2.2 1.2-3.4 1.1-1.3 0-3.5-0.3-3.6-1.4 0-1 2.3-1.2 3.5-1.2 1.3 0.1 3.5 0.5 3.5 1.5zm8.1 8.3c-0.2 1.4-2.5 1.3-3.9 0.9-1.4-0.3-3.3-1.4-3-2.7 0.3-1.3 2.7-1.3 4.1-0.9 1.3 0.3 3.1 1.5 2.8 2.7zm-1.3 7.9c1.5 0.9 2.8 2.6 2 3.9-0.8 1.4-3.2 1-4.7 0.2-1.4-0.8-2.9-2.7-2.1-4 0.8-1.3 3.4-0.9 4.8-0.1zm-6.5 11c1.3 1.3 1.7 3.7 0.6 4.7-1.3 1.2-3.5 0.8-5.1-0.8-1.2-1.2-1.6-3.6-0.4-4.6 1.3-1.1 3.5-0.6 4.9 0.7zm-12.7 8.3c1.1 1.5 1.1 3.8-0.2 4.9-1.6 1.4-4.3 0.8-5.3-1.2-0.9-1.7-0.5-3.7 0.7-4.7 1.4-1 3.6-0.6 4.8 1zm-15.2 5.4c-0.3 2.1-1.7 3.7-3.3 3.6-1.6-0.1-2.8-2.1-2.6-4 0.3-2.2 1.9-3.7 3.6-3.6 1.5 0.2 2.4 2.1 2.3 4zm-15.2-6.7c1.1 0.3 1.8 1.6 1.2 4-0.4 1.6-2.2 3.8-4 2.9-1.5-0.7-1.4-3.2-0.6-4.8 0.9-1.7 2.3-2.4 3.4-2.1zm-7.4-3.1c-1 1.2-3.1 2.7-4.2 1.7-1.1-1.1-0.1-3.4 1.2-4.8 1-1.1 3-2.1 3.9-1.2 1 1 0.1 3.1-0.9 4.3zm0.9-14.7c0.7 0.8-0.7 2.7-1.7 3.7-1 0.9-3.1 2.1-3.8 1.4-0.6-0.7 0.5-2.7 1.6-3.8 1.2-1 3.1-2.2 3.9-1.3zm1.5-6.9q2.1-2 4.6-3.7c1.9 0 1.4 1.8-0.6 3.2-1.8 1.4-4.4 1.9-4 0.5zm17.3-10.1q1-0.4 2-0.7c-1 2.4-4.5 3.2-6.5 2.5q2.2-1 4.5-1.8zm16.5-3.2c0.9 1-0.8 2-2.7 2.1-1.9 0.2-3.9-0.5-3.3-1.6q3-0.4 6-0.5z"/><path class="z" d="m204 59.5q-0.5-1.4-1.1-2.8-0.1-0.1-0.2-0.3c17.4 10 31.2 23.5 39.7 40q0.9 1.7 1.7 3.4c-9.4-3.3-19.2-6.3-30.3-9.5q-0.8 1.7-1.7 3.4c-7.6 14.4-21.8 27.9-40.4 37.3l0.9 1.6 35.8 62.3 2.4 4.1c-9 4.6-18.6 8.7-28.6 12.2-31.3 10.8-62.7 13.9-90.4 10.3q0.4-2.7 0.9-5.4c3.9-24.9 9-48 16.5-72.7-17.9-1.9-32.9-9-41.5-20.3q-1.3-1.6-2.3-3.2c-16.6 12.1-38.2 32-49.6 48q-0.1 0.2-0.3 0.4c-1.8 2.5-3.3 5-4.5 7.3q0 0 0 0-4-6.7-6.6-14.2c-7.9-22.6-4.2-47.2 8.4-70.2 3.9-1.8 7.7-3.5 11.6-5 3.6-1.4 7.3-2.6 11-3.7 9.3-2.8 19.1-4.9 30.6-6.2 7.6-14.2 21.5-27.4 39.8-36.8q0.9-0.5 1.9-1-0.9-0.9-1.8-1.9 0.4 0 0.8-0.1 7.7-0.4 15.1-0.3 0 0-0.1 0c-13.9 5-25.8 12.5-34.6 21.3-14.1 14.1-20.5 31.3-15.2 46.3q0.6 1.4 1.2 2.8c8.9 24.1 45.1 33.3 81.1 20.4 36.2-12.9 58.5-43.1 49.8-67.5z"/><path class="A" d="m105 20.7q-5.9 2-11.5 4.3-2.1-1.5-4.1-2.7c7.7-3.7 15.7-7 24-9.9 27.6-9.5 55.2-13 80.3-11.3-4.7 2.8-9 5.7-12.7 8.8-23.8-1.6-49.9 1.8-76 10.8zm172.2 17.1c6.1 7.2 10.9 15.4 14 24.4 6.2 18.1 5.1 37.5-2 56.3-4.7-2.2-9.2-4.3-13.5-6.2 3.9-14.9 3.8-29.9-1.1-44.1-4-11.3-10.6-21.2-19.3-29.4 7-0.6 14.2-1 21.9-1z"/><path class="B" d="m101.4 92.3c1.4 0.6 4.9 2.1 7 3.1 1.6 2.1 3.5 4.1 5.1 5.5-2-0.7-4.3-1.7-6.4-3.2-2.6-1.7-4.5-3.7-5.7-5.4zm-1.9-5.2c0.4-0.5 2.4 0.4 4.8 1.9 0.3 1 2 3.7 4.1 6.4-2.1-1-5.6-2.5-7-3.1-1.8-2.4-2.4-4.4-1.9-5.2zm8.9 8.3c3.7 1.7 10.4 4.4 11 4.1 0.8 0.6 1.1 1.1 0.8 1.6-0.5 0.8-3.3 0.8-6.7-0.2-1.6-1.4-3.5-3.4-5.1-5.5zm-4.1-6.4c4 2.6 9.4 6.7 10.2 7.2 2.1 1.3 3.9 2.4 4.9 3.3-0.6 0.3-7.3-2.4-11-4.1-2.1-2.7-3.8-5.4-4.1-6.4z"/><path class="C" d="m172.1 219.5c-16.3 7.1-43.7 12.1-71.6 9.2-2.4-0.2-1.7-2-0.5-1.9 29.9 1.5 43.7-0.8 72.1-7.3z"/><circle class="D" cx="112.5" cy="87" r="8.8"/><circle class="E" cx="112.5" cy="87" r="5.2"/><circle class="F" cx="126" cy="90.1" r="8.8"/><circle class="G" cx="126" cy="90.1" r="5.2"/><circle class="H" cx="104.5" cy="79.2" r="6.4"/><circle class="I" cx="104.5" cy="79.2" r="3.8"/><g style="opacity:.9"><circle class="J" cx="141.6" cy="86.8" r="6.2"/><circle class="K" cx="141.6" cy="86.8" r="3.7"/></g><g style="opacity:.7"><circle class="L" cx="154.7" cy="78.6" r="5.2"/><circle class="M" cx="154.7" cy="78.6" r="3.1"/></g><circle class="N" cx="104.5" cy="68.3" r="5.3"/><circle class="O" cx="104.5" cy="68.3" r="3.1"/><path class="P" d="m216.1 57.7c-1.3-3.7-3.2-7.2-5.5-10.3 21.2-5.9 41.6-9.6 66.6-9.6 6.1 7.2 10.9 15.4 14 24.4 6.2 18.1 5.1 37.5-2 56.3-27.7-13.1-47-20.1-75.4-28.2 4.9-10.9 6-22.2 2.3-32.6z"/><path class="Q" d="m157.5 137.1q7.5-2.6 14.2-6.1l39.1 68c-9 4.6-18.6 8.7-28.6 12.2-31.3 10.8-62.7 13.9-90.4 10.3 4.1-27 9.4-51.7 17.4-78.1 14.8 1.6 31.6-0.3 48.3-6.3z"/><path class="R" d="m65.4 119.9c-19.4 14.2-45.7 38.9-54.4 55.7q-4-6.7-6.6-14.2c-7.9-22.6-4.2-47.2 8.4-70.2 16.5-7.7 32.2-12.4 53.2-14.9-6.4 12-8.2 24.7-4.1 36.3q1.4 3.8 3.5 7.3z"/><path class="S" d="m107.6 38.5c-5.6-6.2-12.1-12.5-18.2-16.2 7.7-3.7 15.7-7 24-9.9 27.6-9.5 55.2-13 80.3-11.3-13.2 7.6-22.5 17.3-28.4 25.4-13.9-0.9-29.4 1.1-44.8 6.6q-6.7 2.4-12.9 5.4z"/><path class="T" d="m182.1 25.8c-0.8-0.2-1.3-0.9-1.1-1.7 0.1-0.8 0.9-1.3 1.7-1.2 6.6 1.3 12.8 3.2 18.5 5.7 5.6 2.5 10.7 5.6 15.1 9.3 0.6 0.5 0.7 1.4 0.2 2.1-0.6 0.6-1.5 0.7-2.1 0.1-4.2-3.5-9-6.4-14.4-8.8-5.5-2.4-11.5-4.3-17.9-5.5zm15.8-11.4c-0.8-0.1-1.4-0.8-1.3-1.7 0.2-0.8 0.9-1.3 1.7-1.2 9.7 1.5 18.8 4 27.2 7.3 8.3 3.3 15.8 7.6 22.4 12.6 0.7 0.5 0.8 1.4 0.3 2.1-0.5 0.6-1.4 0.7-2.1 0.2-6.3-4.8-13.6-8.9-21.7-12.2-8.1-3.2-17-5.6-26.5-7.1zm-5.8 3.7c-0.8-0.1-1.3-0.9-1.2-1.7 0.1-0.8 0.9-1.3 1.7-1.2 8.7 1.4 16.8 3.6 24.3 6.7 7.4 3 14.2 6.8 20.1 11.3 0.6 0.5 0.7 1.5 0.2 2.1-0.5 0.6-1.4 0.8-2 0.3-5.7-4.4-12.2-8.1-19.4-11-7.3-3-15.2-5.1-23.7-6.5zm-5.2 3.8c-0.8-0.1-1.4-0.9-1.2-1.7 0.1-0.8 0.9-1.3 1.7-1.2 7.6 1.3 14.9 3.4 21.4 6.1 6.6 2.8 12.5 6.2 17.7 10.3 0.6 0.5 0.7 1.5 0.2 2.1-0.5 0.6-1.4 0.7-2.1 0.2-4.9-3.9-10.6-7.2-16.9-9.9-6.4-2.6-13.4-4.6-20.8-5.9zm-123.8 49.8c-0.4 0.5-1 0.6-1.5 0.2-0.5-0.3-0.6-1-0.2-1.5 4.1-5.8 9.2-11.3 15.1-16.5 5.7-5.1 12.3-9.8 19.4-14 0.6-0.3 1.2-0.1 1.5 0.4 0.3 0.5 0.1 1.1-0.4 1.4-7.1 4.1-13.5 8.8-19.1 13.8-5.8 5-10.7 10.5-14.8 16.2zm-7.8 1.3c-0.3 0.5-1 0.6-1.4 0.3-0.5-0.4-0.6-1.1-0.3-1.5 4.8-6.5 10.6-12.8 17.3-18.5 6.5-5.7 13.9-10.9 22.1-15.6 0.5-0.3 1.1-0.1 1.4 0.4 0.3 0.5 0.1 1.2-0.4 1.5-8 4.5-15.3 9.7-21.7 15.3-6.6 5.6-12.3 11.7-17 18.1zm-7.9 1.7c-0.4 0.4-1 0.5-1.5 0.2-0.5-0.4-0.6-1-0.2-1.5 5.4-7.2 11.9-14.2 19.4-20.6 7.4-6.3 15.7-12.1 24.8-17.2 0.5-0.2 1.2-0.1 1.5 0.5 0.2 0.5 0.1 1.1-0.5 1.4-8.9 5-17.1 10.7-24.4 16.9-7.4 6.3-13.8 13.2-19.1 20.3zm-8.2 2c-0.4 0.4-1 0.5-1.5 0.2-0.5-0.4-0.6-1.1-0.2-1.5 6-8.1 13.3-15.7 21.6-22.8 8.2-6.9 17.4-13.3 27.6-18.9 0.5-0.3 1.1-0.1 1.4 0.4 0.3 0.5 0.1 1.1-0.4 1.4-10 5.6-19.1 11.9-27.2 18.7-8.2 7-15.4 14.6-21.3 22.5zm224.1 42.9c0.5-1 1.8-1.5 2.8-0.9 1.1 0.5 1.5 1.7 1 2.8-5.5 11.3-13.4 22.2-23.4 32.3-9.8 9.9-21.6 18.9-34.9 26.5-1 0.6-2.4 0.3-2.9-0.8-0.6-1-0.3-2.3 0.8-2.9 13-7.5 24.4-16.2 34-25.8 9.6-9.7 17.3-20.3 22.6-31.2zm-175.2 78.5c1.2 0.2 1.9 1.3 1.7 2.5-0.2 1.1-1.4 1.9-2.5 1.6-12.6-2.6-24.1-6.8-34-12.7-9.7-5.7-17.9-12.9-24.1-21.4-0.7-1-0.5-2.3 0.5-3 1-0.7 2.3-0.5 3 0.5 5.8 8 13.6 14.9 22.8 20.3 9.5 5.5 20.5 9.7 32.6 12.2zm161.4-84.1c0.5-1.1 1.8-1.5 2.9-0.9 1 0.5 1.4 1.8 0.9 2.8-5.1 9.9-12.2 19.5-21.1 28.3-8.6 8.6-19 16.6-30.8 23.3-1 0.6-2.3 0.3-2.9-0.7-0.6-1.1-0.2-2.4 0.8-2.9 11.4-6.6 21.5-14.3 29.9-22.7 8.6-8.5 15.4-17.7 20.3-27.2zm-158.5 69.5c1.2 0.2 1.9 1.3 1.7 2.5-0.3 1.1-1.4 1.9-2.5 1.6-11.1-2.3-21.2-6.1-30-11.2-8.6-5-15.9-11.3-21.4-18.8-0.8-0.9-0.6-2.2 0.4-2.9 0.9-0.8 2.3-0.6 3 0.4 5.2 7 12.1 12.9 20.2 17.6 8.3 4.9 18 8.5 28.6 10.8zm144.4-74.8c0.6-1 1.9-1.4 2.9-0.8 1.1 0.6 1.4 1.8 0.9 2.9-4.6 8.4-10.9 16.5-18.6 24-7.6 7.4-16.5 14.1-26.5 20-1 0.6-2.3 0.2-2.9-0.8-0.6-1-0.2-2.3 0.8-2.9 9.7-5.7 18.3-12.2 25.6-19.3 7.4-7.2 13.4-15 17.8-23.1zm-141.1 60.2c1.2 0.3 1.9 1.4 1.6 2.6-0.2 1.1-1.3 1.8-2.5 1.6-9.4-2-18.1-5.2-25.6-9.4-7.5-4.2-13.9-9.5-18.9-15.7-0.7-1-0.6-2.3 0.3-3 0.9-0.8 2.3-0.6 3 0.3 4.7 5.8 10.7 10.7 17.6 14.6 7.2 4.1 15.5 7.1 24.5 9zm126.7-65c0.7-1.1 2-1.4 3-0.8 1 0.6 1.3 2 0.7 3-4.1 6.8-9.5 13.4-16 19.5-6.3 6-13.7 11.6-21.9 16.4-1 0.6-2.3 0.2-2.9-0.8-0.6-1-0.3-2.3 0.7-2.9 8-4.6 15.1-10 21.2-15.8 6.2-5.8 11.3-12.1 15.2-18.6zm-123 50.6c1.1 0.2 1.9 1.4 1.6 2.5-0.2 1.2-1.3 1.9-2.5 1.7-7.7-1.7-14.9-4.2-21.2-7.5-6.3-3.3-11.7-7.4-16.2-12.3-0.8-0.9-0.7-2.2 0.2-3 0.8-0.8 2.2-0.7 3 0.1 4.1 4.5 9.1 8.3 15 11.4 6 3.2 12.7 5.6 20.1 7.1z"/><g style="opacity:.5"><path class="U" d="m58.5 181.7c-2.7 4.7-4 7-4.6 7.9-2.4-1.5-4-2.4-18.3-10.7 1.3-2.1 4.5-2.9 8.6-2.4 4.2 0.5 9.3 2.2 14.3 5.2zm11.6 9.8c2.5 3.4 3.4 6.5 2.1 8.7-14.3-8.3-16.2-9.4-18.3-10.6 0.6-0.9 1.9-3.2 4.6-7.9 5.1 2.9 9.1 6.5 11.6 9.8zm-16.2-1.9c-0.4 0.6-0.8 1.5-4.6 7.9-5-3-9.1-6.5-11.6-9.9-2.4-3.3-3.3-6.5-2.1-8.7 14.3 8.3 15.9 9.2 18.3 10.7zm18.3 10.6c-1.3 2.2-4.5 3-8.6 2.5-4.1-0.5-9.2-2.3-14.3-5.2 3.8-6.4 4.2-7.3 4.6-7.9 2.1 1.2 4 2.3 18.3 10.6z"/><path class="V" d="m56.3 185.4c-1.4 2.5-2.1 3.7-2.4 4.2-1.3-0.8-2.1-1.3-9.6-5.6 0.7-1.2 2.4-1.6 4.5-1.3 2.2 0.2 4.9 1.2 7.5 2.7zm6.1 5.2c1.3 1.7 1.8 3.4 1.1 4.6-7.5-4.4-8.5-5-9.6-5.6 0.3-0.5 1-1.7 2.4-4.2 2.7 1.6 4.8 3.4 6.1 5.2zm-8.5-1c-0.2 0.3-0.4 0.8-2.4 4.1-2.7-1.5-4.8-3.4-6.1-5.1-1.3-1.8-1.8-3.5-1.1-4.6 7.5 4.3 8.3 4.8 9.6 5.6zm9.6 5.6c-0.6 1.1-2.3 1.5-4.5 1.3-2.2-0.3-4.8-1.2-7.5-2.8 2-3.3 2.2-3.8 2.4-4.1 1.1 0.6 2.1 1.2 9.6 5.6z"/></g><g style="opacity:.5"><path class="W" d="m203.8 152.6c3.2 4.5 4.7 6.6 5.3 7.5-1.8 1.2-3 2.1-13.4 9.4-1.4-2.1-1.3-5 0.2-8.1 1.5-3 4.2-6.2 7.9-8.8zm11-4.4c3.4-0.4 6.2 0.4 7.7 2.5-10.5 7.3-11.9 8.3-13.4 9.4-0.6-0.9-2.1-3-5.3-7.5 3.7-2.6 7.7-4.1 11-4.4zm-5.7 11.9c0.4 0.6 1 1.4 5.2 7.5-3.7 2.6-7.6 4.1-11 4.4-3.3 0.4-6.2-0.5-7.6-2.5 10.4-7.3 11.6-8.2 13.4-9.4zm13.4-9.4c1.4 2.1 1.2 5-0.3 8-1.4 3.1-4.2 6.3-7.9 8.9-4.2-6.1-4.8-6.9-5.2-7.5 1.5-1.1 2.9-2.1 13.4-9.4z"/><path class="X" d="m206.3 156.2c1.7 2.3 2.5 3.4 2.8 3.9-1 0.6-1.6 1.1-7.1 4.9-0.7-1.1-0.6-2.6 0.2-4.2 0.7-1.6 2.2-3.3 4.1-4.6zm5.8-2.4c1.8-0.2 3.2 0.3 4 1.4-5.5 3.8-6.2 4.3-7 4.9-0.3-0.5-1.1-1.6-2.8-3.9 2-1.4 4-2.2 5.8-2.4zm-3 6.3c0.2 0.3 0.5 0.7 2.7 3.9-1.9 1.4-4 2.2-5.7 2.4-1.8 0.1-3.3-0.3-4.1-1.4 5.5-3.8 6.1-4.3 7.1-4.9zm7-4.9c0.8 1 0.7 2.6-0.1 4.2-0.8 1.6-2.2 3.3-4.2 4.6-2.2-3.2-2.5-3.6-2.7-3.9 0.8-0.6 1.5-1.1 7-4.9z"/></g><g style="opacity:.5"><path class="Y" d="m234.5 127.9c3.3 2.6 4.8 3.8 5.4 4.3-1.2 1.5-2 2.5-8.9 11.3-1.5-1.3-1.9-3.6-1.3-6.4 0.7-2.8 2.3-6.1 4.8-9.2zm7.9-6.7c2.6-1.2 5-1.4 6.5-0.2-7 8.7-8 9.9-9 11.2-0.6-0.5-2.1-1.7-5.4-4.3 2.4-3.1 5.3-5.4 7.9-6.7zm-2.5 11c0.5 0.4 1 0.8 5.5 4.4-2.5 3.1-5.4 5.4-8 6.6-2.6 1.3-4.9 1.5-6.4 0.3 6.9-8.8 7.7-9.8 8.9-11.3zm9-11.2c1.5 1.2 1.8 3.5 1.2 6.3-0.6 2.9-2.3 6.2-4.7 9.3-4.5-3.6-5-4-5.5-4.4 1-1.3 2-2.5 9-11.2z"/><path class="Z" d="m237.1 129.9c1.7 1.4 2.5 2.1 2.8 2.3-0.6 0.8-1 1.3-4.7 5.9-0.8-0.6-1-1.8-0.6-3.3 0.3-1.5 1.2-3.2 2.5-4.9zm4.1-3.5c1.4-0.6 2.6-0.7 3.4-0.1-3.6 4.6-4.1 5.3-4.7 5.9-0.3-0.2-1.1-0.9-2.8-2.3 1.3-1.6 2.7-2.8 4.1-3.5zm-1.3 5.8c0.2 0.2 0.6 0.4 2.9 2.3-1.3 1.6-2.8 2.9-4.2 3.5-1.4 0.7-2.6 0.8-3.4 0.1 3.7-4.6 4.1-5.1 4.7-5.9zm4.7-5.9c0.8 0.6 1 1.9 0.7 3.4-0.4 1.4-1.2 3.2-2.5 4.8-2.3-1.9-2.7-2.1-2.9-2.3 0.6-0.6 1.1-1.3 4.7-5.9z"/></g><g style="opacity:.5"><path class="a0" d="m213 132.2c1.8 2.3 2.7 3.4 3 3.8-1 0.9-1.7 1.4-7.9 6.3-0.9-1.1-0.8-2.7 0.1-4.6 0.9-1.8 2.6-3.8 4.8-5.5zm6.5-3.3c2-0.5 3.7-0.2 4.5 0.9-6.2 4.9-7 5.5-8 6.2-0.3-0.4-1.2-1.5-3-3.8 2.2-1.8 4.5-2.9 6.5-3.3zm-3.5 7.1c0.3 0.4 0.6 0.8 3.1 3.9-2.2 1.7-4.6 2.9-6.5 3.3-2 0.5-3.7 0.2-4.5-0.9 6.2-4.9 6.9-5.4 7.9-6.3zm8-6.2c0.9 1 0.7 2.7-0.2 4.5-0.9 1.9-2.5 3.9-4.7 5.6-2.5-3.1-2.8-3.5-3.1-3.9 1-0.7 1.8-1.3 8-6.2z"/><path class="a1" d="m214.4 134c1 1.2 1.5 1.8 1.6 2-0.5 0.5-0.9 0.8-4.2 3.3-0.4-0.5-0.3-1.4 0.1-2.4 0.5-0.9 1.4-2 2.5-2.9zm3.5-1.7c1-0.3 1.9-0.1 2.3 0.4-3.2 2.6-3.7 3-4.2 3.3-0.1-0.2-0.6-0.8-1.6-2 1.2-0.9 2.4-1.5 3.5-1.7zm-1.9 3.7c0.2 0.2 0.3 0.4 1.6 2.1-1.1 0.9-2.3 1.5-3.4 1.7-1 0.2-1.9 0.1-2.4-0.5 3.3-2.5 3.7-2.8 4.2-3.3zm4.2-3.3c0.5 0.6 0.4 1.5-0.1 2.4-0.4 1-1.3 2.1-2.5 3-1.3-1.7-1.4-1.9-1.6-2.1 0.5-0.3 1-0.7 4.2-3.3z"/></g><g style="opacity:.5"><path class="a2" d="m213.2 167.4c2.2 3.3 3.3 4.9 3.7 5.5-1.1 0.8-1.8 1.3-8.3 5.6-1.1-1.5-1.1-3.5-0.2-5.5 0.8-2.1 2.5-4.1 4.8-5.6zm7-2.3c2.2 0 4 0.7 5.1 2.3-6.6 4.3-7.4 4.9-8.4 5.5-0.4-0.6-1.5-2.2-3.7-5.5 2.3-1.6 4.8-2.3 7-2.3zm-3.3 7.8c0.3 0.5 0.7 1.1 3.7 5.6-2.3 1.5-4.8 2.3-7 2.3-2.2 0-4-0.7-5-2.3 6.5-4.3 7.2-4.8 8.3-5.6zm8.4-5.5c1 1.5 1 3.5 0.1 5.5-0.8 2-2.5 4-4.8 5.6-3-4.5-3.4-5.1-3.7-5.6 1-0.6 1.8-1.2 8.4-5.5z"/><path class="a3" d="m215 170c1.1 1.8 1.7 2.6 1.9 2.9-0.6 0.4-1 0.7-4.4 3-0.5-0.8-0.5-1.9-0.1-3 0.5-1 1.3-2.1 2.6-2.9zm3.6-1.2c1.2 0 2.2 0.4 2.7 1.2-3.4 2.3-3.9 2.6-4.4 2.9-0.2-0.3-0.8-1.1-1.9-2.9 1.2-0.8 2.5-1.2 3.6-1.2zm-1.7 4.1c0.2 0.3 0.4 0.6 2 3-1.3 0.8-2.6 1.2-3.7 1.2-1.2 0-2.1-0.4-2.7-1.2 3.4-2.3 3.8-2.6 4.4-3zm4.4-2.9c0.5 0.8 0.5 1.9 0.1 2.9-0.5 1.1-1.3 2.1-2.5 3-1.6-2.4-1.8-2.7-2-3 0.5-0.3 1-0.6 4.4-2.9z"/></g><g style="opacity:.5"><path class="a4" d="m78.7 174.1c-1.6 4.2-2.3 6.1-2.7 6.9-2.1-0.8-3.5-1.4-15.8-6.1 0.8-1.9 3.2-2.9 6.5-3.1 3.4-0.1 7.6 0.7 12 2.3zm10.4 6.4c2.4 2.3 3.5 4.7 2.8 6.6-12.4-4.8-14.1-5.4-15.9-6.1 0.4-0.8 1.1-2.7 2.7-6.9 4.3 1.7 8 4 10.4 6.4zm-13.1 0.5c-0.2 0.5-0.4 1.3-2.6 6.8-4.4-1.7-8-4-10.4-6.3-2.4-2.3-3.5-4.7-2.8-6.6 12.3 4.7 13.7 5.3 15.8 6.1zm15.9 6.1c-0.8 1.9-3.2 2.9-6.5 3-3.4 0.2-7.6-0.6-12-2.3 2.2-5.5 2.4-6.3 2.6-6.8 1.8 0.7 3.5 1.3 15.9 6.1z"/><path class="a5" d="m77.4 177.4c-0.8 2.2-1.2 3.2-1.4 3.6-1.1-0.5-1.8-0.7-8.3-3.2 0.4-1 1.7-1.6 3.4-1.6 1.8-0.1 4 0.3 6.3 1.2zm5.5 3.3c1.3 1.2 1.8 2.5 1.5 3.5-6.5-2.5-7.4-2.9-8.4-3.2 0.2-0.4 0.6-1.4 1.4-3.6 2.3 0.9 4.2 2.1 5.5 3.3zm-6.9 0.3c-0.1 0.3-0.2 0.7-1.3 3.6-2.3-0.9-4.3-2.1-5.5-3.3-1.3-1.3-1.9-2.5-1.5-3.5 6.5 2.5 7.2 2.7 8.3 3.2zm8.4 3.2c-0.4 1-1.7 1.5-3.5 1.6-1.7 0.1-3.9-0.3-6.2-1.2 1.1-2.9 1.2-3.3 1.3-3.6 1 0.3 1.9 0.7 8.4 3.2z"/></g><g style="opacity:.5"><path class="a6" d="m64.3 149.5c-2.6 3.4-3.8 5.1-4.3 5.7-1.8-1.3-3-2.2-13.3-9.9 1.2-1.6 3.8-1.9 6.9-1.2 3.2 0.8 7 2.6 10.7 5.4zm8.1 8.7c1.6 2.8 2.1 5.3 0.9 6.9-10.4-7.7-11.8-8.8-13.3-9.9 0.5-0.6 1.7-2.3 4.3-5.7 3.6 2.7 6.5 5.8 8.1 8.7zm-12.4-3c-0.4 0.5-0.8 1.1-4.3 5.7-3.6-2.7-6.5-5.8-8.1-8.6-1.6-2.9-2.1-5.4-0.9-7 10.3 7.7 11.5 8.6 13.3 9.9zm13.3 9.9c-1.2 1.6-3.8 1.9-6.9 1.2-3.2-0.8-7-2.6-10.7-5.4 3.5-4.6 3.9-5.2 4.3-5.7 1.5 1.1 2.9 2.2 13.3 9.9z"/><path class="a7" d="m62.2 152.2c-1.3 1.8-1.9 2.7-2.2 3-0.9-0.7-1.6-1.1-7-5.2 0.6-0.8 2-1 3.7-0.6 1.6 0.4 3.6 1.4 5.5 2.8zm4.3 4.6c0.9 1.4 1.1 2.8 0.5 3.6-5.5-4.1-6.2-4.6-7-5.2 0.3-0.3 0.9-1.2 2.2-3 2 1.4 3.5 3.1 4.3 4.6zm-6.5-1.6c-0.2 0.2-0.4 0.6-2.3 3-1.9-1.4-3.4-3.1-4.2-4.5-0.9-1.5-1.1-2.9-0.5-3.7 5.4 4.1 6.1 4.5 7 5.2zm7 5.2c-0.6 0.8-2 1-3.7 0.6-1.6-0.4-3.6-1.3-5.6-2.8 1.9-2.4 2.1-2.8 2.3-3 0.8 0.6 1.5 1.1 7 5.2z"/></g><g style="opacity:.5"><path class="a8" d="m247.9 161c-3.7-4.1-5.5-6-6.2-6.8 3.3-2.9 5.4-4.9 24.1-21.9 1.7 1.9 0.5 6-2.7 11.2-3.3 5.2-8.6 11.4-15.2 17.5zm-18.8 13.5c-5.5 2.7-9.7 3.5-11.4 1.6 18.7-17.1 21.3-19.4 24-21.9 0.7 0.8 2.5 2.7 6.2 6.8-6.7 6-13.4 10.7-18.8 13.5zm12.6-20.3c-0.4-0.5-1.1-1.2-6.1-6.7 6.6-6.1 13.3-10.8 18.8-13.6 5.5-2.7 9.7-3.5 11.4-1.6-18.7 17-20.8 19-24.1 21.9zm-24 21.9c-1.7-1.9-0.6-6 2.7-11.2 3.2-5.2 8.5-11.4 15.2-17.4 5 5.5 5.7 6.2 6.1 6.7-2.7 2.5-5.3 4.8-24 21.9z"/><path class="a9" d="m245 157.8c-2-2.2-2.9-3.2-3.3-3.6 1.7-1.5 2.8-2.6 12.7-11.5 0.9 1 0.3 3.1-1.4 5.9-1.7 2.7-4.5 6-8 9.2zm-9.9 7.1c-2.9 1.4-5.1 1.8-6 0.8 9.9-9 11.2-10.2 12.6-11.5 0.4 0.4 1.3 1.4 3.3 3.6-3.5 3.1-7 5.6-9.9 7.1zm6.6-10.7c-0.2-0.3-0.6-0.6-3.2-3.5 3.5-3.2 7-5.7 9.9-7.1 2.9-1.5 5.1-1.9 6-0.9-9.9 8.9-11 10-12.7 11.5zm-12.6 11.5c-0.9-1-0.3-3.1 1.4-5.9 1.7-2.7 4.5-6 8-9.1 2.6 2.9 3 3.2 3.2 3.5-1.4 1.3-2.7 2.5-12.6 11.5z"/></g></svg>