<svg version="1.2" xmlns="http://www.w3.org/2000/svg" viewBox="0 0 988 988" width="988" height="988"><defs><linearGradient id="P" gradientUnits="userSpaceOnUse"/><radialGradient id="g1" cx="494.1" cy="494.4" r="493.7" href="#P"><stop offset="0" stop-color="#0f0"/><stop offset="1"/></radialGradient><radialGradient id="g2" cx="518.1" cy="503.8" r="383" href="#P"><stop offset="0" stop-color="#00ffa9"/><stop offset="1"/></radialGradient><radialGradient id="g3" cx="291.9" cy="332" r="548" href="#P"><stop offset="0" stop-color="#0cc463"/><stop offset=".9" stop-color="#004f74"/></radialGradient><linearGradient id="g4" x1="687.8" y1="532.6" x2="687.8" y2="370.3" href="#P"><stop stop-color="#007c6f"/><stop offset="1" stop-color="#3bff24"/></linearGradient><radialGradient id="g5" cx="485.1" cy="691.7" r="117.3" href="#P"><stop stop-color="#0f0"/><stop offset="1"/></radialGradient><linearGradient id="g6" x1="162" y1="148.4" x2="652.8" y2="148.4" href="#P"><stop offset="0" stop-color="#92ff2c"/><stop offset="1" stop-color="#007072"/></linearGradient><radialGradient id="g7" cx="617.5" cy="331.7" r="69.9" href="#P"><stop stop-color="#0f0"/><stop offset="1"/></radialGradient><radialGradient id="g8" cx="737.2" cy="659.8" r="47.7" href="#P"><stop offset="0" stop-color="#3bff24"/><stop offset="1" stop-color="#11b140"/></radialGradient><radialGradient id="g9" cx="717.4" cy="456.5" r="79.6" href="#P"><stop stop-color="#0f0"/><stop offset="1"/></radialGradient><radialGradient id="g10" cx="253.9" cy="259.4" r="449.1" href="#P"><stop stop-color="#ffff4a"/><stop offset="1"/></radialGradient><radialGradient id="g11" cx="640.5" cy="272.5" r="71.9" href="#P"><stop offset="0" stop-color="#b0ff24"/><stop offset="1" stop-color="#11e040"/></radialGradient><radialGradient id="g12" cx="509.3" cy="329.5" r="29.2" href="#P"><stop offset="0" stop-color="#b0ff24"/><stop offset="1" stop-color="#11e040"/></radialGradient><radialGradient id="g13" cx="392" cy="219.1" r="41.2" href="#P"><stop offset="0" stop-color="#b0ff24"/><stop offset="1" stop-color="#11e040"/></radialGradient><radialGradient id="g14" cx="614.4" cy="278.4" r="91.9" href="#P"><stop offset="0" stop-color="#00ff24"/><stop offset="1" stop-color="#ff0"/></radialGradient><radialGradient id="g15" cx="722.8" cy="461.7" r="62.6" href="#P"><stop offset="0" stop-color="#00ff24"/><stop offset="1" stop-color="#ff0"/></radialGradient><radialGradient id="g16" cx="775.4" cy="350.2" r="38.4" href="#P"><stop offset="0" stop-color="#00ff24"/><stop offset="1" stop-color="#ff0"/></radialGradient><radialGradient id="g17" cx="483.3" cy="800.3" r="138.6" href="#P"><stop offset="0" stop-color="#00ff24"/><stop offset="1" stop-color="#ff0"/></radialGradient><radialGradient id="g18" cx="741.5" cy="706.6" r="48.6" href="#P"><stop offset="0" stop-color="#00ff24"/><stop offset="1" stop-color="#ff0"/></radialGradient><radialGradient id="g19" cx="356.3" cy="225.1" r="54.1" href="#P"><stop offset="0" stop-color="#00ff24"/><stop offset="1" stop-color="#ff0"/></radialGradient><radialGradient id="g20" cx="481.8" cy="309.8" r="47.9" href="#P"><stop offset="0" stop-color="#00ff24"/><stop offset="1" stop-color="#ff0"/></radialGradient><radialGradient id="g21" cx="465.6" cy="699.2" r="113.4" href="#P"><stop offset="0" stop-color="#3bff24"/><stop offset="1" stop-color="#11b140"/></radialGradient><radialGradient id="g22" cx="770.3" cy="344.6" r="28.1" href="#P"><stop offset="0" stop-color="#3bff24"/><stop offset="1" stop-color="#11b140"/></radialGradient><radialGradient id="g23" cx="266.8" cy="288.9" r="333.8" href="#P"><stop stop-color="#97ff11"/><stop offset="1"/></radialGradient><linearGradient id="g24" x1="613.9" y1="123.8" x2="694.5" y2="200.2" href="#P"><stop stop-color="#ffffe8"/><stop offset="1"/></linearGradient><linearGradient id="g25" x1="353.3" y1="125.7" x2="381.9" y2="152.8" href="#P"><stop stop-color="#ffffe8"/><stop offset="1"/></linearGradient><linearGradient id="g26" x1="481.4" y1="229.4" x2="518.8" y2="264.9" href="#P"><stop stop-color="#ffffe8"/><stop offset="1"/></linearGradient><linearGradient id="g27" x1="740.6" y1="363.9" x2="815.1" y2="434.5" href="#P"><stop stop-color="#ffffe8"/><stop offset="1"/></linearGradient><linearGradient id="g28" x1="783.6" y1="272.4" x2="840.3" y2="326.1" href="#P"><stop stop-color="#ffffe8"/><stop offset="1"/></linearGradient><linearGradient id="g29" x1="772" y1="610.6" x2="822.8" y2="658.7" href="#P"><stop stop-color="#ffffe8"/><stop offset="1"/></linearGradient><linearGradient id="g30" x1="452.3" y1="580.4" x2="631.6" y2="750.3" href="#P"><stop stop-color="#ffffe8"/><stop offset="1"/></linearGradient><radialGradient id="g31" cx="264.8" cy="520.2" r="46.4" href="#P"><stop offset="0" stop-color="#b0ff24"/><stop offset="1" stop-color="#11e040"/></radialGradient><radialGradient id="g32" cx="201.2" cy="585.8" r="72.3" href="#P"><stop offset="0" stop-color="#00ff24"/><stop offset="1" stop-color="#ff0"/></radialGradient><linearGradient id="g33" x1="206" y1="451.7" x2="250.4" y2="521.8" href="#P"><stop stop-color="#ffffe8"/><stop offset="1"/></linearGradient><radialGradient id="g34" cx="770.7" cy="722.6" r="49.3" href="#P"><stop stop-color="#0f0"/><stop offset="1"/></radialGradient><radialGradient id="g35" cx="164.4" cy="572.1" r="71.9" href="#P"><stop stop-color="#0f0"/><stop offset="1"/></radialGradient><radialGradient id="g36" cx="319.5" cy="176.1" r="45" href="#P"><stop stop-color="#0f0"/><stop offset="1"/></radialGradient><radialGradient id="g37" cx="797.4" cy="331.7" r="79.6" href="#P"><stop stop-color="#0f0"/><stop offset="1"/></radialGradient><radialGradient id="g38" cx="359.5" cy="318.9" r="307.2" href="#P"><stop offset="0" stop-color="#0092ff"/><stop offset="1"/></radialGradient></defs><style>.a{mix-blend-mode:screen;fill:url(#g1)}.b{mix-blend-mode:screen;fill:url(#g2)}.c{fill:url(#g3)}.d{fill:#b9bfe2}.e{fill:url(#g4)}.f{mix-blend-mode:screen;fill:url(#g5)}.g{fill:url(#g6)}.h{mix-blend-mode:screen;fill:url(#g7)}.i{fill:url(#g8)}.j{mix-blend-mode:screen;fill:url(#g9)}.k{mix-blend-mode:screen;fill:url(#g10)}.l{fill:#004a59}.m{fill:url(#g11)}.n{fill:url(#g12)}.o{fill:#00777a}.p{fill:url(#g13)}.q{fill:#006d7a}.r{fill:url(#g14)}.s{fill:url(#g15)}.t{fill:url(#g16)}.u{fill:url(#g17)}.v{fill:url(#g18)}.w{fill:url(#g19)}.x{fill:url(#g20)}.y{fill:url(#g21)}.z{fill:url(#g22)}.A{mix-blend-mode:screen;fill:url(#g23)}.B{mix-blend-mode:screen;fill:url(#g24)}.C{mix-blend-mode:screen;fill:url(#g25)}.D{mix-blend-mode:screen;fill:url(#g26)}.E{mix-blend-mode:screen;fill:url(#g27)}.F{mix-blend-mode:screen;fill:url(#g28)}.G{mix-blend-mode:screen;fill:url(#g29)}.H{mix-blend-mode:screen;fill:url(#g30)}.I{fill:#ffff8d}.J{fill:url(#g31)}.K{fill:url(#g32)}.L{mix-blend-mode:screen;fill:url(#g33)}.M{mix-blend-mode:screen;fill:url(#g34)}.N{mix-blend-mode:screen;fill:url(#g35)}.O{mix-blend-mode:screen;fill:url(#g36)}.P{mix-blend-mode:screen;fill:url(#g37)}.Q{mix-blend-mode:screen;fill:url(#g38)}</style><circle class="a" cx="494.1" cy="494.4" r="493.7"/><circle class="b" cx="518.1" cy="503.8" r="383"/><path class="c" d="m844.4 491.6c0 32.8-4.6 64.5-13.3 94.5-17.3 60.3-50.8 113.6-95.5 155.2-32 29.8-69.7 53.5-111.3 69.3-37.7 14.3-78.4 22.1-121.1 22.1-6.1 0-12.2-0.1-18.2-0.5-9-0.4-17.8-1.3-26.5-2.4-65.9-8.6-125.8-36-174.3-76.7-18.2-15.2-34.8-32.4-49.4-51.1-11.1-14-21.1-28.9-29.9-44.7-2.1-3.7-4.1-7.6-6.1-11.4 0-0.1-0.1-0.2-0.2-0.3-2-4.1-4-8.3-5.9-12.4q0 0 0 0c-5.9-13.1-11.1-26.5-15.3-40.4-3.2-9.9-5.8-20.1-8-30.5-0.1-0.1-0.1-0.2-0.1-0.3-1.5-7.2-2.8-14.6-3.8-22q-3.4-23.8-3.4-48.4c0-9.4 0.3-18.9 1.2-28.1 0.4-5.9 1.1-11.7 1.9-17.6 4.3-33.5 13.7-65.5 27.2-95.2 6.7-14.7 14.3-28.7 22.9-42.2 14.2-22.4 31.1-43 50.1-61.5 61.4-59.8 145.3-96.6 237.8-96.6 3.6 0 7.2 0.1 10.7 0.1 3.8 0.2 7.6 0.3 11.5 0.6 19.6 1.3 38.7 4.2 57.2 8.7 10.8 2.6 21.4 5.6 31.8 9.2 7 2.4 13.9 5 20.8 7.9 5.1 2.2 10.1 4.4 15 6.8 0.9 0.4 1.8 0.8 2.6 1.2 33.2 16.2 63.2 37.5 89.3 63.1 3.7 3.6 7.3 7.3 10.9 11.1 2.4 2.6 4.8 5.3 7.1 8 3.9 4.4 7.7 9.1 11.5 13.8 13.6 17.3 25.5 35.8 35.6 55.6 11.7 22.9 20.9 47.3 27.2 72.9 6.5 26.3 10 53.8 10 82.2z"/><g style="opacity:.4;mix-blend-mode:multiply"><path class="d" d="m240.4 337c1.3-1.8 3.9-3.7 5.4-5.3 6.6-6.5 13.7-8.9 22.5-11.4 6.9-2 13.1-4.1 19.8-6.8 6.5-2.8 13.6-4.2 20.3-6.4 7.1-2.4 13.7-5.2 21.3-6.1 6.2-0.8 13.4-0.7 19.7-0.5 5.8 0.2 9.8 2.8 14.8 5.1 8.2 3.8 14.5 6.3 20.2 13.6 4 5.1 7.7 10.7 10.8 16.3 4.2 7.2 7.6 15.6 9.4 23.8 2.3 10.4 0.9 20.2-0.2 30.6-1.8 17.5-5.9 33.9-16.8 47.9-9.9 12.8-23.5 18.8-37.9 25.2-10.4 4.7-18.7 12-28.5 17.4-19.4 10.7-42.5 10.4-58.8-5.8-9.5-9.4-16-21.3-20.1-33.9-3.3-10.6-7.8-20.3-8.9-31.6-1-10.7 0.8-21 1.7-31.6 1.3-14.5 6.3-25.3 12.7-38.6-9 5.1-9.8 1.5-7.4-1.9z"/><path class="d" d="m371.6 484.4c1.8-6.3 3.1-18.2 9.2-22.8 2.4-1.9 6-3.4 8.9-4.1 5-1.1 8.5 0.5 12.8 2.8 10.8 5.9 8.8 22.6 2.8 31.4-5.2 7.7-18.2 14.4-26.5 8.2-5.8-4.3-9-13.4-6.9-20.6q0.7-0.2 1.5-0.3z"/><path class="d" d="m578.5 582.6c1.8-4.4 5-6.8 7.3-10.7 3-4.9 4.8-8.7 9.5-12.4 4.2-3.2 7-7.5 10.9-11.3 12.4-12.2 21.1-30.5 38.1-36.6 20.3-7.3 41.5-1.8 52.9 16.9 10.4 17 18.8 34.8 18.3 55-0.3 14.4-4 24.1-12.8 35.1-8 10-18.4 19-29.1 26.1-10.7 7.2-24 11-35.9 15.8-11.1 4.5-25.2 8.5-37 4.3-13.3-4.6-17.8-18.9-20.9-31.2-1.8-6.9-3.1-13.9-4.2-21-1-7.4 0.9-17.7 1.5-24.5 0 6.8-0.9 0.1 1.4-5.5z"/><path class="d" d="m733.6 577.2c1.1-1.6 9.1-19.1 16.3-18.3 3.5 0.3 6.2 4.2 7.9 7 2.7 4.5 4.8 8.8 1.3 13.9-4.5 6.6-22.9 11.5-24-0.4q-0.8-0.2-1.5-0.4z"/><path class="d" d="m456.1 213.2c1.1-1.6 9.1-19.2 16.3-18.4 3.5 0.4 6.2 4.3 7.9 7.1 2.6 4.5 4.8 8.7 1.3 13.9-4.6 6.6-22.9 11.5-24.1-0.4q-0.7-0.2-1.4-0.4z"/><path class="d" d="m645.4 470.3c1.2-1.6 9.1-19.1 16.4-18.3 3.4 0.3 6.1 4.2 7.8 7 2.7 4.5 4.8 8.8 1.3 13.9-4.5 6.6-22.9 11.5-24-0.4q-0.7-0.2-1.5-0.4z"/><path class="d" d="m605.7 357c5.3-8.2 19.7-16.2 29.6-14.1 5.8 1.2 11.7 1.1 16.4 4.9 5.6 4.6 10.1 10.4 13.8 16.4 4.3 6.9 8.5 13.9 10.7 21.8 1.7 6.2 1.2 13.1 1.1 19.5-0.2 6.7-2.8 11.5-5.2 17.5-2.1 5.6-2.9 10.5-5.8 15.9-3.2 6.1-5.5 8.7-10.9 12.8-3.6 2.6-7.2 5.3-11.3 7.3-12.3 5.9-20.4 3-29.6-6.3-6.9-7.1-14.7-13.1-17.5-23-1.4-5.1-2.1-10.4-3.8-15.4-3.3-10.4 1.7-17.1 5.8-28.1-4.7-4.4-0.7-17.7 6.7-29.2z"/><path class="d" d="m580.7 440.7c3.8-0.7 5.4 4.3 6.5 7.3 1.3 3.7 2.7 6.9 2.7 11-0.1 2.2 0.5 5.2 0.1 7.3-0.5 2-2.2 2.8-2.3 5.1-1.6 0.2-3.6 0.7-4.8 1.8q-6.1-9.8-7.6-21.5c-1.1-3.8-1.8-9.7 5.4-11z"/><path class="d" d="m235 666.7c1.2-2.2 3.4-3.3 5.6-4.7 7.6-4.8 16.4 5.2 20.2 10.6 2.2 3.2 3.8 6.8 4.7 10.6 0.8 3.2 2 6.8 2.3 10.1 0.5 4.1-0.9 12.2-4.9 14.4-4.9 2.8-10.3-3.6-13.2-6.6-4.2-4.5-8.5-9.3-11.9-14.5-3.4-5.2-3.1-10.4-3.6-16.6 0 1.1-0.3-1.1 0.8-3.3z"/><path class="d" d="m405.5 642.7q-1.9-4.8-2.6-9.8-0.8-1.6 0.5-2.7c1.2-3.6 2.4-7.2 4.3-10.5 3.3-6 7.2-12.6 13.2-16.2 2.2-1.3 4.5-1.7 6.9-2.3 2.5-0.6 5-1.6 7.5-2 4.4-0.8 9.3 0.2 13.5 1.3 4.7 1.2 10.5 2.7 14.7 5.1 4.1 2.2 6.6 6.3 9.1 10.1 5.1 7.8 7.2 18.8 0.1 26.4-2 2.1-4.5 3.7-6.8 5.3-2.5 1.7-4.9 3.8-7.6 5.3-3.2 1.7-7.5 2-11 2.8-6.8 1.4-14 1.2-20.7-0.7-7.1-2.1-12.3-7-21.1-12.1z"/></g><path class="e" d="m782.7 513.6c4.7 61.4-68 81.6-89.8-50.6q-9.7-59.5 8.6-92.7z"/><path class="f" d="m606.9 706.6c-6.2 50.7-65.8 85-133.1 76.8-67.3-8.3-116.8-56-110.6-106.6 6.2-50.6 65.8-85 133.1-76.7 67.3 8.2 116.8 55.9 110.6 106.5z"/><path class="g" d="m652.8 184.9c-1.1 0.1-2.2 0.2-3.4 0.5-3.8 0.7-6.8 0.3-10.6-0.7-2.7-0.8-4.7-1.9-7.6-2.4-4.1-0.6-8-2.4-12.1-3-4.4-0.5-8.2-2.3-12.3-3.7-3.3-1.2-5-0.8-8.1 0-3.2 0.8-5.4-0.5-8.1-1.7-3.2-1.4-6.3-1.6-9.6-2.2-8.7-1.8-17.3-4.6-25.8-6.8-5.4-1.4-10.3-1.4-15.7-1.4-4.3-0.1-8.1 1.2-12.4 1.2-2.8 0-5.3-0.5-8.1-0.9-2.9-0.5-5.8 0-8.7-0.4-4.4-0.6-6.7-1.3-11.1 0.1-3.2 1.1-5.8 0.9-9 1.1-3.6 0.2-7.7 1.1-11.3 2-6.3 1.4-13.3 2.6-19.9 2.5-4 0-9.9-1.1-13.8 0.2-2.5 0.9-3.7 3.6-5.4 5.4-3.3 3.4-7.4 6.5-10.2 10.3-2.8 3.9-5.9 7.8-5.7 12.7 0.2 4.2 2.2 9.1 4 13 1.9 4 2.6 7.8-1.6 10.5-5.3 3.5-11.4 6.7-17.4 8.4-4 1.2-7.7 1.9-11-1-1.3-1.1-2-3.2-3.6-4-1.6-0.8-3.2 0-5 0.6-4.2 1.2-8.4 2.6-12.7 3.3-2.6 0.4-4.9 1.9-7.5 2.3-3.2 0.6-5.4-1.7-8.7-0.9-4.5 1.1-9.1 2.9-13.8 3.2-3.4 0.2-7.7-1.3-10.5-3-1.7-1-2.1-1.9-4-1.4-1.5 0.4-3.8 2.3-4.7 3.4-1.1 1.6-1.5 3.7-2.6 5.4-1.2 1.8-2.3 3.6-3.4 5.5-1.9 3.8-4.2 7.4-6.7 10.7-1.8 2.4-3.1 5.6-5 7.8-1 1.2-3.2 2-4.5 2.9-3.6 2.5-7.3 4.7-10.7 7.4-6.6 5.2-12.9 10.9-19.7 16-5.1 3.8-12.3 6.1-18.2 8.5-3.7 1.5-7.4 2.5-11.1 4.1-1.2 0.4-3.4 1-4.4 1.9-1.3 1.1-2 3.2-3.2 4.7-3.2 3.9-6.6 7.8-9 12.3-1.5 2.6-2.4 5.3-3.3 8.1-1.3 3.9-3.4 7.4-4.7 11.3-2.6 8-3.2 16.4-6.1 24.4-1.7 4.7-4.2 8.9-6.4 13.2-3.6 7.2-4.2 15.8-5.2 23.8-0.6 4.7-0.4 10 0.4 14.6 0.9 4.9 0.7 10 0.6 15 0 5.4-3.4 10.6-6.8 14.6-3 3.7-7.7 5.1-11.2 8.5-2.9 2.8-6.3 6-7.6 10.1-0.5 1.7 0 3.8-0.3 5.7-0.8 4.2-1.9 8.1-2.5 12.4-0.6 5.2-0.7 10.2-0.7 15.5 0 2.7-0.2 5.4-0.1 8.1 0.1 2.5 1.1 4.9 1.2 7.5 0.2 1.7-0.2 3.5 0 5.3 0.4 2 1.2 4.1 1.6 6 1.2 4.7 2.1 9.4 3 14.1 0.8 4.4 2.5 8.7 3.9 13 1.9 5.8 3.1 11.7 4.3 17.8 0.9 4.5 0.8 9.1 1.4 13.7 0.6 3.7 1.4 7.4 1.6 11.1 0.2 5.5-1.2 11.1-1.3 16.7 0 9.5 3.8 19 6 28.1 0.6 2.5 1.3 5.1 2 7.7-23.5-46.3-36.7-98.6-36.7-154 0-67.4 19.6-130.2 53.2-183.1 14.4-22.5 31.2-43 50.2-61.5 61.5-59.8 145.3-96.6 237.8-96.6 7.5 0 14.8 0.2 22.1 0.7 45.5 2.9 88.6 14.8 127.5 33.8z"/><path class="h" d="m685 370.6c-11 19.2-50.3 17.3-87.6-4.2-37.3-21.5-58.5-54.5-47.4-73.7 11-19.2 50.3-17.3 87.6 4.2 37.3 21.5 58.5 54.6 47.4 73.7z"/><path class="i" d="m675.7 721.2c-4-10.3-4.2-41 23.5-75.6q27.7-34.7 61.7-35.2-81.2 121.1-85.2 110.8z"/><path class="j" d="m728.6 539.8c-39.3 5.3-76.2-27.7-82.4-73.8-6.2-46 20.7-87.6 59.9-92.9 39.3-5.3 76.2 27.8 82.4 73.8 6.2 46-20.6 87.6-59.9 92.9z"/><path class="k" d="m414.1 820.9c-48.4-13-92.5-36.5-129.9-67.8-35.3-29.5-64.5-66.1-85.5-107.5-13.2-26.1-23.2-54-29.3-83.3-0.1-0.1-0.1-0.2-0.1-0.3-4.7-22.7-7.3-46.3-7.3-70.4 0-67.4 19.6-130.2 53.2-183.1 14.4-22.5 31.2-43 50.2-61.5 61.5-59.8 145.3-96.6 237.8-96.6 7.5 0 14.8 0.2 22.1 0.7 29.2 1.9 57.3 7.4 84 16.1-21.6-5.8-44.1-9.6-67.3-11.1-7.3-0.5-14.6-0.7-22.1-0.7-92.5 0-176.3 36.8-237.8 96.5-19 18.5-35.8 39.1-50.1 61.6-33.7 52.9-53.2 115.7-53.2 183 0 24.2 2.5 47.7 7.2 70.4 0 0.2 0 0.3 0.1 0.3 6.1 29.3 16.1 57.3 29.3 83.3 21 41.4 50.2 78 85.5 107.5 33 27.7 71.3 49.3 113.2 62.9z"/><path class="l" d="m729.3 747q-38.8 9.4-51.8-19.7c-13-29.1 36.5-105.5 76.3-115.5q39.8-10 47.5 36.8z"/><path class="m" d="m697.1 348.4q-38 23.5-130-41.7-57-40.5-73-94.2z"/><path class="l" d="m365.7 801.3c-57.3-25.4-85.5-76.4-80.1-97.3 5.5-20.9 88.1-44.7 196.2-29.2 118.1 17 178.6 55.6 177.8 83.8q-0.8 28.2-40.4 48.9c-29.4 14.4-196.2 19.3-253.5-6.2z"/><path class="n" d="m540 326.2q-11.1 29.3-48.4 26-37.4-3.3-61.4-41.4 24.7 14.8 109.8 15.4z"/><path class="o" d="m542 300.4c8 19.9-8.3 56.4-64 42.2q-50.6-13-63.6-61.9c53.7-30.9 119.5-0.3 127.6 19.7z"/><path class="p" d="m433 181.2q10.6 28.3-41 59-51.7 30.7-86.8 24.2z"/><path class="o" d="m432.4 194.8c-15.8 31.9-101.8 74.1-127.2 69.6q-25.4-4.5-12.3-22.6c72-96.8 155.4-78.9 139.5-47z"/><path class="q" d="m727.1 339.4c-9.1 9.1-68.1 21.6-128.3-15.5-60.2-37.2-115.5-107.4-113.7-124.9q1.8-17.6 35.6-23.4c127.7 9.1 215.5 154.6 206.4 163.8z"/><path class="l" d="m770 535.1c-10.9 8.7-39.1 12.3-61-27-21.8-39.4-30.8-142.5-9.8-152.9q25.5-12.6 57.7 21.1c26.4 34.9 24 150.2 13.1 158.8z"/><path class="l" d="m819.3 368.8q-3.8 27.4-22.9 19.8c-19.1-7.7-64.6-72.4-58.1-81.9q6.6-9.5 16.4-6.3z"/><path class="r" d="m685.4 178.6c55.2 51 46.4 158.5 30 163.9-82.8 27.6-219.9-118.8-204.7-144.6 30-50.9 128.7-61.7 174.7-19.3z"/><path class="s" d="m808.2 460.8c-4.6 48.2-51.9 94.6-82.8 62.8-30.9-31.9-34.8-141.6-10-152 39.1-16.3 97.3 41 92.8 89.2z"/><path class="t" d="m827.3 312.8c10 24.9-4.1 60.2-18.9 65.2-14.7 5.1-62.6-42.9-61.2-65.2 1.9-27.3 70.1-24.8 80.1 0z"/><path class="u" d="m651.2 759.6c-1.8 39.6-98.6 111.4-205.1 92.1-90.9-16.6-197.3-142.5-133.3-159 120.1-30.9 340.2 27.3 338.4 66.9z"/><path class="v" d="m687.5 725.6c-11.8-28.1 55.9-116.6 87.3-106.1 31.4 10.4 51.8 83.6 9.5 113.6-25.1 17.9-84.6 21.9-96.8-7.5z"/><path class="w" d="m323.2 154.7c46.7-24 116 8.7 102.5 33.3-13.6 24.6-87.8 76.2-119.2 69.4-27.8-6.1-16.4-85.7 16.7-102.7z"/><path class="x" d="m541.2 295.7c6.8 26.8-28.7 50.9-68.9 37.7-40.3-13.3-79.9-59.2-44.9-75.4 62-28.7 107 10.9 113.8 37.7z"/><path class="y" d="m338.7 672.4q135-19.4 267.1 36.1-124.4-76.4-267.1-36.1z"/><path class="z" d="m738.3 313.3q9 42.9 44.4 65.1-33.5-33.7-44.4-65.1z"/><path class="A" d="m276 249.2c31 45.8 89.2 23.2 126.6-2.2 52.2-35.4 74.2-94.9 87.6-82.4 13.4 12.5-7.7 66.1-26.8 68.8-19.1 2.7-64.6 29.1-60.8 47.3 3.8 18.3 40.8 73.7 89 80.5 48.1 6.8 60.1-51.4 83.7-38.2 23.7 13.1 65.5 72.3 37.6 110.1-27.9 37.8-140.6 108.1-241 46.2-43.5-26.8-137.7-94.3-168.7-79.2-31 15-39.6 108.8-41.2 91.5q-13-143.9 114-242.4z"/><path class="B" d="m606.4 162.9q58.1 6.4 92.8 47-35.7-0.2-81.7 2.6c-46.1 2.8-97.3 13.5-95.9-9.8 1-14.3 26.7-46.2 84.8-39.8z"/><path class="C" d="m316.1 162.9q24.5-11.3 63.6-10.6-22.7 3.8-41.8 23.3c-19.1 19.5-22.5 61.9-36.5 55.5-11.9-5.5-9.9-56.8 14.7-68.2z"/><path class="D" d="m422.9 267.6q22.8-17.8 52.8-16.5 30 1.4 51.8 21.5-22.7-6.9-38.6-1.9c-15.9 5-40.5 31.5-66-3.1z"/><path class="E" d="m712.7 378.4q31.8-12 61.4 15.6 29.5 27.7 31.8 52.6-19.1-29.1-38.2-31.8c-19.1-2.7-42.5 11.4-52.2 2.8-9.7-8.7-11.2-30.7-2.8-39.2z"/><path class="F" d="m753.8 304.3q6.7-9 28.9-8.4c22.2 0.5 36.1 10.7 41.4 17.4q5.3 6.7 2.3 29.3-1.8-18.3-10.9-26.9c-9.1-8.6-61.9 12.3-61.7-11.4z"/><path class="G" d="m699.2 687.3q39.6-64.1 68-59.6 28.5 4.4 38.7 48.7-17.1-23.8-52.1-20-34.9 3.8-54.6 30.9z"/><path class="H" d="m301.4 708.4q54.3-27.4 162.9-12 108.7 15.3 170.5 50.7-112.4-24.3-178.7-13.4-66.4 10.9-86.6 69.1-81.8-35.1-68.1-94.4z"/><path class="I" d="m477.3 847.4q74.9-10.5 112.8-28-79 44.4-112.8 28z"/><path class="I" d="m697.1 727.3q30.1 10 70.1 6.4-47.1 18.1-70.1-6.4z"/><path class="I" d="m707.2 465.8q24.7 45.1 49.4 56.5-29.4 10.5-49.4-56.5z"/><path class="I" d="m582.4 280.7q45.1 50.1 116.8 56.4z"/><path class="I" d="m434.4 300.4q24.1 32.1 68.8 33z"/><path class="I" d="m305.2 251q47.5-6.9 97.4-42.3z"/><path class="J" d="m211.6 446.5q52.6 41 74.8 140.3 12.8-97.5-74.8-140.3z"/><path class="o" d="m171.3 431.3c15.9-8.1 53.8 16.6 84.8 72.3 31 55.8 44.8 129.4 22.3 151.1q-22.6 21.7-65.4 1c-110.5-80.2-52.6-218.8-41.7-224.4z"/><path class="K" d="m273.4 647.3c-19.6 20.9-112 10.7-130.8-58.3-14.4-53.1 8-151 36.4-143.9 100.6 25.4 113.9 181.2 94.4 202.2z"/><path class="L" d="m148.8 581.6q-7.8-100.7 17.4-118.8 25.1-18.2 63 20.1-18.2 4.9-42 18.1-23.8 13.3-38.4 80.6z"/><path class="I" d="m182.3 630.6q33.4 18.1 58.1 20.1-32.4 12.5-58.1-20.1z"/><path class="M" d="m822.6 709.8c5.3 21.6-13.6 44.8-42.3 51.8-28.7 7.1-56.2-4.7-61.5-26.3-5.3-21.5 13.6-44.7 42.3-51.8 28.7-7 56.2 4.8 61.5 26.3z"/><path class="N" d="m170.4 646.1c-30.7 2.5-58.3-28.6-61.7-69.4-3.3-40.9 18.9-76 49.6-78.5 30.7-2.5 58.3 28.5 61.7 69.4 3.3 40.8-18.9 75.9-49.6 78.5z"/><path class="O" d="m287.3 215.8c-18.8-15.1-19.5-45.2-1.8-67.2 17.8-22 47.4-27.5 66.2-12.3 18.7 15.2 19.5 45.3 1.7 67.2-17.8 22-47.4 27.5-66.1 12.3z"/><path class="P" d="m808.7 415c-39.3 5.3-76.2-27.7-82.4-73.8-6.2-46 20.6-87.6 59.9-92.9 39.3-5.3 76.2 27.7 82.4 73.8 6.2 46-20.7 87.6-59.9 92.9z"/><ellipse class="Q" cx="359.5" cy="318.9" rx="307.2" ry="292.9"/></svg>