<svg version="1.2" xmlns="http://www.w3.org/2000/svg" viewBox="0 0 274 269" width="274" height="269"><defs><linearGradient id="P" gradientUnits="userSpaceOnUse"/><radialGradient id="g1" cx="99.9" cy="76.8" r="210.2" href="#P"><stop stop-color="#94ffec"/><stop offset=".4" stop-color="#00c3f5"/><stop offset="1" stop-color="#006fe6"/></radialGradient><radialGradient id="g2" cx="105.1" cy="86.5" r="184.8" href="#P"><stop stop-color="#ff9766"/><stop offset=".4" stop-color="#eb4921"/><stop offset="1" stop-color="#b02c00"/></radialGradient><radialGradient id="g3" cx="88.3" cy="67.1" r="225.2" href="#P"><stop offset=".3" stop-color="#fff"/><stop offset="1" stop-color="#900"/></radialGradient><radialGradient id="g4" cx="35.2" cy="23.9" r="186.2" href="#P"><stop stop-color="#de5634"/><stop offset="1"/></radialGradient><radialGradient id="g5" cx="123.9" cy="192.2" r="86.6" href="#P"><stop stop-color="#9ff"/><stop offset="1"/></radialGradient><radialGradient id="g6" cx="-7.9" cy="55.6" r="86.9" href="#P"><stop offset=".3" stop-color="#fff"/><stop offset="1" stop-color="#900"/></radialGradient><radialGradient id="g7" cx="43.8" cy="35.7" r="82.1" href="#P"><stop offset=".3" stop-color="#fff"/><stop offset="1" stop-color="#900"/></radialGradient><radialGradient id="g8" cx="111.3" cy="10.1" r="35.6" href="#P"><stop offset=".3" stop-color="#fff"/><stop offset="1" stop-color="#900"/></radialGradient><radialGradient id="g9" cx="120.1" cy="-17.2" r="49.1" href="#P"><stop offset=".3" stop-color="#fff"/><stop offset="1" stop-color="#900"/></radialGradient><radialGradient id="g10" cx="-11.1" cy="181.3" r="110.2" href="#P"><stop offset=".3" stop-color="#fff"/><stop offset="1" stop-color="#900"/></radialGradient><radialGradient id="g11" cx="52" cy="238.6" r="33.7" href="#P"><stop offset=".3" stop-color="#fff"/><stop offset="1" stop-color="#900"/></radialGradient><radialGradient id="g12" cx="92.1" cy="235.5" r="34.9" href="#P"><stop offset=".3" stop-color="#fff"/><stop offset="1" stop-color="#900"/></radialGradient><radialGradient id="g13" cx="63" cy="118" r="10.9" href="#P"><stop offset=".3" stop-color="#fff"/><stop offset="1" stop-color="#900"/></radialGradient><radialGradient id="g14" cx="194" cy="98" r="119.6" href="#P"><stop offset=".3" stop-color="#fff"/><stop offset="1" stop-color="#900"/></radialGradient><radialGradient id="g15" cx="173.6" cy="34.7" r="105.4" href="#P"><stop stop-color="#de5634"/><stop offset="1"/></radialGradient><radialGradient id="g16" cx="236.1" cy="111.3" r="57.2" href="#P"><stop stop-color="#de5634"/><stop offset="1"/></radialGradient><radialGradient id="g17" cx="208.2" cy="80.1" r="47.7" href="#P"><stop stop-color="#de5634"/><stop offset="1"/></radialGradient><radialGradient id="g18" cx="160.4" cy="94" r="41.1" href="#P"><stop stop-color="#de5634"/><stop offset="1"/></radialGradient><radialGradient id="g19" cx="150.7" cy="148.1" r="154.4" href="#P"><stop offset="0"/><stop offset=".9"/><stop offset="1" stop-color="#f98100"/></radialGradient><linearGradient id="g20" x1="31.1" y1="101.9" x2="47.9" y2="108.9" href="#P"><stop/><stop offset="1" stop-color="#0ff"/></linearGradient><linearGradient id="g21" x1="39" y1="105.3" x2="47.9" y2="108.9" href="#P"><stop/><stop offset="1" stop-color="#0ff"/></linearGradient><linearGradient id="g22" x1="1.9" y1="132.7" x2="9.2" y2="138.4" href="#P"><stop/><stop offset="1" stop-color="#0ff"/></linearGradient><linearGradient id="g23" x1="5.3" y1="135.4" x2="9.2" y2="138.4" href="#P"><stop/><stop offset="1" stop-color="#0ff"/></linearGradient><linearGradient id="g24" x1="25.5" y1="207.8" x2="33.1" y2="210.2" href="#P"><stop/><stop offset="1" stop-color="#0ff"/></linearGradient><linearGradient id="g25" x1="29.1" y1="208.9" x2="33.1" y2="210.2" href="#P"><stop/><stop offset="1" stop-color="#0ff"/></linearGradient><linearGradient id="g26" x1="78.5" y1="15" x2="74.9" y2="23.5" href="#P"><stop/><stop offset="1" stop-color="#0ff"/></linearGradient><linearGradient id="g27" x1="76.8" y1="19" x2="74.9" y2="23.5" href="#P"><stop/><stop offset="1" stop-color="#0ff"/></linearGradient><linearGradient id="g28" x1="97.2" y1="6.1" x2="94.6" y2="12.1" href="#P"><stop/><stop offset="1" stop-color="#0ff"/></linearGradient><linearGradient id="g29" x1="96" y1="8.9" x2="94.6" y2="12.1" href="#P"><stop/><stop offset="1" stop-color="#0ff"/></linearGradient><linearGradient id="g30" x1="89.3" y1="85.1" x2="100.7" y2="94.9" href="#P"><stop/><stop offset="1" stop-color="#0ff"/></linearGradient><linearGradient id="g31" x1="94.7" y1="89.7" x2="100.7" y2="94.9" href="#P"><stop/><stop offset="1" stop-color="#0ff"/></linearGradient><linearGradient id="g32" x1="90.4" y1="178.4" x2="100.7" y2="187.2" href="#P"><stop/><stop offset="1" stop-color="#0ff"/></linearGradient><linearGradient id="g33" x1="95.3" y1="182.6" x2="100.7" y2="187.2" href="#P"><stop/><stop offset="1" stop-color="#0ff"/></linearGradient><linearGradient id="g34" x1="174.4" y1="172.4" x2="181.3" y2="178.3" href="#P"><stop/><stop offset="1" stop-color="#0ff"/></linearGradient><linearGradient id="g35" x1="177.7" y1="175.2" x2="181.3" y2="178.3" href="#P"><stop/><stop offset="1" stop-color="#0ff"/></linearGradient><linearGradient id="g36" x1="214.5" y1="78.7" x2="222.4" y2="85.4" href="#P"><stop/><stop offset="1" stop-color="#0ff"/></linearGradient><linearGradient id="g37" x1="218.3" y1="81.9" x2="222.4" y2="85.4" href="#P"><stop/><stop offset="1" stop-color="#0ff"/></linearGradient><linearGradient id="g38" x1="235.4" y1="142.9" x2="244.4" y2="150.7" href="#P"><stop/><stop offset="1" stop-color="#0ff"/></linearGradient><linearGradient id="g39" x1="239.7" y1="146.6" x2="244.4" y2="150.7" href="#P"><stop/><stop offset="1" stop-color="#0ff"/></linearGradient><linearGradient id="g40" x1="229.1" y1="87.5" x2="238.8" y2="95.8" href="#P"><stop/><stop offset="1" stop-color="#0ff"/></linearGradient><linearGradient id="g41" x1="233.7" y1="91.4" x2="238.8" y2="95.8" href="#P"><stop/><stop offset="1" stop-color="#0ff"/></linearGradient><linearGradient id="g42" x1="101.8" y1="33.6" x2="109.9" y2="40.6" href="#P"><stop/><stop offset="1" stop-color="#0ff"/></linearGradient><linearGradient id="g43" x1="105.7" y1="36.9" x2="109.9" y2="40.6" href="#P"><stop/><stop offset="1" stop-color="#0ff"/></linearGradient></defs><style>.a{fill:url(#g1)}.b{opacity:.7;mix-blend-mode:screen;fill:#9ff}.c{fill:url(#g2)}.d{mix-blend-mode:multiply;fill:url(#g3)}.e{mix-blend-mode:screen;fill:url(#g4)}.f{opacity:.7;mix-blend-mode:screen;fill:url(#g5)}.g{fill:#fff}.h{opacity:.7;mix-blend-mode:multiply;fill:url(#g6)}.i{opacity:.7;mix-blend-mode:multiply;fill:url(#g7)}.j{opacity:.7;mix-blend-mode:multiply;fill:url(#g8)}.k{opacity:.7;mix-blend-mode:multiply;fill:url(#g9)}.l{opacity:.7;mix-blend-mode:multiply;fill:url(#g10)}.m{opacity:.7;mix-blend-mode:multiply;fill:url(#g11)}.n{opacity:.7;mix-blend-mode:multiply;fill:url(#g12)}.o{opacity:.7;mix-blend-mode:multiply;fill:url(#g13)}.p{opacity:.7;mix-blend-mode:multiply;fill:url(#g14)}.q{mix-blend-mode:screen;fill:url(#g15)}.r{mix-blend-mode:screen;fill:url(#g16)}.s{mix-blend-mode:screen;fill:url(#g17)}.t{mix-blend-mode:screen;fill:url(#g18)}.u{mix-blend-mode:screen;fill:url(#g19)}.v{mix-blend-mode:screen;fill:url(#g20)}.w{mix-blend-mode:screen;fill:url(#g21)}.x{mix-blend-mode:screen;fill:url(#g22)}.y{mix-blend-mode:screen;fill:url(#g23)}.z{mix-blend-mode:screen;fill:url(#g24)}.A{mix-blend-mode:screen;fill:url(#g25)}.B{mix-blend-mode:screen;fill:url(#g26)}.C{mix-blend-mode:screen;fill:url(#g27)}.D{mix-blend-mode:screen;fill:url(#g28)}.E{mix-blend-mode:screen;fill:url(#g29)}.F{mix-blend-mode:screen;fill:url(#g30)}.G{mix-blend-mode:screen;fill:url(#g31)}.H{mix-blend-mode:screen;fill:url(#g32)}.I{mix-blend-mode:screen;fill:url(#g33)}.J{mix-blend-mode:screen;fill:url(#g34)}.K{mix-blend-mode:screen;fill:url(#g35)}.L{mix-blend-mode:screen;fill:url(#g36)}.M{mix-blend-mode:screen;fill:url(#g37)}.N{mix-blend-mode:screen;fill:url(#g38)}.O{mix-blend-mode:screen;fill:url(#g39)}.P{mix-blend-mode:screen;fill:url(#g40)}.Q{mix-blend-mode:screen;fill:url(#g41)}.R{mix-blend-mode:screen;fill:url(#g42)}.S{mix-blend-mode:screen;fill:url(#g43)}</style><path class="a" d="m137.2 5.6c6.2 0 11.9 0.4 17.8 1.2 2.4-0.6 6.3-0.8 7 1.2 38.2 7.4 70.4 31.7 88.4 64.8 4.4 2.4 9.2 10.8 7.3 15.7 5.6 14.4 8.5 29.7 8.5 46.1 0 18.1-3.7 35.2-10.5 50.9 1.5 9.8-5.6 22.2-13.2 23.4-15.3 21.8-36.8 38.3-62.3 47.3-1.5 2.9-8.6 4.4-11.2 3.4-10.2 2.6-20.7 3.9-31.8 3.9-7.4 0-14.3-0.5-21.3-1.7-1.9 0.8-5.3 0.1-5.8-1.2-5.9-1.2-11.5-2.9-17.1-4.9-1.4 0.5-4-0.3-4.5-1.8-20.6-8.3-38.6-22-52.2-39-3.3-0.8-5.5-4.8-5.9-7.9-12.3-18.2-20.2-40.3-21.8-63.7-2.3-1.6-2.8-6.5-0.3-9.2 0.1-46.8 24.9-87.5 62.3-110 1.8-2.5 5.5-5 8.5-4.6 3.9-2.1 7.9-3.8 12.1-5.4 1.3-2 5.5-3.6 7.5-2.7 12.2-3.8 25.1-5.8 38.5-5.8z"/><path class="b" d="m120.2 17.4c1.1 1 0.2 0.5 1.8 1.4 0.8 0.4 2 0.5 2.8 0.7 0.6 0.2 8.6 0.2 7 1.7-0.2 0.2-5.4 0-6.2 0.1-1.2 0.2-1.9 0.2-3.2 0.7-1.3 0.6-1.9 1.6-3.5 1.6-1 0-0.7-1-0.4-1.4 0.7-0.9 0.8-2.5 0.3-3.5-0.5-0.8-0.4-2.4 0.8-1.7 0.2 0.2 0.5 0.3 0.6 0.4z"/><path fill-rule="evenodd" class="c" d="m264 100.2c0.3 1-0.5 2.1-0.3 3.2 0.5 1.5 4.2 7.5 5.5 11.6 0.2 0.6-1.2 3.6-2.1 5.3-0.1 0.1 1.5 3.6 1.5 3.7-0.2 2-0.7 4-0.3 5.9 0.7 2.6 3.3 6.6 3.4 7.3 0 0.6-1.3 2.9-1.1 4.4 0.4 2.1 3.1 5.2 3 5.8-0.1 0.6-5.2 8.8-6.9 13.6-0.5 1.4 0.9 3 0.4 4.4-2.4 6.4-4.9 12.9-8.8 18.6-0.9 1.3-3.2 1.8-4.8 1.4-1.3-0.3-2.4-1.8-2.6-3.2-0.1-0.7 3.2-10.9 3.3-13.4 0.7-14.3-3-14.2-2.9-25.8 0-1.9 2.5-11.9 2.7-15.1 0.4-6.9-7.6-8.9-7.6-21.5 0-1.5-0.4-2.9-0.9-4.3-2.6-6.4 1.3-6 1.3-11.6 0-1.5-1.7-6.7-0.7-7.6 5.3-4.8 16.1 11.9 17.9 17.3zm-128.5 91c43.5 4.7 35.9-2.5 45.4-6.7 4.7-2 7.5 0.8 12.6 0.8 16.1 0 18.9-10.7 27.1-21.1 3.3-4.2 10.8-9.5 16.3-9.4 6.4 0.2 11.2 11.3 11.7 16.1 0.3 2.7-1 7.1-2.2 11.1-1 3.3-1.2 5-0.2 8.9 0.9 3.4 0.7 6-2.2 13.2-2.4 6.1-3.2 12.9-6 18.8-0.2 0.4-6 2.2-6.5 2.9-0.3 0.5-2.7 4.6-3.2 5-0.2 0.2-2.9-0.3-3.7 0.7-2.4 2.6-4.9 9.1-5.2 9.4-0.6 0.4-4.7 1.2-4.8 1.6-0.2 0.4-3.1 4.8-3.6 5.1-0.4 0.2-10 2.3-14.8 3.9-3.7 1.3-9.6 4.3-10.9 4.6-0.3 0.1-12.2 0-18.3 0.4-12.5 0.9-32.5 3.6-39.9-8.5-2.5-4.2-4.5-9.1-7.4-12.6-4.7-5.8-11.2-9.8-17.6-16.6-4-4.2 1.7-5.7 2.3-7.1 1-2.3 1.8-6.4 2.5-10.8 2-12.8 11-11.5 28.6-9.7zm-9.5-87.3c9.3-0.9 18.1-4.6 21.4-4.8 10.7-0.6 16.5 6.9 18.6 9.5 0.5 0.6 1.7 0.1 2.3-0.4 0.5-0.5 0.6-1.4 0.3-2-0.8-1.5-2-2.6-3.3-3.7-1.9-1.5-3.2-2.6-5.1-3.6-0.4-0.2 1.4-1 3.2-1.6 14.6-5.7 23.4-11.8 41-5.5 8.6 3 5 0.1 13.8 0.2 1 0 1.9 0.9 2.8 0.6 1.7-0.6 2.8-2.4 4.3-3.3 0.4-0.3 0.9-0.4 1.3-0.1 1 0.8 1.9 1.9 2.6 3.1 0.5 0.9 0.4 2.2 1 3.1 3.4 4.9 2.1 4.2 5.4 6.5 1.4 1 3.4 2.1 3.8 3.9 1.8 6.6-0.9 6.1 3.3 16.7 0.5 1.4 3 5.9 3.1 7.5 0.2 5.1-5.2 14.1-11.3 17.2-6 3.1-7.9 2.9-14.4 7.8-9.9 7.5-9.9 18.5-21.1 20.7-2.1 0.4-4.2-0.4-6.3-0.8-3-0.7-5.8-2.4-8.8-2.6-1.7-0.2-3.5 0.4-4.8 1.3-2.8 2-4.6 2.9-7.3 4.9-1.5 1.1-3.4 1.7-5.2 1.8-18.7 1.3-73.8 1.8-81.5-7.7-2-2.4-16.8-35.8-17-37.7-0.2-1.3 0.6-2.6 1.3-3.7 6.4-9.2 16.2-24.3 26.4-26.6 3-0.7 17.2 0.7 30.2-0.7zm0.4-68.7c1.3-0.6 2.8-1.1 4.2-1.1 1.8 0 3.4 1 5.1 1 1 0 2.2-0.2 2.8-1 0.8-0.9 0.5-2.3 0.7-3.4 0.5-4.7 13.9-3.2 21.9-1.8 4 0.6 7.9 1.8 11.6 3.4 10.1 4.3 16.8 9.4 24.9 16.1 11.4 9.3 8.1 13 12.9 20.1q2.5 3.7 5.5 6.9c3.6 3.7 2.2 7.4-0.6 9-3.7 2.1-8.1 3.2-10.7 2.4-2.4-0.7-4.9-1.2-7.4-2-7.5-2.1-14.7 5.2-23-3.6-0.7-0.7 0.1-2.1-0.5-2.9-1.8-2.4-4.2-4.3-6.3-6.5q-0.5-0.2-0.9-0.5c1.6 2.5 3.5 4.8 4.7 7.4 0.6 1.3 0.9 2.8 0.4 4.1-1.1 3.1-2.8 6-4.9 8.6-3.9 4.9-9 2.6-12.5-0.6-5.5-5-9.4-2.6-13.6-1.4-1.9 0.5-10.4 5.1-19.4 3.5-3.5-0.6-12.9-4.6-14.8-6.6-1.7-1.9-0.7-6.9-0.7-8.2-0.1-7.3-2.1-12.7-1.3-22.7 0.9-11.6 13.2-15.7 21.9-20.2zm57.1-23.5c2 0.5 4 1.1 5.9 1.9 1.3 0.5 2.5 1.3 3.8 1.8 1.5 0.5 4.2 0.8 4.7 1.1 0.4 0.3 4.1 4.3 6.6 6 2.1 1.3 4.7 1.6 6.9 2.9 2.2 1.3 3.8 3.6 6 5 1.9 1.2 5.4 2.1 6.1 2.7 0.3 0.4 2.8 5.7 3.3 6.3 0.3 0.3 2.6 1.6 4 2.1 1.7 0.5 5.2 0.9 5.4 1 0.1 0.1 1 3.1 1.3 4.8 0 0.6 3.2 1.1 3.5 1.5 0.7 0.9 1.6 6.2 2.9 9.2 1.8 3.7 4.9 6.7 6.3 10.5 4.3 11.6-10.1 4.5-9.4 12.9 0.1 0.8 1 1.2 1.2 1.9 0.3 1.7 0.5 3.4 0.1 5-0.7 2.2-6.2 3.7-8.8 0.1-0.6-0.8-1.8-2.7-3.2-4.8-5.3-8.3-3.5-5.5-10.4-10.5-1.1-0.8-2.1-1.9-2.9-3.7-1.7-3.6-2.9-21.5-20.8-29.5-4-1.8-8.1-3.3-11.7-5.9-10.8-7.6-8.4-12.4-28.7-10.2-2.1 0.2-14.1 0.1-15.3-1.7-2.6-3.6 8.2-10.1 10.9-11.1 2.7-1.1 5.5-2 8.4-2.5 2.5-0.5 5.1-1.1 7.6-0.8 2.6 0.3 5 1.9 7.6 2.5 2.9 0.7 5.8 0.8 8.7 1.5zm-49.9 11.7c1.6 1 0.5 5-0.1 6.4-0.2 0.3-0.7 0.5-1 0.5-2.7-0.1-4.8-1.1-7.3 0.4-1.1 0.7-1.9 2.1-3 3-0.6 0.6-9.1 2-9.5 0.6-0.2-0.8-0.2-1.7 0.2-2.3 1.5-2.8 6.9-8.1 9.8-8.5 2.8-0.5 8.5-1.7 10.9-0.1zm-32.7-14.9c0.3-0.1 3-0.2 4.4-0.7 1.8-0.8 5.3-3.4 5.9-3.6 0.6-0.1 4.1 0.7 4.4 0.5 0.3-0.1 2.1-1.2 3.3-1.7 1.4-0.5 2.9-1 4.5-1.3 1.1-0.1 2.2 0.3 3.3 0.1 1.5-0.3 3.8-1.7 4.3-1.6 0.5 0.1 3.7 0.6 5.2 1.1 0.3 0 2.1-0.6 2.5-0.6 0.2 0 3.9 1.6 6 2 2.2 0.5 4.6 0.1 6.8 0.6 1.2 0.4 2.3 1.2 3.2 2.1 0.4 0.4 0.8 1.3 0.3 1.4-1.9 0.6-4.1 1.2-7.9 3.3-3.8 2.1-9 5.8-12.8 8.1-4.4 2.6-15.8-2.4-20.3-3.7-4.8-1.3-10.4-1.7-15.3-3.1 0.8-0.9 1.8-2.8 2.2-2.9zm-15.1 5.7c0.9-0.6 2.2-0.5 3.3-0.5 1.9 0.2 3.7 1 5.5 1.1 1.5 0.1 2.9-0.6 4.3-0.4 6.1 0.8 12.3 1.5 18.1 3.4 0.9 0.3 0.9 1.9 0.5 2.8-0.8 2-2.2 3.6-3.6 5.2-2.5 2.6-5.4 4.9-8 7.5-5.1 5-2.7 5.6-3.4 11-0.4 2.6-3 4.3-4.1 6.7-2.3 5-1.4 19.7-1.4 25.9-0.1 8.6-2.9 14.4-11.3 18-1.7 0.7-8.1-0.4-13.9 3.2-5 3.1-16.1 11.8-19.8 1-1.5-4.5-1.3-10.1-0.2-12.7 2.2-5.1 3.4-6.3 11.3-21.3 2.1-4 3.1-8.2 2.6-12.9-0.4-3.9 4.6-10.3 7-12.2 0.7-0.6 1.2-1.4 1.7-2.2 3.4-6 2.7-13.9 4.4-17.9 1.1-2.8 4.4-4.2 7-5.7zm-13.8 92.1c0.6-0.3 1.5-0.5 2 0 3.3 2.7-0.1 9.6-1.8 12.4-1.5 2.3-3.4 4.2-4.9 6.5-0.9 1.4-0.9 3.3-2.1 4.4-0.7 0.6-1.9 0.5-2.9 0.2-5.3-1.6-4.4-4.8-6-5.6-3.7-2.1-10.6-6.6-2.2-10.3 7-3.1 12.1-3.5 17.9-7.6zm43.9 155.5c4.1-0.9 10.6-2.2 14.6-1.8 1.3 0.1 2.7 1.2 4 0.7 7.4-2.7 11.6 0.9 17.8 0.7 5.5-0.1 11.4-0.9 16.7-1.8-1 0.6-1.9 1.1-2.8 1.7-1.7 1.2-3.1 3-4.9 3.8-2.1 0.9-4.5 1.2-6.7 1.2-2.3 0.1-4.6-1.1-6.9-0.8-3.1 0.4-5.7 2.5-8.8 3-1.1 0.2-2-0.8-3.1-1-1.3-0.3-2.6-0.1-3.8-0.4-1.1-0.3-1.9-1.3-3-1.6-2.6-0.6-5.3-0.2-7.8-0.9-2-0.6-3.6-1.9-5.3-2.8zm1.2-21.6c7.9 15.1 8.3 17.2-3.8 19.5-3 0.6-5.8 2.3-8.8 2.2-2.5 0-4.8-1.1-6.9-2.3-1.8-0.9-3.4-2.2-4.6-3.8-0.7-1.2-0.9-2.6-1-4-0.2-4.7-0.9-8-3.1-12.8-0.9-2-8.8-11.6-5.7-14.8 1.7-1.8 9.2-2.7 11.6-2.1 6.5 1.5 19.4 12.7 22.3 18.1zm-57.9-17.1c5.8 1.5 11.3 1.1 18.6 0.8 1.3-0.1 1.6 1.2 1.5 2.4-0.4 13.6 8.2 18.9 5.1 24.7-0.7 1.2-2.6 1.6-4 1.4-8.3-0.8-7.5-4.5-14-7.8-4.8-2.5-11-1.9-15.5-5-3-2-3.2-6.5-5.2-9.4-2.7-3.8-6.5-6.8-9-10.7-0.8-1.2-1.5-3-0.7-4.2 0.7-1.2 2.6-1.2 3.9-0.9 8.1 2.2 13.8 7.3 19.3 8.7zm-9.5-92.2c13.1-0.2 10.9 3.9 16.4 16.5 2.2 4.9 9 18.5 11.1 24.1 1.7 4.7 5.6 6.6 6.2 7 2.9 2.4 3 2.8 6.1 4.9 1.7 1.1 3.2 2.4 4.6 3.8 1 0.8 2.2 1.6 2.6 2.8 1.6 4.5-5.4 21.7-11.6 24.1 0 0-10.8 3.5-23.6 2.1-6.5-0.8-28.4-8.4-34.5-13.7-1.7-1.4-3-3.4-4.3-5.2-1.2-1.7-2.1-3.7-3.2-5.4-2.8-4.2-4.2-4.9-6.7-9.2-0.3-0.5 0.1-3.8-0.2-4.4-0.6-1.1-4-4.9-4.2-5.6-0.4-1.3 1.2-7.7 1-11.5-0.2-3.7-0.9-7.4-1.7-11-1-5.2 0.2-5.6 1.7-7.4 0.6-0.7 1.3-1.5 1.9-2.5 1.7-2.7 2.9-4.9 3.4-5.5 0.4-0.6 1.5-0.8 2.1-0.5 1 0.6 3.6 1.9 4.5 0.9 3.1-3.5 6.5-10.8 10.4-13.1 1.6-0.9 4.2-1.8 6.6-2.3 5.3-1.2 6.2 2.6 6.4 3.4 0.7 3.6-0.6 7.8 5 7.7zm-41.8-21.7c0.3-3.3 0.9-6.5 1.8-9.6 0.8-2.4 2.4-4.5 3.2-6.9 1.9-6.2 4.3-18.5 5-18.8 0.2-0.1 4-3.7 5.6-5.9 1.9-2.4 3-5.3 4.8-7.7 2.9-3.8 6.5-7 9.2-10.8 1.7-2.4 3.6-7.4 4.2-7.8 0.7-0.4 7.1-5.3 10.9-7.7 5.5-3.6 10.4-8.5 16.7-10.5 2.5-0.8 4.4 9.5 0 14.3-3.3 3.7-10.8 6.8-12.5 14-1.7 7 1.6 11.3-0.9 16-4.3 8.1-8 11.4-13.4 19.9-3.4 5.3-1.7 6.9-1 13.1 2.2 18.3-10.8 9-15.3 15.7-1.1 1.6-2.7 15.2-8.1 12.7-1.4-0.6-2.2-2.8-3.7-2.5-3.3 0.7-2.9 7.2-3.6 7.8-0.9 0.7-2.4-0.1-3.1-0.9-0.9-1.3-1.1-3.2-1.1-4.8 0-6.6 0.6-13.1 1.3-19.6z"/><path fill-rule="evenodd" class="d" d="m193.9 129.4c1.1-0.3 5.2 2.7 5.4 3.5 0.3 1 0.3 6-0.7 8.8-1 2.8-4 6.5-5 7.2-0.8 0.6-4.8 0.8-6.7-0.3-3.1-1.7 5.2-18.7 7-19.2zm21-25.6c1.4 0.3 5.3 3.2 5.5 3.9 1 4.2 2.2 8.4 1.9 12.7-0.3 5.6-1.1 11.3-3.6 16.3-2.4 4.8-13.8 5.6-14.3 4.4-2.4-5.7 0.6-12.3 1.9-18.2 0.5-2.3 7.7-19.2 8.6-19.1zm31.5 78.2c-1 3.3-1.2 5-0.2 8.9 0.9 3.4 0.7 6-2.2 13.2-2.4 6.1-3.2 12.9-6 18.8-0.2 0.4-6 2.2-6.5 2.9-0.3 0.5-2.7 4.6-3.2 5-0.2 0.2-2.9-0.3-3.7 0.7-2.4 2.6-4.9 9.1-5.2 9.4-0.6 0.4-4.7 1.2-4.8 1.6-0.2 0.4-3.1 4.8-3.6 5.1-0.4 0.2-10 2.3-14.8 3.9-3.7 1.3-9.6 4.3-10.9 4.6-0.3 0.1-12.2 0-18.3 0.4-12.5 0.9-32.5 3.6-39.9-8.5-2.5-4.2-4.5-9.1-7.4-12.6-3.8-4.6-8.7-8.1-13.8-12.8 20.3 3.1 46.4-1.7 63.4-6.1 4.3-1.1 8.6-2.6 11.9-5.4 5.6-4.6 14.4-16.5 21.9-27.5 8.1-3.4 11.3-11.5 17.5-19.4 3.3-4.2 10.8-9.5 16.3-9.4 6.4 0.2 11.2 11.3 11.7 16.1 0.3 2.7-1 7.1-2.2 11.1zm-63.1 10.9c0.5-0.2 3.4 2.1 3.2 2.7-0.7 1.7-1.7 3.3-2.9 4.6-1.7 1.8-3.5 3.7-5.8 4.5-1.3 0.5-3.9-0.4-4.2-0.7-0.2-0.1-0.9-2.1-0.6-3.2 0.7-2 8.3-7.2 10.3-7.9zm-121.8 23.3c-6.5-0.8-28.4-8.4-34.5-13.7-1.7-1.4-3-3.4-4.3-5.2-1.2-1.7-2.1-3.7-3.2-5.4-2.8-4.2-4.2-4.9-6.7-9.2-0.3-0.5 0.1-3.8-0.2-4.4-0.6-1.1-4-4.9-4.2-5.6-0.4-1.3 1.2-7.7 1-11.5-0.2-3.7-0.9-7.4-1.7-11-1-5.2 0.2-5.6 1.7-7.4 0.6-0.7 1.3-1.5 1.9-2.5 1.7-2.7 2.9-4.9 3.4-5.5 0.3-0.4 0.9-0.6 1.4-0.6 1 11.9 2.6 23 4.2 30.4 3.3 15.3 41 38.6 63.3 50-3.5 0.9-12.2 2.7-22.1 1.6zm-5-35.7c-0.1 0.8-1.3 1.1-2 1-1.5-0.1-8.9-2.5-9.2-3.3-0.3-0.8 0-2.1 0.8-2.6 1.3-0.8 4.4-0.5 4.5-0.4 1.9 0.8 6 4.2 5.9 5.3zm-16-9c0.5 1.1-3.1 3.8-4.2 3.5-2-0.6-4.1-1.4-5.7-2.7-1-0.9-1.7-2.3-1.9-3.6-0.4-2.6-0.4-5.3 0-7.9 0.1-1 0.6-2.3 1.5-2.5 1.3-0.4 3.1-0.2 3.9 0.8 2.9 3.7 4.6 8.2 6.4 12.4zm-26.1-44.8c-3.3 0.7-2.9 7.2-3.6 7.8-0.9 0.7-2.4-0.1-3.1-0.9-0.9-1.3-1.1-3.2-1.1-4.8 0-6.6 0.6-13.1 1.3-19.6 0.3-3.3 0.9-6.5 1.8-9.6 0.8-2.4 2.4-4.5 3.2-6.9 1.9-6.2 4.3-18.5 5-18.8 0.2-0.1 4-3.7 5.6-5.9 1.9-2.4 3-5.3 4.8-7.7 2.9-3.8 6.5-7 9.2-10.8 1.7-2.4 3.6-7.4 4.2-7.8 0.7-0.4 7.1-5.3 10.9-7.7 5.5-3.6 10.4-8.5 16.7-10.5 0.8-0.3 1.6 0.7 2.1 2.3-6.1 3.8-12.1 8.6-19 14.9-9.3 8.6-28.5 31.3-33.1 42.1-4.1 9.7-4.7 27.2-3.7 44.2-0.4-0.3-0.8-0.4-1.2-0.3zm64.4-106.8c1.1-2.8 4.4-4.2 7-5.7 0.9-0.6 2.2-0.5 3.3-0.5 1.9 0.2 3.7 1 5.5 1.1 1.5 0.1 2.9-0.6 4.3-0.4q0.4 0 0.7 0.1c-8.2 2-15 4.3-21.4 7.5q0.2-1.2 0.6-2.1zm22.1-11.4c0.3-0.1 3-0.2 4.4-0.7 1.8-0.8 5.3-3.4 5.9-3.6 0.6-0.1 4.1 0.7 4.4 0.5 0.3-0.1 2.1-1.2 3.3-1.7 1.4-0.5 2.9-1 4.5-1.3 1.1-0.1 2.2 0.3 3.3 0.1 1.5-0.3 3.8-1.7 4.3-1.6 0.5 0.1 3.7 0.6 5.2 1.1 0.3 0 2.1-0.6 2.5-0.6 0.2 0 3.9 1.6 6 2 2.2 0.5 4.6 0.1 6.8 0.6 1.2 0.4 2.3 1.2 3.2 2.1 0.4 0.4 0.8 1.3 0.3 1.4-1.9 0.6-4.1 1.2-7.9 3.3q-0.7 0.4-1.5 0.9c-11-2-22.7-1.2-33.4 0.8q-3.1 0.6-5.9 1.2c-2.6-0.4-5.2-0.9-7.6-1.6 0.8-0.9 1.8-2.8 2.2-2.9zm54.3 5q-2.8-1-5.7-1.7c0.7-0.4 1.3-0.7 1.7-0.8 2.7-1.1 5.5-2 8.4-2.5 2.5-0.5 5.1-1.1 7.6-0.8 2.6 0.3 5 1.9 7.6 2.5 2.9 0.7 5.8 0.8 8.7 1.5 2 0.5 4 1.1 5.9 1.9 1.3 0.5 2.5 1.3 3.8 1.8 1.5 0.5 4.2 0.8 4.7 1.1 0.4 0.3 4.1 4.3 6.6 6 2.1 1.3 4.7 1.6 6.9 2.9 2.2 1.3 3.8 3.6 6 5 1.9 1.2 5.4 2.1 6.1 2.7 0.3 0.4 2.8 5.7 3.3 6.3 0.3 0.3 2.6 1.6 4 2.1 1.7 0.5 5.2 0.9 5.4 1 0.1 0.1 1 3.1 1.3 4.8 0 0.6 3.2 1.1 3.5 1.5 0.7 0.9 1.6 6.2 2.9 9.2 1.8 3.7 4.9 6.7 6.3 10.5 4.3 11.6-10.1 4.5-9.4 12.9 0.1 0.8 1 1.2 1.2 1.9 0.3 1.7 0.5 3.4 0.1 5-0.7 2.2-6.2 3.7-8.8 0.1-0.6-0.8-1.8-2.7-3.2-4.8-5.3-8.3-3.5-5.5-10.4-10.5-1.1-0.8-2.1-1.9-2.9-3.7-1.7-3.6-2.9-21.5-20.8-29.5q-2.1-0.9-4.2-1.9c-5.5-5.2-11.4-9.9-17.6-14.3-5.8-4.2-12.2-7.8-19-10.2zm70.1 75.8c0.4-0.3 0.9-0.4 1.3-0.1 1 0.8 1.9 1.9 2.6 3.1 0.5 0.9 0.4 2.2 1 3.1 3.4 4.9 2.1 4.2 5.4 6.5 1.4 1 3.4 2.1 3.8 3.9 1.8 6.6-0.9 6.1 3.3 16.7 0.5 1.4 3 5.9 3.1 7.5 0.2 5.1-5.2 14.1-11.3 17.2-6 3.1-7.9 2.9-14.4 7.8q-0.2 0.2-0.5 0.4c3.6-8.6 7.2-19.2 9.1-25.9 0.8-2.6 1.3-5.3 1.3-8.1 0-10.5-2-21.2-5.4-31.6q0.3-0.3 0.7-0.5zm20.2 12.8c-2.6-6.4 1.3-6 1.3-11.6 0-1.5-1.7-6.7-0.7-7.6 5.3-4.8 16.1 11.9 17.9 17.3 0.3 1-0.5 2.1-0.3 3.2 0.5 1.5 4.2 7.5 5.5 11.6 0.2 0.6-1.2 3.6-2.1 5.3-0.1 0.1 1.5 3.6 1.5 3.7-0.2 2-0.7 4-0.3 5.9 0.7 2.6 3.3 6.6 3.4 7.3 0 0.6-1.3 2.9-1.1 4.4 0.4 2.1 3.1 5.2 3 5.8-0.1 0.6-5.2 8.8-6.9 13.6-0.5 1.4 0.9 3 0.4 4.4-2.4 6.4-4.9 12.9-8.8 18.6-0.9 1.3-3.2 1.8-4.8 1.4-1.3-0.3-2.4-1.8-2.6-3.2-0.1-0.7 3.2-10.9 3.3-13.4 0.7-14.3-3-14.2-2.9-25.8 0-1.9 2.5-11.9 2.7-15.1 0.4-6.9-7.6-8.9-7.6-21.5 0-1.5-0.4-2.9-0.9-4.3zm-76 104.3c-0.2 2-0.6 4.1-1.9 5.6-0.5 0.6-4.2 2.5-6.5 2.9-3.1 0.6-6.4 0.5-9.6 0-2.2-0.3-5.8-1.9-6.2-2.5-1-1.5-1.3-4.8-0.9-5.4 0.4-0.5 3.4-2.9 3.9-2.8 3.2 0.8 6.5 1.2 9.7 1 1.2 0 5-4.3 6.3-4.4 2.1-0.2 5.3 4.9 5.2 5.6zm-89.1 46c-8.3-0.8-7.5-4.5-14-7.8-4.8-2.5-11-1.9-15.5-5-3-2-3.2-6.5-5.2-9.4-2.7-3.8-6.5-6.8-9-10.7-0.8-1.2-1.5-3-0.7-4.2 0.7-1.2 2.6-1.2 3.9-0.9 8.1 2.2 13.8 7.3 19.3 8.7 5.8 1.5 11.3 1.1 18.6 0.8 1.3-0.1 1.6 1.2 1.5 2.4-0.4 13.6 8.2 18.9 5.1 24.7-0.7 1.2-2.6 1.6-4 1.4zm2.8-28.2c1.7-1.8 9.2-2.7 11.6-2.1 6.5 1.5 19.4 12.7 22.3 18.1 7.9 15.1 8.3 17.2-3.8 19.5-3 0.6-5.8 2.3-8.8 2.2-2.5 0-4.8-1.1-6.9-2.3-1.8-0.9-3.4-2.2-4.6-3.8-0.7-1.2-0.9-2.6-1-4-0.2-4.7-0.9-8-3.1-12.8-0.9-2-8.8-11.6-5.7-14.8zm51.3 36.5c7.4-2.7 11.6 0.9 17.8 0.7 5.5-0.1 11.4-0.9 16.7-1.8-1 0.6-1.9 1.1-2.8 1.7-1.7 1.2-3.1 3-4.9 3.8-2.1 0.9-4.5 1.2-6.7 1.2-2.3 0.1-4.6-1.1-6.9-0.8-3.1 0.4-5.7 2.5-8.8 3-1.1 0.2-2-0.8-3.1-1-1.3-0.3-2.6-0.1-3.8-0.4-1.1-0.3-1.9-1.3-3-1.6-2.6-0.6-5.3-0.2-7.8-0.9-2-0.6-3.6-1.9-5.3-2.8 4.1-0.9 10.6-2.2 14.6-1.8 1.3 0.1 2.7 1.2 4 0.7z"/><path class="e" d="m42.5 87.7c-3.4 5.3-1.7 6.9-1 13.1 2.2 18.3-10.8 9-15.3 15.7-0.6 0.8-1.2 4.4-2.3 7.6-1-3.9-2.1-7.8-1.5-11.6 1-7 1.5-14.2 3.8-20.9 0.7-2.1 0.4-4.4 1.2-6.5 1-2.5 2.8-4.5 4-6.9 2.7-5.6 4.2-11.9 7.7-17.1 2.3-3.4 6.5-5 9.2-7.9 3.6-4 6.2-8.8 9.8-12.8 1.8-1.9 4-3.5 6.3-4.8q3.7-2.1 7.4-4c-0.2 2.3-1 4.6-2.5 6.2-3.3 3.7-10.8 6.8-12.5 14-1.7 7 1.6 11.3-0.9 16-4.3 8.1-8 11.4-13.4 19.9zm30.2-47.7c0.7-0.6 1.2-1.4 1.7-2.2 1.5-2.7 2.2-5.8 2.7-8.7q2-0.9 4-1.8c7-3.3 22.4-7.8 33.2-10.3q1.3 0.4 2.7 0.8c0.9 0.3 0.9 1.9 0.5 2.8-0.8 2-2.2 3.6-3.6 5.2-2.5 2.6-5.4 4.9-8 7.5-5.1 5-2.7 5.6-3.4 11-0.4 2.6-3 4.3-4.1 6.7-2.3 5-1.4 19.7-1.4 25.9-0.1 8.6-2.9 14.4-11.3 18-1.7 0.7-8.1-0.4-13.9 3.2-5 3.1-16.1 11.8-19.8 1-1.5-4.5-1.3-10.1-0.2-12.7 2.2-5.1 3.4-6.3 11.3-21.3 2.1-4 3.1-8.2 2.6-12.9-0.4-3.9 4.6-10.3 7-12.2zm48.5-24.4c2.5-0.5 7.9 0.9 13.5 2.4q-0.2 0.1-0.4 0.2c-3.2 1.9-10.4-0.3-15.7-2.1q1.4-0.3 2.6-0.5zm23.4 5c3.3 0.8 7.9 1.6 12.4 3.1q-0.7 0-1.4 0.1c-2.1 0.2-14.1 0.1-15.3-1.7-0.6-0.7-0.5-1.7-0.1-2.6q2.3 0.6 4.4 1.1zm-12.1 9.7c-2.7-0.1-4.8-1.1-7.3 0.4-1.1 0.7-1.9 2.1-3 3-0.6 0.6-9.1 2-9.5 0.6-0.2-0.8-0.2-1.7 0.2-2.3 1.5-2.8 6.9-8.1 9.8-8.5 2.8-0.5 8.5-1.7 10.9-0.1 1.6 1 0.5 5-0.1 6.4-0.2 0.3-0.7 0.5-1 0.5zm28.6-1.4c3.6 0.6 7.1 1.6 10.5 3 1.3 1.4 2.2 3.1 2.8 5 0.5 1.4-0.3 5 0.7 7.9 2.2 6.7 11.9 17.7 14 25.3 1.1 4.2 0.7 9.4-0.4 15-4.6 0.8-9.3 1.6-14.4-3.9-0.7-0.7 0.1-2.1-0.5-2.9-1.8-2.4-4.2-4.3-6.3-6.5q-0.5-0.2-0.9-0.5c1.6 2.5 3.5 4.8 4.7 7.4 0.6 1.3 0.9 2.8 0.4 4.1-1.1 3.1-2.8 6-4.9 8.6-3.9 4.9-9 2.6-12.5-0.6-5.5-5-9.4-2.6-13.6-1.4-1.9 0.5-10.4 5.1-19.4 3.5-3.5-0.6-12.9-4.6-14.8-6.6-1.7-1.9-0.7-6.9-0.7-8.2-0.1-7.3-2.1-12.7-1.3-22.7 0.9-11.6 13.2-15.7 21.9-20.2 1.3-0.6 2.8-1.1 4.2-1.1 1.8 0 3.4 1 5.1 1 1 0 2.2-0.2 2.8-1 0.8-0.9 0.5-2.3 0.7-3.4 0.5-4.7 13.9-3.2 21.9-1.8zm-93.8 96.3c-0.9 1.4-0.9 3.3-2.1 4.4-0.7 0.6-1.9 0.5-2.9 0.2-5.3-1.6-4.4-4.8-6-5.6-3.7-2.1-10.6-6.6-2.2-10.3 7-3.1 12.1-3.5 17.9-7.6 0.6-0.3 1.5-0.5 2 0 3.3 2.7-0.1 9.6-1.8 12.4-1.5 2.3-3.4 4.2-4.9 6.5zm9.9 46.3c1.7 4.7 5.6 6.6 6.2 7 1.8 1.5 2.5 2.3 3.6 3.1-12.6 1.3-23.2-3.9-33.9-12.1-12.5-9.6-13.7-14.2-20.1-19.2-1.6-1.3-4.2-5.9-5.2-9.6-0.9-3.7-1.9-7.2-2.7-10.9 2.1-3.1 4.3-6.3 6.6-7.7 1.6-0.9 4.2-1.8 6.6-2.3 5.3-1.2 6.2 2.6 6.4 3.4 0.7 3.6-0.6 7.8 5 7.7 13.1-0.2 10.9 3.9 16.4 16.5 2.2 4.9 9 18.5 11.1 24.1zm-7.8-40.3c6.4-9.2 16.2-24.3 26.4-26.6 3-0.7 17.2 0.7 30.2-0.7 9.3-0.9 18.1-4.6 21.4-4.8 10.7-0.6 16.5 6.9 18.6 9.5 0.5 0.6 1.7 0.1 2.3-0.4 0.5-0.5 0.6-1.4 0.3-2-0.8-1.5-2-2.6-3.3-3.7-1.9-1.5-3.2-2.6-5.1-3.6-0.4-0.2 1.4-1 3.2-1.6 9.2-3.6 16.2-7.4 24.4-8.1-1.5 6.4-3.6 13.1-5.4 19.7-6.6 24-10.3 18.9-25.1 40.1-2.6 3.7-6 6.9-9.8 9.2-6.1 3.7-16.3 3.9-23.4 9.2-3.2 2.3-4.6 6.6-7.7 9-2.2 1.6-5 2.4-7.7 2.9q-0.4 0.1-0.8 0.1c-11.1-1.3-20-3.4-22.8-6.8-2-2.4-16.8-35.8-17-37.7-0.2-1.3 0.6-2.6 1.3-3.7z"/><path class="b" d="m102.9 79.2c-0.6 2.9-2.1 4.9 0.9 8.7 2.7 3.5 6.2 5.1 10.2 6.7 8.5 3.5 26.6-2.7 27.4-2.1 2.6 2-1.5 5.1-3.2 6.2-4.5 2.6-18.6 5.1-32.2 3.6-6-0.7-13.9-2.1-18.6 3.1-3.2 3.6-5.7 9.6-9.3 7.4-0.7-0.4-1.1-1.9-0.7-3.2 0.6-1.8 1.6-3.4-1-5.7-3.6-3.1-2.2-6.4 2.1-6.1 1.5 0.1 3.5 0.5 5.4 0.4 2.1-0.2 4.1-1.1 5.7-1.6 6.1-2 6.3-7.6 8.4-12.4 0.9-2.1 1.2-8.6 4.3-7.7 1.3 0.4 0.8 1.6 0.6 2.7z"/><path class="b" d="m38.8 114.1c7.5-1.6 7.3-9.3 5.1-15.1-3-8.2 0.7-8.3 2.9-14.1 2.4-6.5 5.6-5.6 4.4-3.6-1.6 2.6-2.2 4.8-2.9 7.8-1 4.1 1.4 10.6 1.3 11.7-0.6 6.1 15.1 4.4 15.4 6.2 0.5 3.9-11.7 4.1-14 5.2-5.2 2.6-3.4 9.6 1.4 12.3 3.1 1.8 1 3.6-0.4 3.8-5.9 0.6-4.9-1-5.3-5.1-0.4-4.1-1-6.9-5.6-6.9-1.4 0-7.1 1.6-8.3 2.2-5.6 2.7-7.2 0.4-3.7-2.2 1.2-0.9 7.4-2 8.5-1.9 0.8 0 0.6-0.2 1.2-0.3z"/><path class="f" d="m122.8 182.8c7.3 0.2 13.6-0.6 20.7-0.6 3.1 0 9.8-0.5 12.7 0.3 4.8 1.1 4.5 4.4 1.3 6.7-4.1 2.9-18.2-0.1-23.1-1.2-6.5-1.5-14.8-2.7-21.5-1.3-5.4 1.1-6.1 1.9-7.8 6.6-1.7 4.5 1.6 16.7-5.1 18-3.9 0.8-1.4 6.3 0.2 8.2 2.1 2.6 0.9 3.6-1.3 2.3-2.5-1.6-5.7-3.1-8.9-2.4-3.8 0.9-10.6 3-14.3 2.5-5.4-0.8-10.8-0.3-16.5-1.4-9.7-1.8-7.6-5.8-1.9-3.3 2.4 1 5.7 1.2 7.2 1.7 1.6 0.6 11.7-0.7 13.7-1.1 3.7-0.8 7.8-0.6 9.9-3.6 2.9-4.2 6.7-9 8.6-13.8 2.3-6 1.7-4 1.8-9.9 0.1-4.6-11.6-8.7-12.2-11.7-1.1-6 9.2 1.1 13.7 2.7 3.2 1 17.3 1.2 22.8 1.3zm63-6.3c1.8 1.2 11.4 4 11.5 4.1 3.4 3.4-5.2 2.9-7.2 1.8-3.3-1.8-2.8 0.2-6.1-0.9-2.8-1-8.7 2.7-10 4.9-1.4 2.2-7.3 3.2-8.3 1.5-2-3.7-1.3-4.9 2.9-5.7 1.8-0.3 8.3-3.1 8.4-4.5 1.7-1.1 3.2-4.1 6.1-2.5 0.3 0.1 2.6 1.2 2.7 1.3z"/><path class="b" d="m243 143.8c1.2-1.5 3.4-6.7 4.4-10.7 1.1-4 0.2-6.6-2.3-10-0.9-1.1-1.9-3.7-2.2-5.9-0.8-4.6 0.8-6.5 3 0.1 1.1 3.1 2.7 6.3 4.1 7.4 3.7 3 2.2 7.6 1 9.9-1.4 2.8-3 13.9-1.8 16.7 0.9 2 2.6 10.7 2.6 10.7 1.5 2.8 0.2 13.4-0.9 13.7-2.3 0.6-0.5-2.8-0.4-3.3 0.5-1.6-0.5-7.6-1.4-8.3-3.4-2.9-4.2-8.4-7.6-10.4-3.5-2-7.6 0.4-10.1 0.6-2.5 0.2-6 3.2-7 1.9-2.3-3 9.1-5.8 11.2-7.3 3.4-2.6 3.4-0.8 7.4-5.1z"/><path class="b" d="m111.1 34.7c0.4 2.4 3.3 1.9 4.9 1.2 1.3-0.6 3.6-0.7 4.7-0.1 1.8 1.1-3.9 3.1-4.6 3.5-1.3 0.9-4.3 1.5-4.9 2.4-1.6 2.2-2.6 1.9-3.7 3.1-0.3 0.3-4 7.5-4 7.8-0.3 1.2-2.2 3.3-3 2.6-2.8-2.5 1.2-6.1 2.6-8.4 1.8-2.9 1.6-2.9 1.5-6-0.2-4.1 0.4-5.3 3.4-8 3.7-3.3 2.6 0.8 2.9 1.4q0.1 0.2 0.2 0.5z"/><path class="b" d="m242.7 96.2c-0.2 1.5 0.4 4.3-1.5 5.2-1.1 0.5-2.7 0.1-3.7-0.7-2.7-1.9-3.8-4.7-6.1-9.7-1.3-2.8-3.6-4.7-6.7-3.9-2.3 0.7-2.5 1.1-4 1.6-1.7 0.6-7 3.1-7.3-0.3-0.3-3.3 2.3-2.9 4.2-4.4 1.4-1.1 1.9-0.6 2.4-2.8 0.4-1.7 0.5-1.8-1.2-3.4-1.1-1.1-1-0.5-1.9-2.4-0.3-0.8-0.7-2.6 0.8-1.8 2.4 1.3 1.4 1 3.3 2.6 3.1 2.8 3.8 5.2 6.5 7.7 2.6 2.3 3.3 2.6 5.3 5.7 1.2 1.8 1.8 2.1 4 2.6 2 0.4 4.6-0.1 5.8-1.8 1.5-2 1.4-5.5 0.6-7.7-0.2-0.7 1.5-4 1.8 1.5 0.2 3.6 1.3 4-0.5 7.9-0.7 1.6-0.4 1.9-0.5 2.4-0.3 0.8-1.1 0.6-1.3 1.7z"/><path class="g" d="m52.5 106.2c1.6 0.6 5.4 0.7 6.1 2.1 0.3 0.7-0.6 1.1-1.7 1.3-1.7 0.4-4 0.5-4.7 0.7-3.4 0.7-4.7 3.1-5.4 6.3-0.5 2.4-1.2 0.7-2-0.6-0.7-1.2-5-0.5-6-0.2-1 0.4-2.4-0.1-1.2-0.4 2.7-0.8 4.3-1.1 6.4-3.3 3-2.9 2.4-6.1 2.4-9.8 0-1.2-0.3-2.6-0.3-3.4 0.1-2.5 1.8-0.7 1.9 0.7 0.2 5.4 2.3 5.6 4.5 6.6z"/><path class="g" d="m83.5 99.5c1.3-0.1 2.9-0.2 3.5-0.2 1.7-0.3 2.9-0.6 3.8-1.1 3.6-1.8 6.7-3.7 7.3-8.2 0.4-3.1 2.3-7.8 3.1-4 0.6 2.3 3 5.7 5 6.9 3.6 2.3 8.8 4.7 16.8 4 0.8-0.1 3.6 0.3 2.3 1.8-3.2 3.8-11.7 3-16 2.4-4.2-0.5-11.7-2.6-16.6-0.6-1.6 0.8-4 1.2-5.1 2.8-1.6 2.1-5.5 2.1-5.3 0.9 0.2-1.4-1.1-1.8-1.4-2.7-0.6-1.8 1.4-1.9 2.6-2z"/><path class="g" d="m113.5 37.3c4 0 2.2 1.6-0.4 2.3-0.7 0.2-1.4 0.2-3 0.2-2.9 0 0.5 2-1.3 2.8-3.5 1.5-2 2-3.5 3.7-2.3 2.7-1.1-0.8-0.5-1.4 0.9-0.8 1.1-3.8 1.4-4.6 0.4-1.2-0.2-2.6 0.4-3.8 0.6-1.1 2.2-1.9 3-0.9 0.9 1.1 2.4 1.7 3.9 1.7z"/><path class="g" d="m221.6 82.1c0.6-1.6-1.5-2.9-1.2-4.3 0.3-1.4 1.4 0.4 1.8 0.7 0.6 0.6 1.7 2.1 2 2.9 0.4 1 0.4 0.6 0.8 1.2 0.8 1.2 1.6 1.9 2.8 2.6 1.8 1.2 0.1 1.1-0.1 1-1.3-0.6-3.7-0.2-5.1 0.2-0.8 0.2-1.6 0.5-2.3 1-1 0.7-3.6 1.2-4.5 0.1-0.8-1.1 0.3-1.6 1.1-2 1.4-0.6 1.1-0.3 2.1-1.5 0.8-0.9 2.1-0.2 2.6-1.9z"/><path class="g" d="m237.5 93.4c5.4 0 5-2.9 6.1-3 1.5-0.2 0.5 1.5 0.5 1.7-0.3 1.1-1.3 1.5-1.3 1.6-0.1 2-1.6-0.2-1.6 2.5 0 2.5 0.2 2.9-2.2 2.7-0.6 0-1.1-0.5-1.3-0.6-0.8-0.3-1.9-2.2-2.2-2.5-0.9-0.5-3-3.7-1.5-3.5 1.5 0.2 0.8 1.1 3.5 1.1z"/><path class="g" d="m248.4 141.2c0.3 0.9-0.5 2.1-0.9 3-1 2.3 0 1.5-0.9 3.6-1.1 2.9-0.3 2.1 0.7 3.5 1.3 1.9 3.7 7.7 3.2 9.9-0.6 2.4-3.1-1.7-3.4-2.3-1.9-3.7-1.2-4.9-5-7.1-1.1-0.6-6.5 0.2-7.4 0.7-2.7 1.5-8 1.4-4.2-0.5 0 0 6.1-2 6.2-2 2.1-0.5 3.3-1.5 4.9-2.2 2-1 2.9-4.2 4.1-6.2 0.6-0.9 2.1-2.3 2.7-0.4z"/><path class="g" d="m101.8 183.8c1.1 0.7 8.1-1 6.5 1.5-0.3 0.4-2.1-0.8-4.1 3.3-3.1 6.1-1.3 8.6-2.1 11.9-0.5 2-0.8 6.6-2.5 7.5-5.1 2.8-2.8 3.7-4 7.1-0.3 0.8-7.7 4-7.7 1.6 0 0 3-3.7 3.3-4.2 0.8-0.9 5.6-8.5 5.6-9.2 0-1.1 2.6-5.9 3.1-7.5 2-5.4-0.9-7.2-1.4-9.5-0.7-2.4-4.6-3.5-2.4-4.5 0.4-0.2 5.3 1.8 5.7 2z"/><path class="g" d="m154.7 185.9c-2.8 3.6-6.8 1.6-10.4 1.6-1.4 0.1-12.7-1.3-11.9-3 0.3-0.9 6.8-0.4 8-0.5 2.2-0.3 4.7-0.3 6.9-0.3 1.5 0 7-0.7 7.5 1.3 0 0.1 0 0.8-0.1 0.9z"/><path class="g" d="m179.6 177c1.2-1.6 2.7-0.9 4.1-0.1 1.1 0.7 4.8 2.2 6 2.3 1.7 0.2 2.2 1.5 0.9 1.6-0.9 0.2-2.9-1.6-5.3-0.5-2.1 0.9-1.9-1.4-6.1-0.2-1.9 0.5-2.6 1.4-4.1 2.3-1.2 0.6-5 4.2-5.5 4.3-4 0.8-3.2-3.4-1.4-3.5 2.7 0 1.3 0.1 3.7-0.5 2.8-0.7 4-2.2 5.2-2.6 0.8-0.2 1.8-2.2 2.5-3.1z"/><path class="b" d="m179.2 31.4c6.9 5.5 14.2 8.4 22.1 12.7 5 2.7 11.5 17.7 8 15.4-0.4-0.2-3.6-5.7-8.5-10.5-4.4-4.3-10.4-7.8-12.4-9.5-6.9-5.9-20.2-8.6-22.9-10.7-2.9-2.4 0-3.2 3.3-2.9 3.5 0.3 7.7 3.4 10.4 5.5z"/><path class="b" d="m67 44.3c-2 1.5-4.3 6.8-3.8 8.9 0.6 2.1-0.2 4.3-0.1 5.3 0.2 2.4-2.3 9.3-5.1 9.3 0-3.6 2.6-2.5 2.6-8.8 0-3.1-3.3-8.5-0.5-10.6 2.5-1.8 4.7-4.7 7.3-5.7 0.4-0.1 0 1.3-0.4 1.6z"/><path class="h" d="m55.9 67.8c-4.3 8.1-8 11.4-13.4 19.9-3.4 5.3-1.7 6.9-1 13.1 2.2 18.3-10.8 9-15.3 15.7-1.1 1.6-2.7 15.2-8.1 12.7-1.4-0.6-2.2-2.8-3.7-2.5-3.3 0.7-2.9 7.2-3.6 7.8-0.9 0.7-2.4-0.1-3.1-0.9q-0.3-0.4-0.5-0.9 0.4-0.1 0.6-0.3c0.8-0.6 0.4-7.1 3.7-7.8 1.4-0.3 2.7 0.6 4.2 0.8 4.2 0.9 5.8-11.3 6.9-13 3.4-4.9 11.4-0.3 15-4.6 2.3-2.9-2.4-12.8 1.6-19 5.5-8.5 9.5-14.1 13.8-23.1 2.2-4.8-3.2-10.5-1.5-17.4 1.7-7.3 13-8.4 16.4-12.1 2.9-3.2 2.4-9.2 0.9-12.5q0.3-0.1 0.5-0.2c2.5-0.8 4.4 9.5 0 14.3-3.3 3.7-10.8 6.8-12.5 14-1.7 7 1.6 11.3-0.9 16z"/><path class="i" d="m94.1 74.8c0-6.2-3.8-22.5-1.6-27.5 1.1-2.4 6.7-2.5 7-5 0.8-5.5-2.4-6.9 2.7-12 2.5-2.5 6.3-4 8.7-6.6 1.4-1.6 2.9-3.2 3.7-5.2 0.1-0.3 0.2-0.9 0.2-1.4q1.1 0.4 2.2 0.7c0.9 0.3 0.9 1.9 0.5 2.8-0.8 2-2.2 3.6-3.6 5.2-2.5 2.6-5.4 4.9-8 7.5-5.1 5-2.7 5.6-3.4 11-0.4 2.6-3 4.3-4.1 6.7-2.3 5-1.4 19.7-1.4 25.9-0.1 8.6-2.9 14.4-11.3 18-1.7 0.7-8.1-0.4-13.9 3.2-4.5 2.8-13.9 10.1-18.4 3.7 5.2 1.7 12.7-4.1 15.2-7.7 5.3-7.2 12.3-3.2 14.1-3 6.8 0.7 11.3-7.7 11.4-16.3z"/><path class="j" d="m112.6 32.8c2.7-0.1 6.3-0.8 6.7-1.2 1-0.9 1.9-2.3 3-3 2.5-1.5 6.9-0.4 9.5-0.3 0.4 0 0.9-0.2 1.1-0.5 0.3-0.9 0.9-2.7 0.9-4.3 1.3 1.3 0.2 4.9-0.3 6.3-0.2 0.3-0.7 0.5-1 0.5-2.7-0.1-4.8-1.1-7.3 0.4-1.1 0.7-1.9 2.1-3 3-0.6 0.6-9.1 2-9.5 0.6-0.2-0.5-0.2-1-0.1-1.5z"/><path class="k" d="m98.7 11.4q0.2-0.2 0.5-0.6c3.7 0.1 8.3 0.6 11.9 1.6 4.4 1.3 15.9 6.3 20.3 3.7 3.8-2.3 8.9-6 12.8-8.1 3.5-1.9 8.1-2.3 10.3-2.8q0.1 0.1 0.2 0.2c0.4 0.4 0.8 1.3 0.3 1.4-1.9 0.6-4.1 1.2-7.9 3.3-3.8 2.1-9 5.8-12.8 8.1-4.4 2.6-15.8-2.4-20.3-3.7-4.8-1.3-10.4-1.7-15.3-3.1z"/><path class="l" d="m96.7 190c1.6 4.5-5.4 21.7-11.6 24.1 0 0-10.8 3.5-23.6 2.1-6.5-0.8-28.4-8.4-34.5-13.7q-0.1-0.1-0.2-0.1c8.2 5 26 11 31.7 11.7 12.8 1.4 19.1-2 19.1-2 6.2-2.3 11.6-17.1 10-21.6-1.4-4.1-9.7-8.2-12.3-15.2-2-5.7-8-20-10.2-25-4-9-7.3-16-11.7-19.3 9 0.7 7.8 5.2 12.7 16.4 2.2 4.9 9 18.5 11.1 24.1 1.7 4.7 5.6 6.6 6.2 7 2.9 2.4 3 2.8 6.1 4.9 1.7 1.1 3.2 2.4 4.6 3.8 1 0.8 2.2 1.6 2.6 2.8z"/><path class="m" d="m80.4 252.4c-4.3-0.4-6.2-1.6-7.9-3.2 0.8 0.2 1.8 0.4 3 0.5 1.4 0.2 3.3-0.2 4-1.4 2.3-4.4-2.9-8.3-4.4-15.9-0.5-2.3 1.2-5 1.3-8.2q0-0.1 0-0.2 0.7-0.1 1.4-0.1c1.3-0.1 1.6 1.2 1.5 2.4-0.4 13.6 8.2 18.9 5.1 24.7-0.7 1.2-2.6 1.6-4 1.4z"/><path class="n" d="m101.8 225.5c6.2 4.2 13.2 10.9 15.3 14.7 7.9 15.1 8.3 17.2-3.8 19.5-3 0.6-5.8 2.3-8.8 2.2-2.5 0-4.8-1.1-6.9-2.3-1.1-0.5-2.1-1.2-3-2.1q0 0.1 0 0.1c2.2 1.1 4.5 2.2 6.9 2.3 3.1 0 5.9-1.7 8.9-2.2 12.1-2.3 11.7-4.5 3.7-19.6-1.7-3.2-6.9-8.5-12.3-12.6z"/><path class="o" d="m60.1 126.9c1.1 0.9 2.9 0.5 3.9-0.4 1.5-1.4-0.4-4.7 5.6-8.1 2.5-1.5 5.4-4.9 5.4-7.9 0-1.3 0-2.2-0.6-3.4-0.4-0.7-1.7-0.8-2.5-0.7q0 0 0.1-0.1c0.6-0.3 1.5-0.5 2 0 3.3 2.7-0.1 9.6-1.8 12.4-1.5 2.3-3.4 4.2-4.9 6.5-0.9 1.4-0.9 3.3-2.1 4.4-0.7 0.6-1.9 0.5-2.9 0.2-5.3-1.6-4.4-4.8-6-5.6-1.2-0.7-2.8-1.7-4-2.7 2.1 0.5 6.4 1.3 6.7 1.6 0.6 0.5-0.8 2.2 1.1 3.8z"/><path class="p" d="m236.9 154.8q1 0.1 1.9 0.4c-9.5 1.6-16.9 10.8-19.2 19.8-3.4 13.1-13.9 9.7-17.4 12.3-3.4 2.6-8 2.8-12.1 1-9.4-4.2-12.7 4.4-18.8 9-3.1 2.3-40.1-3.9-44.8-5.4-3.6-1.2-7.1-2-11.9-1.1 4.7-1.4 11.6-0.5 20.9 0.4 43.5 4.7 35.9-2.5 45.4-6.7 4.7-2 7.5 0.8 12.6 0.8 16.1 0 18.9-10.7 27.1-21.1 3.3-4.2 10.8-9.5 16.3-9.4z"/><path class="q" d="m194.6 34.8c7.4 1.3 14.1 10.5 16.6 12.8 9.3 8.9 2.2 11.6 10.6 22.3 1 1.3-0.8 2.6 3.6 3.9 3 0.9 4.9 3.5 6.1 6.1 1 2.2 1.5 7.3 3.5 10q-1-0.5-1.7-1.5c-0.6-0.8-1.8-2.7-3.2-4.8-5.3-8.3-3.5-5.5-10.4-10.5-1.1-0.8-2.1-1.9-2.9-3.7-1.7-3.6-2.9-21.5-20.8-29.5-4-1.8-8.1-3.3-11.7-5.9-10.8-7.6-8.4-12.4-28.7-10.2-2.1 0.2-14.1 0.1-15.3-1.7q-0.5-0.6-0.4-1.4c7.1 5.3 33.6-5.9 41 3.7 6.7 8.7 4.1 8.6 13.7 10.4z"/><path class="r" d="m256 138.1c-2.9 7.7-1.5 16.2-0.6 20 1.8 7.9 5.7 9.8-2.1 19.8-0.8 1.1-1.4 2-2.1 2.8 0.8-3.1 3-9.9 3-11.9 0.7-14.3-3-14.2-2.9-25.8 0-1.9 2.5-11.9 2.7-15.1 0.4-6.9-7.6-8.9-7.6-21.5 0-1.5-0.4-2.9-0.9-4.3-1.6-4-0.7-5.3 0.2-7.1-0.2 4.2 2.6 5.7 3.6 10.6 0.8 4.1-2.9 4.2 2 11.6 1.4 2.1 7.2 8.3 7.6 10.5 0.8 5.4-1.8 7.5-2.9 10.4z"/><path class="s" d="m180.4 81.4c4.7 2.3 8 0.7 14.1-0.3 2.1-0.3 2.5 0.1 4.2 1.6 0.4 0.4 1.8 0 3.1 0.7 1.8 1 3.6 3.2 6.4 3.6-1.3 0.2-2.5 0.1-3.5-0.2-2.4-0.7-4.9-1.2-7.4-2-7.5-2.1-14.7 5.2-23-3.6-0.7-0.7 0.1-2.1-0.5-2.9-1.8-2.4-4.2-4.3-6.3-6.5 6.6 5.6 9.3 4.1 9.7 5 0.6 1.7 0.6 3.3 3.2 4.6z"/><path class="t" d="m124 93.2c10.6-0.9 16-5.1 22.8-8.1 3.7-1.6 6.3-2.1 9.2 2.9 0.6 1.1 0.8 2.7 3.1 2.6 0.2 0 3.1 3 6.6 2-3.7 3.3-8.2 1.1-11.4-1.8-5.5-5-9.4-2.6-13.6-1.4-1.7 0.5-8.8 4.2-16.7 3.8z"/><path fill-rule="evenodd" class="u" d="m264 100.2c0.3 1-0.5 2.1-0.3 3.2 0.5 1.5 4.2 7.5 5.5 11.6 0.2 0.6-1.2 3.6-2.1 5.3-0.1 0.1 1.5 3.6 1.5 3.7-0.2 2-0.7 4-0.3 5.9 0.7 2.6 3.3 6.6 3.4 7.3 0 0.6-1.3 2.9-1.1 4.4 0.4 2.1 3.1 5.2 3 5.8-0.1 0.6-5.2 8.8-6.9 13.6-0.5 1.4 0.9 3 0.4 4.4-2.4 6.4-4.9 12.9-8.8 18.6-0.9 1.3-3.2 1.8-4.8 1.4-1.3-0.3-2.4-1.8-2.6-3.2-0.1-0.7 3.2-10.9 3.3-13.4 0.7-14.3-3-14.2-2.9-25.8 0-1.9 2.5-11.9 2.7-15.1 0.4-6.9-7.6-8.9-7.6-21.5 0-1.5-0.4-2.9-0.9-4.3-2.6-6.4 1.3-6 1.3-11.6 0-1.5-1.7-6.7-0.7-7.6 5.3-4.8 16.1 11.9 17.9 17.3zm-128.5 91c43.5 4.7 35.9-2.5 45.4-6.7 4.7-2 7.5 0.8 12.6 0.8 16.1 0 18.9-10.7 27.1-21.1 3.3-4.2 10.8-9.5 16.3-9.4 6.4 0.2 11.2 11.3 11.7 16.1 0.3 2.7-1 7.1-2.2 11.1-1 3.3-1.2 5-0.2 8.9 0.9 3.4 0.7 6-2.2 13.2-2.4 6.1-3.2 12.9-6 18.8-0.2 0.4-6 2.2-6.5 2.9-0.3 0.5-2.7 4.6-3.2 5-0.2 0.2-2.9-0.3-3.7 0.7-2.4 2.6-4.9 9.1-5.2 9.4-0.6 0.4-4.7 1.2-4.8 1.6-0.2 0.4-3.1 4.8-3.6 5.1-0.4 0.2-10 2.3-14.8 3.9-3.7 1.3-9.6 4.3-10.9 4.6-0.3 0.1-12.2 0-18.3 0.4-12.5 0.9-32.5 3.6-39.9-8.5-2.5-4.2-4.5-9.1-7.4-12.6-4.7-5.8-11.2-9.8-17.6-16.6-4-4.2 1.7-5.7 2.3-7.1 1-2.3 1.8-6.4 2.5-10.8 2-12.8 11-11.5 28.6-9.7zm-9.5-87.3c9.3-0.9 18.1-4.6 21.4-4.8 10.7-0.6 16.5 6.9 18.6 9.5 0.5 0.6 1.7 0.1 2.3-0.4 0.5-0.5 0.6-1.4 0.3-2-0.8-1.5-2-2.6-3.3-3.7-1.9-1.5-3.2-2.6-5.1-3.6-0.4-0.2 1.4-1 3.2-1.6 14.6-5.7 23.4-11.8 41-5.5 8.6 3 5 0.1 13.8 0.2 1 0 1.9 0.9 2.8 0.6 1.7-0.6 2.8-2.4 4.3-3.3 0.4-0.3 0.9-0.4 1.3-0.1 1 0.8 1.9 1.9 2.6 3.1 0.5 0.9 0.4 2.2 1 3.1 3.4 4.9 2.1 4.2 5.4 6.5 1.4 1 3.4 2.1 3.8 3.9 1.8 6.6-0.9 6.1 3.3 16.7 0.5 1.4 3 5.9 3.1 7.5 0.2 5.1-5.2 14.1-11.3 17.2-6 3.1-7.9 2.9-14.4 7.8-9.9 7.5-9.9 18.5-21.1 20.7-2.1 0.4-4.2-0.4-6.3-0.8-3-0.7-5.8-2.4-8.8-2.6-1.7-0.2-3.5 0.4-4.8 1.3-2.8 2-4.6 2.9-7.3 4.9-1.5 1.1-3.4 1.7-5.2 1.8-18.7 1.3-73.8 1.8-81.5-7.7-2-2.4-16.8-35.8-17-37.7-0.2-1.3 0.6-2.6 1.3-3.7 6.4-9.2 16.2-24.3 26.4-26.6 3-0.7 17.2 0.7 30.2-0.7zm0.4-68.7c1.3-0.6 2.8-1.1 4.2-1.1 1.8 0 3.4 1 5.1 1 1 0 2.2-0.2 2.8-1 0.8-0.9 0.5-2.3 0.7-3.4 0.5-4.7 13.9-3.2 21.9-1.8 4 0.6 7.9 1.8 11.6 3.4 10.1 4.3 16.8 9.4 24.9 16.1 11.4 9.3 8.1 13 12.9 20.1q2.5 3.7 5.5 6.9c3.6 3.7 2.2 7.4-0.6 9-3.7 2.1-8.1 3.2-10.7 2.4-2.4-0.7-4.9-1.2-7.4-2-7.5-2.1-14.7 5.2-23-3.6-0.7-0.7 0.1-2.1-0.5-2.9-1.8-2.4-4.2-4.3-6.3-6.5q-0.5-0.2-0.9-0.5c1.6 2.5 3.5 4.8 4.7 7.4 0.6 1.3 0.9 2.8 0.4 4.1-1.1 3.1-2.8 6-4.9 8.6-3.9 4.9-9 2.6-12.5-0.6-5.5-5-9.4-2.6-13.6-1.4-1.9 0.5-10.4 5.1-19.4 3.5-3.5-0.6-12.9-4.6-14.8-6.6-1.7-1.9-0.7-6.9-0.7-8.2-0.1-7.3-2.1-12.7-1.3-22.7 0.9-11.6 13.2-15.7 21.9-20.2zm57.1-23.5c2 0.5 4 1.1 5.9 1.9 1.3 0.5 2.5 1.3 3.8 1.8 1.5 0.5 4.2 0.8 4.7 1.1 0.4 0.3 4.1 4.3 6.6 6 2.1 1.3 4.7 1.6 6.9 2.9 2.2 1.3 3.8 3.6 6 5 1.9 1.2 5.4 2.1 6.1 2.7 0.3 0.4 2.8 5.7 3.3 6.3 0.3 0.3 2.6 1.6 4 2.1 1.7 0.5 5.2 0.9 5.4 1 0.1 0.1 1 3.1 1.3 4.8 0 0.6 3.2 1.1 3.5 1.5 0.7 0.9 1.6 6.2 2.9 9.2 1.8 3.7 4.9 6.7 6.3 10.5 4.3 11.6-10.1 4.5-9.4 12.9 0.1 0.8 1 1.2 1.2 1.9 0.3 1.7 0.5 3.4 0.1 5-0.7 2.2-6.2 3.7-8.8 0.1-0.6-0.8-1.8-2.7-3.2-4.8-5.3-8.3-3.5-5.5-10.4-10.5-1.1-0.8-2.1-1.9-2.9-3.7-1.7-3.6-2.9-21.5-20.8-29.5-4-1.8-8.1-3.3-11.7-5.9-10.8-7.6-8.4-12.4-28.7-10.2-2.1 0.2-14.1 0.1-15.3-1.7-2.6-3.6 8.2-10.1 10.9-11.1 2.7-1.1 5.5-2 8.4-2.5 2.5-0.5 5.1-1.1 7.6-0.8 2.6 0.3 5 1.9 7.6 2.5 2.9 0.7 5.8 0.8 8.7 1.5zm-49.9 11.7c1.6 1 0.5 5-0.1 6.4-0.2 0.3-0.7 0.5-1 0.5-2.7-0.1-4.8-1.1-7.3 0.4-1.1 0.7-1.9 2.1-3 3-0.6 0.6-9.1 2-9.5 0.6-0.2-0.8-0.2-1.7 0.2-2.3 1.5-2.8 6.9-8.1 9.8-8.5 2.8-0.5 8.5-1.7 10.9-0.1zm-32.7-14.9c0.3-0.1 3-0.2 4.4-0.7 1.8-0.8 5.3-3.4 5.9-3.6 0.6-0.1 4.1 0.7 4.4 0.5 0.3-0.1 2.1-1.2 3.3-1.7 1.4-0.5 2.9-1 4.5-1.3 1.1-0.1 2.2 0.3 3.3 0.1 1.5-0.3 3.8-1.7 4.3-1.6 0.5 0.1 3.7 0.6 5.2 1.1 0.3 0 2.1-0.6 2.5-0.6 0.2 0 3.9 1.6 6 2 2.2 0.5 4.6 0.1 6.8 0.6 1.2 0.4 2.3 1.2 3.2 2.1 0.4 0.4 0.8 1.3 0.3 1.4-1.9 0.6-4.1 1.2-7.9 3.3-3.8 2.1-9 5.8-12.8 8.1-4.4 2.6-15.8-2.4-20.3-3.7-4.8-1.3-10.4-1.7-15.3-3.1 0.8-0.9 1.8-2.8 2.2-2.9zm-15.1 5.7c0.9-0.6 2.2-0.5 3.3-0.5 1.9 0.2 3.7 1 5.5 1.1 1.5 0.1 2.9-0.6 4.3-0.4 6.1 0.8 12.3 1.5 18.1 3.4 0.9 0.3 0.9 1.9 0.5 2.8-0.8 2-2.2 3.6-3.6 5.2-2.5 2.6-5.4 4.9-8 7.5-5.1 5-2.7 5.6-3.4 11-0.4 2.6-3 4.3-4.1 6.7-2.3 5-1.4 19.7-1.4 25.9-0.1 8.6-2.9 14.4-11.3 18-1.7 0.7-8.1-0.4-13.9 3.2-5 3.1-16.1 11.8-19.8 1-1.5-4.5-1.3-10.1-0.2-12.7 2.2-5.1 3.4-6.3 11.3-21.3 2.1-4 3.1-8.2 2.6-12.9-0.4-3.9 4.6-10.3 7-12.2 0.7-0.6 1.2-1.4 1.7-2.2 3.4-6 2.7-13.9 4.4-17.9 1.1-2.8 4.4-4.2 7-5.7zm-13.8 92.1c0.6-0.3 1.5-0.5 2 0 3.3 2.7-0.1 9.6-1.8 12.4-1.5 2.3-3.4 4.2-4.9 6.5-0.9 1.4-0.9 3.3-2.1 4.4-0.7 0.6-1.9 0.5-2.9 0.2-5.3-1.6-4.4-4.8-6-5.6-3.7-2.1-10.6-6.6-2.2-10.3 7-3.1 12.1-3.5 17.9-7.6zm43.9 155.5c4.1-0.9 10.6-2.2 14.6-1.8 1.3 0.1 2.7 1.2 4 0.7 7.4-2.7 11.6 0.9 17.8 0.7 5.5-0.1 11.4-0.9 16.7-1.8-1 0.6-1.9 1.1-2.8 1.7-1.7 1.2-3.1 3-4.9 3.8-2.1 0.9-4.5 1.2-6.7 1.2-2.3 0.1-4.6-1.1-6.9-0.8-3.1 0.4-5.7 2.5-8.8 3-1.1 0.2-2-0.8-3.1-1-1.3-0.3-2.6-0.1-3.8-0.4-1.1-0.3-1.9-1.3-3-1.6-2.6-0.6-5.3-0.2-7.8-0.9-2-0.6-3.6-1.9-5.3-2.8zm1.2-21.6c7.9 15.1 8.3 17.2-3.8 19.5-3 0.6-5.8 2.3-8.8 2.2-2.5 0-4.8-1.1-6.9-2.3-1.8-0.9-3.4-2.2-4.6-3.8-0.7-1.2-0.9-2.6-1-4-0.2-4.7-0.9-8-3.1-12.8-0.9-2-8.8-11.6-5.7-14.8 1.7-1.8 9.2-2.7 11.6-2.1 6.5 1.5 19.4 12.7 22.3 18.1zm-57.9-17.1c5.8 1.5 11.3 1.1 18.6 0.8 1.3-0.1 1.6 1.2 1.5 2.4-0.4 13.6 8.2 18.9 5.1 24.7-0.7 1.2-2.6 1.6-4 1.4-8.3-0.8-7.5-4.5-14-7.8-4.8-2.5-11-1.9-15.5-5-3-2-3.2-6.5-5.2-9.4-2.7-3.8-6.5-6.8-9-10.7-0.8-1.2-1.5-3-0.7-4.2 0.7-1.2 2.6-1.2 3.9-0.9 8.1 2.2 13.8 7.3 19.3 8.7zm-9.5-92.2c13.1-0.2 10.9 3.9 16.4 16.5 2.2 4.9 9 18.5 11.1 24.1 1.7 4.7 5.6 6.6 6.2 7 2.9 2.4 3 2.8 6.1 4.9 1.7 1.1 3.2 2.4 4.6 3.8 1 0.8 2.2 1.6 2.6 2.8 1.6 4.5-5.4 21.7-11.6 24.1 0 0-10.8 3.5-23.6 2.1-6.5-0.8-28.4-8.4-34.5-13.7-1.7-1.4-3-3.4-4.3-5.2-1.2-1.7-2.1-3.7-3.2-5.4-2.8-4.2-4.2-4.9-6.7-9.2-0.3-0.5 0.1-3.8-0.2-4.4-0.6-1.1-4-4.9-4.2-5.6-0.4-1.3 1.2-7.7 1-11.5-0.2-3.7-0.9-7.4-1.7-11-1-5.2 0.2-5.6 1.7-7.4 0.6-0.7 1.3-1.5 1.9-2.5 1.7-2.7 2.9-4.9 3.4-5.5 0.4-0.6 1.5-0.8 2.1-0.5 1 0.6 3.6 1.9 4.5 0.9 3.1-3.5 6.5-10.8 10.4-13.1 1.6-0.9 4.2-1.8 6.6-2.3 5.3-1.2 6.2 2.6 6.4 3.4 0.7 3.6-0.6 7.8 5 7.7zm-41.8-21.7c0.3-3.3 0.9-6.5 1.8-9.6 0.8-2.4 2.4-4.5 3.2-6.9 1.9-6.2 4.3-18.5 5-18.8 0.2-0.1 4-3.7 5.6-5.9 1.9-2.4 3-5.3 4.8-7.7 2.9-3.8 6.5-7 9.2-10.8 1.7-2.4 3.6-7.4 4.2-7.8 0.7-0.4 7.1-5.3 10.9-7.7 5.5-3.6 10.4-8.5 16.7-10.5 2.5-0.8 4.4 9.5 0 14.3-3.3 3.7-10.8 6.8-12.5 14-1.7 7 1.6 11.3-0.9 16-4.3 8.1-8 11.4-13.4 19.9-3.4 5.3-1.7 6.9-1 13.1 2.2 18.3-10.8 9-15.3 15.7-1.1 1.6-2.7 15.2-8.1 12.7-1.4-0.6-2.2-2.8-3.7-2.5-3.3 0.7-2.9 7.2-3.6 7.8-0.9 0.7-2.4-0.1-3.1-0.9-0.9-1.3-1.1-3.2-1.1-4.8 0-6.6 0.6-13.1 1.3-19.6z"/><path class="v" d="m39.4 91.1c5.1 10.8 7.5 15.8 8.5 17.8-2.2 1.1-3.5 1.8-16 7.7-2.4-4.9-2.7-10.3-1.4-14.9 1.4-4.6 4.4-8.5 8.9-10.6zm13.8-0.2c4.4 1.9 8.4 5.5 10.7 10.4-12.5 5.9-14.2 6.8-16 7.6-1-2-3.4-7-8.5-17.8 4.4-2.1 9.4-2 13.8-0.2zm-5.3 18c0.7 1.5 1.6 3.4 8.5 17.9-4.4 2.1-9.4 2-13.8 0.2-4.5-1.9-8.4-5.5-10.7-10.4 12.5-5.9 13.8-6.6 16-7.7zm16-7.6c2.4 4.9 2.7 10.2 1.4 14.9-1.4 4.6-4.4 8.5-8.9 10.6-6.9-14.5-7.8-16.4-8.5-17.9 1.8-0.8 3.5-1.7 16-7.6z"/><path class="w" d="m43.4 99.6c2.7 5.6 4 8.3 4.5 9.3-1.1 0.6-1.9 1-8.4 4.1-1.3-2.6-1.4-5.4-0.7-7.8 0.7-2.5 2.3-4.5 4.6-5.6zm7.3-0.1c2.3 0.9 4.4 2.8 5.6 5.4-6.6 3.2-7.4 3.6-8.4 4-0.5-1-1.8-3.7-4.5-9.3 2.3-1.2 4.9-1.1 7.3-0.1zm-2.8 9.4c0.4 0.8 0.8 1.8 4.5 9.4-2.4 1.1-5 1.1-7.3 0.1-2.3-0.9-4.4-2.8-5.6-5.4 6.5-3.1 7.3-3.5 8.4-4.1zm8.4-4c1.3 2.6 1.4 5.4 0.7 7.8-0.7 2.5-2.3 4.5-4.6 5.6-3.7-7.6-4.1-8.6-4.5-9.4 1-0.4 1.8-0.8 8.4-4z"/><g style="opacity:.7"><path class="x" d="m7.4 128.5c1.1 6 1.6 8.7 1.8 9.9-1.2 0.2-2 0.3-8.9 1.6-0.5-2.7 0.1-5.4 1.3-7.5 1.3-2 3.3-3.5 5.8-4zm6.7 1.8c1.9 1.5 3.4 3.7 3.9 6.5-6.9 1.2-7.8 1.4-8.8 1.6-0.2-1.2-0.7-3.9-1.8-9.9 2.4-0.4 4.8 0.3 6.7 1.8zm-4.9 8.1c0.1 0.8 0.3 1.8 1.8 9.8-2.5 0.4-4.9-0.3-6.8-1.7-1.9-1.5-3.4-3.8-3.9-6.5 6.9-1.3 7.7-1.4 8.9-1.6zm8.8-1.6c0.5 2.7-0.1 5.3-1.3 7.4-1.3 2-3.3 3.5-5.7 4-1.5-8-1.7-9-1.8-9.8 1-0.2 1.9-0.4 8.8-1.6z"/><path class="y" d="m8.2 133.2c0.6 3.1 0.9 4.6 1 5.2-0.7 0.1-1.1 0.2-4.7 0.8-0.2-1.4 0-2.8 0.7-3.9 0.7-1.1 1.7-1.9 3-2.1zm3.6 0.9c1 0.8 1.7 2 2 3.4-3.6 0.7-4.1 0.8-4.6 0.9-0.1-0.6-0.4-2.1-1-5.2 1.3-0.2 2.6 0.1 3.6 0.9zm-2.6 4.3c0 0.4 0.1 0.9 0.9 5.1-1.3 0.3-2.5-0.1-3.6-0.9-1-0.8-1.7-2-2-3.4 3.6-0.6 4-0.7 4.7-0.8zm4.6-0.9c0.3 1.4 0 2.8-0.7 3.9-0.7 1.1-1.7 1.9-3 2.1-0.8-4.2-0.9-4.7-0.9-5.1 0.5-0.1 1-0.2 4.6-0.9z"/></g><g style="opacity:.7"><path class="z" d="m28.7 202.8c2.7 4.5 3.9 6.6 4.4 7.4-0.9 0.5-1.5 0.9-6.6 3.9-1.3-2-1.6-4.3-1.2-6.4 0.4-2 1.6-3.8 3.4-4.9zm6-0.6c2 0.6 3.9 2 5.1 4.1-5.2 3-5.9 3.5-6.7 3.9-0.5-0.8-1.7-2.9-4.4-7.4 1.9-1.1 4-1.3 6-0.6zm-1.6 8c0.4 0.6 0.8 1.4 4.4 7.4-1.9 1.1-4 1.3-6 0.6-2-0.6-3.8-2-5-4.1 5.1-3 5.7-3.4 6.6-3.9zm6.7-3.9c1.2 2 1.5 4.3 1.1 6.4-0.4 2-1.6 3.8-3.4 4.9-3.6-6-4-6.8-4.4-7.4 0.8-0.4 1.5-0.9 6.7-3.9z"/><path class="A" d="m30.8 206.3c1.4 2.4 2 3.5 2.3 3.9-0.5 0.3-0.8 0.5-3.5 2.1-0.6-1.1-0.8-2.3-0.6-3.4 0.2-1.1 0.8-2 1.8-2.6zm3.2-0.3c1 0.3 2 1.1 2.6 2.1-2.7 1.6-3.1 1.9-3.5 2.1-0.3-0.4-0.9-1.5-2.3-3.9 1-0.6 2.1-0.6 3.2-0.3zm-0.9 4.2c0.2 0.3 0.4 0.7 2.3 3.9-1 0.6-2.1 0.6-3.1 0.3-1.1-0.3-2.1-1.1-2.7-2.1 2.7-1.6 3-1.8 3.5-2.1zm3.5-2.1c0.6 1.1 0.8 2.3 0.6 3.4-0.2 1.1-0.8 2-1.8 2.6-1.9-3.2-2.1-3.6-2.3-3.9 0.4-0.2 0.8-0.5 3.5-2.1z"/></g><g style="opacity:.5"><path class="B" d="m83.9 19.2c-5.4 2.6-8 3.8-9 4.3-0.5-1.1-0.9-1.8-3.8-8.2 2.5-1.1 5.2-1.3 7.5-0.6 2.3 0.7 4.3 2.3 5.3 4.5zm0.1 7c-1 2.3-2.8 4.2-5.3 5.4-3-6.3-3.4-7.2-3.8-8.1 1-0.5 3.6-1.7 9-4.3 1.1 2.3 1 4.8 0.1 7zm-9.1-2.7c-0.7 0.3-1.7 0.8-9.1 4.2-1-2.3-1-4.8 0-7 1-2.2 2.8-4.2 5.3-5.4 2.9 6.4 3.3 7.1 3.8 8.2zm3.8 8.1c-2.5 1.2-5.2 1.3-7.5 0.6-2.4-0.7-4.3-2.3-5.4-4.5 7.4-3.4 8.4-3.9 9.1-4.2 0.4 0.9 0.8 1.8 3.8 8.1z"/><path class="C" d="m79.6 21.2c-2.8 1.4-4.2 2-4.7 2.3-0.3-0.6-0.5-1-2-4.3 1.3-0.6 2.7-0.7 3.9-0.3 1.3 0.3 2.3 1.2 2.8 2.3zm0.1 3.7c-0.5 1.2-1.5 2.2-2.8 2.8-1.6-3.3-1.8-3.7-2-4.2 0.5-0.3 1.9-0.9 4.7-2.3 0.6 1.2 0.6 2.5 0.1 3.7zm-4.8-1.4c-0.4 0.1-0.9 0.4-4.8 2.2-0.5-1.2-0.5-2.5 0-3.7 0.5-1.2 1.5-2.2 2.8-2.8 1.5 3.3 1.7 3.7 2 4.3zm2 4.2c-1.3 0.6-2.8 0.7-4 0.4-1.2-0.4-2.2-1.2-2.8-2.4 3.9-1.8 4.4-2.1 4.8-2.2 0.2 0.5 0.4 0.9 2 4.2z"/></g><g style="opacity:.5"><path class="D" d="m101 9.1c-3.8 1.8-5.6 2.6-6.4 3-0.3-0.8-0.6-1.3-2.7-5.8 1.8-0.8 3.7-0.9 5.4-0.4 1.6 0.5 3 1.6 3.7 3.2zm0 4.9c-0.6 1.6-1.9 3-3.7 3.8-2.1-4.5-2.4-5.1-2.7-5.7 0.8-0.4 2.6-1.2 6.4-3 0.8 1.6 0.7 3.3 0 4.9zm-6.4-1.9c-0.5 0.2-1.2 0.5-6.4 3-0.7-1.6-0.7-3.4 0-5 0.7-1.6 2-3 3.7-3.8 2.1 4.5 2.4 5 2.7 5.8zm2.7 5.7c-1.8 0.8-3.7 0.9-5.3 0.4-1.7-0.5-3-1.6-3.8-3.1 5.2-2.5 5.9-2.8 6.4-3 0.3 0.6 0.6 1.2 2.7 5.7z"/><path class="E" d="m98 10.5c-2 1-3 1.4-3.4 1.6-0.2-0.4-0.3-0.7-1.4-3.1 0.9-0.4 1.9-0.4 2.8-0.2 0.9 0.3 1.6 0.9 2 1.7zm0 2.6c-0.4 0.8-1 1.6-2 2-1.1-2.4-1.2-2.7-1.4-3 0.4-0.2 1.4-0.6 3.4-1.6 0.4 0.8 0.4 1.8 0 2.6zm-3.4-1c-0.2 0.1-0.6 0.3-3.3 1.5-0.4-0.8-0.4-1.7-0.1-2.6 0.4-0.8 1.1-1.5 2-2 1.1 2.4 1.2 2.7 1.4 3.1zm1.4 3c-0.9 0.4-1.9 0.5-2.8 0.2-0.8-0.2-1.6-0.8-1.9-1.7 2.7-1.2 3.1-1.4 3.3-1.5 0.2 0.3 0.3 0.6 1.4 3z"/></g><path class="F" d="m99.7 79.8c0.6 9.1 0.9 13.4 1 15.1-2.1 0.1-3.4 0.2-15.4 1-0.3-4.2 1.2-8.1 3.8-11 2.6-2.9 6.3-4.8 10.6-5.1zm11.2 3.7c2.9 2.5 4.9 6.2 5.2 10.4-12 0.7-13.7 0.9-15.4 1-0.1-1.7-0.4-6-1-15.1 4.2-0.3 8.2 1.1 11.2 3.7zm-10.2 11.4c0 1.2 0.2 2.8 1 15.1-4.3 0.2-8.2-1.2-11.2-3.7-3-2.6-5-6.2-5.2-10.4 12-0.8 13.3-0.9 15.4-1zm15.4-1c0.2 4.1-1.2 8-3.8 10.9-2.6 3-6.4 4.9-10.6 5.2-0.8-12.3-1-13.9-1-15.1 1.7-0.1 3.4-0.3 15.4-1z"/><path class="G" d="m100.2 86.9c0.3 4.8 0.4 7.1 0.5 8-1.1 0-1.8 0.1-8.1 0.5-0.2-2.2 0.6-4.2 2-5.8 1.4-1.5 3.3-2.5 5.6-2.7zm5.8 2c1.6 1.3 2.6 3.3 2.8 5.4-6.3 0.5-7.2 0.5-8.1 0.6-0.1-0.9-0.2-3.2-0.5-8 2.2-0.1 4.3 0.7 5.8 2zm-5.3 6c0 0.6 0.1 1.5 0.5 7.9-2.2 0.2-4.3-0.6-5.9-1.9-1.5-1.4-2.6-3.3-2.7-5.5 6.3-0.4 7-0.5 8.1-0.5zm8.1-0.6c0.1 2.2-0.7 4.3-2 5.8-1.4 1.5-3.4 2.6-5.6 2.7-0.4-6.4-0.5-7.3-0.5-7.9 0.9-0.1 1.8-0.1 8.1-0.6z"/><path class="H" d="m99.8 173.7c0.5 8.1 0.8 11.9 0.9 13.5-1.9 0.1-3.1 0.2-13.8 0.9-0.3-3.7 1-7.2 3.4-9.8 2.3-2.7 5.7-4.4 9.5-4.6zm10 3.3c2.7 2.3 4.4 5.5 4.7 9.3-10.8 0.7-12.3 0.8-13.8 0.9-0.1-1.6-0.4-5.4-0.9-13.5 3.8-0.3 7.4 1 10 3.3zm-9.1 10.2c0 1.1 0.2 2.5 0.9 13.5-3.8 0.3-7.4-1-10.1-3.3-2.6-2.3-4.4-5.6-4.6-9.3 10.7-0.7 11.9-0.8 13.8-0.9zm13.8-0.9c0.2 3.7-1.1 7.2-3.4 9.8-2.4 2.6-5.7 4.4-9.5 4.6-0.7-11-0.9-12.4-0.9-13.5 1.5-0.1 3-0.2 13.8-0.9z"/><path class="I" d="m100.2 180.1c0.3 4.3 0.4 6.3 0.5 7.1-1 0-1.6 0.1-7.3 0.5-0.1-2 0.6-3.8 1.8-5.2 1.2-1.4 3-2.3 5-2.4zm5.3 1.7c1.4 1.2 2.3 2.9 2.4 4.9-5.6 0.4-6.4 0.4-7.2 0.5-0.1-0.8-0.2-2.8-0.5-7.1 2-0.2 3.9 0.5 5.3 1.7zm-4.8 5.4c0 0.6 0.1 1.3 0.4 7.1-2 0.1-3.8-0.5-5.2-1.7-1.4-1.2-2.4-3-2.5-4.9 5.7-0.4 6.3-0.5 7.3-0.5zm7.2-0.5c0.2 2-0.5 3.8-1.8 5.2-1.2 1.4-3 2.3-5 2.4-0.3-5.8-0.4-6.5-0.4-7.1 0.8-0.1 1.6-0.1 7.2-0.5z"/><path class="J" d="m180.7 169.2c0.4 5.5 0.6 8.1 0.6 9.1-1.2 0.1-2 0.2-9.3 0.6-0.1-2.5 0.7-4.9 2.3-6.6 1.6-1.8 3.9-3 6.4-3.1zm6.8 2.2c1.8 1.5 3 3.8 3.2 6.3-7.3 0.5-8.3 0.5-9.4 0.6 0-1-0.2-3.6-0.6-9.1 2.6-0.2 5 0.7 6.8 2.2zm-6.2 6.9c0.1 0.7 0.2 1.7 0.6 9.1-2.5 0.2-4.9-0.7-6.7-2.2-1.8-1.5-3-3.8-3.2-6.3 7.3-0.4 8.1-0.5 9.3-0.6zm9.4-0.6c0.1 2.5-0.8 4.9-2.3 6.6-1.6 1.8-3.9 3-6.5 3.1-0.4-7.4-0.5-8.4-0.6-9.1 1.1-0.1 2.1-0.1 9.4-0.6z"/><path class="K" d="m181 173.5c0.2 2.9 0.3 4.2 0.3 4.8-0.6 0-1 0.1-4.9 0.3 0-1.3 0.4-2.5 1.2-3.5 0.9-0.9 2.1-1.5 3.4-1.6zm3.6 1.2c0.9 0.8 1.6 1.9 1.6 3.3-3.8 0.2-4.3 0.3-4.9 0.3 0-0.6-0.1-1.9-0.3-4.8 1.4-0.1 2.6 0.4 3.6 1.2zm-3.3 3.6c0.1 0.4 0.1 0.9 0.4 4.8-1.4 0.1-2.7-0.4-3.6-1.2-0.9-0.8-1.6-2-1.7-3.3 3.9-0.2 4.3-0.3 4.9-0.3zm4.9-0.3c0.1 1.3-0.3 2.5-1.2 3.5-0.8 0.9-2 1.5-3.3 1.6-0.3-3.9-0.3-4.4-0.4-4.8 0.6 0 1.1-0.1 4.9-0.3z"/><path class="L" d="m221.7 75.1c0.4 6.2 0.6 9.2 0.7 10.3-1.4 0.1-2.4 0.2-10.6 0.7-0.2-2.8 0.8-5.5 2.6-7.5 1.8-2 4.4-3.3 7.3-3.5zm7.7 2.5c2 1.8 3.4 4.3 3.6 7.1-8.3 0.6-9.4 0.7-10.6 0.7-0.1-1.1-0.3-4.1-0.7-10.3 2.9-0.2 5.6 0.8 7.7 2.5zm-7 7.8c0 0.9 0.1 2 0.7 10.4-3 0.2-5.7-0.8-7.7-2.5-2.1-1.8-3.4-4.3-3.6-7.2 8.2-0.5 9.2-0.6 10.6-0.7zm10.6-0.7c0.1 2.9-0.9 5.6-2.7 7.6-1.8 2-4.3 3.3-7.2 3.5-0.6-8.4-0.7-9.5-0.7-10.4 1.2 0 2.3-0.1 10.6-0.7z"/><path class="M" d="m222 80c0.2 3.3 0.3 4.8 0.4 5.4-0.8 0.1-1.3 0.1-5.6 0.4-0.1-1.5 0.5-2.9 1.4-4 0.9-1 2.3-1.7 3.8-1.8zm4.1 1.3c1 0.9 1.7 2.3 1.8 3.8-4.3 0.2-4.9 0.3-5.5 0.3-0.1-0.6-0.2-2.1-0.4-5.4 1.6-0.1 3 0.4 4.1 1.3zm-3.7 4.1c0 0.5 0 1.1 0.3 5.5-1.5 0.1-2.9-0.4-4-1.4-1.1-0.9-1.8-2.2-1.9-3.7 4.3-0.3 4.8-0.3 5.6-0.4zm5.5-0.3c0.1 1.5-0.4 2.9-1.3 3.9-1 1.1-2.3 1.8-3.9 1.9-0.3-4.4-0.3-5-0.3-5.5 0.6 0 1.2-0.1 5.5-0.3z"/><path class="N" d="m243.6 138.8c0.5 7.2 0.7 10.5 0.8 11.9-1.6 0.1-2.7 0.2-12.1 0.8-0.2-3.3 0.9-6.4 3-8.7 2-2.3 5-3.8 8.3-4zm8.9 2.9c2.3 2 3.9 4.9 4.1 8.2-9.5 0.6-10.8 0.7-12.2 0.8-0.1-1.4-0.3-4.7-0.8-11.9 3.4-0.3 6.5 0.9 8.9 2.9zm-8.1 9c0.1 0.9 0.2 2.2 0.8 11.9-3.4 0.2-6.5-0.9-8.8-2.9-2.4-2-3.9-4.9-4.1-8.2 9.4-0.6 10.5-0.7 12.1-0.8zm12.2-0.8c0.2 3.3-1 6.3-3 8.6-2.1 2.3-5 3.9-8.4 4.1-0.6-9.7-0.7-11-0.8-11.9 1.4-0.1 2.7-0.2 12.2-0.8z"/><path class="O" d="m244 144.4c0.3 3.8 0.4 5.6 0.4 6.3-0.8 0-1.4 0.1-6.4 0.4-0.1-1.7 0.5-3.3 1.6-4.5 1.1-1.3 2.6-2.1 4.4-2.2zm4.6 1.6c1.3 1 2.1 2.5 2.2 4.3-5 0.3-5.7 0.3-6.4 0.4 0-0.7-0.1-2.5-0.4-6.3 1.8-0.1 3.4 0.5 4.6 1.6zm-4.2 4.7c0 0.5 0.1 1.2 0.4 6.2-1.7 0.2-3.4-0.4-4.6-1.5-1.2-1.1-2.1-2.6-2.2-4.3 5-0.3 5.6-0.4 6.4-0.4zm6.4-0.4c0.1 1.7-0.5 3.3-1.6 4.5-1.1 1.2-2.6 2-4.4 2.1-0.3-5-0.4-5.7-0.4-6.2 0.7-0.1 1.4-0.1 6.4-0.4z"/><path class="P" d="m238 82.9c0.5 7.8 0.8 11.5 0.8 12.9-1.7 0.1-2.9 0.2-13.1 0.9-0.2-3.6 1-6.9 3.2-9.4 2.3-2.5 5.5-4.1 9.1-4.4zm9.6 3.2c2.5 2.2 4.2 5.3 4.4 8.9-10.3 0.6-11.7 0.7-13.2 0.8 0-1.4-0.3-5.1-0.8-12.9 3.6-0.2 7 1 9.6 3.2zm-8.8 9.7c0.1 1.1 0.2 2.4 0.9 12.9-3.6 0.3-7-1-9.6-3.1-2.5-2.2-4.2-5.3-4.4-8.9 10.2-0.7 11.4-0.8 13.1-0.9zm13.2-0.8c0.2 3.5-1 6.8-3.2 9.3-2.3 2.5-5.5 4.2-9.1 4.4-0.7-10.5-0.8-11.8-0.9-12.9 1.5-0.1 2.9-0.2 13.2-0.8z"/><path class="Q" d="m238.4 89c0.3 4.1 0.4 6.1 0.4 6.8-0.9 0.1-1.5 0.1-6.9 0.5-0.1-1.9 0.6-3.6 1.7-4.9 1.2-1.4 2.9-2.2 4.8-2.4zm5 1.7c1.4 1.2 2.2 2.8 2.4 4.7-5.4 0.3-6.2 0.4-7 0.4 0-0.7-0.1-2.7-0.4-6.8 1.9-0.1 3.7 0.6 5 1.7zm-4.6 5.1c0.1 0.6 0.1 1.3 0.5 6.8-1.9 0.1-3.7-0.5-5-1.7-1.4-1.1-2.3-2.7-2.4-4.6 5.4-0.4 6-0.4 6.9-0.5zm7-0.4c0.1 1.8-0.6 3.6-1.7 4.9-1.2 1.3-2.9 2.2-4.8 2.3-0.4-5.5-0.4-6.2-0.5-6.8 0.8 0 1.6-0.1 7-0.4z"/><path class="R" d="m109.2 29.9c0.4 6.4 0.6 9.4 0.7 10.7-1.5 0-2.4 0.1-10.9 0.7-0.2-3 0.9-5.7 2.7-7.8 1.8-2 4.5-3.4 7.5-3.6zm7.9 2.6c2.1 1.8 3.5 4.4 3.7 7.3-8.5 0.6-9.7 0.7-10.9 0.8-0.1-1.3-0.3-4.3-0.7-10.7 3-0.2 5.8 0.8 7.9 2.6zm-7.2 8.1c0.1 0.8 0.1 2 0.7 10.6-3 0.2-5.8-0.8-7.9-2.6-2.1-1.8-3.5-4.4-3.7-7.3 8.5-0.6 9.4-0.7 10.9-0.7zm10.9-0.8c0.2 3-0.9 5.7-2.7 7.8-1.8 2.1-4.5 3.4-7.5 3.6-0.6-8.6-0.6-9.8-0.7-10.6 1.2-0.1 2.4-0.2 10.9-0.8z"/><path class="S" d="m109.5 34.9c0.3 3.4 0.4 5 0.4 5.7-0.8 0-1.3 0-5.7 0.3-0.1-1.5 0.4-3 1.4-4 1-1.1 2.4-1.8 3.9-2zm4.2 1.4c1.1 1 1.8 2.3 1.9 3.9-4.4 0.3-5 0.3-5.7 0.4 0-0.7-0.1-2.3-0.4-5.7 1.6-0.1 3.1 0.5 4.2 1.4zm-3.8 4.3c0 0.4 0.1 1 0.4 5.6-1.6 0.1-3.1-0.5-4.2-1.4-1.1-1-1.8-2.3-1.9-3.9 4.4-0.3 4.9-0.3 5.7-0.3zm5.7-0.4c0.1 1.5-0.4 3-1.4 4.1-1 1-2.4 1.8-3.9 1.9-0.3-4.6-0.4-5.2-0.4-5.6 0.7-0.1 1.3-0.1 5.7-0.4z"/></svg>