<svg version="1.2" xmlns="http://www.w3.org/2000/svg" viewBox="0 0 278 260" width="278" height="260"><defs><linearGradient id="P" gradientUnits="userSpaceOnUse"/><radialGradient id="g1" cx="89.6" cy="59.4" r="224.6" href="#P"><stop stop-color="#71f5ff"/><stop offset=".5" stop-color="#54c5ff"/><stop offset=".9" stop-color="#1483ff"/></radialGradient><radialGradient id="g2" cx="149.4" cy="137.7" r="141.4" href="#P"><stop offset="0"/><stop offset=".8"/><stop offset="1" stop-color="#99f0ff"/></radialGradient><radialGradient id="g3" cx="50.5" cy="25.9" r="148.7" href="#P"><stop stop-color="#86ffff"/><stop offset="1"/></radialGradient><radialGradient id="g4" cx="85.4" cy="106.7" r="201.4" href="#P"><stop stop-color="#f2f6ff"/><stop offset="1" stop-color="#d6f3ff"/></radialGradient><radialGradient id="g5" cx="129.4" cy="107.7" r="168.3" href="#P"><stop offset=".6" stop-color="#fff"/><stop offset="1" stop-color="#9ecfff"/></radialGradient><radialGradient id="g6" cx="42.2" cy="34.6" r="206.5" href="#P"><stop offset=".7" stop-color="#fff"/><stop offset="1" stop-color="#aac2e6"/></radialGradient><radialGradient id="g7" cx="64.9" cy="134.7" r="30.4" href="#P"><stop stop-color="#fff"/><stop offset="1" stop-color="#aac2e6"/></radialGradient><radialGradient id="g8" cx="98.6" cy="122.2" r="67.5" href="#P"><stop stop-color="#fff"/><stop offset="1" stop-color="#aac2e6"/></radialGradient><radialGradient id="g9" cx="92.5" cy="141" r="185.4" href="#P"><stop stop-color="#fff"/><stop offset="1" stop-color="#cfe2ff"/></radialGradient><radialGradient id="g10" cx="141.8" cy="199.3" r="114.9" href="#P"><stop stop-color="#aac2e6"/><stop offset="1" stop-color="#fff"/></radialGradient><radialGradient id="g11" cx="160.6" cy="147" r="124.7" href="#P"><stop stop-color="#fff"/><stop offset="1" stop-color="#aac2e6"/></radialGradient><radialGradient id="g12" cx="134.1" cy="64.9" r="220.1" href="#P"><stop stop-color="#fff"/><stop offset="1" stop-color="#aac2e6"/></radialGradient><radialGradient id="g13" cx="135" cy="183.1" r="88.9" href="#P"><stop stop-color="#f2f6ff"/><stop offset="1" stop-color="#d6f3ff"/></radialGradient><radialGradient id="g14" cx="171.3" cy="201.2" r="86.2" href="#P"><stop stop-color="#f2f6ff"/><stop offset="1" stop-color="#d6f3ff"/></radialGradient><radialGradient id="g15" cx="32.3" cy="45.7" r="199.1" href="#P"><stop stop-color="#f2f6ff"/><stop offset="1" stop-color="#d6f3ff"/></radialGradient><radialGradient id="g16" cx="72.2" cy="32.5" r="86.2" href="#P"><stop stop-color="#fff"/><stop offset="1" stop-color="#aac2e6"/></radialGradient><radialGradient id="g17" cx="121.5" cy="31" r="56" href="#P"><stop stop-color="#fff"/><stop offset="1" stop-color="#aac2e6"/></radialGradient><linearGradient id="g18" x1="10.4" y1="173.3" x2="42.2" y2="122.3" href="#P"><stop/><stop offset="1" stop-color="#52ffff"/></linearGradient><linearGradient id="g19" x1="25" y1="149.6" x2="42.2" y2="122.1" href="#P"><stop/><stop offset="1" stop-color="#52ffff"/></linearGradient></defs><style>.a{fill:url(#g1)}.b{mix-blend-mode:screen;fill:url(#g2)}.c{mix-blend-mode:screen;fill:url(#g3)}.d{fill:url(#g4)}.e{mix-blend-mode:multiply;fill:url(#g5)}.f{mix-blend-mode:multiply;fill:url(#g6)}.g{mix-blend-mode:multiply;fill:url(#g7)}.h{mix-blend-mode:multiply;fill:url(#g8)}.i{mix-blend-mode:multiply;fill:url(#g9)}.j{mix-blend-mode:multiply;fill:url(#g10)}.k{mix-blend-mode:multiply;fill:url(#g11)}.l{mix-blend-mode:multiply;fill:url(#g12)}.m{fill:url(#g13)}.n{opacity:.7;fill:url(#g14)}.o{fill:url(#g15)}.p{mix-blend-mode:multiply;fill:url(#g16)}.q{mix-blend-mode:multiply;fill:url(#g17)}.r{mix-blend-mode:screen;fill:url(#g18)}.s{mix-blend-mode:screen;fill:url(#g19)}</style><circle class="a" cx="141.5" cy="129.9" r="128.6"/><circle class="b" cx="141.5" cy="129.9" r="128.6"/><path fill-rule="evenodd" class="c" d="m60.5 88.1c3.6 0 9-0.2 11.7-2.6 3.8-3.5-0.2-6.3-0.1-7.8 0.1-1.1 1.1-2.2 2.1-2.5 4.6-1.4 11.2-0.2 15.8-1.5 2.2-0.7 4-2.5 6.2-3.3 2.4-0.8 5-0.9 7.5-1.4 13.2-2.5 24.1 0.9 22.5-15.5-0.1-1.4-0.8-2.7-1.3-4-2.2-5.6 3.7-6.4 9.1-8 13.3-4 8.8 0.3 4.8 2.9-5 3.2-2.6 5-3.8 7.1-1.1 2-2.9 3.6-3.7 5.7-2.4 7-0.3 14.8 6.5 18.1 3 1.5 6.4 1.7 9.7 1.9 2.8 0.2 5.7 0.1 8.4-0.7 2.6-0.7 5.2-1.7 7.1-3.5 2.2-2.2 3.9-5.1 4.7-8.2 0.7-3-0.5-6.2-0.4-9.4 0.1-0.7 0.2-1.6 0.9-1.9 1.8-0.9 9.5 0.4 10-6.5 1-15.2-6.4-21-18.8-27.4-5.6-2.9-9.4-5.2 1-6.6 17.9-2.5 41.6 25.2 35 40.6-0.9 2.3-6.1 4.5-7.2 6.7-1.6 3-1.3 6.6-2.9 9.6-4.5 8.7-10.4 8-18.3 11.6-3.4 1.5-7.1 2.6-9.8 5-2.8 2.6-3.7 11-6.2 12.9-2.7 2.1-6.2 2.9-9.5 3.6-7.8 1.5-20.9-0.6-25.9 5.9-1.3 1.7-1.5 4.1-2.9 5.6-0.8 1-2.2 1.4-3.4 1.6-2.4 0.4-5-0.4-7.3 0.5-1.4 0.5-2.2 1.4-2.6 2.6-1.2 3.5 0.9 6 3.2 8.3 0.4 0.4 0.8 0.8 1.1 1.3 0.2 0.5 0.2 1.3-0.3 1.6-1.6 1.1-5.1 1-8.7 0.7-10.2-0.8-18.2 8.3-10.4 14 1.4 1 3.2 1.4 5 1.7 1.9 0.5 2.9 0.2 4.8 0.6 3.4 0.7 6.5 2.3 9.8 2.7 2.4 0.2 4.9-0.1 7.3-0.8 2.8-0.7 5.2-2.3 7.9-3.4 1.3-0.6 2.6-1.3 4-1.4 2.7-0.3 12.5-0.1 5.8 4.2-1.9 1.3-4 2.2-6.2 2.9-2.7 0.9-5.7 0.7-8.4 1.7-8.1 3-4.8 5.8-16.6 6.9-4.1 0.4-8.4 0.3-12.5 0.9-2.9 0.5-6 1-8.7 2.2-3.9 1.7-7 5-11.1 6.4-9.5 3.3-19.7-6.2-24.8-13-3.6-4.9-7.3-10-9.7-15.7-6.5-15-7.1-36-1.8-51.5 1.7-4.9 4.9-9.5 9.5-9.4 4.8 0.1 4.8 2.7 7.2 4.3 3.8 2.7 9.4 3.8 14.7 3.7zm-3.2 62c2.1 1.7 4.6 3 7.2 3.9 16.1 5.9 29.7-17.5-3.5-16.3-5.5 0.2-9.1 7.9-3.7 12.4z"/><path fill-rule="evenodd" class="d" d="m20.9 167c1 0.7 2.1 1.1 3.3 1.5 1.2 0.5 2.5 0.6 3.8 0.9 2 0.5 3.9 1.1 5.9 1.6 3.1 0.7 6.2 1.7 9.4 2.2 1.7 0.2 3.4 0.1 5 0 2.5 0 4.9-0.1 7.4-0.3 3.3-0.1 6.7-0.3 10-0.6 1.2-0.1 2.4-0.2 3.6-0.5 1.5-0.4 2.9-1.1 4.3-1.6q2.9-1 5.9-1.8 3.7-1 7.5-1.8c2.1-0.4 4.2-0.6 6.3-1 3.4-0.7 6.8-1.4 10.1-2.4 1.4-0.5 2.7-1.3 4-2.1 1.5-1 2.9-2.2 4.4-3.2 0.7-0.5 1.3-1 2-1.4 2.2-0.9 4.5-1.5 6.7-2.3 3.4-1.1 7-1.9 10.3-3.4 1.2-0.6 2-2 3.2-2.7 1.8-1.1 4-1.6 5.7-2.9 1.5-1 2.8-2.4 3.9-3.9 0.7-1 1-2.2 1.2-3.4 0.3-2.8-3.1-2.3-4.7-2-2.3 0.5-4.6 1-6.9 1.6-1.5 0.3-3.1 0.3-4.4 1.1-1.3 0.6-1.8 2.3-3.1 2.9-1.5 0.7-3.4 0.2-4.9 0.7-1.3 0.5-2.2 1.8-3.5 2.2-3 0.8-6.2 1.1-9.3 1.3-7.1 0.4-8.3-0.8-13.9-1.6-3.1-0.4-6.2 0.1-9.2-0.5-3.5-0.8-3.6-4.9 0.2-6.7 1.2-0.5 2.6-0.3 3.8-0.7 1.7-0.6 3.2-1.9 5-2.2 1.8-0.3 3.6 0.6 5.4 0.4 1.5-0.2 2.8-1.2 4.3-1.6 0.6-0.1 1.3 0.2 1.9 0.1 2.5-0.1 5-0.2 7.5-0.7 1.7-0.4 1.8-3.2-0.4-3.6-1.7-0.4-3.5 0-5.3-0.1-0.6-0.1-1.4 0-1.9-0.3-0.6-0.4-1-1.1-1.2-1.7-0.2-0.6 0.3-1.3 0.1-1.9-0.2-0.8-1.2-1.2-1.3-2-0.1-0.8 0.3-1.6 0.7-2.3 0.4-0.5 0.9-1.2 1.6-1.4 1.3-0.4 2.7-0.1 4.1-0.2 1-0.1 2-0.3 2.9-0.6 0.7-0.3 1.4-0.7 1.9-1.3 0.7-1 1-2.3 1.7-3.4 2.5-4.3 5.7-4.1 10.3-4.4 3-0.2 6-0.2 9.1-0.2 2.4 0 4.8 0.4 7.2 0.2 4.7-0.4 9.6-3.8 12.7-7.3 0.8-1 1.1-2.3 2-3.2 0.6-0.5 1.7-0.4 2.3-1 1-0.9 1.7-2.8 1-3.6-0.3-0.2-0.8-0.2-1-0.4-0.3-0.2-0.4-0.6-0.4-0.9 0-0.5 0-1.1 0.3-1.5 0.6-0.9 1.5-1.6 2.5-2.2 1.3-0.8 2.8-1.4 4.4-1.8 2.3-0.6 4.7-0.7 7.1-1.2 1.9-0.5 3.9-0.9 5.7-1.8 1.2-0.7 2-2 3-2.9 2.3-2.2 6.1-4.6 6.9-7.8 0.3-1.1-0.1-2.4 0-3.6 0.2-1 0.2-2.1 0.8-2.9 0.4-0.8 1.3-1.2 2.1-1.5 2.6-0.9 5.3-1.2 7.9-2.1 3.4-1 4.5-1 5.4-4.4 0.5-1.6 0.5-3.3 1-4.8 0.3-1.2 1.6-3.5 2.7-4.1 3.1-1.6 5.8-0.7 7 2.6 0.3 0.9 0.8 6.6 0.7 7.6-0.1 0.9-0.6 1.7-0.9 2.6-0.3 1.2-1 2.4-1 3.6 0 2.5 0.9 5 0.9 7.4 0 2.7-0.4 5.3-0.8 7.9-0.7 5.4-1.1 10.8-2.6 16-0.8 2.7-2.7 5-4.2 7.4-1.7 2.6-3.5 5.2-5.5 7.6-2.2 2.7-4.6 5.3-7 7.7-1.9 2-4.1 3.6-6.1 5.5-2 1.8-3.9 3.6-5.7 5.6-3.9 4.1-7.4 8.7-11.5 12.7-2.8 2.8-5.9 5.2-9 7.6-2.4 1.8-5.1 3.3-7.7 4.7-3.6 2-7.3 3.5-10.9 5.3-3.3 1.6-6.7 3.2-10 5-0.8 0.5-1.7 1.1-2.2 1.9-0.3 0.4-0.1 1 0.2 1.3 0.6 0.4 1.4 0.5 2.1 0.4 1.8-0.2 3.7-0.7 5.4-1.3 2.9-1.2 5.7-2.8 8.5-4.3 2.8-1.5 5.5-3.1 8.3-4.6 1.7-0.9 3.3-1.9 5-2.7 2.1-1 4.4-1.6 6.5-2.5 3-1.3 6.1-2.5 8.9-4.2 3.5-2 6.9-4.5 10.1-6.9 3-2.3 5.7-5 8.6-7.3 3.1-2.5 6.5-4.6 9.5-7.2q3.8-3.2 7.1-6.9c1.9-2.1 3.7-4.2 5.1-6.7 1.8-3.1 2.9-6.6 4.4-9.8 0.8-1.7 1.3-3.4 2.3-4.9 1.5-2.2 3.5-4.1 5.2-6.1 1.4-1.7 3.2-3.1 4.2-5 1.7-2.8 3.4-8.6 2.6-11.9-0.4-1.6-1.8-2.7-2.6-4.2-0.6-1.3-0.8-2.7-1.4-3.9-0.7-1.2-1.7-2-2.4-3.1-0.3-0.5-0.6-1-0.7-1.6-0.2-1.3 0-2.7-0.3-4-0.2-1.3-0.7-2.6-1.3-3.8-0.5-0.9-1.2-1.6-2-2.3-1-1-2.1-1.8-3.2-2.8-1.6-1.3-1.5-1.3-2.2-3.4-0.4-1.1-0.8-2.2-1.4-3.3-0.3-0.5-0.8-0.7-1.3-0.9-0.2-0.1-0.6-0.2-0.7 0-0.4 0.3-1 2.8-2.9 1.5-2.1-1.5-3.9-3.4-5.7-5.2-0.9-1-1.9-2.1-2.5-3.3-1-2.4-1.3-5.1-2.2-7.6-0.7-2-1.2-4.3-2.4-6.1-1-1.5-2.5-2.7-4.1-3.6-1.2-0.7-2.7-0.7-4.1-1.1-0.9-0.3-1.7-0.9-2.7-1-1.7-0.4-3.6 0-5.4-0.6-3-0.9-5.8-2.4-8.7-3.9-1.6-0.8-3-2.2-4.8-2.8-2.5-1-5.2-1.6-7.9-1.9-2.5-0.3-5 0.2-7.5 0.1-1.4-0.1-7.2-0.3-10.6-0.5-0.7-0.1-3.5 0.1-2.4-1.3 1.3-1.5 2.7-2.1 4.3-3.2 0.3-0.2 1-0.4 0.9-0.8-0.1-0.4-0.8-0.2-1.2-0.2-2.5 0.1-5 0.8-7.5 0.7-1.9 0-4.9-0.6-5.1-2.4 12.5-1.9 53.1-0.6 56.7 2 4.2 2.9 8 5.4 12.5 7.7 7.5 3.7 10.6 1.9 12.5 3.2 6 3.8 12.8 16.9 18 23.5 4.8 6 12 12.1 16.7 16.5 1 1 2.6 7.5 4.1 11 1.2 2.7 2.2 5.5 3 8.3 0.4 1.4 0.6 2.9 0.6 4.4 0 0.2-0.3 0.9-0.8 0.1-0.4-0.9-1-1.9-1.4-2.9-0.6-1.1-1.1-2.2-1.7-3.3-0.1-0.2-0.2-0.4-0.4-0.4-0.2 0-0.3 0.2-0.3 0.3 0.1 0.7 0.4 1.3 0.5 2 1 4.2 1.6 8.3 2.5 12.5q0.2 1.1 0.6 2.1c0.1 0.4 0.9 0.3 1.4 0.2 0.3-0.1 0.6-0.3 0.8-0.5 0.3-0.2 0.4-0.7 0.7-0.6 0.4 0.1 0.7 0.6 0.9 1 0.7 1.3 1.3 2.6 1.6 4 0.5 2.3 0.7 4.6 1 6.9 0.5 4.6 0.8 9.2 1.6 13.7 0 0.4 0.2 0.9 0.6 1.1 0.5 0.1 0.9-0.3 1.2-0.2 0.6 0.3 0.7 1.1 0.7 1.7 0.1 3.3-0.9 11.5-1.8 14.5-0.9 2.9-2.1 7.8-5.6 8.2-2.3 0.2-2.4-1.1-3.4-1.4-0.5-0.2-1.1-0.1-1.6 0.2-1.1 0.7-2.2 1.6-3.1 2.6-3.1 3.6-6 7.3-8.8 11.1-3.5 4.8-7.2 9.5-10.2 14.6-2.1 3.4-2.8 7.4-4.9 10.7-1.3 2.1-3 4.1-5.2 5.3-3 1.8-6.7 2-10 3.4-2.4 1.2-4.9 2.5-7 4.2-2.3 1.8-4.3 4-6.1 6.2-2.9 3.6-5.1 7.8-8 11.4-1.5 2-3.2 3.8-5.3 5.3-2.6 2-5.9 3-8.6 4.9-3.4 2.5-6.3 5.6-9.8 8-3.8 2.6-7.4 4.7-11.9 6.9-0.4 0.2-0.8 0.9-0.6 1.2 0.4 0.5 1.2 0.5 1.7 0.5 6.5-0.9 11.3-3.4 14.6-4.7 5.3-2 10.5-4.1 15.6-6.5q3.9-1.8 7.4-4.1c2-1.3 3.8-2.9 5.7-4.4 1.7-1.3 3.3-2.9 5.2-3.9 3-1.7 6.2-2.9 9.3-4.2 3.1-1.3 6.3-2.4 9.3-3.8 2.3-1.1 4.6-2 6.5-3.5 4.2-3.4 7.9-7.4 11.7-11.2 15.9-16.4 24.7-33.3 26-56.2 0.4-7.2 0.1-15.4-1-22.6-0.5-3.8-1.4-7.6-2.1-11.4 0.9 2 1.9 3.9 2.7 5.9q1.2 2.9 2.1 5.9c0.9 2.9 1.5 6 2.5 8.9 1 2.7 3 5.1 3.6 7.9 0.8 3.5 0.8 7.2 0.5 10.7-1.6 15.4-3.4 14.7-8.8 26.8-1.4 3-2.3 6.2-3.1 9.3-1 3.7-0.9 7.7-2.3 11.2-2.9 7.2-9.3 12.1-13.6 17.9-5.2 7.1-9 15.2-14.9 21.7-5.2 5.6-11.7 9.8-18 14.2-1.8 1.2-3.9 2.1-5.6 3.4-2.3 1.9-3.8 4.4-6.3 6-4.2 2.7-16 4.6-24 6.3-3.1 0.7-6.3 1.5-9.3 2.7-1.9 0.8-3.4 2.4-5.3 3.2-4.6 2.1-9.1-0.2-16.7-1 4-0.7 7-1.8 10.9-2.9 2.4-0.7 4.9-1 7.3-1.9 4.1-1.4 8.1-3.3 12.2-4.8 2.9-1.2 5.3-1.8 8-3.6 3.3-2.1 7-5 10.4-7.3 4.8-3.3 9.6-6 14.2-9.1 2.7-1.8 5.2-3.9 7.7-5.9 3.4-2.8 6.6-5.8 10-8.6 2.4-2 5-3.9 7.5-6 3.1-2.6 16.5-18.1 15.7-21.9-0.1-0.2-0.4-0.6-0.6-0.4-1.3 1-2.1 2.4-3.2 3.5-3.4 3.4-6.7 6.8-10.3 10-4.1 3.7-8.4 7.4-12.8 10.8-4.8 3.7-9.7 7.3-14.9 10.6-6.7 4.3-13.6 8.3-20.6 12.4q-3.2 1.8-6.6 3.3c-6.9 3-13.9 5.7-20.9 8.5-4.8 1.9-9.7 3.8-14.6 5.5-3.1 1.1-6.3 2.2-9.5 3-4.4 1-8.8 1.6-13.1 2.5-1.2 0.3-2.4 0.7-3.6 0.9q-4.2 0.7-8.4 1c-2.8 0.3-5.5 0.6-8.3 0.5-1.9-0.2-3.8-0.6-5.7-1.3-2.1-0.7-4-1.9-6-2.9-2.1-1.1-4.1-2.4-6.2-3.3-1.8-0.9-3.8-1.7-5.8-2.1-4.4-0.8-8.9-0.9-13.3-1.6-2.4-0.5-5-0.8-7.1-2-2.2-1.3-4.9-2.7-5.6-5.2-1.2-4.2-0.6-10 0.6-13.2 3.6 1.6 7.4 0 11.1-0.3 5.1-0.4 10.2-0.3 15.2-0.8 2.7-0.4 5.5-0.7 7.9-1.8 3.2-1.6 5.7-4.2 8.7-6.1q1.6-1 3.4-1.7c3.4-1.4 7-2.3 10.4-3.7 1.2-0.6 2.5-1.2 3.4-2.2 0.9-1.1 0.9-2.7 1.7-3.9 1.1-1.5 2.3-2.8 3.6-3.9 1.5-1.3 3.5-1.9 5-3.2 0.7-0.7 1.2-1.7 1.3-2.7 0.1-1.1-0.1-2.2-0.7-3.1-0.7-1.1-1.7-2.1-2.9-2.5-1.6-0.5-3.4-0.7-5-0.3-4 0.8-7.7 2.6-11.5 3.9-5.2 1.9-10.2 4.4-15.5 5.8-7.2 1.8-14.7 2.4-22 4-3.5 0.8-6.9 1.9-10.2 3.1-6.1 2.2-4.8 4-11.6 2.7-2.5-0.5-4.9-1.1-7.4-1.9-2.8-0.9-13.3-6.6-16.2-8.9-0.4-0.2-0.7-0.7-0.7-1.2 0-2 0.2-4 0.4-6 0.3-1.6 0.5-3.2 1.1-4.8 1.2 2.3 2.6 4.3 4.4 6.1 0.8 0.8 3.1 1.9 4.1 0.8 1.1-1.2 1.6-2.8 2.7-3.9 0.5-0.6 1.2-0.9 1.9-1.1 0.9-0.2 2 0.3 2.9-0.1 2.8-1.3-1.7-3.2-2.5-3.4-1.7-0.6-3.5-0.6-5.2-1.2-1.2-0.4-2.1-1.5-3.4-1.8-2.7-0.7-7.1 0.1-9.7-1.7-1.9-1.3-3.2-3.2-4.6-5-0.8-0.9-1.8-1.8-1.8-3 0-3.5 1.3-6.8 2-10.2 1.2 1.4 2.3 3 3.7 4.3zm54.6-27.8c1 0.4 1.6 1.4 2.1 2.3 0.3 0.5 0.3 1.2 0 1.7-0.5 1.1-1.6 2-2.1 3.1-0.6 1.4-0.5 3-1.3 4.3-0.4 0.6-1.3 0.6-2 0.9-4.2 2.3-5.8 2.5-8.4 1.8-5.5-1.4-14-5-13.3-10.3 0.1-1.3 0.8-2.4 1.6-3.3 3.1-3.3 19.8-1.9 23.4-0.5z"/><path fill-rule="evenodd" class="e" d="m20.9 167c1 0.7 2.1 1.1 3.3 1.5 1.2 0.5 2.5 0.6 3.8 0.9 2 0.5 3.9 1.1 5.9 1.6 3.1 0.7 6.2 1.7 9.4 2.2 1.7 0.2 3.4 0.1 5 0 2.5 0 4.9-0.1 7.4-0.3 3.3-0.1 6.7-0.3 10-0.6 1.2-0.1 2.4-0.2 3.6-0.5 1.5-0.4 2.9-1.1 4.3-1.6q2.9-1 5.9-1.8 3.7-1 7.5-1.8c2.1-0.4 4.2-0.6 6.3-1 3.4-0.7 6.8-1.4 10.1-2.4 1.4-0.5 2.7-1.3 4-2.1 1.5-1 2.9-2.2 4.4-3.2 0.7-0.5 1.3-1 2-1.4 2.2-0.9 4.5-1.5 6.7-2.3 3.4-1.1 7-1.9 10.3-3.4 1.2-0.6 2-2 3.2-2.7 1.8-1.1 4-1.6 5.7-2.9 1.5-1 2.8-2.4 3.9-3.9 0.7-1 1-2.2 1.2-3.4 0.3-2.8-3.1-2.3-4.7-2-2.3 0.5-4.6 1-6.9 1.6-1.5 0.3-3.1 0.3-4.4 1.1-1.3 0.6-1.8 2.3-3.1 2.9-1.5 0.7-3.4 0.2-4.9 0.7-1.3 0.5-2.2 1.8-3.5 2.2-3 0.8-6.2 1.1-9.3 1.3-7.1 0.4-8.3-0.8-13.9-1.6-3.1-0.4-6.2 0.1-9.2-0.5-3.5-0.8-3.6-4.9 0.2-6.7 1.2-0.5 2.6-0.3 3.8-0.7 1.7-0.6 3.2-1.9 5-2.2 1.8-0.3 3.6 0.6 5.4 0.4 1.5-0.2 2.8-1.2 4.3-1.6 0.6-0.1 1.3 0.2 1.9 0.1 2.5-0.1 5-0.2 7.5-0.7 1.7-0.4 1.8-3.2-0.4-3.6-1.7-0.4-3.5 0-5.3-0.1-0.6-0.1-1.4 0-1.9-0.3-0.6-0.4-1-1.1-1.2-1.7-0.2-0.6 0.3-1.3 0.1-1.9-0.2-0.8-1.2-1.2-1.3-2-0.1-0.8 0.3-1.6 0.7-2.3 0.4-0.5 0.9-1.2 1.6-1.4 1.3-0.4 2.7-0.1 4.1-0.2 1-0.1 2-0.3 2.9-0.6 0.7-0.3 1.4-0.7 1.9-1.3 0.7-1 1-2.3 1.7-3.4 2.5-4.3 5.7-4.1 10.3-4.4 3-0.2 6-0.2 9.1-0.2 2.4 0 4.8 0.4 7.2 0.2 4.7-0.4 9.6-3.8 12.7-7.3 0.8-1 1.1-2.3 2-3.2 0.6-0.5 1.7-0.4 2.3-1 1-0.9 1.7-2.8 1-3.6-0.3-0.2-0.8-0.2-1-0.4-0.3-0.2-0.4-0.6-0.4-0.9 0-0.5 0-1.1 0.3-1.5 0.6-0.9 1.5-1.6 2.5-2.2 1.3-0.8 2.8-1.4 4.4-1.8 2.3-0.6 4.7-0.7 7.1-1.2 1.9-0.5 3.9-0.9 5.7-1.8 1.2-0.7 2-2 3-2.9 2.3-2.2 6.1-4.6 6.9-7.8 0.3-1.1-0.1-2.4 0-3.6 0.2-1 0.2-2.1 0.8-2.9 0.4-0.8 1.3-1.2 2.1-1.5 2.6-0.9 5.3-1.2 7.9-2.1 3.4-1 4.5-1 5.4-4.4 0.5-1.6 0.5-3.3 1-4.8 0.3-1.2 1.6-3.5 2.7-4.1 3.1-1.6 5.8-0.7 7 2.6 0.3 0.9 0.8 6.6 0.7 7.6-0.1 0.9-0.6 1.7-0.9 2.6-0.3 1.2-1 2.4-1 3.6 0 2.5 0.9 5 0.9 7.4 0 2.7-0.4 5.3-0.8 7.9-0.7 5.4-1.1 10.8-2.6 16-0.8 2.7-2.7 5-4.2 7.4-1.7 2.6-3.5 5.2-5.5 7.6-2.2 2.7-4.6 5.3-7 7.7-1.9 2-4.1 3.6-6.1 5.5-2 1.8-3.9 3.6-5.7 5.6-3.9 4.1-7.4 8.7-11.5 12.7-2.8 2.8-5.9 5.2-9 7.6-2.4 1.8-5.1 3.3-7.7 4.7-3.6 2-7.3 3.5-10.9 5.3-3.3 1.6-6.7 3.2-10 5-0.8 0.5-1.7 1.1-2.2 1.9-0.3 0.4-0.1 1 0.2 1.3 0.6 0.4 1.4 0.5 2.1 0.4 1.8-0.2 3.7-0.7 5.4-1.3 2.9-1.2 5.7-2.8 8.5-4.3 2.8-1.5 5.5-3.1 8.3-4.6 1.7-0.9 3.3-1.9 5-2.7 2.1-1 4.4-1.6 6.5-2.5 3-1.3 6.1-2.5 8.9-4.2 3.5-2 6.9-4.5 10.1-6.9 3-2.3 5.7-5 8.6-7.3 3.1-2.5 6.5-4.6 9.5-7.2q3.8-3.2 7.1-6.9c1.9-2.1 3.7-4.2 5.1-6.7 1.8-3.1 2.9-6.6 4.4-9.8 0.8-1.7 1.3-3.4 2.3-4.9 1.5-2.2 3.5-4.1 5.2-6.1 1.4-1.7 3.2-3.1 4.2-5 1.7-2.8 3.4-8.6 2.6-11.9-0.4-1.6-1.8-2.7-2.6-4.2-0.6-1.3-0.8-2.7-1.4-3.9-0.7-1.2-1.7-2-2.4-3.1-0.3-0.5-0.6-1-0.7-1.6-0.2-1.3 0-2.7-0.3-4-0.2-1.3-0.7-2.6-1.3-3.8-0.5-0.9-1.2-1.6-2-2.3-1-1-2.1-1.8-3.2-2.8-1.6-1.3-1.5-1.3-2.2-3.4-0.4-1.1-0.8-2.2-1.4-3.3-0.3-0.5-0.8-0.7-1.3-0.9-0.2-0.1-0.6-0.2-0.7 0-0.4 0.3-1 2.8-2.9 1.5-2.1-1.5-3.9-3.4-5.7-5.2-0.9-1-1.9-2.1-2.5-3.3-1-2.4-1.3-5.1-2.2-7.6-0.7-2-1.2-4.3-2.4-6.1-1-1.5-2.5-2.7-4.1-3.6-1.2-0.7-2.7-0.7-4.1-1.1-0.9-0.3-1.7-0.9-2.7-1-1.7-0.4-3.6 0-5.4-0.6-3-0.9-5.8-2.4-8.7-3.9-1.6-0.8-3-2.2-4.8-2.8-2.5-1-5.2-1.6-7.9-1.9-2.5-0.3-5 0.2-7.5 0.1-1.4-0.1-7.2-0.3-10.6-0.5-0.7-0.1-3.5 0.1-2.4-1.3 1.3-1.5 2.7-2.1 4.3-3.2 0.3-0.2 1-0.4 0.9-0.8-0.1-0.4-0.8-0.2-1.2-0.2-2.5 0.1-5 0.8-7.5 0.7-1.9 0-4.9-0.6-5.1-2.4 12.5-1.9 53.1-0.6 56.7 2 4.2 2.9 8 5.4 12.5 7.7 7.5 3.7 10.6 1.9 12.5 3.2 6 3.8 12.8 16.9 18 23.5 4.8 6 12 12.1 16.7 16.5 1 1 2.6 7.5 4.1 11 1.2 2.7 2.2 5.5 3 8.3 0.4 1.4 0.6 2.9 0.6 4.4 0 0.2-0.3 0.9-0.8 0.1-0.4-0.9-1-1.9-1.4-2.9-0.6-1.1-1.1-2.2-1.7-3.3-0.1-0.2-0.2-0.4-0.4-0.4-0.2 0-0.3 0.2-0.3 0.3 0.1 0.7 0.4 1.3 0.5 2 1 4.2 1.6 8.3 2.5 12.5q0.2 1.1 0.6 2.1c0.1 0.4 0.9 0.3 1.4 0.2 0.3-0.1 0.6-0.3 0.8-0.5 0.3-0.2 0.4-0.7 0.7-0.6 0.4 0.1 0.7 0.6 0.9 1 0.7 1.3 1.3 2.6 1.6 4 0.5 2.3 0.7 4.6 1 6.9 0.5 4.6 0.8 9.2 1.6 13.7 0 0.4 0.2 0.9 0.6 1.1 0.5 0.1 0.9-0.3 1.2-0.2 0.6 0.3 0.7 1.1 0.7 1.7 0.1 3.3-0.9 11.5-1.8 14.5-0.9 2.9-2.1 7.8-5.6 8.2-2.3 0.2-2.4-1.1-3.4-1.4-0.5-0.2-1.1-0.1-1.6 0.2-1.1 0.7-2.2 1.6-3.1 2.6-3.1 3.6-6 7.3-8.8 11.1-3.5 4.8-7.2 9.5-10.2 14.6-2.1 3.4-2.8 7.4-4.9 10.7-1.3 2.1-3 4.1-5.2 5.3-3 1.8-6.7 2-10 3.4-2.4 1.2-4.9 2.5-7 4.2-2.3 1.8-4.3 4-6.1 6.2-2.9 3.6-5.1 7.8-8 11.4-1.5 2-3.2 3.8-5.3 5.3-2.6 2-5.9 3-8.6 4.9-3.4 2.5-6.3 5.6-9.8 8-3.8 2.6-7.4 4.7-11.9 6.9-0.4 0.2-0.8 0.9-0.6 1.2 0.4 0.5 1.2 0.5 1.7 0.5 6.5-0.9 11.3-3.4 14.6-4.7 5.3-2 10.5-4.1 15.6-6.5q3.9-1.8 7.4-4.1c2-1.3 3.8-2.9 5.7-4.4 1.7-1.3 3.3-2.9 5.2-3.9 3-1.7 6.2-2.9 9.3-4.2 3.1-1.3 6.3-2.4 9.3-3.8 2.3-1.1 4.6-2 6.5-3.5 4.2-3.4 7.9-7.4 11.7-11.2 15.9-16.4 24.7-33.3 26-56.2 0.4-7.2 0.1-15.4-1-22.6-0.5-3.8-1.4-7.6-2.1-11.4 0.9 2 1.9 3.9 2.7 5.9q1.2 2.9 2.1 5.9c0.9 2.9 1.5 6 2.5 8.9 1 2.7 3 5.1 3.6 7.9 0.8 3.5 0.8 7.2 0.5 10.7-1.6 15.4-3.4 14.7-8.8 26.8-1.4 3-2.3 6.2-3.1 9.3-1 3.7-0.9 7.7-2.3 11.2-2.9 7.2-9.3 12.1-13.6 17.9-5.2 7.1-9 15.2-14.9 21.7-5.2 5.6-11.7 9.8-18 14.2-1.8 1.2-3.9 2.1-5.6 3.4-2.3 1.9-3.8 4.4-6.3 6-4.2 2.7-16 4.6-24 6.3-3.1 0.7-6.3 1.5-9.3 2.7-1.9 0.8-3.4 2.4-5.3 3.2-4.6 2.1-9.1-0.2-16.7-1 4-0.7 7-1.8 10.9-2.9 2.4-0.7 4.9-1 7.3-1.9 4.1-1.4 8.1-3.3 12.2-4.8 2.9-1.2 5.3-1.8 8-3.6 3.3-2.1 7-5 10.4-7.3 4.8-3.3 9.6-6 14.2-9.1 2.7-1.8 5.2-3.9 7.7-5.9 3.4-2.8 6.6-5.8 10-8.6 2.4-2 5-3.9 7.5-6 3.1-2.6 16.5-18.1 15.7-21.9-0.1-0.2-0.4-0.6-0.6-0.4-1.3 1-2.1 2.4-3.2 3.5-3.4 3.4-6.7 6.8-10.3 10-4.1 3.7-8.4 7.4-12.8 10.8-4.8 3.7-9.7 7.3-14.9 10.6-6.7 4.3-13.6 8.3-20.6 12.4q-3.2 1.8-6.6 3.3c-6.9 3-13.9 5.7-20.9 8.5-4.8 1.9-9.7 3.8-14.6 5.5-3.1 1.1-6.3 2.2-9.5 3-4.4 1-8.8 1.6-13.1 2.5-1.2 0.3-2.4 0.7-3.6 0.9q-4.2 0.7-8.4 1c-2.8 0.3-5.5 0.6-8.3 0.5-1.9-0.2-3.8-0.6-5.7-1.3-2.1-0.7-4-1.9-6-2.9-2.1-1.1-4.1-2.4-6.2-3.3-1.8-0.9-3.8-1.7-5.8-2.1-4.4-0.8-8.9-0.9-13.3-1.6-2.4-0.5-5-0.8-7.1-2-2.2-1.3-4.9-2.7-5.6-5.2-1.2-4.2-0.6-10 0.6-13.2 3.6 1.6 7.4 0 11.1-0.3 5.1-0.4 10.2-0.3 15.2-0.8 2.7-0.4 5.5-0.7 7.9-1.8 3.2-1.6 5.7-4.2 8.7-6.1q1.6-1 3.4-1.7c3.4-1.4 7-2.3 10.4-3.7 1.2-0.6 2.5-1.2 3.4-2.2 0.9-1.1 0.9-2.7 1.7-3.9 1.1-1.5 2.3-2.8 3.6-3.9 1.5-1.3 3.5-1.9 5-3.2 0.7-0.7 1.2-1.7 1.3-2.7 0.1-1.1-0.1-2.2-0.7-3.1-0.7-1.1-1.7-2.1-2.9-2.5-1.6-0.5-3.4-0.7-5-0.3-4 0.8-7.7 2.6-11.5 3.9-5.2 1.9-10.2 4.4-15.5 5.8-7.2 1.8-14.7 2.4-22 4-3.5 0.8-6.9 1.9-10.2 3.1-6.1 2.2-4.8 4-11.6 2.7-2.5-0.5-4.9-1.1-7.4-1.9-2.8-0.9-13.3-6.6-16.2-8.9-0.4-0.2-0.7-0.7-0.7-1.2 0-2 0.2-4 0.4-6 0.3-1.6 0.5-3.2 1.1-4.8 1.2 2.3 2.6 4.3 4.4 6.1 0.8 0.8 3.1 1.9 4.1 0.8 1.1-1.2 1.6-2.8 2.7-3.9 0.5-0.6 1.2-0.9 1.9-1.1 0.9-0.2 2 0.3 2.9-0.1 2.8-1.3-1.7-3.2-2.5-3.4-1.7-0.6-3.5-0.6-5.2-1.2-1.2-0.4-2.1-1.5-3.4-1.8-2.7-0.7-7.1 0.1-9.7-1.7-1.9-1.3-3.2-3.2-4.6-5-0.8-0.9-1.8-1.8-1.8-3 0-3.5 1.3-6.8 2-10.2 1.2 1.4 2.3 3 3.7 4.3zm54.6-27.8c1 0.4 1.6 1.4 2.1 2.3 0.3 0.5 0.3 1.2 0 1.7-0.5 1.1-1.6 2-2.1 3.1-0.6 1.4-0.5 3-1.3 4.3-0.4 0.6-1.3 0.6-2 0.9-4.2 2.3-5.8 2.5-8.4 1.8-5.5-1.4-14-5-13.3-10.3 0.1-1.3 0.8-2.4 1.6-3.3 3.1-3.3 19.8-1.9 23.4-0.5z"/><path class="f" d="m45.7 190.5c-1.5 0.2-3.8-0.6-5.6-0.6-1.3 0-2.2 0.3-3 0.9q0.2-0.3 0.5-0.6c0.5-0.6 1.2-0.9 1.9-1.1 0.9-0.2 2 0.3 2.9-0.1 2.8-1.3-1.7-3.2-2.5-3.4-1.7-0.6-3.5-0.6-5.2-1.2-1.2-0.4-2.1-1.5-3.4-1.8-2-0.6-5-0.3-7.4-0.8-0.9-0.2-1.7-0.5-2.3-0.9-1.9-1.3-3.2-3.2-4.6-5-0.8-0.9-1.8-1.8-1.8-3 0-1.9 0.4-3.9 0.9-5.8-0.2 2.1-0.2 4.3 0.1 5.1 0.3 0.8 2.5 4.3 4.1 5.3q1 0.5 2 0.7 1.2 0.3 2.4 0.3c1.5 0 2.8-1.1 4.3-1 0.3 0 5.9 3.6 7.4 4.1 2.2 0.8 4.5 1.1 6.8 1.3 0.8 0 1.6-0.3 2.4-0.5 1.5-0.5 2.8-1.4 4.3-1.7 1.2-0.2 2.4 0.1 3.6 0.3 2.5 0.2 4.9 0.9 7.3 0.9 1.9 0 3.8-0.5 5.6-1 4.1-1.1 8-2.9 12.1-3.9 5-1.2 10.1-1.8 15.1-2.7 4.6-0.8 9.2-1.3 13.6-2.6 4.5-1.3 8.7-3.2 12.9-5.3 4.3-2.1 8.4-4.5 12.5-7 4.8-3 9.2-6.7 14.2-9.4 2.1-1.2 4.7-1 6.8-2.2 3.2-1.8 6.4-4 8.9-6.8 3.4-3.6 5.1-8.8 8.7-12.2 4.9-4.7 11.2-7.5 16.5-11.7 3.5-2.9 6.9-6.2 9.7-9.8 2.5-3.1 4.5-6.5 6-10.1 1.2-3 1.2-6.3 2.2-9.3 0.7-1.8 2.2-3.2 2.9-4.9 0.9-2.1 1.7-4.3 1.9-6.6 0.2-1.6-0.4-3.3-0.9-5-0.5-1.4-1.7-2.6-2.1-4.1-0.3-1.4-0.3-2.9 0.3-4.1 0.8-1.7 2.5-2.7 3.7-4.1 0.8-1 1.6-2.1 2.1-3.3 0.3-1 0.4-2 0.4-3.1 0-0.7-0.1-1.5-0.5-2.2-0.3-0.4-0.6-0.8-1-1.2 1.5 0.2 2.8 1.4 3.5 3.3 0.3 0.9 0.8 6.6 0.7 7.6-0.1 0.9-0.6 1.7-0.9 2.6-0.3 1.2-1 2.4-1 3.6 0 2.5 0.9 5 0.9 7.4 0 2.7-0.4 5.3-0.8 7.9-0.7 5.4-1.1 10.8-2.6 16-0.8 2.7-2.7 5-4.2 7.4-1.7 2.6-3.5 5.2-5.5 7.6-2.2 2.7-4.6 5.3-7 7.7-1.9 2-4.1 3.6-6.1 5.5-2 1.8-3.9 3.6-5.7 5.6-3.9 4.1-7.4 8.7-11.5 12.7-2.8 2.8-5.9 5.2-9 7.6-2.4 1.8-5.1 3.3-7.7 4.7-3.6 2-7.3 3.5-10.9 5.3-3.2 1.6-6.4 3-9.6 4.8-3.7 1.4-7.9 3.2-11.1 4.6-8.8 4-14.8 8.5-24.7 10.8-4.2 0.9-13.6 0.2-18.6 0.6-7.9 0.5-19.9 2.2-27.1 4.9-2.9 1-4.4 2.8-7.8 3z"/><path class="g" d="m67.3 148.8c1.4-0.6 0.8-3.3 1.4-4.1 1.2-1.5 4.5-1.6 5.9-2.5 0.7-0.4 1.3-1.7 1-2.4q-0.2-0.4-0.4-0.7 0.2 0.1 0.3 0.1c1 0.4 1.6 1.4 2.1 2.3 0.3 0.5 0.3 1.2 0 1.7-0.5 1.1-1.6 2-2.1 3.1-0.6 1.4-0.5 3-1.3 4.3-0.4 0.6-1.3 0.6-2 0.9-4.2 2.3-5.8 2.5-8.4 1.8-4.9-1.3-12.4-4.3-13.3-8.8 1.9 3.4 6.6 5.1 12.1 5.2 1.6 0.1 3.2-0.3 4.7-0.9z"/><path class="h" d="m115.4 138.8c2.2 0.2 4.3 1 6.5 1.2 0.7 0.1 1.6 0 2.2-0.4 0.5-0.3 0.8-0.9 0.9-1.4 0.5-2.2 2.2-1.9 4.4-2.1 3.7-0.5 10.4-1.6 14-0.3-1-0.3-2.4 0-3.3 0.1-2.3 0.5-4.6 1-6.9 1.6-1.5 0.3-3.1 0.3-4.4 1.1-1.3 0.6-1.8 2.3-3.1 2.9-1.5 0.7-3.4 0.2-4.9 0.7-1.3 0.5-2.2 1.8-3.5 2.2-3 0.8-6.2 1.1-9.3 1.3-7.1 0.4-8.3-0.8-13.9-1.6-2.4-0.3-4.9-0.1-7.3-0.3 2.2-0.2 3.6-0.5 6.1-0.9 0.6-0.1 1.3-0.3 1.9-0.1 1.8 0.4 3.3 1.2 5.1 1.7 2.2 0.5 9 0 11.5-0.9 0.4-0.1 0.9-0.4 0.9-0.8 0.1-0.8-0.8-1.5-0.6-2.3 0.3-1.4 2.5-1.8 3.7-1.7z"/><path class="i" d="m117 210.1c0.9-1.1 0.9-2.7 1.7-3.9 1.1-1.5 2.3-2.8 3.6-3.9 1.5-1.3 3.5-1.9 5-3.2 0.7-0.7 1.2-1.7 1.3-2.7 0.1-1.1-0.1-2.2-0.7-3.1-0.7-1.1-1.7-2.1-2.9-2.5-1.6-0.5-3.4-0.7-5-0.3-4 0.8-7.7 2.6-11.5 3.9-5.2 1.9-10.2 4.4-15.5 5.8-7.2 1.8-14.7 2.4-22 4-3.5 0.8-6.9 1.9-10.2 3.1-6.1 2.2-4.8 4-11.6 2.7-2.5-0.5-4.9-1.1-7.4-1.9-0.7-0.2-2-0.8-3.5-1.5-4.3-2.1-10.6-5.7-12.7-7.4-0.4-0.2-0.7-0.7-0.7-1.2 0-2 0.2-4 0.4-6q0.2-1 0.3-2c0.4 3.6 0.8 7 2.6 8.9 0.5 0.4 1.2 0.7 1.9 0.7 0.9-0.1 1.6-0.8 2.7-1.1 0.7-0.2 1.6-0.3 2.8 0.2 3.3 1.3 6.3 3.7 9.7 4.9 1.4 0.5 3.2 0.7 4.5-0.1 0.9-0.5 0-2.2 0.6-3 1.5-1.8 5.2-1.5 8.8-1.1 5.3 0.6 6.5 1 11.8-0.6 11.4-3.4 19.4-4.3 30.1-7 7-1.8 13.4-5.5 20.5-7.1 10.1-2.2 20.8-1.5 30.9-4 13.8-3.4 37.9-18.7 49.4-26.9 7.7-5.6 29.7-25.8 35-33.2 2.8-3.9 3-9.2 5-13.6 2.3-4.8 6.2-8.8 7.9-13.8 2.2-6.6 2.9-18.1 2.1-25.3-0.2-2-0.4-3.7-0.8-5.4-1.1-4.6-2.7-8.2-4.8-12.2 1.6 1.5 3.1 2.9 4.5 4.2 1 1 2.6 7.5 4.1 11 1.2 2.7 2.2 5.5 3 8.3q0.3 1.1 0.4 2.2 0.2 1.1 0.2 2.2c0 0.2-0.3 0.9-0.8 0.1-0.4-0.9-1-1.9-1.4-2.9-0.6-1.1-1.1-2.2-1.7-3.3-0.1-0.2-0.2-0.4-0.4-0.4-0.2 0-0.3 0.2-0.3 0.3 0.1 0.7 0.4 1.3 0.5 2 1 4.2 1.6 8.3 2.5 12.5q0.2 1.1 0.6 2.1c0.1 0.4 0.9 0.3 1.4 0.2 0.3-0.1 0.6-0.3 0.8-0.5 0.3-0.2 0.4-0.7 0.7-0.6 0.4 0.1 0.7 0.6 0.9 1 0.7 1.3 1.3 2.6 1.6 4 0.5 2.3 0.7 4.6 1 6.9 0.5 4.6 0.8 9.2 1.6 13.7 0 0.4 0.2 0.9 0.6 1.1 0.5 0.1 0.9-0.3 1.2-0.2 0.6 0.3 0.7 1.1 0.7 1.7 0.1 3.3-0.9 11.5-1.8 14.5-0.9 2.9-2.1 7.8-5.6 8.2-2.3 0.2-2.4-1.1-3.4-1.4-0.5-0.2-1.1-0.1-1.6 0.2-1.1 0.7-2.2 1.6-3.1 2.6-3.1 3.6-6 7.3-8.8 11.1-3.5 4.8-7.2 9.5-10.2 14.6-2.1 3.4-2.8 7.4-4.9 10.7-1.3 2.1-3 4.1-5.2 5.3-3 1.8-6.7 2-10 3.4-2.4 1.2-4.9 2.5-7 4.2-2.3 1.8-4.3 4-6.1 6.2-2.9 3.6-5.1 7.8-8 11.4-1.5 2-3.2 3.8-5.3 5.3-2.6 2-5.9 3-8.6 4.9-3.4 2.5-6.3 5.6-9.8 8-3.8 2.6-7.4 4.7-11.9 6.9-0.4 0.2-0.8 0.9-0.6 1.2 0.4 0.5 1.2 0.5 1.7 0.5 6.5-0.9 11.3-3.4 14.6-4.7 5.3-2 10.5-4.1 15.6-6.5q3.9-1.8 7.4-4.1c2-1.3 3.8-2.9 5.7-4.4 1.7-1.3 3.3-2.9 5.2-3.9 3-1.7 6.2-2.9 9.3-4.2 3.1-1.3 6.3-2.4 9.3-3.8 2.3-1.1 4.6-2 6.5-3.5 4.2-3.4 7.9-7.4 11.7-11.2 15.9-16.4 24.7-33.3 26-56.2 0.4-7.2 0.1-15.4-1-22.6-0.5-3.8-1.4-7.6-2.1-11.4 0.9 2 1.9 3.9 2.7 5.9q1.2 2.9 2.1 5.9c0.9 2.9 1.5 6 2.5 8.9 1 2.7 3 5.1 3.6 7.9 0.8 3.5 0.8 7.2 0.5 10.7-1.6 15.4-3.4 14.7-8.8 26.8-1.4 3-2.3 6.2-3.1 9.3-1 3.7-0.9 7.7-2.3 11.2-2.9 7.2-9.3 12.1-13.6 17.9-5.2 7.1-9 15.2-14.9 21.7-5.2 5.6-11.7 9.8-18 14.2-1.8 1.2-3.9 2.1-5.6 3.4-2.3 1.9-3.8 4.4-6.3 6-4.2 2.7-16 4.6-24 6.3-3.1 0.7-6.3 1.5-9.3 2.7-1.9 0.8-3.4 2.4-5.3 3.2-4.6 2.1-9.1-0.2-16.7-1 4-0.7 7-1.8 10.9-2.9 2.4-0.7 4.9-1 7.3-1.9 4.1-1.4 8.1-3.3 12.2-4.8 2.9-1.2 5.3-1.8 8-3.6 3.3-2.1 7-5 10.4-7.3 4.8-3.3 9.6-6 14.2-9.1 2.7-1.8 5.2-3.9 7.7-5.9 3.4-2.8 6.6-5.8 10-8.6 2.4-2 5-3.9 7.5-6 3.1-2.6 16.5-18.1 15.7-21.9-0.1-0.2-0.4-0.6-0.6-0.4-1.3 1-2.1 2.4-3.2 3.5-3.4 3.4-6.7 6.8-10.3 10-4.1 3.7-8.4 7.4-12.8 10.8-4.8 3.7-9.7 7.3-14.9 10.6-6.7 4.3-13.6 8.3-20.6 12.4q-3.2 1.8-6.6 3.3c-6.9 3-13.9 5.7-20.9 8.5-4.8 1.9-9.7 3.8-14.6 5.5-3.1 1.1-6.3 2.2-9.5 3-4.4 1-8.8 1.6-13.1 2.5-1.2 0.3-2.4 0.7-3.6 0.9q-0.5 0.1-0.9 0.2-3.8 0.5-7.5 0.8c-2.8 0.3-5.5 0.6-8.3 0.5-1.9-0.2-3.8-0.6-5.7-1.3-2.1-0.7-4-1.9-6-2.9-2.1-1.1-4.1-2.4-6.2-3.3-1.8-0.9-3.8-1.7-5.8-2.1-4.4-0.8-8.9-0.9-13.3-1.6-2.4-0.5-5-0.8-7.1-2-2.2-1.3-4.9-2.7-5.6-5.2-1.2-4.2-0.6-10 0.6-13.2 3.6 1.6 7.4 0 11.1-0.3 5.1-0.4 10.2-0.3 15.2-0.8 2.7-0.4 5.5-0.7 7.9-1.8 3.2-1.6 5.7-4.2 8.7-6.1q1.6-1 3.4-1.7c3.4-1.4 7-2.3 10.4-3.7 1.2-0.6 2.5-1.2 3.4-2.2z"/><path class="j" d="m116.6 187.1c6.2-1.7 9.9-0.6 15.8-0.7 1.3-0.1 13.8-0.2 7.4 2.9-8.1 3.8-8 7-11.6 9.6-0.8 0.5-1.7 0.9-2.6 1.4 0.6-0.4 1.2-0.7 1.7-1.2 0.7-0.7 1.2-1.7 1.3-2.7 0.1-1.1-0.1-2.2-0.7-3.1-0.7-1.1-1.7-2.1-2.9-2.5-1.6-0.5-3.4-0.7-5-0.3-4 0.8-7.7 2.6-11.5 3.9-5.2 1.9-10.2 4.4-15.5 5.8-7.2 1.8-14.7 2.4-22 4-3.5 0.8-6.9 1.9-10.2 3.1-6.1 2.2-4.8 4-11.6 2.7-2.5-0.5-4.9-1.1-7.4-1.9-0.7-0.2-2-0.8-3.5-1.5-4.3-2.1-10.6-5.7-12.7-7.4-0.4-0.2-0.7-0.7-0.7-1.2 0-2 0.2-4 0.4-6q0.2-1 0.3-2c0.4 3.6 0.8 7 2.6 8.9 0.5 0.4 1.2 0.7 1.9 0.7 0.9-0.1 1.6-0.8 2.7-1.1 0.7-0.2 1.6-0.3 2.8 0.2 3.3 1.3 6.3 3.7 9.7 4.9 1.4 0.5 3.2 0.7 4.5-0.1 0.9-0.5 0-2.2 0.6-3 1.5-1.8 5.2-1.5 8.8-1.1 4.2 0.5 5.8 0.8 8.9 0.2 6.3-1.4 13.2 0 19.2-1.7 10-2.7 21.1-8.5 29.3-10.8z"/><path class="k" d="m221 147.1c3.7-3.6 9.1-5.1 12.6-8.9 4.5-4.9 7.5-11 11-16.7 2.6-4.2 6-8.2 7.4-13.1 1.8-6.2 1.9-12.9 2-19.4 0.1-5.1-0.5-10.1-0.9-15.2-0.1-1.1-0.5-4.4-0.3-5.3 0.1-0.2 0.6-0.3 0.6-0.5q0.1-0.6 0.1-1.4c0-3.4-2.1-11.5-3.2-12.5q0.2 0.2 0.5 0.4c1 1 2.6 7.5 4.1 11 1.2 2.7 2.2 5.5 3 8.3q0.3 1.1 0.4 2.2 0.2 1.1 0.2 2.2c0 0.2-0.3 0.9-0.8 0.1-0.4-0.9-1-1.9-1.4-2.9-0.6-1.1-1.1-2.2-1.7-3.3-0.1-0.2-0.2-0.4-0.4-0.4-0.2 0-0.3 0.2-0.3 0.3 0.1 0.7 0.4 1.3 0.5 2 1 4.2 1.6 8.3 2.5 12.5q0.2 1.1 0.6 2.1c0.1 0.4 0.9 0.3 1.4 0.2q0.2 0 0.3-0.1c-0.6 1-0.6 3.7-0.6 6.3-0.1 5.3 0.4 10.7-0.3 15.9-0.7 4.7-1.8 9.5-3.8 13.7-1.3 2.8-3.8 4.8-6 7-4.5 4.4-9.6 8.2-14 12.6-2.7 2.6-5.3 5.3-7.3 8.5-2.3 3.5-2.8 8-5.5 11.3-2.8 3.3-6.6 5.7-10.4 7.8-7.3 4.2-21.2 7.4-29.5 9.1-9.7 2-19.5 5.4-29.7 6.2-3.6 0.3-7.3 0.1-7.1-0.4 0.3-1 5-2 6-2.2 10.1-2.7 22.4-5.8 32.1-9.1 25-8.5 23.2-14.4 37.9-28.3z"/><path class="l" d="m111.9 239.7c13.8-1.5 28.1-4 41.1-8.6 11.1-3.8 16.7-14.1 19.6-16.1 1.3-0.9 5.5-1.5 8.2-2.4 6.3-1.8 8.5-2.9 11.2-5.3-1.5 1.8-3.1 3.5-5 4.9-2.6 2-5.9 3-8.6 4.9-3.4 2.5-6.3 5.6-9.8 8-3.8 2.6-7.4 4.7-11.9 6.9-0.4 0.2-0.8 0.9-0.6 1.2 0.4 0.5 1.2 0.5 1.7 0.5 6.5-0.9 11.3-3.4 14.6-4.7q0.6-0.2 1.2-0.4c-4.4 1.9-8.7 3.9-13.3 5.4-9.6 3.1-25.1 6.1-35.6 8.8-5.1 1.3-10.3 2.1-15.4 3.6-4.2 1.2-6.6 4.1-6.2 6.2 0.3 1.4 1.7 2.5 4.5 2.7 2.5 0.2 4.6 0.3 6.4 0.2 8.4-0.2 11.5-3 21.2-5.8 5.6-1.6 12.3-1.6 17.8-3.6 2.8-0.9 5.3-2.7 8-3.8 5.2-1.9 10.7-3.1 15.9-5.1 2.8-1.1 5.4-2.7 8.1-4.1 4.2-2 8.4-4 12.6-6.2 3.2-1.6 6.6-3 9.6-5.1 2.8-2 5.1-4.7 7.8-6.9 4-3.2 8.3-6.1 12.4-9 3.1-2.3 6.5-4.3 9.4-6.7 3.7-3.1 7.1-6.4 10.5-9.8 2.2-2.2 4.4-4.4 6.3-6.8 4.2-5.1 6.7-9.3 9.9-14.8 0.3-0.5 1.2-2.1 1.9-3.3 0.5-0.8 1-1.4 1-1.3 0.3 0.5-0.9 4.5-1.3 5.5-1.5 4-3.2 7.8-5.2 11.6q-1.2 2.3-2.5 4.5c-7.2 12.2-11.4 17.5-20.7 24.1q0.5-0.3 1-0.8c3.1-2.6 16.5-18.1 15.7-21.9-0.1-0.2-0.4-0.6-0.6-0.4-1.3 1-2.1 2.4-3.2 3.5-3.4 3.4-6.7 6.8-10.3 10-4.1 3.7-8.4 7.4-12.8 10.8-4.8 3.7-9.7 7.3-14.9 10.6-6.7 4.3-13.6 8.3-20.6 12.4q-3.2 1.8-6.6 3.3c-6.9 3-13.9 5.7-20.9 8.5-4.8 1.9-9.7 3.8-14.6 5.5-3.1 1.1-6.3 2.2-9.5 3-4.4 1-8.8 1.6-13.1 2.5-1.2 0.3-2.4 0.7-3.6 0.9q-0.5 0.1-0.9 0.2-3.8 0.5-7.5 0.8c-2.8 0.3-5.5 0.6-8.3 0.5-1.9-0.2-3.8-0.6-5.7-1.3-2.1-0.7-4-1.9-6-2.9-2.1-1.1-4.1-2.4-6.2-3.3-1.8-0.9-3.8-1.7-5.8-2.1-4.4-0.8-8.9-0.9-13.3-1.6-2.4-0.5-5-0.8-7.1-2-2.2-1.3-4.9-2.7-5.6-5.2-1.2-4.2-0.6-10 0.6-13.2q0.5 0.2 1 0.3 0 0.3-0.1 0.5c-0.6 6.9 1.5 11.7 9.9 14.8 7.3 2.8 11 2.5 14.2 1.5 2.4-0.7 4.6-1.9 8.1-2.4 7.3-1.1 14.6-0.9 21.9-1.7z"/><path class="m" d="m103.2 216c3.4-1.4 7-2.3 10.4-3.7 1.2-0.6 2.5-1.2 3.4-2.2 0.9-1.1 0.9-2.7 1.7-3.9 2.4-3.4 6.9-3.5 10.1-4.9 1.6-0.6 2.6-2.1 3.9-3.2 4.9-4 6.6-6.1 13.1-7.9 7.5-1.9 30.2-2.7 18.4-0.1-4.2 0.9-7.8 2.1-11.6 3.6-6.3 2.4-15.2 7.2-20.7 11.1-0.7 0.5-1.7 1.5-1.3 2.2 0.4 1 2.3 0.2 2.8 1 0.6 0.8 0.2 2-0.3 2.9-4.2 7-21.4 6.2-28 8.9-4.8 2 2.5 2.1-1.2 4.5-2.4 1.6-5.2 3-8.1 3.4-4.1 0.5-19.1-0.5-28.7-0.2-4 0.1-5.8 0.5-7.9-0.2 2.9 0.4 5.9-0.6 8.8-0.9 5.1-0.4 10.2-0.3 15.2-0.8 2.7-0.4 5.5-0.7 7.9-1.8 3.2-1.6 5.7-4.2 8.7-6.1q1.6-1 3.4-1.7z"/><path class="n" d="m176.8 228.7c3.4-1.6 6.8-3.1 10.1-4.9 3.8-2 7.4-4.4 11.2-6.5 0.5-0.2 1-0.6 1.5-0.4 0.3 0.2 0.4 0.8 0.2 1.2-2.9 4.5-15.7 13.8-21 15.8-3.3 1.3-6.9 1.2-10.4 2.1-2.8 0.6-5.7 1.2-8.3 2.5-3.1 1.4-5.6 3.9-8.6 5.6-1.2 0.6-2.6 1-3.9 1-4.1 0.2-8.2-0.1-12.3-0.4-1.9-0.2-3.9-0.2-5.7-1-0.4-0.2 0.1-1.1 0.6-1.3 3.2-1.2 6.6-1.7 9.9-2.5 4.6-1.1 9.3-2 13.9-3.2 4.1-1.1 8.1-2.1 12.1-3.5 3.6-1.3 7.2-2.9 10.7-4.5z"/><path class="o" d="m84 12.1c1.2-0.4 2.1-1.4 3.3-2 7.9-4 21.3-5.2 31.9-2.1 2.9 0.8 6.1 0.4 9 1.3 2.6 0.7 4.7 2.5 7.2 3.4 2.4 0.9 5.1 0.8 7.4 2.1 1.5 0.8 1.7 3.2 3.3 4 2.7 1.3 6 0.7 8.7 1.8 6.8 2.8 16.1 10.5 17 18.2 0.4 2.6 0.2 5.3-0.8 7.7-1.2 2.8-6 1.4-7.4 2.1-0.8 0.4-0.9 1.5-1.1 2.4-0.4 3.6 0.3 7.3-0.4 10.8-1.2 6.3-8.1 8.7-13.7 10.2-7.6 1.9-16.3-1.1-14.8-10.4 0.4-2.6 2.9-4.5 3.8-7 0.7-2-0.1-4.6 1.1-6.4 2.7-4 10.2-5.9 11.2-7.3 1.1-1.6 1-3.8 0.9-5.8 0-1.7-0.3-3.6-1.2-5.1-0.4-0.7-1.6-0.9-2.2-0.5-2.4 1.6-3.3 5.9-8.5 8.1-4.9 2-14.3 2-18.6 7.5-0.5 0.6-0.9 1.5-0.6 2.3 0.5 1.7 2.4 3 2.8 4.8 0.2 1.2-0.5 2.5-1.2 3.4-1.5 1.9-3.1 3.7-5.3 4.7-4.9 2.3-10.4 3.2-15.6 5-2.5 0.9-5 2-7.5 3-12 4.8-23.2 3.6-24.7 5.1-1.5 1.6-1.1 4.5-2.5 6.3-4.8 6.2-9.9 8.5-16.6 3.9-2.5-1.6-4-4.7-6.7-6-1.9-0.9-4.2-0.1-6.2-0.3-3.5-0.3-7.5-1.8-10.7 1-1.8 1.5-3 5.3-4 5.9-0.7 0.4 0.6-5.1 1.7-7.4 1.8-3.6-3.2-6.6 9.3-17.2 1.9-1.6 5.7-6.2 7.7-10.6 0.9-1.9 2.2-4.1 3.6-5.6 1.7-1.8 3.4-2.8 5.3-4.3 3-2.3 6.9-7.3 10.7-10.5 1.5-1.3 3.5-2 5-3.3 3.5-3.1 6.2-6.3 8.9-8.8 3.5-3.2 6.7-2.9 10.5-4.4z"/><path class="p" d="m128.1 37.1c3.3-0.6 6.6-1.2 9.8-2.1 4.9-1.4 6.4-5.6 9.8-8.9 1.7-1.8 4-0.6 4.8 0.4 1.6 2 2 7.2 1.9 9.8-0.1 7.3-6.3 4.7-15.1 10.9 3.2-3.3 9.5-5 10.4-6.3 1.1-1.6 1-3.8 0.9-5.8 0-1.7-0.3-3.6-1.2-5.1-0.4-0.7-1.6-0.9-2.2-0.5-2.4 1.6-3.3 5.9-8.5 8.1-4.9 2-14.3 2-18.6 7.5-0.5 0.6-0.9 1.5-0.6 2.3 0.5 1.7 2.4 3 2.8 4.8 0.2 1.2-0.5 2.5-1.2 3.4-1.5 1.9-3.1 3.7-5.3 4.7-4.9 2.3-10.4 3.2-15.6 5-2.5 0.9-5 2-7.5 3-12 4.8-23.2 3.6-24.7 5.1-1.5 1.6-1.1 4.5-2.5 6.3-3.1 4-6.3 6.4-10 6.3 3.1-0.8 8.1-4 8-7.6-0.1-1.7-2.6-1.7-5-4-3.4-3.3-1.8-6.9 2.3-7.5 9.1-1.4 25.2 1.9 37.3-3.5 1.9-0.9 3.3-2.5 5.2-3.3 3.3-1.3 7-1.5 10.3-2.9 3.9-1.7 0.6-3-2-3.3-5.5-0.8-12.5-1.5-1.3-11.5 5.5-4.9 11.2-4.1 17.8-5.3z"/><path class="q" d="m141.7 14.6q-0.9-0.5-1.9-0.9c1 0.3 2 0.5 3 1.1 1.5 0.8 1.7 3.2 3.3 4 2.7 1.3 6 0.7 8.7 1.8 6.8 2.8 16.1 10.5 17 18.2 0.4 2.6 0.2 5.3-0.8 7.7-1.2 2.8-6 1.4-7.4 2.1-0.8 0.4-0.9 1.5-1.1 2.4-0.4 3.6 0.3 7.3-0.4 10.8-1.2 6.3-8.1 8.7-13.7 10.2-1.8 0.4-3.7 0.6-5.5 0.5 7.5-0.8 15.6-4 15.7-14.4 0.1-4.9-1.6-9.8-0.6-14.5 0.5-1.9 2.7-1.6 4.9-1 3.1 1 5.9 1.7 6.4-1.4 1.2-8.6-5.4-14-11.9-18.2-4.7-3.1-8.6-1-12.8-2-2-0.5-1.7-3.8-2.1-5.1-0.2-0.5-0.4-1-0.8-1.3z"/><g style="opacity:.5"><path class="r" d="m1.1 119.2c11.4 0.7 25.7 1.7 41.1 2.7-1.9 28.7-3.7 55.3-5.1 76.7-11.3-0.8-21-10-27.6-24.4-6.5-14.4-9.8-33.9-8.4-55zm15.6-53.5c8.4-13.4 19.2-21.3 30.6-20.5-1.4 21.4-3.2 48-5.1 76.7-15.4-1-29.7-2-41.1-2.7 1.4-21.2 7.3-40.1 15.6-53.5zm25.5 56.2c15.4 1 29.7 2 41.1 2.7-1.4 21.2-7.3 40.1-15.6 53.4-8.4 13.4-19.2 21.3-30.6 20.6 1.4-21.4 3.2-48 5.1-76.7zm5.1-76.7c11.3 0.7 21.1 10 27.6 24.4 6.5 14.4 9.8 33.8 8.4 55-11.4-0.7-25.7-1.7-41.1-2.7 1.9-28.7 3.7-55.3 5.1-76.7z"/><path class="s" d="m20 120.4c6.2 0.4 13.9 0.9 22.2 1.5-1 15.4-2 29.8-2.7 41.4-6.2-0.5-11.4-5.5-14.9-13.2-3.5-7.8-5.3-18.3-4.6-29.7zm8.5-28.8c4.5-7.2 10.3-11.5 16.4-11.1-0.7 11.5-1.7 25.9-2.7 41.4-8.3-0.6-16-1.1-22.2-1.5 0.8-11.4 4-21.6 8.5-28.8zm13.7 30.3c8.3 0.5 16 1 22.2 1.5-0.8 11.4-3.9 21.6-8.5 28.8-4.5 7.2-10.3 11.5-16.4 11.1 0.7-11.6 1.7-26 2.7-41.4zm2.7-41.4c6.2 0.4 11.4 5.4 14.9 13.2 3.5 7.7 5.3 18.2 4.6 29.7-6.2-0.5-13.9-1-22.2-1.5 1-15.5 2-29.9 2.7-41.4z"/></g></svg>